<?xml version="1.0" encoding="UTF-8"?>
<svg id="Capa_2" data-name="Capa 2" xmlns="http://www.w3.org/2000/svg" viewBox="0 0 88.9 150.6">
  <defs>
    <style>
      .cls-1 {
        fill: #eaa804;
      }
    </style>
  </defs>
  <g id="Capa_1-2" data-name="Capa 1">
    <g>
      <path class="cls-1" d="m50.34,0c4.36.59,8.71,1.24,12.92,2.59,8.12,2.59,15.44,6.46,20.85,13.28,3.21,4.05,4.76,8.69,4.76,13.88-.02,32.8-.04,65.6.03,98.4.01,4.55-1.68,7.99-5.22,10.74-6.31,4.92-13.49,7.91-21.22,9.61-15.52,3.42-30.81,2.81-45.71-3.07-5-1.97-9.53-4.78-13.46-8.49-2.33-2.2-3.22-4.94-3.22-8.06,0-14.34,0-28.69,0-43.03,0-18.21.16-36.43-.07-54.64-.11-8.88,3.57-15.56,10.31-20.83C17.6,4.7,26.07,1.83,35.12.5,36.28.34,37.44.17,38.59,0c3.92,0,7.83,0,11.75,0Zm-5.68,52.75c5.55-.15,11.23-.75,16.75-2.42,6.46-1.95,12.41-4.82,17.15-9.78,6.97-7.28,6.93-16.45-.06-23.71-3.1-3.23-6.79-5.63-10.88-7.35-13.63-5.73-27.55-6.1-41.61-1.82-6.22,1.89-11.81,4.96-16.23,9.88-5.76,6.42-6.16,14.6-.97,21.32,2.11,2.73,4.74,4.93,7.7,6.72,8.61,5.18,18.09,6.93,28.15,7.15Zm27.9,42.75c0-9.98,0-19.96,0-29.93,0-1.66-.01-1.67-1.42-.96-2.19,1.1-4.45,2.06-6.82,2.65-1.46.37-1.88,1.03-1.88,2.52.05,19.42.03,38.83.03,58.25,0,.24.02.49,0,.73-.08,1.06.3,1.4,1.39,1.09,2.44-.71,4.84-1.54,7.23-2.42,1.15-.43,1.51-1.08,1.5-2.29-.05-9.88-.03-19.76-.03-29.64Zm-55.12.26c0,9.84.02,19.68-.03,29.52,0,1.34.43,2.04,1.69,2.5,2.25.82,4.52,1.59,6.81,2.29,1.12.34,1.46.05,1.46-1.12-.02-19.87-.02-39.75,0-59.62,0-.96-.34-1.4-1.24-1.65-2.41-.67-4.73-1.57-7.03-2.56-1.65-.7-1.66-.69-1.66,1.13,0,9.84,0,19.68,0,29.52Zm15.02,4.4c0,9.84.03,19.68-.03,29.51,0,1.38.44,1.94,1.76,2.05,2.09.17,4.18.45,6.27.63,1.8.15,1.9.03,1.91-1.81,0-7.73,0-15.47,0-23.2,0-11.75-.02-23.49.03-35.24,0-1.35-.34-1.89-1.77-1.96-2.14-.1-4.27-.46-6.4-.76-1.75-.25-1.76-.28-1.76,1.55,0,9.74,0,19.48,0,29.22Zm24.93,0c0-7.49,0-14.97,0-22.46,0-2.35-.03-4.7.01-7.05.02-1.09-.17-1.59-1.5-1.35-2.01.37-4.07.54-6.11.68-2.24.15-2.32.17-2.32,2.36,0,19.33,0,38.66,0,57.98,0,.29.02.59,0,.88-.06.91.3,1.18,1.23,1.05,2.18-.3,4.37-.51,6.55-.73,2.05-.21,2.13-.27,2.13-2.29,0-9.69,0-19.38,0-29.06Zm26.37,28.89c0-.8.02-1.24,0-1.68-.02-.43.2-1.01-.19-1.24-.51-.3-.86.31-1.22.58-3.86,2.83-8.11,4.92-12.6,6.52-8.9,3.16-18.04,4.59-27.51,4.12-6.48-.32-12.85-1.14-19.08-2.91-6.07-1.72-11.79-4.2-16.89-7.98-.29-.21-.95-.97-1.02.01-.19,2.87-.43,5.75,2.31,7.89,3.07,2.4,6.32,4.46,9.91,5.94,13.76,5.69,27.98,6.49,42.46,3.65,7.67-1.5,14.83-4.26,21.02-9.24,1.98-1.59,3.26-3.37,2.82-5.66ZM5.19,42.08c0,2.7,0,4.99,0,7.29,0,.66.39,1.08.8,1.5,2.05,2.12,4.34,3.98,6.86,5.48,15.92,9.46,32.79,11.16,50.42,5.92,7.26-2.16,13.85-5.65,19.31-11.02.41-.41,1.05-.77,1.07-1.35.07-2.49.03-4.99.03-7.72-10.84,11.35-24.39,15.29-39.17,15.29-14.82,0-28.45-3.84-39.33-15.39Zm-.01,15.02v2.1c0,18.06,0,36.13,0,54.19,0,6.33.02,6.38,5.28,9.96.16.11.32.23.49.32.38.2.73.68,1.16.46.47-.23.23-.8.23-1.21.01-6.8.01-13.61,0-20.41,0-13.02,0-26.04,0-39.07,0-.72.15-1.47-.67-1.95-2.16-1.24-4.22-2.65-6.51-4.4Zm72.3,35.51c0,4.5,0,9,0,13.51,0,5.43,0,10.86,0,16.3,0,.41-.23.99.24,1.21.44.21.79-.27,1.14-.5,1.39-.92,2.62-2.04,3.86-3.15,1-.89,1.34-1.88,1.34-3.21-.04-19.28-.03-38.56-.03-57.84,0-.29,0-.59,0-.88,0-.81-.32-.8-.88-.4-1.43,1.02-2.83,2.12-4.34,3-1.04.6-1.36,1.31-1.36,2.47.04,9.84.02,19.67.02,29.51Z"/>
      <path class="cls-1" d="m44.08,44.57c-6.89-.29-11.94-1.46-16.64-3.99-1.74-.94-3.29-2.11-4.67-3.53-5.04-5.18-4.77-12.18.66-16.97,3.94-3.48,8.66-5.28,13.75-6.18,7.8-1.39,15.41-.75,22.69,2.51,2.75,1.23,5.21,2.91,7.14,5.27,3.85,4.7,3.69,10.45-.43,14.93-3.86,4.19-8.88,6.11-14.3,7.22-3.22.66-6.49.84-8.2.74Zm.8-4.73c1.58-.17,3.73-.33,5.85-.64,1.69-.25,3.35-.71,4.94-1.34,3.12-1.25,6.12-2.7,8-5.66,1.46-2.29,1.42-4.63-.12-6.87-1.21-1.77-2.84-3.1-4.76-4.04-8.04-3.92-16.35-4.2-24.81-1.63-2.98.91-5.71,2.31-7.84,4.68-2.59,2.88-2.61,6.23-.03,9.1,1.26,1.4,2.77,2.46,4.44,3.31,4.33,2.2,9,2.86,14.32,3.09Z"/>
    </g>
  </g>
</svg>