<?xml version="1.0" encoding="UTF-8"?>
<svg id="Capa_2" data-name="Capa 2" xmlns="http://www.w3.org/2000/svg" viewBox="0 0 204.73 48.92">
  <defs>
    <style>
      .cls-1 {
        fill: #eaa804;
      }
    </style>
  </defs>
  <g id="Capa_1-2" data-name="Capa 1">
    <g>
      <path class="cls-1" d="m180.92,0H23.82C10.62.35,0,11.16,0,24.44s10.97,24.48,24.48,24.48h155.78c13.51,0,24.48-10.97,24.48-24.48S194.12.35,180.92,0Zm-.73,40.98H24.44c-9.1,0-16.51-7.4-16.51-16.51S15.34,7.97,24.44,7.97h155.75c9.1,0,16.51,7.4,16.51,16.51s-7.4,16.51-16.51,16.51Z"/>
      <path class="cls-1" d="m15.69,24.46c0,6.17,5,11.17,11.17,11.17s11.17-5,11.17-11.17-5-11.17-11.17-11.17h0c-6.17,0-11.17,5-11.17,11.17Zm14.37,0c0,1.77-1.43,3.2-3.2,3.2s-3.2-1.43-3.2-3.2,1.43-3.2,3.2-3.2h0c1.77,0,3.2,1.43,3.2,3.2Z"/>
      <path class="cls-1" d="m64.54,35.67c6.17,0,11.17-5,11.17-11.17s-5-11.17-11.17-11.17-11.17,5-11.17,11.17h0c0,6.17,5,11.17,11.17,11.17Zm0-14.37c1.77,0,3.2,1.43,3.2,3.2s-1.43,3.2-3.2,3.2-3.2-1.43-3.2-3.2h0c0-1.77,1.43-3.2,3.2-3.2Z"/>
      <path class="cls-1" d="m102.19,35.67c6.17,0,11.17-5,11.17-11.17s-5-11.17-11.17-11.17-11.17,5-11.17,11.17h0c0,6.17,5,11.17,11.17,11.17Zm0-14.37c1.77,0,3.2,1.43,3.2,3.2s-1.43,3.2-3.2,3.2-3.2-1.43-3.2-3.2h0c0-1.77,1.43-3.2,3.2-3.2Z"/>
      <path class="cls-1" d="m177.87,35.67c6.17,0,11.17-5,11.17-11.17s-5-11.17-11.17-11.17-11.17,5-11.17,11.17h0c0,6.17,5,11.17,11.17,11.17Zm0-14.37c1.77,0,3.2,1.43,3.2,3.2s-1.43,3.2-3.2,3.2-3.2-1.43-3.2-3.2h0c0-1.77,1.43-3.2,3.2-3.2Z"/>
      <path class="cls-1" d="m140.21,35.67c6.17,0,11.17-5,11.17-11.17s-5-11.17-11.17-11.17-11.17,5-11.17,11.17h0c0,6.17,5,11.17,11.17,11.17Zm0-14.37c1.77,0,3.2,1.43,3.2,3.2s-1.43,3.2-3.2,3.2-3.2-1.43-3.2-3.2h0c0-1.77,1.43-3.2,3.2-3.2Z"/>
    </g>
  </g>
</svg>