<?xml version="1.0" encoding="UTF-8"?>
<svg id="Capa_2" data-name="Capa 2" xmlns="http://www.w3.org/2000/svg" viewBox="0 0 139.51 141.9">
  <defs>
    <style>
      .cls-1 {
        fill: #eaa804;
      }
    </style>
  </defs>
  <g id="Capa_1-2" data-name="Capa 1">
    <g>
      <path class="cls-1" d="m6.05,36.36c.34-1.92.69-4.39,1.23-6.82.27-1.19-.04-2.01-.86-2.83-1.52-1.53-2.97-3.13-4.48-4.67-1.59-1.62-2.14-3.51-1.4-5.67.73-2.15,2.43-3.09,4.58-3.39,1.95-.27,3.88-.6,5.82-.89.98-.15,1.65-.63,2.07-1.56.84-1.88,1.73-3.74,2.62-5.6,1.01-2.1,2.53-3.49,5-3.45,2.41.03,3.88,1.38,4.84,3.46.8,1.74,1.66,3.46,2.42,5.22.44,1.02,1.09,1.57,2.23,1.73,2.04.29,4.05.73,6.08,1.12,4.56.89,6.18,5.46,3.13,8.96-1.45,1.66-3.02,3.21-4.59,4.77-.8.79-1.02,1.66-.8,2.74.43,2.16.82,4.33,1.19,6.5.36,2.08-.35,3.8-1.99,5.08-1.68,1.31-3.53,1.39-5.4.41-1.74-.92-3.48-1.83-5.16-2.86-1.34-.82-2.52-.87-3.88-.03-1.71,1.06-3.49,2.02-5.29,2.91-3.54,1.74-7.36-.67-7.38-5.14Zm31.12-17.82c-.04-1.35-.72-1.76-1.66-1.93-2.02-.37-4.03-.87-6.07-1.11-2.36-.29-3.83-1.56-4.77-3.64-.81-1.79-1.65-3.57-2.47-5.35-.33-.72-.72-1.4-1.65-1.38-.85.02-1.24.65-1.56,1.31-.89,1.86-1.82,3.7-2.62,5.6-.96,2.27-2.69,3.38-5.06,3.7-1.9.25-3.78.59-5.68.87-.7.1-1.34.3-1.62,1.01-.32.79.11,1.37.64,1.91,1.56,1.62,3.11,3.26,4.67,4.89,1.5,1.56,2.11,3.34,1.6,5.52-.46,2-.73,4.05-1.12,6.07-.15.8-.2,1.55.53,2.08.75.54,1.45.17,2.14-.22,1.8-1,3.6-2.01,5.43-2.96,1.82-.95,3.68-.99,5.5,0,1.73.93,3.44,1.91,5.16,2.85.71.39,1.45.93,2.27.39.9-.58.66-1.54.53-2.37-.3-1.94-.69-3.86-1.03-5.8-.39-2.17.04-4.06,1.69-5.65,1.52-1.46,2.92-3.04,4.37-4.57.4-.42.8-.84.77-1.22Z"/>
      <path class="cls-1" d="m118.85,52.13c2.11.03,3.57,1.06,4.48,2.88,1.01,2.02,1.96,4.06,2.88,6.12.46,1.04,1.19,1.53,2.29,1.68,1.99.26,3.98.58,5.97.91,2.15.36,3.72,1.48,4.43,3.62.69,2.09.08,3.87-1.36,5.42-1.47,1.58-2.95,3.15-4.47,4.68-.77.78-1.11,1.55-.84,2.7.45,1.91.67,3.87,1.07,5.79.49,2.37.04,4.42-1.96,5.9-2.05,1.52-4.11,1.16-6.17-.1-1.43-.87-2.97-1.57-4.39-2.46-1.35-.85-2.55-.76-3.88.06-1.63,1.01-3.35,1.87-5.03,2.8-1.92,1.05-3.81.97-5.53-.37-1.69-1.32-2.33-3.1-1.93-5.23.4-2.12.74-4.25,1.17-6.36.22-1.09,0-1.95-.81-2.74-1.47-1.45-2.88-2.96-4.31-4.44-1.55-1.6-2.27-3.45-1.55-5.64.74-2.25,2.42-3.33,4.69-3.7,1.99-.32,3.95-.79,5.94-1.09.98-.14,1.55-.59,1.95-1.45.92-2.01,1.85-4.01,2.82-5.99.92-1.88,2.45-2.9,4.55-2.99Zm-10.76,34.64c-.08,2.08.81,2.7,2.34,1.93,1.62-.82,3.25-1.66,4.79-2.63,2.47-1.56,4.85-1.47,7.31-.02,1.57.92,3.18,1.78,4.78,2.65.61.34,1.28.54,1.9.11.68-.47.69-1.2.55-1.95-.38-2.07-.67-4.16-1.15-6.21-.53-2.3.14-4.13,1.77-5.74,1.43-1.41,2.81-2.89,4.2-4.34.59-.61,1.02-1.31.71-2.2-.3-.85-1.06-1-1.85-1.11-1.9-.27-3.78-.6-5.68-.87-2.21-.32-3.83-1.4-4.75-3.47-.86-1.93-1.77-3.83-2.66-5.74-.31-.67-.62-1.37-1.49-1.35-.84.02-1.19.68-1.51,1.36-.88,1.92-1.76,3.83-2.67,5.74-.86,1.8-2.24,2.91-4.28,3.22-2.08.31-4.14.77-6.22,1.14-.74.13-1.44.32-1.72,1.09-.3.82.06,1.47.65,2.06,1.41,1.44,2.72,2.98,4.18,4.36,1.83,1.72,2.34,3.74,1.86,6.14-.42,2.06-.75,4.15-1.05,5.85Z"/>
      <path class="cls-1" d="m6.05,134.33c.35-2.01.74-4.52,1.26-7.01.22-1.03-.06-1.74-.75-2.45-1.61-1.65-3.25-3.27-4.76-5-2.87-3.31-1.32-7.85,2.97-8.72,2.16-.44,4.34-.77,6.52-1.06.94-.12,1.44-.59,1.8-1.4.82-1.84,1.69-3.66,2.53-5.48.96-2.08,2.49-3.46,4.85-3.49,2.34-.03,3.96,1.21,4.93,3.33.86,1.87,1.77,3.73,2.62,5.6.39.86.94,1.33,1.93,1.45,2.18.28,4.35.69,6.53,1.05,2.03.34,3.43,1.49,4.08,3.42.66,1.96.3,3.8-1.13,5.34-1.53,1.65-3.07,3.3-4.67,4.89-.8.8-1.04,1.63-.81,2.72.44,2.11.79,4.24,1.17,6.36.39,2.14-.31,3.9-1.97,5.23-1.68,1.34-3.55,1.35-5.4.39-1.96-1.01-3.89-2.08-5.8-3.18-.89-.51-1.68-.52-2.56-.02-1.92,1.08-3.84,2.17-5.8,3.18-3.65,1.88-7.57-.57-7.53-5.16Zm3.65.4c.04,1.46,1.06,2.09,2.28,1.46,1.95-1.02,3.87-2.12,5.81-3.17,1.92-1.04,3.84-1.07,5.76.01,1.76.99,3.52,1.96,5.29,2.92.62.34,1.25.81,2,.31.78-.52.69-1.33.57-2.09-.32-1.99-.66-3.97-1.05-5.94-.45-2.28.03-4.26,1.72-5.93,1.5-1.48,2.98-2.99,4.4-4.55,1.25-1.37.85-2.67-.95-3.02-2.07-.41-4.15-.8-6.24-1.02-2.15-.22-3.54-1.32-4.43-3.19-.83-1.73-1.62-3.48-2.44-5.21-.41-.86-.73-1.94-1.9-1.9-1.14.04-1.45,1.12-1.86,1.98-.82,1.73-1.62,3.48-2.43,5.22-.83,1.78-2.14,2.86-4.17,3.09-1.95.22-3.89.56-5.82.91-.82.15-1.77.14-2.1,1.21-.31,1.02.33,1.61.94,2.24,1.46,1.53,2.89,3.07,4.37,4.58,1.46,1.5,1.91,3.23,1.49,5.28-.48,2.3-.84,4.62-1.24,6.81Z"/>
      <path class="cls-1" d="m69.36,139.18c-5.99,0-11.98,0-17.98,0-.57,0-1.16.02-1.72-.08-1.57-.27-2.21-1.42-1.5-2.84,1.22-2.45,2.51-4.85,3.79-7.27,5.1-9.66,10.2-19.33,15.3-28.99.09-.17.18-.34.27-.51.37-.72.88-1.25,1.76-1.27.95-.02,1.47.56,1.87,1.32,2.44,4.62,4.88,9.24,7.32,13.86,3.87,7.33,7.73,14.67,11.59,22.01,1.36,2.59.65,3.76-2.3,3.76-6.14.02-12.27,0-18.41,0Zm-.02-35.16c-.26.44-.45.71-.6,1-5.1,9.66-10.2,19.33-15.3,29-.67,1.26-.59,1.38.93,1.38,9.97,0,19.94,0,29.92,0,1.57,0,1.58-.04.81-1.51-4.41-8.4-8.83-16.8-13.25-25.2-.8-1.51-1.62-3.02-2.5-4.67Z"/>
      <path class="cls-1" d="m117.96,42.22c-6.19,0-12.37,0-18.56,0-2.79,0-3.49-1.14-2.19-3.59,6.27-11.87,12.56-23.73,18.84-35.6.42-.8.91-1.49,1.91-1.52,1.03-.03,1.51.67,1.94,1.46,6.34,11.94,12.68,23.88,19.01,35.83,1.15,2.17.38,3.41-2.1,3.41-6.28.02-12.57,0-18.85,0Zm.11-34.86c-.2.21-.33.3-.39.42-5.23,9.86-10.45,19.73-15.69,29.59-.64,1.2-.04,1.24.9,1.24,10.02-.01,20.03,0,30.05,0,1.59,0,1.64-.08.9-1.48-4.03-7.63-8.07-15.25-12.11-22.87-1.21-2.28-2.42-4.55-3.66-6.88Z"/>
      <path class="cls-1" d="m88.56,21.86c0,3.12-.03,6.23.02,9.35.02,1.2-.46,1.99-1.47,2.57-5.49,3.15-10.97,6.31-16.45,9.47-.93.54-1.78.51-2.71-.03-5.47-3.17-10.96-6.33-16.45-9.47-.97-.56-1.42-1.3-1.42-2.45.03-6.33.03-12.66,0-18.99,0-1.14.41-1.88,1.4-2.44,5.45-3.12,10.89-6.25,16.31-9.42,1.08-.63,2.01-.61,3.08.01,5.38,3.14,10.78,6.26,16.19,9.35,1.09.62,1.53,1.46,1.51,2.69-.04,3.12-.01,6.23-.01,9.35Zm-3.63-.03c0-2.59-.03-5.18.02-7.77.01-.87-.29-1.4-1.05-1.84-4.54-2.59-9.07-5.21-13.58-7.85-.72-.42-1.28-.4-1.99.01-4.47,2.62-8.95,5.22-13.46,7.77-.88.5-1.17,1.1-1.16,2.07.04,5.08.04,10.17,0,15.26,0,.93.29,1.5,1.11,1.96,4.46,2.54,8.91,5.1,13.33,7.7.85.5,1.54.48,2.38-.01,4.43-2.6,8.87-5.16,13.33-7.7.82-.47,1.1-1.06,1.08-1.98-.05-2.54-.02-5.08-.02-7.63Z"/>
      <path class="cls-1" d="m101.04,120.04c0-3.07.04-6.14-.02-9.2-.03-1.3.42-2.15,1.56-2.8,5.42-3.08,10.81-6.2,16.19-9.34.98-.57,1.87-.6,2.84-.03,5.52,3.19,11.04,6.38,16.56,9.56.92.53,1.34,1.28,1.34,2.35-.02,6.33-.02,12.66,0,18.98,0,1.13-.44,1.89-1.42,2.45-5.45,3.12-10.89,6.25-16.31,9.42-1.08.63-2.01.6-3.08-.02-5.38-3.14-10.78-6.25-16.2-9.33-1.03-.59-1.5-1.34-1.48-2.55.05-3.16.02-6.33.02-9.49Zm34.84.1c0-2.49-.05-4.99.02-7.48.03-1.09-.3-1.74-1.28-2.29-4.47-2.52-8.9-5.1-13.32-7.69-.75-.44-1.34-.45-2.1,0-4.46,2.62-8.94,5.21-13.45,7.75-.83.47-1.1,1.04-1.1,1.95.03,5.13.03,10.26,0,15.38,0,.93.3,1.5,1.11,1.96,4.5,2.56,8.98,5.15,13.45,7.76.69.4,1.26.46,1.99.03,4.55-2.66,9.12-5.29,13.7-7.9.72-.41,1.01-.9.99-1.72-.04-2.59-.01-5.18-.01-7.76Z"/>
      <path class="cls-1" d="m38.48,72.59c0,3.12-.03,6.23.02,9.35.02,1.19-.4,1.97-1.45,2.56-5.41,3.08-10.81,6.2-16.2,9.33-1.06.62-2.01.64-3.09.01-5.38-3.14-10.79-6.24-16.2-9.33C.5,83.91,0,83.1,0,81.84c.03-6.23.03-12.46,0-18.7,0-1.18.43-1.98,1.46-2.58,5.49-3.14,10.97-6.31,16.44-9.49.92-.53,1.78-.57,2.71-.03,5.56,3.22,11.12,6.44,16.69,9.64.91.52,1.2,1.27,1.19,2.27-.03,3.21-.01,6.42,0,9.64Zm-3.63-.01c0-2.54-.04-5.08.02-7.62.03-1.04-.32-1.66-1.24-2.18-4.46-2.52-8.9-5.09-13.32-7.69-.78-.46-1.36-.39-2.1.04-4.47,2.61-8.95,5.2-13.45,7.75-.81.46-1.14.99-1.13,1.93.04,5.13.04,10.26,0,15.38,0,.95.34,1.48,1.14,1.94,4.46,2.54,8.9,5.1,13.32,7.69.83.49,1.49.54,2.36.02,4.41-2.61,8.86-5.17,13.32-7.69.83-.47,1.11-1.04,1.1-1.96-.04-2.54-.01-5.08-.01-7.62Z"/>
      <path class="cls-1" d="m87.16,72.5c0,9.95-7.83,17.82-17.77,17.85-9.96.02-18.03-7.97-18.01-17.83.01-9.84,8.26-18.06,18-17.94,9.92.12,17.78,8.04,17.78,17.92Zm-17.76-14.17c-7.95-.03-14.23,6.14-14.28,14.02-.04,8.01,6.18,14.35,14.1,14.37,7.9.02,14.25-6.22,14.29-14.05.04-8.02-6.16-14.32-14.11-14.34Z"/>
    </g>
  </g>
</svg>