<?xml version="1.0" encoding="utf-8"?>
<!-- Generator: $$$/GeneralStr/196=Adobe Illustrator 27.6.0, SVG Export Plug-In . SVG Version: 6.00 Build 0)  -->
<svg version="1.1" id="Capa_2_00000095307943677271659680000004580347792646098617_"
	 xmlns="http://www.w3.org/2000/svg" xmlns:xlink="http://www.w3.org/1999/xlink" x="0px" y="0px" viewBox="0 0 180.4 180.4"
	 style="enable-background:new 0 0 180.4 180.4;" xml:space="preserve">
<style type="text/css">
	.st0{fill:#FAB800;}
	.st1{enable-background:new    ;}
	.st2{fill:#22384B;}
</style>
<path class="st0" d="M180.4,90.2c0,49.8-40.4,90.2-90.2,90.2S0,140.1,0,90.2S40.4,0,90.2,0S180.4,40.4,180.4,90.2"/>
<g class="st1">
	<path class="st2" d="M48.4,76.7h11.1v27.4h-5.9V81.9h-5.2C48.4,81.9,48.4,76.7,48.4,76.7z"/>
	<path class="st2" d="M73.8,99.1c1.7,0,3-0.6,3.9-1.7s1.5-2.7,1.7-4.6c-1.7,1.1-3.5,1.7-5.4,1.7c-2.6,0-4.7-0.8-6.4-2.5
		c-1.7-1.7-2.6-4-2.6-6.7s0.9-5,2.8-6.7c1.8-1.7,4.2-2.5,7-2.5c1.9,0,3.6,0.4,5,1.1s2.5,1.8,3.4,3.1c1.5,2.6,2.3,5.8,2.3,9.7
		c0,2.5-0.3,4.7-0.9,6.6s-1.4,3.4-2.5,4.5c-2.1,2.2-4.7,3.3-7.8,3.3c-1.3,0-2.5-0.2-3.7-0.6s-2.1-0.8-2.7-1.1
		c-0.6-0.4-1.3-0.9-2.1-1.5l3.1-4.3c0.2,0.2,0.4,0.4,0.7,0.6c0.3,0.2,0.9,0.6,1.7,1C72.2,98.9,73,99.1,73.8,99.1z M74.6,89.3
		c1.2,0,2.2-0.4,3-1.1s1.2-1.6,1.2-2.8c0-1.2-0.4-2.1-1.2-3s-1.8-1.3-2.9-1.3c-1.2,0-2.1,0.4-2.9,1.1s-1.1,1.7-1.1,2.8
		c0,1.2,0.3,2.1,1,2.9C72.5,88.9,73.4,89.3,74.6,89.3z"/>
	<path class="st2" d="M89.5,85.5v-8.8h19.8v4.6l-11.1,22.8h-6.7l10.6-22.2h-6.9v3.5h-5.7V85.5z"/>
	<path class="st2" d="M112.2,85.5v-8.8H132v4.6l-11.1,22.8h-6.7l10.6-22.2H118v3.5h-5.8V85.5z"/>
</g>
</svg>
