<?xml version="1.0" encoding="utf-8"?>
<!-- Generator: $$$/GeneralStr/196=Adobe Illustrator 27.6.0, SVG Export Plug-In . SVG Version: 6.00 Build 0)  -->
<svg version="1.1" id="Capa_2_00000140697858196676971980000003865603878791724718_"
	 xmlns="http://www.w3.org/2000/svg" xmlns:xlink="http://www.w3.org/1999/xlink" x="0px" y="0px" viewBox="0 0 181.7 181.7"
	 style="enable-background:new 0 0 181.7 181.7;" xml:space="preserve">
<style type="text/css">
	.st0{fill:#FAB800;}
	.st1{enable-background:new    ;}
	.st2{fill:#22384B;}
</style>
<path class="st0" d="M181.7,90.8c0,50.2-40.7,90.8-90.8,90.8S0,141,0,90.8S40.7,0,90.8,0S181.7,40.7,181.7,90.8"/>
<g class="st1">
	<path class="st2" d="M45.9,77.2h11.2v27.6h-5.9V82.4h-5.3V77.2z"/>
	<path class="st2" d="M71.4,99.8c1.7,0,3-0.6,4-1.7c0.9-1.1,1.5-2.7,1.7-4.7c-1.7,1.1-3.5,1.7-5.4,1.7c-2.6,0-4.7-0.8-6.5-2.5
		c-1.7-1.7-2.6-3.9-2.6-6.7c0-2.8,0.9-5,2.8-6.7s4.2-2.5,7-2.5c1.9,0,3.6,0.4,5.1,1.1c1.4,0.8,2.6,1.8,3.4,3.1
		c1.6,2.6,2.3,5.9,2.3,9.8c0,2.5-0.3,4.7-0.9,6.7c-0.6,1.9-1.5,3.4-2.5,4.5c-2.2,2.2-4.8,3.3-7.9,3.3c-1.3,0-2.5-0.2-3.7-0.6
		c-1.2-0.4-2.1-0.8-2.7-1.1c-0.6-0.4-1.3-0.9-2.1-1.5l3.1-4.3c0.2,0.2,0.4,0.4,0.7,0.6c0.3,0.2,0.9,0.6,1.8,1
		C69.8,99.6,70.7,99.8,71.4,99.8z M72.3,89.9c1.2,0,2.2-0.4,3.1-1.1s1.2-1.6,1.2-2.8s-0.4-2.2-1.2-3c-0.8-0.8-1.8-1.3-3-1.3
		c-1.2,0-2.2,0.4-2.9,1.1c-0.8,0.8-1.1,1.7-1.1,2.9s0.3,2.1,1,2.9C70.1,89.5,71.1,89.9,72.3,89.9z"/>
	<path class="st2" d="M91.2,78.7c1.8-1.4,4.1-2.2,6.9-2.2s5,0.7,6.8,2.2c1.8,1.4,2.7,3.2,2.7,5.4c0,2.1-0.8,3.9-2.4,5.5
		c2.3,1.8,3.4,4.1,3.4,7c0,2.4-1,4.5-2.9,6.1c-1.9,1.7-4.5,2.5-7.6,2.5s-5.7-0.8-7.6-2.5c-1.9-1.7-2.9-3.7-2.9-6.1
		c0-2.9,1.1-5.2,3.4-7c-1.7-1.6-2.5-3.4-2.5-5.5C88.5,82,89.4,80.2,91.2,78.7z M95.1,99c0.9,0.6,1.9,0.9,3,0.9s2.1-0.3,3-0.9
		c0.9-0.6,1.4-1.5,1.4-2.7s-0.4-2.1-1.3-2.7c-0.9-0.6-1.9-0.9-3-0.9s-2.1,0.3-3,0.9c-0.9,0.6-1.3,1.5-1.3,2.7S94.2,98.4,95.1,99z
		 M95.5,87c0.8,0.6,1.6,0.9,2.6,0.9c1,0,1.9-0.3,2.6-0.9c0.8-0.6,1.1-1.4,1.1-2.3s-0.4-1.7-1.1-2.4c-0.7-0.6-1.6-0.9-2.6-0.9
		c-1,0-1.9,0.3-2.6,0.9c-0.7,0.6-1.1,1.4-1.1,2.4S94.7,86.4,95.5,87z"/>
	<path class="st2" d="M124.4,105.1c-3.8,0-6.7-1.3-8.6-3.9c-1.9-2.6-2.8-6.1-2.8-10.4c0-4.3,0.9-7.8,2.8-10.4
		c1.9-2.6,4.8-3.9,8.6-3.9c3.8,0,6.7,1.3,8.6,3.9c1.9,2.6,2.8,6.1,2.8,10.4c0,4.3-0.9,7.8-2.8,10.4
		C131.1,103.8,128.2,105.1,124.4,105.1z M120.3,84.2c-0.9,1.7-1.3,3.9-1.3,6.7c0,2.8,0.4,5,1.3,6.7c0.9,1.7,2.2,2.5,4.1,2.5
		c1.8,0,3.2-0.8,4.1-2.5c0.9-1.7,1.3-3.9,1.3-6.7c0-2.8-0.4-5-1.3-6.7c-0.9-1.7-2.2-2.5-4.1-2.5C122.5,81.7,121.2,82.5,120.3,84.2z"
		/>
</g>
</svg>
