<?xml version="1.0" encoding="utf-8"?>
<!-- Generator: $$$/GeneralStr/196=Adobe Illustrator 27.6.0, SVG Export Plug-In . SVG Version: 6.00 Build 0)  -->
<svg version="1.1" id="Capa_2_00000137127568100908974780000006612654261013193095_"
	 xmlns="http://www.w3.org/2000/svg" xmlns:xlink="http://www.w3.org/1999/xlink" x="0px" y="0px" viewBox="0 0 85.6 85.6"
	 style="enable-background:new 0 0 85.6 85.6;" xml:space="preserve">
<style type="text/css">
	.st0{fill:#FAB800;}
	.st1{enable-background:new    ;}
	.st2{fill:#22384B;}
</style>
<circle class="st0" cx="42.8" cy="42.8" r="42.8"/>
<g class="st1">
	<path class="st2" d="M24.6,36.4h5.3v13h-2.8V38.8h-2.5V36.4z"/>
	<path class="st2" d="M36.6,47c0.8,0,1.4-0.3,1.9-0.8c0.4-0.5,0.7-1.3,0.8-2.2c-0.8,0.5-1.6,0.8-2.6,0.8c-1.2,0-2.2-0.4-3-1.2
		c-0.8-0.8-1.2-1.9-1.2-3.2s0.4-2.4,1.3-3.2c0.9-0.8,2-1.2,3.3-1.2c0.9,0,1.7,0.2,2.4,0.5c0.7,0.4,1.2,0.8,1.6,1.5
		c0.7,1.2,1.1,2.8,1.1,4.6c0,1.2-0.1,2.2-0.4,3.1c-0.3,0.9-0.7,1.6-1.2,2.1c-1,1-2.3,1.6-3.7,1.6c-0.6,0-1.2-0.1-1.7-0.3
		s-1-0.4-1.3-0.5c-0.3-0.2-0.6-0.4-1-0.7l1.5-2c0.1,0.1,0.2,0.2,0.3,0.3c0.1,0.1,0.4,0.3,0.8,0.5C35.9,46.9,36.3,47,36.6,47z
		 M37,42.3c0.6,0,1.1-0.2,1.4-0.5c0.4-0.3,0.6-0.8,0.6-1.3s-0.2-1-0.6-1.4c-0.4-0.4-0.8-0.6-1.4-0.6s-1,0.2-1.4,0.5
		s-0.5,0.8-0.5,1.3c0,0.5,0.2,1,0.5,1.4C36,42.1,36.4,42.3,37,42.3z"/>
	<path class="st2" d="M46,37.1c0.9-0.7,1.9-1,3.2-1s2.4,0.3,3.2,1c0.9,0.7,1.3,1.5,1.3,2.5s-0.4,1.9-1.2,2.6
		c1.1,0.8,1.6,1.9,1.6,3.3c0,1.1-0.5,2.1-1.4,2.9s-2.1,1.2-3.6,1.2s-2.7-0.4-3.6-1.2s-1.4-1.7-1.4-2.9c0-1.4,0.5-2.4,1.6-3.3
		c-0.8-0.7-1.2-1.6-1.2-2.6S45.1,37.8,46,37.1z M47.8,46.7c0.4,0.3,0.9,0.4,1.4,0.4s1-0.1,1.4-0.4c0.4-0.3,0.7-0.7,0.7-1.3
		s-0.2-1-0.6-1.3c-0.4-0.3-0.9-0.4-1.4-0.4s-1,0.1-1.4,0.4c-0.4,0.3-0.6,0.7-0.6,1.3S47.3,46.4,47.8,46.7z M47.9,41
		c0.4,0.3,0.8,0.4,1.2,0.4s0.9-0.1,1.2-0.4s0.5-0.7,0.5-1.1s-0.2-0.8-0.5-1.1c-0.3-0.3-0.8-0.4-1.2-0.4s-0.9,0.1-1.2,0.4
		c-0.3,0.3-0.5,0.7-0.5,1.1S47.6,40.7,47.9,41z"/>
	<path class="st2" d="M55.7,36.4H61v13h-2.8V38.8h-2.5V36.4z"/>
</g>
</svg>
