<?xml version="1.0" encoding="utf-8"?>
<!-- Generator: $$$/GeneralStr/196=Adobe Illustrator 27.6.0, SVG Export Plug-In . SVG Version: 6.00 Build 0)  -->
<svg version="1.1" id="Capa_2_00000093164905317686606740000008100745136912146306_"
	 xmlns="http://www.w3.org/2000/svg" xmlns:xlink="http://www.w3.org/1999/xlink" x="0px" y="0px" viewBox="0 0 181.7 181.7"
	 style="enable-background:new 0 0 181.7 181.7;" xml:space="preserve">
<style type="text/css">
	.st0{fill:#FAB800;}
	.st1{enable-background:new    ;}
	.st2{fill:#22384B;}
</style>
<path class="st0" d="M181.7,90.8c0,50.2-40.7,90.8-90.8,90.8S0,141,0,90.8S40.7,0,90.8,0S181.7,40.7,181.7,90.8"/>
<g class="st1">
	<path class="st2" d="M59.4,88c0.7-1,1-1.9,1-2.9s-0.3-1.7-0.9-2.3c-0.6-0.6-1.4-0.9-2.3-0.9c-1.7,0-3.4,1.2-4.9,3.7l-4.9-2.9
		c1.3-2,2.7-3.5,4.2-4.5c1.5-1,3.5-1.5,5.9-1.5c2.4,0,4.5,0.8,6.3,2.3c1.8,1.5,2.7,3.6,2.7,6.2c0,1.4-0.4,2.8-1.1,4.1
		c-0.7,1.3-2.1,3-4,5l-5,5.2h10.9v5.5H47.8v-4.6l8.1-8.3C57.5,90.3,58.7,88.9,59.4,88z"/>
	<path class="st2" d="M83,105.1c-3.8,0-6.7-1.3-8.6-3.9c-1.9-2.6-2.8-6.1-2.8-10.4c0-4.3,0.9-7.8,2.8-10.4c1.9-2.6,4.8-3.9,8.6-3.9
		c3.8,0,6.7,1.3,8.6,3.9c1.9,2.6,2.8,6.1,2.8,10.4c0,4.3-0.9,7.8-2.8,10.4C89.7,103.8,86.9,105.1,83,105.1z M79,84.2
		c-0.9,1.7-1.3,3.9-1.3,6.7c0,2.8,0.4,5,1.3,6.7c0.9,1.7,2.2,2.5,4.1,2.5c1.8,0,3.2-0.8,4.1-2.5c0.9-1.7,1.3-3.9,1.3-6.7
		c0-2.8-0.4-5-1.3-6.7c-0.9-1.7-2.2-2.5-4.1-2.5C81.2,81.7,79.8,82.5,79,84.2z"/>
	<path class="st2" d="M97.9,77.2h11.2v27.6h-5.9V82.4h-5.3V77.2z"/>
	<path class="st2" d="M126.5,88c0.7-1,1-1.9,1-2.9s-0.3-1.7-0.9-2.3c-0.6-0.6-1.4-0.9-2.3-0.9c-1.7,0-3.4,1.2-4.9,3.7l-4.9-2.9
		c1.3-2,2.7-3.5,4.2-4.5s3.5-1.5,5.9-1.5s4.5,0.8,6.3,2.3c1.8,1.5,2.7,3.6,2.7,6.2c0,1.4-0.4,2.8-1.1,4.1c-0.7,1.3-2.1,3-4,5l-5,5.2
		h10.9v5.5h-19.5v-4.6l8.1-8.3C124.6,90.3,125.8,88.9,126.5,88z"/>
</g>
</svg>
