<?xml version="1.0" encoding="utf-8"?>
<!-- Generator: $$$/GeneralStr/196=Adobe Illustrator 27.6.0, SVG Export Plug-In . SVG Version: 6.00 Build 0)  -->
<svg version="1.1" id="Capa_2_00000141436354989714535760000000994641516746229167_"
	 xmlns="http://www.w3.org/2000/svg" xmlns:xlink="http://www.w3.org/1999/xlink" x="0px" y="0px" viewBox="0 0 181.7 181.7"
	 style="enable-background:new 0 0 181.7 181.7;" xml:space="preserve">
<style type="text/css">
	.st0{fill:#FAB800;}
	.st1{fill:#22384B;}
</style>
<path class="st0" d="M181.7,90.8c0,50.2-40.7,90.8-90.8,90.8S0,141,0,90.8S40.7,0,90.8,0S181.7,40.7,181.7,90.8"/>
<g>
	<path class="st1" d="M59.7,88c0.7-1,1-1.9,1-2.9s-0.3-1.7-0.9-2.3c-0.6-0.6-1.4-0.9-2.3-0.9c-1.7,0-3.4,1.2-4.9,3.7l-4.9-2.9
		c1.3-2,2.7-3.5,4.2-4.5s3.5-1.5,5.9-1.5s4.5,0.8,6.3,2.3c1.8,1.5,2.7,3.6,2.7,6.2c0,1.4-0.4,2.8-1.1,4.1c-0.7,1.3-2.1,3-4,5l-5,5.2
		h10.9v5.5H48.1v-4.6l8.1-8.3C57.8,90.3,59,88.9,59.7,88z"/>
	<path class="st1" d="M83.3,105.1c-3.8,0-6.7-1.3-8.6-3.9s-2.8-6.1-2.8-10.4s0.9-7.8,2.8-10.4s4.8-3.9,8.6-3.9
		c3.8,0,6.7,1.3,8.6,3.9s2.8,6.1,2.8,10.4s-0.9,7.8-2.8,10.4C90,103.8,87.1,105.1,83.3,105.1z M79.3,84.2c-0.9,1.7-1.3,3.9-1.3,6.7
		c0,2.8,0.4,5,1.3,6.7s2.2,2.5,4.1,2.5c1.8,0,3.2-0.8,4.1-2.5s1.3-3.9,1.3-6.7c0-2.8-0.4-5-1.3-6.7s-2.2-2.5-4.1-2.5
		S80.1,82.5,79.3,84.2z"/>
	<path class="st1" d="M98.2,77.2h11.2v27.6h-5.9V82.4h-5.3C98.2,82.4,98.2,77.2,98.2,77.2z"/>
</g>
<path class="st1" d="M128.2,82c-1.7,0-3,0.6-4,1.7c-0.9,1.1-1.5,2.7-1.7,4.7c1.7-1.1,3.5-1.7,5.4-1.7c2.6,0,4.7,0.8,6.5,2.5
	c1.7,1.7,2.6,3.9,2.6,6.7s-0.9,5-2.8,6.7c-1.9,1.7-4.2,2.5-7,2.5c-1.9,0-3.6-0.4-5.1-1.1c-1.4-0.8-2.5-1.8-3.3-3.1
	c-1.6-2.6-2.4-5.9-2.4-9.8c0-2.5,0.3-4.7,0.9-6.7c0.6-1.9,1.5-3.4,2.5-4.5c2.1-2.2,4.7-3.3,7.8-3.3c1.3,0,2.5,0.2,3.7,0.6
	s2.1,0.8,2.7,1.2c0.6,0.4,1.3,0.9,2.1,1.5l-2.9,4.3c-0.2-0.2-0.4-0.4-0.7-0.6c-0.3-0.3-0.9-0.6-1.8-1C129.9,82.2,129,82,128.2,82z
	 M127.4,91.9c-1.2,0-2.3,0.4-3.1,1.1c-0.8,0.7-1.2,1.7-1.2,2.8c0,1.2,0.4,2.2,1.2,3c0.8,0.8,1.8,1.2,3,1.2s2.2-0.4,3-1.1
	s1.2-1.7,1.2-2.9c0-1.2-0.4-2.2-1.1-3C129.5,92.2,128.6,91.9,127.4,91.9z"/>
</svg>
