<?xml version="1.0" encoding="UTF-8"?>
<svg id="Capa_2" data-name="Capa 2" xmlns="http://www.w3.org/2000/svg" viewBox="0 0 73.11 139.69">
  <defs>
    <style>
      .cls-1 {
        fill: #fab800;
      }
    </style>
  </defs>
  <g id="inicio">
    <g>
      <path class="cls-1" d="m38.8,72.77c1.54-.33,2.76-1.92,2.4-3.5-.32-1.44-1.87-2.26-3.21-1.59-1.21-.14-2.19,1.33-2.19,2.48,0,1.53,1.43,2.95,3,2.61Zm-2.3-2.23c-.23-1.11.5-2.03,1.5-2.29.08.04.18.05.29,0,1.07-.49,2.19.25,2.3,1.39.1,1.07-.67,2.1-1.68,2.42-1.11.35-2.17-.41-2.4-1.52Z"/>
      <path class="cls-1" d="m29.57,87.12c-.08-.12-.18-.25-.27-.37.07.12.17.24.27.37Z"/>
      <path class="cls-1" d="m36.75,93.9c.17.17.37.34.57.51-.16-.17-.37-.35-.57-.51Z"/>
      <path class="cls-1" d="m37.37,94.76c-.08-.01-.15-.03-.23-.06.32.12.67.26.74.27.04,0,.08-.05.05-.08-.17-.15-.38-.32-.6-.5.07.08.14.16.18.25.12.21.28.18-.14.11Z"/>
      <path class="cls-1" d="m71.67,25.8c-2.07-6.84-6.2-13.05-11.69-17.63C48.21-1.66,30.64-2.65,17.63,5.36c-.07.04-.13.09-.2.13-.11-.04-.21.03-.21.13-6.07,3.86-10.88,9.58-13.84,16.11-.34.75-.65,1.51-.94,2.27-.03.03-.05.07-.04.11-.1.28-.2.55-.3.83-.05.03-.07.09-.05.16-.3.88-.57,1.76-.8,2.65-.07.02-.13.09-.08.17,0,.01.02.03.03.04-1.34,5.24-1.54,10.72-.62,16.11.87,5.12,2.59,10.02,4.73,14.74,0,.03,0,.07.03.1.01.01.02.02.03.03.11.24.22.47.33.71-.02.04-.02.08.02.12.02.02.04.04.07.06.19.41.39.82.58,1.22,0,.02.01.03.02.04,1.12,2.3,2.32,4.55,3.56,6.77,1.77,3.17,3.87,6.29,5.15,9.72-.04.03-.05.09,0,.13.02.02.05.04.07.06.24.65.45,1.31.61,1.99,1.01,4.09.27,8.49,1.98,12.42.63,1.44,1.56,2.68,2.86,3.56-.73.92-.99,2.14-1.06,3.31-.08,1.42-.08,3.23.43,4.58.2.52.51.88.89,1.12.47.79.46,1.79.13,2.62-.09.23.07.38.26.4-.02.05-.05.1-.08.15,0,0,0,.01-.01.02,0,0-.01.01-.02.02-.02-.01-.04-.02-.06-.03-.04-.02-.08.05-.04.07.01,0,.03.01.04.02-.01.01-.03.03-.04.04-.07.06-.09.13-.08.2-.05.08-.09.17-.11.26,0,.01,0,.03,0,.04-.1.02-.21.03-.31.05-.13.02-.18.15-.16.27-1.3,1.28-1.3,3.44.17,4.63.27.22.56.38.86.49,0,.03.02.07.05.09.54.53.85,1.22.79,1.98-.04.46-.21.81-.45,1.14-.01,0-.02.02-.02.03-.17.22-.36.43-.56.64-.16.17-.09.39.07.47,0,.02-.02.04-.03.06-.13.02-.26.03-.4.05-.22.03-.24.3-.12.43-1.05.78-.89,2.62,0,3.57.48.5,1.04.82,1.64,1,.21.46.34.93.35,1.47,0,.57-.26,1.07-.27,1.62,0,.02-.02.05-.03.07-.03.1-.02.17.02.25,0,0,0,.01,0,.02,0,.02,0,.04.01.05-.14.02-.27.03-.41.05-.14.02-.23.12-.26.23-1.38.4-1.7,2.37-.64,3.4.6.59,1.39.63,2.18.58.98,1.19,1.88,2.41,2.43,3.87.26.71.42,1.43.56,2.17.12.6.29,1.2.76,1.62.97.87,2.69.67,3.88.71,1.82.06,3.64.09,5.46.1,3.64.01,7.28-.08,10.91-.27,1.67-.09,3.39-.1,5.04-.37,1.11-.18,2.17-.73,2.38-1.93.13-.74-.09-1.48-.24-2.21-.18-.88-.24-1.77-.18-2.67.12-1.85.78-3.58,1.82-5.12.05-.08.07-.15.06-.22.8-.13,1.51-.76,1.75-1.53.26-.84-.02-2.13-.89-2.51-.01,0-.03-.01-.04-.01-.07-.12-.21-.21-.39-.18-.39.07-.78.14-1.17.2,0,0,0,0,0,0-.33-.75-.72-1.33-.54-2.2.16-.78.71-1.45,1.37-1.85.04-.02.06-.06.07-.1,1.24-1.28.98-3.36-.35-4.46-.05-.14-.19-.26-.39-.23-.24.04-.48.08-.72.12.15-.11.22-.33.06-.51-1.15-1.29-.23-2.89.46-4.14.02-.04.03-.09.02-.13,1.19-.89,2.09-2.37,1.27-3.79-.47-.82-1.28-.9-2.11-.85-.75-1.02-1.49-2.04-2.24-3.06.6.46,1.09,1.02,1.48,1.7.04.06.09.07.14.04.1.34.25.67.42.97.21.37.78.04.57-.33-.77-1.35-.63-2.82,0-4.16.21-.25.39-.54.51-.87.36-.98.2-2.19-.61-2.85,0,0,0,0,0-.01,2.45-1.95,3.05-5.21,3.41-8.18.24-2,.44-4,.85-5.97.45-2.14,1.07-4.25,1.78-6.32,2.93-8.53,7.31-16.48,9.88-25.15,2.38-8.03,3.3-16.61.85-24.73ZM29.12,1.61c-.1-.05-.2-.11-.31-.16.14-.03.28-.06.42-.09-.01,0-.02.02-.03.02-.05,0-.1.07-.09.12,0,.04,0,.08,0,.11Zm-.63-.06c.49.62-.19.25-.45.2-.1-.02-.18.08-.13.17.21.43-.37.11-.69-.07.42-.11.84-.22,1.26-.32,0,0,0,.01.01.02Zm-1.46.72c-.2-.08-.41-.14-.63-.19.16-.05.31-.09.47-.13.05.11.11.22.16.33Zm-1.62.2s-.06-.04-.08-.06c.02,0,.03-.01.05-.02.01.02.02.05.03.07Zm-.52.11s-.02,0-.03,0c0,0,.02,0,.03,0,0,0,0,0,0,.01Zm-.47.62c-.24-.07-.47-.14-.71-.22.17-.07.34-.13.52-.19.06.14.13.27.19.41Zm-.96.47c-.25-.1-.5-.19-.75-.29.17-.07.34-.14.51-.21.08.17.16.33.24.5Zm-2.66.8c.14.26.27.52.41.79-.34-.1-.66-.24-.98-.42-.15-.09-.29.08-.23.23.09.2.19.4.28.6-.36-.2-.71-.4-1.07-.59.76-.42,1.54-.81,2.32-1.17.11.24.23.48.34.72-.28-.13-.57-.25-.85-.38-.15-.07-.31.07-.23.23Zm-2.42,1.58c-.13-.1-.26-.18-.4-.27.07-.04.15-.09.22-.13.06.13.12.27.17.4Zm-.7.58c-.22-.08-.43-.17-.65-.25.13-.09.27-.17.4-.26.08.17.16.34.25.51Zm-1.57.8c.07.25.14.49.21.74-.35-.18-.7-.37-1.05-.55.43-.32.87-.63,1.31-.93.12.27.24.55.35.82-.2-.08-.39-.17-.59-.25-.12-.05-.27.03-.23.18Zm-.89,1.21c-.25-.14-.49-.28-.74-.42.17-.14.35-.27.52-.41.04.3.11.57.21.83Zm-.76.65c-.22-.14-.45-.26-.69-.37-.05-.02-.09-.02-.13,0,.17-.14.34-.29.51-.43.08.29.18.55.31.8Zm4.48-4.06c.1.17.2.35.31.52-.21-.12-.43-.23-.64-.35.11-.06.22-.13.33-.19,0,0,0,0,0,0Zm2.95-1.5c.13-.06.26-.11.39-.17.23.21.4.46.51.74-.35-.14-.6-.3-.9-.57Zm8.54-2.62c-.11.06-.17.13-.16.25-.12-.05-.24-.1-.37-.15.18-.03.35-.07.53-.1Zm-16.88,7.87s-.03.09,0,.15c.15.32.3.64.45.96-.34-.2-.68-.41-1.01-.61.16-.14.32-.29.49-.43.02-.02.05-.04.07-.06Zm-.85.76c.21.29.42.58.64.88-.32-.18-.64-.38-.94-.6.1-.09.2-.18.3-.27Zm-.63.59c.14.36.29.71.43,1.07-.26-.14-.48-.3-.74-.53-.12-.11-.3.03-.22.17.17.31.33.63.5.94-.29-.16-.59-.33-.88-.49-.11-.06-.24.04-.21.16.11.38.22.76.33,1.14-.32-.21-.65-.43-.98-.64.57-.62,1.16-1.23,1.77-1.81Zm-5.08,6.09c.08.23.17.44.28.63l-.53-.34c.18-.28.37-.55.56-.82.12.22.24.43.38.63-.18-.09-.36-.17-.56-.24-.08-.03-.17.06-.14.14Zm-.8,1.27c.06.18.13.34.2.5-.13-.09-.27-.17-.42-.25.2-.33.4-.65.61-.97.11.31.24.6.4.88-.2-.12-.4-.22-.63-.31-.09-.04-.18.07-.15.15Zm-1.94,3.78c.05.08.72,1.05.7,1.06-.02.02-.95-.59-1.04-.65-.01,0-.03-.01-.04-.01.17-.37.35-.75.53-1.12l.44.61s.08.11.16.22c-.25-.12-.55-.22-.64-.25-.08-.03-.16.08-.11.14Zm.43-1.25c.16.21.46.59.59.73-.15-.1-.5-.33-.73-.47.05-.09.09-.18.14-.26Zm.35-.67c.17.32.35.63.56.92-.26-.16-.52-.33-.78-.49.07-.14.15-.28.22-.42Zm.38-.67c.14.25.28.51.41.76-.2-.13-.41-.27-.61-.4.07-.12.13-.24.2-.35Zm.14-.21s-.01,0-.02,0c.09-.16.18-.31.27-.46.15.36.33.7.55,1.02-.27-.18-.53-.36-.8-.54Zm2.41-3.7c.12.31.25.62.37.92-.26-.14-.51-.24-.81-.31.15-.2.29-.41.44-.61Zm.13-.17c.11-.14.22-.28.33-.43.16.31.32.62.48.94-.25-.16-.51-.33-.76-.49-.01,0-.03-.01-.05-.02Zm.85-1.08c.16.25.31.5.47.75-.25-.14-.5-.26-.78-.36.11-.13.21-.26.32-.4Zm.6-.72c.1.22.2.45.31.67-.21-.11-.42-.19-.66-.25.12-.14.23-.28.35-.42Zm.22-.26c.09-.1.18-.2.27-.3.1.21.21.43.31.64-.18-.13-.38-.24-.59-.34Zm-5.98,9.31c.12.19.57,1.02.77,1.24-.2-.15-.73-.56-.85-.63-.09-.06-.21.06-.15.15.18.29.36.57.57.83-.26-.19-.52-.37-.78-.56.14-.34.29-.68.44-1.02Zm-1.9,5.17c.38.44.77.88,1.15,1.32-.46-.18-.91-.38-1.35-.6.06-.24.13-.48.2-.72Zm.22-.71c.18.27.37.52.58.76-.24-.12-.47-.24-.71-.36.04-.13.08-.27.12-.4Zm.76-2.23c.03-.07.06-.15.09-.22.19.16.52.44.71.61-.2-.11-.54-.26-.77-.36,0-.01-.02-.02-.02-.03Zm.54,1.24c-.28-.14-.56-.28-.83-.42.06-.16.11-.33.17-.49.22.3.44.61.66.91Zm-.35-1.72c.05-.13.1-.27.16-.4.13.26.27.5.43.74-.19-.12-.38-.23-.58-.33Zm-.69,1.89c.12.19.25.37.4.54-.16-.08-.33-.17-.49-.25.03-.1.06-.19.09-.29Zm3.09,32.13c.56.51,1.15,1.02,1.62,1.58,0,.01,0,.02.01.03-.11-.05-.23-.1-.34-.15-.26-.11-.52-.22-.78-.33-.17-.38-.34-.75-.51-1.13Zm-.57-1.33c.48.4.97.8,1.48,1.14.24.15.77.43,0,.08-.36-.17-.76-.27-1.14-.41-.12-.27-.24-.54-.35-.81Zm-.48-1.18s.02.02.03.03c.56.43,1.22.9,1.72,1.25-.34-.24-.97-.47-1.49-.66-.08-.2-.17-.41-.25-.62Zm-.02-.05c-.14-.34-.27-.68-.4-1.02l1.9,1.33c-.46-.14-.92-.29-1.37-.43-.1-.03-.15.05-.13.13Zm-.54-1.38c-.04-.11-.09-.23-.13-.34.55.33,1.12.62,1.71.88-.52-.18-1.03-.35-1.55-.53-.01,0-.02,0-.03,0Zm-.43-1.17c.29.15.58.31.87.46.08.04.24.14.42.25,0,0,0,0,0,0-.37-.1-.75-.19-1.12-.27-.05-.15-.11-.3-.16-.45Zm-.33-.94c.52.33,1.03.67,1.56.98-.03-.01-.06-.03-.09-.03-.41-.13-.82-.22-1.25-.3-.07-.21-.15-.43-.22-.64Zm-.33-1.03c.5.36,1.01.71,1.53,1.03-.09-.04-.18-.09-.27-.11-.35-.1-.7-.17-1.05-.24-.07-.23-.15-.45-.22-.68Zm-.16-.52c-.04-.14-.08-.27-.12-.41.22.2.45.39.68.57-.18-.06-.38-.11-.56-.16Zm-.44-1.52c.3.22.61.43.91.64-.28-.08-.57-.15-.79-.2-.04-.15-.08-.29-.12-.44Zm-.07-.27c-.08-.28-.15-.56-.22-.85.48.44,1,.83,1.58,1.16.04.02.08.04.12.06-.46-.17-1-.25-1.46-.37,0,0-.01,0-.02,0Zm-.49-2c.35.36.71.69,1.11.98-.3-.11-.62-.2-.94-.28-.06-.24-.11-.47-.16-.71Zm-.25-1.17c.42.45.89.93,1.39,1.27-.02,0-.04-.02-.05-.02-.4-.19-.8-.37-1.2-.57-.05-.23-.09-.45-.14-.68Zm-.16-.84c.3.28.61.54.94.78.01.01.05.03.09.06-.31-.13-.65-.24-.94-.36-.03-.16-.06-.32-.09-.48Zm-.19-1.17c.43.5.91,1.04,1.43,1.47-.43-.22-.87-.44-1.3-.66-.05-.27-.09-.54-.13-.81Zm-.38-3.5c.47.45.97.94,1.3,1.45.19.3.47.39-.15.06-.35-.18-.71-.34-1.07-.5-.03-.34-.06-.67-.08-1.01Zm-.06-1.12c.39.39,1.2,1.19,1.4,1.41-.2-.15-.93-.52-1.37-.73-.01-.22-.02-.45-.03-.67Zm-.02-.91c.23.35.51.71.81.98-.27-.13-.54-.26-.8-.4,0-.2-.01-.39-.01-.59Zm0-1.05c.31.36.97,1.11,1.21,1.3-.23-.14-.89-.55-1.21-.74,0-.19,0-.38,0-.57Zm.03-1.25s0,0,0,0c.34.58.78,1.35,1.33,1.77.14.1.22.16.26.19-.05-.04-.17-.12-.31-.21-.44-.28-.88-.53-1.31-.83,0-.31.02-.62.03-.93Zm0-.1c.01-.26.03-.52.04-.79.39.35.77.71,1.14,1.09.18.18.67.9.86.91-.28-.02-1.5-.99-1.92-1.24-.05-.03-.1,0-.13.03Zm.06-1.01c.02-.28.05-.56.07-.84.35.57.74,1.24,1.23,1.7-.36-.33-.86-.58-1.26-.85-.01,0-.02-.01-.04-.01Zm.1-1.13c.03-.24.05-.48.08-.72.23.47.49.91.81,1.32-.29-.21-.61-.4-.87-.58,0,0-.01,0-.02,0Zm.12-.98c.03-.23.07-.47.1-.7.19.23,1.07,1.33,1.31,1.56-.24-.16-1.17-.74-1.35-.84-.02-.01-.04-.02-.06-.01Zm.14-.93c.04-.24.08-.49.12-.73.22.29.45.59.67.88,0-.01.13.15.28.31-.34-.19-.83-.36-1.04-.45-.01,0-.03,0-.04,0Zm.17-1c.05-.25.1-.51.15-.76.19.24,1.17,1.44,1.39,1.7-.25-.19-1.38-.84-1.53-.93,0,0,0,0-.01,0Zm.2-.98c.06-.26.12-.53.18-.79.26.37.54.73.83,1.07-.3-.14-.63-.23-1.01-.28,0,0,0,0,0,0Zm14.21,48c.16.17.33.34.48.48-.11-.04-.23-.07-.34-.1-.05-.13-.09-.25-.14-.38Zm-.48-1.16c.24.23.49.45.74.67-.17-.08-.38-.17-.56-.24-.06-.14-.12-.29-.19-.43Zm-.46-1c.32.28.64.55.96.83-.24-.16-.51-.29-.77-.42-.06-.14-.13-.27-.19-.41Zm-.52-1.02c.24.2.48.4.72.59.27.21.5.34.63.35-.32-.03-.77-.31-1.14-.52-.07-.14-.14-.28-.22-.41Zm-.5-.94c-.07-.13-.14-.26-.22-.39.29.23.58.47.86.71.03.03.1.07.17.11-.05-.03-.13-.07-.23-.12-.17-.09-.36-.17-.54-.24-.01-.02-.03-.05-.04-.07Zm-1.34-2.39s.07.05.1.08c.06.05.59.42.86.64-.17-.1-.46-.21-.73-.31-.08-.14-.16-.28-.23-.41Zm-.55-.96c.18.16.37.31.56.44-.13-.06-.26-.11-.39-.16-.05-.1-.11-.19-.16-.29Zm-.76-1.33c.5.31,1.03.61,1.46.99.01.01.03.02.05.03-.06-.02-.13-.04-.23-.07-.31-.1-.62-.21-.93-.32-.12-.21-.24-.42-.36-.63Zm-.61-1.07c.35.28.72.55,1.11.79.09.05.17.11.25.16-.32-.09-.75-.22-.99-.29-.12-.22-.25-.44-.37-.66Zm-.96-1.71c.52.42,1.03.84,1.55,1.26.24.2.78.37.26.27-.39-.07-.81-.28-1.2-.44-.2-.36-.41-.73-.61-1.09Zm-.29-.52c-.03-.06-.07-.12-.1-.18.12.1.23.19.35.29-.09-.04-.17-.07-.26-.11Zm-.73-1.35c.32.23.65.45.98.66l-.78-.3c-.07-.12-.13-.24-.2-.37Zm-.53-1.02c.34.24.68.48,1.02.73l-.83-.35c-.07-.13-.13-.25-.19-.38Zm-.38-.74c-.03-.07-.07-.14-.1-.21.42.33.84.66,1.28.94-.33-.15-.69-.28-1.02-.43-.05-.1-.11-.21-.16-.31Zm-.68-1.37c.22.18.45.35.69.51-.17-.05-.34-.1-.51-.14-.06-.12-.12-.25-.18-.37Zm9.96,21.37c.15.21.31.4.48.57-.14-.06-.29-.11-.45-.15-.03-.31-.07-.62-.11-.93.2.18.4.37.59.55-.13-.06-.25-.12-.38-.18-.08-.04-.2.05-.13.13Zm2.5,11.66c.21.13.43.26.64.39-.16-.06-.32-.12-.48-.18-.05-.07-.1-.14-.15-.21Zm-.43-.65c.21.15.47.33.72.48-.21-.07-.41-.12-.51-.15-.07-.11-.14-.22-.21-.33Zm-.56-1.11c.61.48,1.26,1.04,1.93,1.38-.35-.18-1-.48-1.58-.63-.13-.24-.24-.49-.35-.74Zm-.29-.78c.26.17.53.35.79.52.08.05.45.26.72.43-.38-.2-1.04-.4-1.35-.52-.05-.14-.11-.29-.16-.43Zm-.2-.66c.16.17.34.34.53.48-.16-.04-.31-.07-.42-.09-.04-.13-.08-.25-.11-.38Zm-.2-.78c.3.2.61.4.92.59-.27-.11-.56-.19-.84-.29-.03-.1-.05-.2-.07-.31Zm-.13-.62c.11.1.27.24.43.36-.13-.04-.27-.07-.37-.09-.02-.09-.04-.18-.05-.27Zm-.14-.82c.08.09.39.44.59.59-.18-.02-.43-.03-.5-.03-.03-.19-.06-.37-.09-.56Zm-.02-.13c-.03-.23-.06-.46-.09-.69.31.33.64.62.98.92.06.05.11.08.14.1-.27-.06-.8-.31-.94-.36-.04-.01-.07,0-.09.03Zm-.02-.86s-.06,0-.08.03c-.02-.13-.03-.27-.04-.4.14.17.29.33.45.46-.1-.03-.21-.06-.32-.09Zm-.19-1.04c.16.17.33.33.51.47-.16-.06-.32-.11-.48-.15,0-.11-.02-.21-.03-.32Zm-.08-1.07c.14.2.32.47.5.68-.15-.04-.31-.06-.46-.08-.02-.2-.03-.4-.04-.6Zm-.03-.51c0-.06,0-.11-.01-.17.14.19.3.37.47.52-.19-.09-.39-.18-.45-.2,0-.05,0-.1,0-.14Zm-.09-1.23c.14.23.3.44.49.62-.14-.05-.29-.08-.45-.11-.01-.17-.03-.34-.04-.51Zm-.06-.68c.12.12.28.29.43.43-.18-.07-.35-.14-.41-.16,0-.09-.02-.18-.03-.27Zm-.2-1.57c-.01-.07-.02-.15-.03-.22.09.11.19.22.29.32-.1-.04-.2-.08-.25-.1Zm-.14-.79c-.02-.08-.03-.16-.05-.24.07.1.14.21.22.31-.06-.03-.13-.05-.18-.07Zm-.32-1.39c.29.25.65.53.81.82.03.04.05.06.08.09-.24-.1-.48-.19-.73-.29-.05-.21-.1-.41-.16-.62Zm-.1-.35c-.02-.05-.03-.1-.04-.15,0,0,0-.02,0-.03.1.09.2.17.3.25-.09-.03-.17-.05-.25-.08Zm3.8,15.78c.18.13.36.25.54.37-.02-.01-.04-.02-.04-.02-.05-.02-.09.02-.09.06-.14-.13-.28-.26-.41-.4Zm.56.54c.21.15.42.3.63.44-.01,0-.03.01-.04.02-.21-.15-.4-.3-.59-.46Zm4.42,1.14c.67.65,1.35,1.31,2.02,1.96-1.03-.69-2.05-1.38-3.08-2.07-.08-.05-.18.07-.1.14.88.78,1.69,1.62,2.44,2.51-1.21-.9-2.43-1.8-3.64-2.7.79.02,1.58.03,2.37.04-.03.03-.05.09,0,.13Zm4.94-17.21c.05.04.14-.01.1-.08-.27-.4-.55-.79-.88-1.14-.06-.06-.13-.12-.18-.16,0-.03,0-.06.02-.09.03,0,.05.01.09.02.37.08.69.37.94.63.05.05.14-.01.1-.08-.2-.33-.41-.64-.67-.92-.04-.05-.25-.26-.26-.25.03-.1,1.14.65,1.13.64.06.05.15-.03.09-.09-.07-.08-.78-.8-.75-.86-.02.03.73.39.8.43.07.03.13-.05.08-.1-.1-.11-.74-.74-.71-.84.04-.14,1.32.75,1.35.77.07.05.16-.04.1-.1-.05-.05-.13-.11-.22-.17,0,0,0,0,0,0-.07-.15-.27-.28-.5-.38-.15-.12-.26-.25-.3-.35.04.13,1.33.58,1.57.71.07.04.13-.05.08-.11-.09-.1-1.18-1.24-1.19-1.22.11-.1,1.71.71,1.87.78.07.03.12-.07.07-.12l-.63-.61c-.09-.08-.18-.17-.26-.25.57.28,1.12.6,1.68.89.07.04.16-.06.09-.12-.2-.16-.6-.49-.65-.73-.07-.37.15-.06.36.06.49.3.99.6,1.48.9.07.04.16-.04.12-.12-.22-.35-.47-.66-.74-.95.55.3,1.09.6,1.64.9.09.05.16-.06.1-.13-.27-.34-.57-.65-.89-.93l.92.43c.08.04.16-.06.1-.13-.26-.27-.54-.52-.78-.81.07.07.2.21.33.29.17.11.35.22.52.33.16.1.54.45.72.15.1-.17.01-.28-.12-.3,0-.02,0-.03-.02-.04-.34-.32-1.08-.87-1.35-1.35,0-.08-.02-.17-.04-.25.05.02.1.05.17.09.18.08.36.17.54.25.35.18.69.38,1.03.59.06.04.13-.05.08-.1-.45-.41-.9-.91-1.39-1.32.2.14.4.27.6.41.06.04.13-.05.08-.1-.1-.11-1.01-.92-1.37-1.35.29.28.92.67,1.12.82.06.05.13-.05.08-.11-.41-.5-.82-1-1.24-1.5-.04-.05-.32-.4-.44-.53,0,0,0-.01,0-.02.14.08.49.3.57.34.05.03.12-.03.08-.08-.08-.11-.38-.42-.6-.7.01-.06.02-.13.04-.19.25.16.59.33.68.39.06.04.14-.05.08-.1-.06-.05-.44-.41-.65-.65.01-.04.03-.08.04-.11.24.15.65.43.71.47.05.03.12-.03.08-.08-.15-.21-.41-.44-.52-.66-.05-.02-.09-.03-.12-.05.02-.04.05-.09.08-.13.13.04.25.07.38.11.04.01.08-.03.07-.07-.06-.14-.22-.36-.11-.46.11-.09.54.09.64.11.06.01.09-.05.05-.09-.39-.47-.3-.18-.1-.42.22-.26.35-.22.72-.18.04,0,.07-.05.05-.08-.07-.12-.09-.23-.07-.32.17-.08.35-.15.55-.2,1.73-.52,3.74-.52,4.7,1.26.48.89.74,1.98.51,2.98-.18.8-.61,1.47-.57,2.32,0,.05.01.09.03.12-.16.14-.09.48.18.49,1.1.06,2.21.08,3.31.12,1.2.05,2,.49,2.26,1.73.19.93.15,1.92.18,2.87.04,1.13.08,2.26.11,3.4.15,4.45.29,8.91.45,13.36-.28,0-.57-.01-.85-.02,0-.02,0-.03,0-.04-.21-.25-.74-.99.02-.69.03.01.07-.03.06-.06-.13-.38-.29-.73-.53-1.06-.33-.46-.24-.28.27,0,.04.02.09-.02.06-.06-.18-.3-.36-.6-.54-.91l-.06-.1c0-.14,0-.28,0-.42.15-.08.32-.03.5.16.04.02.1-.03.07-.07-.14-.2-.35-.43-.38-.68-.16-.2-.13-.29.09-.27.15-.07.28-.03.38.12.04.03.09-.03.07-.07-.18-.28-.36-.57-.53-.85-.08-.12-.15-.24-.23-.35,0,0,0,0,0,0,.2-.03.37.03.52.16.05.03.1-.03.08-.08-.23-.39-1.11-1.75-.04-1.15.04.02.1-.02.08-.06-.15-.4-.3-.81-.46-1.21-.06-.15-.16-.39-.22-.57,0-.08,0-.17,0-.25.06-.05.21,0,.53.26.06.05.13-.02.08-.08-.03-.03-.06-.07-.1-.11,0,0,0,0,0,0-.18-.2-.4-.46-.39-.7-.08-.21-.03-.22.15-.03.13.08.24.18.34.3.05.05.13-.01.09-.07-.05-.09-.63-.89-.59-.93.01-.02.54.32.63.38.05.03.12-.04.07-.09-.16-.15-.71-.6-.67-.8-.12-.15-.06-.17.19-.06.14.07.28.14.41.23.05.03.11-.03.08-.08-.15-.26-.32-.5-.49-.74-.32-.45-.1-.26.28-.16.05.01.1-.04.07-.09-.2-.28-.53-.55-.71-.76,0,0,0,0,0,0,.17.18.54.31.84.4.05.01.08-.04.06-.08-.15-.3-.31-.59-.5-.86-.11-.16-.59-.79.15-.23.04.03.1-.03.07-.07-.17-.22-.33-.45-.5-.67-.03-.04-.09-.11-.14-.18,0-.11,0-.22,0-.33.08.03.18.07.33.15.04.02.09-.02.07-.07-.3-.58-.24-.55.33-.27.05.03.1-.04.06-.08-.26-.31-1.08-.96-.52-1.23.03-.01.04-.05.02-.08-.09-.15-.19-.28-.29-.42.1.06.19.12.29.18.04.02.09-.02.08-.06-.11-.32-.27-.57-.5-.77-.08-.42-.21-.82-.42-1.19-.53-.91-1.49-1.35-2.49-1.54-.76-.14-2.11-.48-2.73.15-.29.29-.34.68-.36,1.07-.05.79-.03,1.59-.04,2.37-.02,1.61-.02,3.22,0,4.84.01,1.83.05,3.65.1,5.48.02.86.05,1.72.08,2.58.02.48.04.97.06,1.45.01.29.12.74.06,1.08h-.02c-.1.04-.18.13-.18.24,0,.03,0,.06,0,.08-.79-.01-1.57-.02-2.36-.03-.16,0-.32,0-.48,0-.19-.26-.77-1.05-.88-1,.03-.01.22.05.44.13-.2-.08-.4-.2-.58-.3,0-.23,0-.47,0-.7.1.08.2.16.31.25-.09-.09-.16-.18-.22-.27.18.28,1.2.63,1.53.8.05.03.1-.04.06-.08l-.88-.91c-.15-.15-.61-.5-.67-.67.07.19.9.51,1.08.62.36.21.72.41,1.08.62.05.03.11-.04.06-.08-.36-.39-.72-.77-1.08-1.16-.17-.18-.87-.73-.91-.94.02.13,1.02.61,1.18.71.23.15.45.32.66.48.03.03.25.25.38.3.09.07.17.15.26.22.05.04.13-.03.08-.08-.08-.07-.16-.13-.24-.2,0,0,0,0,0,0,0-.2-1.01-.89-1.18-1.04-.35-.32-.69-.65-1.03-.97-.26-.24-.07-.06.08.04.19.13.4.24.6.36.43.27.85.57,1.25.88.06.04.12-.05.07-.09-.73-.77-1.44-1.59-2.2-2.32-.56-.54.17.09.39.24.47.32.94.64,1.42.97.05.03.11-.05.06-.08-.72-.58-1.51-1.32-1.92-2.16-.27-.55.29.08.5.24.44.33.87.66,1.31.99.05.04.1-.04.06-.08-.53-.68-1.07-1.36-1.6-2.03-.35-.45-.3-.38.15-.11.41.24.83.49,1.24.73.05.03.11-.04.06-.08-.55-.5-1.05-1.02-1.5-1.61-.23-.29-.57-.5-.05-.34.39.12.85.54,1.15.79.06.05.14-.03.08-.08-.18-.19-1.26-1.55-1.21-1.57.13-.07,1.19.71,1.33.79.06.04.13-.05.08-.1-.44-.46-.89-.92-1.33-1.38-.15-.15-.54-.34-.2-.22.32.12.63.33.93.48.07.03.13-.05.08-.1-.18-.19-.98-1.19-.99-1.19.22-.07,1.26.69,1.49.82.07.04.13-.05.08-.1l-1.01-1.1s-.39-.45-.4-.44c.11-.06.85.53.8.5.06.05.14-.03.09-.09-.28-.33-.91-.84-1.05-1.25-.05-.16-.26-.19.23.01.29.12.58.24.87.36.07.03.1-.06.06-.11-.36-.41-.72-.82-1.07-1.24-.02-.03-.3-.29-.26-.35.09-.13.98.49.99.5.05.04.15-.01.1-.08-.2-.29-.41-.59-.61-.88-.26-.37-.33-.66.27-.31.06.04.14-.05.08-.1-.09-.08-.65-.62-.84-.86,0-.04,0-.08,0-.12.2.04.83.42.93.47.06.03.14-.05.08-.1-.14-.12-.27-.25-.39-.38-.48-.34-.45-.52.08-.55.07.03.13-.04.08-.11-.18-.23-.42-.43-.43-.73,0-.14.11-.13.09-.26-.03-.26-.06-.39-.3-.52-.08-.04-.15.08-.07.12.01.23.03.45.04.68-.03.02-.02.07,0,.1.51.64.5.37-.06.6,0,0-.01,0-.02.01.03-.49.06-.99-.06-1.42-.25-.91-1.42-.77-2.17-.75-.91.03-1.89.18-2.61.76-.87.7-1.03,1.79-1.04,2.85-.01,1.5.02,3,.03,4.5l.04,5.36c.01,1.78-.05,3.59.18,5.36.01.08.06.13.11.16-.49,0-.97,0-1.46,0-.18,0-.37,0-.55,0,0-.01,0-.02,0-.04,0-.08,0-.16,0-.25.2.03.41.06.61.09.04,0,.07-.04.04-.07-.12-.14-.6-.56-.59-.72,0-.05.75.17.84.2.04.01.09-.05.05-.08-.3-.24-.63-.47-.93-.73,0-.09,0-.17,0-.26.15.07.32.15.4.18.05.02.08-.05.05-.09-.04-.05-.25-.25-.45-.46,0-.1,0-.2,0-.3.35.18.81.41.88.44.05.03.11-.04.07-.09-.26-.27-.52-.55-.78-.82-.06-.06-.12-.12-.18-.19,0-.09,0-.17,0-.26.19,0,.37.07.53.23.05.03.11-.03.08-.08-.15-.25-.49-.62-.62-.92,0-.08,0-.16,0-.24,0,0,0,0,0,0,.15.01.47.25.59.31.05.02.12-.03.08-.08-.05-.06-.44-.52-.68-.85,0-.12,0-.23,0-.35.29.08.79.41.95.52.06.04.12-.05.07-.09-.17-.15-.74-.63-1.04-.99,0-.12,0-.23,0-.35.01,0,.02.01.04.02.27.13.52.29.78.43.06.03.11-.04.07-.09-.26-.28-.65-.6-.84-.92,0-.01-.01-.02-.02-.03.02.01.04.02.08.03.22.07.47.26.68.36.06.03.11-.04.07-.09-.04-.05-.6-.64-.89-.95,0-.06,0-.12,0-.18.33.15.98.68,1.02.72.05.04.13-.01.09-.07-.34-.44-.7-.87-1.01-1.33.03.03.08.07.13.12.24.22.5.42.75.63.06.05.12-.02.08-.08-.05-.07-.29-.32-.5-.6.1.15.19.3.24.45-.08-.23-.53-.56-.83-.79,0-.17-.01-.34-.02-.51.09.16.21.32.33.48-.1-.15-.16-.28-.14-.35.01-.04.82.44.92.51.05.03.12-.05.07-.09-.36-.29-.73-.59-1.03-.95-.02-.03-.1-.11-.18-.21,0-.09,0-.19,0-.28.3.11.95.61.97.63.05.04.13-.03.08-.08-.06-.06-.67-.63-1.06-1.05,0-.09,0-.18,0-.27.44.26,1.17.7,1.26.75.05.03.11-.04.07-.09-.38-.38-.96-.81-1.34-1.24,0-.04,0-.08,0-.12.19.11.45.22.58.29.36.2.71.4,1.07.6.06.03.13-.05.07-.09-.52-.42-1.09-.87-1.52-1.39-.17-.2-.39-.33.05-.03.33.22.7.41,1.04.61.06.04.12-.05.08-.1-.35-.44-.7-.87-1.05-1.31-.13-.16-.47-.38-.1-.3.26.06.62.4.8.55.05.04.14-.01.1-.07-.25-.32-.49-.65-.74-.97-.41-.55.04-.13.29,0,.06.03.11-.04.07-.09-.08-.09-.58-.78-.87-1.08,0-.02,0-.04,0-.06.28.16.76.57.91.66.06.04.12-.05.07-.09-.11-.12-.77-.89-1.03-1.29,0-.07,0-.15,0-.22.29.1,1.2.7,1.31.77.06.04.12-.04.07-.1-.41-.46-.79-.92-1.15-1.42-.05-.06-.18-.2-.23-.31,0-.04,0-.09,0-.13.13-.11,1.05.6,1.06.61Zm-1.06-.68c.01-.18.03-.35.06-.52.33.38.78.9.88.95-.09-.03-.62-.29-.94-.43Zm.94.43s0,0,.01,0c0,0,0,0-.01,0Zm-.81-1.34c.03-.12.06-.24.09-.36.22.22.42.46.63.71,0,0,0,0,0,0-.23-.17-.47-.28-.73-.36Zm.93-1.62c.11.1.22.21.34.33-.21-.08-.42-.14-.57-.19.04-.05.07-.1.12-.14.21-.22.44-.4.69-.54.25.25.83.83,1.05,1.02-.32-.17-1.48-.57-1.55-.59-.06-.02-.12.07-.07.11Zm-.57.72c.08.09.33.4.53.61-.22-.1-.51-.22-.71-.29.1-.27.23-.53.4-.76.15.2.58.79.67.78-.11.01-.68-.37-.81-.44-.07-.03-.13.05-.08.1Zm-8.38-45.22c.5-.28,1.52-.4,1.87-.47.75-.16,1.52-.27,2.29-.33,1.41-.11,2.82-.02,4.21.22-1.38,2.49-.86,5.47.32,7.93.7,1.45,1.62,2.77,2.52,4.11.94,1.4,2.1,2.93,2.24,4.67-.32.02-.65.05-.97.08-.08,0-.13.05-.16.1-.01,0-.02,0-.03.02-.44.33-.5,1.15-.41,1.66.04.25.14.49.34.66.11.09.22.11.34.11.03.04.07.07.14.07.34.01.68.02,1.01.01-.08,1.97.06,3.97.1,5.94.04,1.83.02,3.69.35,5.5-.14,0-.29.02-.43.02-.82.04-1.76.04-2.62.18-.48-1.84-1.11-3.63-1.97-5.32-2.63-5.2-7.99-8.73-9.88-14.33-1.19-3.52-.76-7.17.76-10.51.06-.13.04-.25-.02-.35Zm8.7-.59s0,0,.01-.01c.41-.19.89-.28,1.32-.11-.6.29-1.01,1.1-.74,1.72.3.67,1.12.71,1.56.15.44-.56.29-1.43-.23-1.9.47-.12.99-.22,1.47-.16-.29.52-.39,1.22.06,1.66.37.36,1.08.45,1.39-.04.38-.6-.11-1.36-.62-1.67-.04-.02-.08-.04-.12-.07.77-.18,1.67-.44,2.41-.2.03.01.06.02.09.04-.57.28-.98.94-.63,1.57.36.64,1.18.5,1.56-.04.35-.51.17-1.1-.23-1.5.53-.13,1.11-.2,1.57.04-.53.32-.83,1.11-.42,1.64.42.54,1.15.39,1.38-.24.17-.46,0-.97-.31-1.33.6-.21,1.33-.34,1.87-.05-.55.29-.93,1-.64,1.58.29.59,1.01.64,1.4.12.38-.51.26-1.2-.14-1.65.59-.15,1.22-.1,1.76.21-.53.27-.87.7-.65,1.2-.05.43.4.77.83.74.51-.04.82-.56.82-1.03,0-.3-.09-.56-.23-.76.24-.03.52-.06.74,0,.12.03.22.09.3.17,0,.03,0,.07.02.11.72,1.49,1.03,2.92.75,4.58-.24,1.45-.86,2.8-1.56,4.08-1.35,2.44-3.24,4.78-3.7,7.6-2.02.07-4.06.12-6.07.27.04-1.32-.56-2.46-1.25-3.57-.83-1.33-1.76-2.59-2.57-3.92-1.62-2.68-2.83-6.06-1.18-9.03.04-.07.03-.13,0-.18Zm1.6.02c.36.27.56.75.45,1.19-.16.63-1.03.85-1.19.09-.13-.62.41-.89.74-1.29Zm2.14-.24c.2.07.39.18.55.35.13.13.27.33.3.51.12.75-.38.76-.74.55-.56-.31-.33-.94-.12-1.41Zm3.15-.18c.38.29.6.78.27,1.24-.16.08-.32.16-.48.24-.41-.13-.55-.35-.41-.68.06-.39.29-.58.61-.79Zm2.18.08s.05.03.09.02c.04.04.08.07.11.12.11.14.21.29.25.46.07.3-.07,1.19-.73.71-.5-.36.01-.95.28-1.31Zm2.6.03c.06.06.13.13.18.21.19.28.26.67.08.98-.21.38-.75.39-.9-.06-.18-.54.3-.83.64-1.14Zm2.41.29c.17.17.3.38.33.62.09.75-.86.99-1.06.23,0-.01,0-.02-.01-.03-.05-.45.34-.7.75-.82Zm.48,43.04c-.08,0-.15,0-.23,0-.71-3.19-.7-6.2.25-9.36.1-.34.21-.68.33-1.01.34.09.63.26.83.61.35.61.23,1.34.05,1.99-.35,1.28-.82,2.52-1.05,3.83-.24,1.31-.31,2.62-.18,3.94Zm-1.53-5.01c-.09-.24-.2-.48-.33-.71-.91-1.66-2.56-2.07-4.34-1.8-1.66.25-3.31.98-3.96,2.64-.29.74-.34,1.55-.23,2.32.06.41.17.82.33,1.21.18.43.66,1.02.5,1.51-.35,0-.71,0-1.07,0,0-2.95-.35-5.97-.84-8.87-.06-.37-.13-.75-.2-1.12.01,0,.02,0,.04,0,.78-.15,1.58-.22,2.37-.31,1.38-.15,2.76-.25,4.14-.31,1.38-.06,2.77-.07,4.15-.03.19,0,.39,0,.59,0-.14.39-.26.79-.38,1.19-.38,1.34-.68,2.8-.76,4.27Zm.75,5c-.35,0-.7,0-1.05,0,0-.02,0-.04,0-.06-.01-.68.25-1.3.45-1.95.12.69.32,1.37.59,2.01Zm-7.38-6.16c.09-.06.18-.11.28-.16.08.21-.08.19-.28.16Zm-.75.61c.06-.07.13-.13.19-.19.25.32.05.27-.19.19Zm-.34.44c.04-.05.07-.11.11-.16.02.12-.01.17-.11.16Zm-.16.28c.13.13.26.26.3.39.14.17.07.14-.21-.08l-.18-.11c.03-.07.06-.13.09-.2Zm-.22.53c.04.05.08.11.13.16-.05-.03-.1-.06-.14-.09,0-.02.01-.05.02-.07Zm-.11.47c.1.13.18.25.25.38.02.04.04.06.05.08-.01,0-.02,0-.04-.01-.09-.02-.19-.09-.3-.15,0-.1.02-.2.03-.29Zm-2,4.82c.16.4.43.87.71,1.03-.5-.28-1.11-.63-1.67-.94.63-.18,1.3-.24,1.96-.26-.05.03-.07.09-.02.14.2.17.39.35.57.54.14.15.26.31.38.48-.02,0-.04-.01-.06-.01-.6-.26-1.19-.72-1.75-1.06-.05-.03-.14.02-.12.09Zm1.35-25.21c-.56-.47-.55-.47.03-.01.09.07.17.15.26.23-.16.02-.32.03-.47.05-.01,0-.03,0-.04.01-.11-.09-.18-.24-.23-.4.1.1.24.18.42.22.07.02.1-.09.03-.1Zm0-.18c-.17-.14-.34-.27-.52-.4,0-.03,0-.06,0-.09,0-.11.03-.21.06-.32.02.02.05.04.07.06.04.05.1.12.16.18.18.21.46.5.53.78.07.27-.17-.1-.31-.21Zm5.05-1.47c.23.29.47.57.73.83.15.15.34.36.51.45-.27-.11-.7-.44-.84-.53-.38-.24-.73-.52-1.08-.8.22-.01.44-.02.67-.03-.01.03-.01.06.01.09Zm2.65-.03c.33.15.54.4.63.74-.35-.39-.76-.69-1.23-.91.39-.02.78-.04,1.17-.06.15.22.38.33.5.56-.31-.21-.63-.37-1-.5-.1-.04-.16.12-.07.17Zm.7,1.09c.05.06.18.05.17-.05-.03-.32-.13-.59-.3-.81.2.1.38.22.58.37.04.36-.15.71-.44.91-.03-.01-.06-.02-.09-.02-.02,0-.04,0-.07,0,.02-.03.02-.07,0-.11-.4-.46-.81-.93-1.21-1.39.54.25.99.6,1.37,1.09Zm-6.72,11.9s0-.07,0-.1c.28.25.6.51.8.79-.14-.18-.5-.43-.8-.69Zm.7.71c-.21.01-.43.02-.64.04-.02-.21-.03-.41-.05-.62.21.22.44.42.69.59Zm-.67-.94s1.36.52,1.45.56c.06.03.09-.07.04-.1-.11-.08-1.11-.86-1.58-1.34,0-.11-.01-.22-.02-.33.36.15,1.01.67,1.35.81.17.15.35.29.53.43.06.04.13-.05.08-.1-.14-.11-.28-.22-.42-.33,0,0,0,0,0,0,0,0,0,0,0,0-.04-.03-.08-.06-.13-.09-.35-.33-1.27-1.42-1.44-1.62,0,0,0-.01,0-.02.18.07.56.43.73.54.33.23.67.45,1,.68.07.04.14-.06.09-.11-.57-.52-1.09-1.09-1.63-1.63.14.1.29.19.42.29.45.32.9.65,1.33.99.07.06.17-.03.1-.1-.49-.53-.97-1.06-1.46-1.59-.05-.06-.17-.2-.29-.34.19.13.39.27.4.28.15.11.46.41.69.48.12.09.24.17.36.25.08.05.16-.08.08-.13-.22-.15-.43-.3-.65-.45-.18-.15-.36-.32-.4-.36-.26-.25-.49-.51-.71-.8-.03-.04-.07-.08-.1-.12,0-.05,0-.11,0-.16.01,0,.02,0,.03.02.25.11.49.31.71.48,0,0,.42.38.71.56.12.12.24.23.36.35.07.06.17-.04.1-.1-.07-.06-.14-.12-.21-.18,0,0,0,0,0,0,0-.06-.54-.54-.58-.59-.31-.33-.6-.68-.87-1.05,0,0-.18-.26-.27-.38,0-.01,0-.03,0-.04.19.09.82.54.89.59.61.41,1.2.86,1.77,1.34.07.06.18-.04.11-.11-.08-.09-.17-.17-.25-.26-.04-.05-.09-.11-.17-.17-.72-.73-1.45-1.45-2.15-2.2.05.03.11.06.16.09.2.11.4.23.59.35.23.15.46.3.68.46.1.07.4.38.58.43.09.08.18.15.27.23.07.06.18-.04.1-.1-.08-.06-.16-.13-.24-.19,0,0,0,0,0,0,0-.01-2.02-1.92-2.37-2.25,0,0,0,0,0-.01.2.13.91.61,1.09.73.54.36,1.06.75,1.57,1.16.07.06.18-.04.1-.1-.08-.08-.17-.16-.25-.24-.02-.02-.04-.04-.06-.06-.59-.6-1.14-1.26-1.75-1.82.14.1.28.19.42.28.53.37,1.06.75,1.59,1.12.07.05.16-.06.09-.12-.91-.86-1.98-1.72-2.8-2.59.28.29.97.6,1.38.87.36.23.71.48,1.06.74.08.06.14.11.19.14.11.08.23.17.34.25.07.05.16-.06.1-.12-.5-.45-.99-.91-1.49-1.36-.27-.24-.54-.49-.8-.73-.08-.08-.21-.22-.33-.35.06.04.1.06.1.06.25.15.51.3.76.45.58.36,1.15.74,1.7,1.14.07.05.16-.07.1-.13-.7-.62-1.45-1.29-2.25-1.81.16.07.31.14.46.22.59.3,1.15.64,1.69,1.01.07.05.16-.07.09-.12-.42-.35-.85-.7-1.28-1.05l-.58-.48s-.1-.09-.19-.17c.17.1.35.2.52.3.54.31,1.09.62,1.63.92.08.04.16-.06.1-.12-.19-.19-.39-.41-.61-.61.24.12.47.24.71.36.07.03.13-.02.12-.09-.06-.37-.49-.66-.16-.93.08-.07-.04-.18-.12-.12-.11.09-.22.18-.33.27-.04.04-.02.1.02.13.38.43.43.56.15.39-.14-.07-.27-.14-.41-.21-.27-.14-.55-.28-.82-.42-.09-.05-.17.08-.08.14.37.25.68.58,1.05.82.59.39-.2-.13-.34-.2-.5-.28-.99-.56-1.49-.84.53-.02,1.05-.05,1.58-.07,1.05-.05,2.13-.05,3.19-.12.03.21.04.39-.04.6-.03.09.03.15.11.17-.03.75.07,1.54.09,2.28.03.92.05,1.84.06,2.76.02,1.83-.03,3.68.08,5.51,0,0,0,0,0,.01-1.65.09-3.3.18-4.94.27-.29-.26-.92-.8-.9-.93Zm-.05-.15c-.01-.2-.02-.41-.03-.61.32.36.68.7,1.06.98.36.26.24.17-.07.02-.31-.15-.63-.26-.96-.38Zm-.06-1.13c0-.19-.02-.39-.02-.58.28.37.59.72.92,1.05-.29-.17-.59-.32-.89-.46Zm-.03-.97c0-.13,0-.26,0-.38.24.3.51.63.79.91-.26-.18-.52-.35-.78-.53Zm-.02-.71c0-.18,0-.37,0-.55l.72.77c.12.13.28.35.46.58-.38-.28-.77-.54-1.16-.8Zm-.01-.87c0-.06,0-.13,0-.19.13.17.27.33.42.48-.14-.1-.28-.19-.41-.29Zm0-.77c0-.17,0-.33,0-.5.26.36.52.71.81,1.04-.26-.19-.53-.37-.81-.54Zm-.01-.93c0-.21,0-.43,0-.64.4.41.8.82,1.2,1.23.17.17.34.34.5.51-.12-.08-.22-.14-.27-.17-.46-.33-.94-.63-1.43-.93Zm-.01-.94c0-.16,0-.31,0-.47.38.4.77.78,1.17,1.15-.38-.24-.76-.47-1.16-.68Zm.03-1.54c.41.47.83.94,1.27,1.39.11.12.23.23.34.34-.13-.08-.22-.14-.25-.16-.46-.31-.93-.6-1.41-.87-.01-.47-.03-.95-.05-1.42l1.03.97c.24.23.48.49.73.74-.52-.37-1.04-.74-1.57-1.1-.07-.05-.15.06-.09.12Zm-.11-1c-.01-.21-.02-.43-.04-.64.31.3,1.01,1,1.64,1.59-.52-.34-1.06-.65-1.6-.95Zm-.05-.87c0-.08-.01-.16-.02-.24.33.22,1.24.85,1.96,1.37-.76-.47-1.7-1-1.94-1.13Zm2.5-1.38c-.31-.3-.62-.6-.93-.9-.06-.06-.18-.16-.29-.25.6.46,1.26.86,1.89,1.27-.16,0-.31.02-.47.02-.39.02-.77.03-1.16.05,0,0,0,0,0,0-.27-.31-.54-.61-.81-.92-.12-.14-.25-.3-.38-.43.63.49,1.39.88,2.08,1.25.06.03.14-.05.08-.1Zm1.84-.02c-.25-.28-.49-.56-.74-.84.46.35,1.01.62,1.52.86-.26.01-.51.03-.77.04,0-.02,0-.05-.02-.07Zm-1.74-.85s-.08-.09-.12-.13c.52.41,1.14.75,1.7,1.07-.24.01-.47.03-.7.04-.29-.33-.59-.65-.88-.98Zm2.78.87s0-.04-.03-.05c-.46-.36-1.01-1.07-1.39-1.29.62.37,1.28.88,1.91,1.29.08.05.16-.06.1-.13-.19-.21-.38-.42-.56-.63.42.29.85.56,1.3.8-.44,0-.89,0-1.34.02Zm1.04-.38c-.56-.32-1.08-.68-1.59-1.09-.08-.07-.2.04-.12.12l.72.81c-.54-.35-1.08-.7-1.62-1.05.49-.02.99-.05,1.48-.08.37.43.75.86,1.12,1.28Zm-2.79-.2c.11.13.77.71.2.28-.57-.42-1.16-.78-1.72-1.21.23,0,.47-.02.7-.03,0,.02,0,.04.02.06.27.3.53.6.8.9Zm-1.04-.07c.16.17.3.38.48.53-.64-.49-1.38-.92-2.06-1.36.27,0,.55-.02.82-.03.25.28.51.57.76.85Zm-1.03-.04c.14.13.27.28.41.4.11.09.4.27.09.07-.65-.41-1.3-.8-1.93-1.23.21,0,.41,0,.62-.01.27.26.54.52.81.77Zm-.84.19c.15.17.9.83.29.35-.59-.46-1.22-.87-1.83-1.3.23,0,.46,0,.69,0,.28.32.56.63.85.95Zm-.64-.16c.42.29.83.59,1.24.88-.24.01-.48.02-.73.04-.27-.29-.53-.59-.8-.88-.18-.19-.62-.81-.82-.83,0,0,0,0,0,0,.27.02.88.64,1.1.79Zm.24.8c-.2-.15-.39-.33-.58-.47-.44-.32-.88-.62-1.33-.92-.06-.04-.11.04-.07.09.27.34.57.81.89,1.18-.26-.28-.56-.62-.87-.79-.03-.02-.05-.03-.07-.04-.04-.04-.08-.07-.11-.11.05-.18.11-.36.12-.54.19,0,.37,0,.56,0,.44.51.96,1.22,1.46,1.59Zm-1.67-.54c.28.24.55.49.83.73-.13.01-.25.02-.38.04-.13-.28-.28-.53-.45-.77Zm.4-.08c-.08-.1-.69-.59-.32-.42.57.27,1.12.74,1.63,1.17-.22.01-.44.03-.67.05-.21-.26-.43-.53-.64-.79Zm1.63,1.25c.35.29.7.58,1.05.87.06.05.13.11.19.16-.64-.34-1.35-.61-1.96-.85,0-.05,0-.1-.01-.15.24,0,.48-.02.73-.02Zm6.8,11.69c.5-.03,1.13-.12,1.75-.15-.15.35-.28.71-.42,1.06-.21-.01-.42-.02-.63-.02-2.71-.07-5.43.03-8.13.31-.81.08-1.92.08-2.84.33-.07-.35-.15-.7-.24-1.04.79-.11,1.63-.06,2.33-.1,2.72-.13,5.44-.26,8.16-.4Zm-9.7,12.14s-.09,0-.14,0c-.44-2.84-1.33-5.64-1.47-8.53-.03-.57.14-.97.47-1.22.6,3.23.71,6.49,1.13,9.74Zm.58.59c.24,0,.47,0,.7,0,0,0,.01.01.02.02.4.29.76.61,1.08.98-.6-.33-1.2-.66-1.8-.99Zm2.29-.06c-.26-.12-.5-.27-.73-.44.08-.17.1-.35.1-.54.29.31.59.62.85.95.16.21.6.41-.22.02Zm.56.34c-.06.02-.11.06-.15.12,0,0,0,0,0,0-.28-.17-.91-.57-1.21-.76,0-.01.02-.03.02-.04.13.1.36.21.41.24.3.18.61.32.93.44Zm-1.55-2.59c.25.23.5.46.76.69.32.29.81.6,1.05.95-.23-.33-.96-.62-1.52-.85-.07-.26-.18-.53-.28-.79Zm.74,2.78c-.14-.06-.65-.3-.98-.46.03,0,.06,0,.09,0,.13,0,.21-.06.26-.14.21.21.51.53.62.6Zm-.87-3.08c-.09-.21-.16-.41-.22-.6.27.28.54.56.8.84.1.11.22.26.34.4-.05-.04-.09-.07-.09-.07-.28-.19-.56-.38-.84-.57Zm-.26-.79s-.01-.05-.01-.07c-.03-.19-.04-.37-.04-.55.38.5.76,1.04,1.21,1.45.54.51-.06-.04-.21-.15-.3-.23-.6-.45-.9-.68-.02-.01-.04-.01-.05,0Zm10.55-1.48c.24-1.26.7-2.44,1.02-3.67.21-.84.25-1.78-.3-2.51-.27-.35-.61-.54-.99-.64.15-.39.3-.78.47-1.17.54.04,1.03.16,1.41.45,1.08.84.82,2.4.46,3.52-.45,1.38-.94,2.71-1.21,4.14-.25,1.33-.36,2.68-.35,4.03-.24-.02-.49-.03-.74-.05-.13-1.38-.04-2.75.22-4.11Zm-.35-8.56s-.07,0-.11,0c-.94.04-1.88.09-2.82.13.2-1.87.17-3.79.13-5.67-.02-.92-.05-1.84-.09-2.76-.04-.87,0-1.8-.2-2.64-.02-.06-.05-.1-.08-.12,0-.05,0-.11,0-.16.22-.02.43-.04.65-.07.13-.02.21-.11.23-.2.47-.2.82-.64.79-1.18-.02-.41-.32-1.04-.78-1.12,0-.12-.09-.23-.24-.22-.38.02-.77.03-1.15.05,1.05-3.18,3.16-5.73,4.54-8.75,1.02-2.21,1.67-5.29.22-7.47,0,0,0-.02,0-.03,1.12-.4,2.25-.47,3.43-.53,1-.05,2.01-.1,3.01-.12,3.33,5.5,1.69,11.99-.78,17.48-1.3,2.9-2.79,5.71-4.3,8.5-.86,1.59-1.71,3.21-2.44,4.87Zm-13,2.25c.02.09.04.18.06.27-.58.31-.96.83-.93,1.69.06,1.41.34,2.85.59,4.23.27,1.49.55,3.03,1.05,4.46-.4.05-.8.12-1.18.23-.31-2.53-.71-5.04-1.12-7.55-.2-1.21-.65-3.05.58-3.88.22-.15.47-.26.74-.34.07.29.14.59.21.88Zm-.38,11.53c.19.18.38.37.58.55.11.11.23.22.34.33-.01,0-.02,0-.04,0-.48-.09-1.03-.39-1.5-.61.2-.1.41-.19.63-.26Zm15.29,20.84c.01-.14.02-.27.03-.41.17.18.37.33.61.44-.22,0-.43,0-.65-.01,0,0,0,0,0-.02Zm0-9.13c.13.22.3.49.35.64-.03-.01-.06-.03-.09-.05-.09-.04-.17-.06-.25-.08,0-.17,0-.34,0-.51Zm.01,1.23c.1.27.2.54.31.81.21.55.15.45-.29.36,0-.39,0-.78-.01-1.17Zm.02,1.67c.09.19.18.38.24.57.02.06.17.21.11.26.02-.02-.18-.09-.34-.14,0-.23,0-.46,0-.69Zm.02,1.79c0-.12,0-.25,0-.37,0-.12,0-.23,0-.35.18.24.38.51.44.73,0,.04.02.07.03.09-.01,0-.03,0-.05,0,.09-.02-.29-.09-.41-.11Zm.04,2.45c.22.23.43.5.51.78.15.49-.09.3-.4.3-.04,0-.06.04-.04.08.02.05.39.7.39.69-.05.09-.31-.17-.5-.4.03-.48.04-.97.04-1.46Zm0-.74c.08.13.15.25.21.38.21.45.04.31-.21.15,0-.18,0-.35,0-.53Zm-.03-1.57c.06.2.24.77.32.9-.06-.02-.18-.03-.3-.04,0-.29-.01-.57-.02-.86Zm0-.12v-.02s.02,0,.04,0c-.02,0-.03,0-.04,0Zm-.06-5.02c0-.06,0-.12,0-.18,0-.06,0-.12,0-.18.13.19.32.47.42.62-.11-.09-.31-.2-.42-.26Zm0-.61c0-.11,0-.23,0-.34.12.21.25.41.41.6,0,0,.01.01.02.02-.14-.09-.29-.19-.42-.28Zm0-.62c0-.19,0-.38,0-.58.23.24.69.7.63.85.02-.04-.47-.22-.62-.27Zm-.01-.77c0-.16,0-.33,0-.49.12.1.23.22.29.33.22.39.02.25-.29.16Zm-.01-.65c0-.26,0-.53-.01-.79.24.25.54.56.62.87.12.44-.32.14-.61-.08Zm-.02-1.02c0-.17,0-.34,0-.51.2.24.4.49.39.61,0-.05-.23-.08-.38-.1Zm.42-1.44c.13.33-.21-.02-.41-.11-.01,0-.02,0-.03,0,0-.14,0-.29,0-.44.18.18.38.37.45.55Zm-.46-1c0-.13-.01-.25-.02-.38.1.13.13.26.02.38Zm.02,1.42c0-.1,0-.2,0-.3,0-.03,0-.06,0-.09.2.39.2.42,0,.38Zm-.07-2.06c-.01-.1-.03-.21-.04-.31.11.12.18.26.23.43-.06-.04-.13-.08-.19-.12Zm-5.25,15.53c-.02-.75-.07-1.5-.09-2.26-.05-1.4-.09-2.79-.12-4.19-.06-2.79-.08-5.59-.05-8.38,0-.64.01-1.29.03-1.93,0-.24-.07-.65.02-.88.08-.19.58-.63.75-.66.14-.03.32.01.46.02,1.18.07,2.59.26,3.25,1.39.65,1.11.47,2.69.49,3.93.02,1.39.05,2.78.07,4.17.02,1.55.04,3.1.06,4.65.02,1.6-.06,3.23.12,4.81,0,0,0,0,0,0-1.67-.03-3.34-.06-5.02-.09.07-.17.05-.35.04-.6Zm-4.44,1.23c-.05.03-.07.12-.02.16.05.04.09.08.14.12-.34-.13-.68-.25-1.02-.38-.09-.04-.18.11-.1.17.28.23.52.47.73.76-.65-.3-1.28-.62-1.9-.97,1.02,0,2.05.02,3.07.03,0,.03.01.06.05.09.3.19-.71-.05-.6-.05-.26.02-.12-.07-.35.08Zm-5.14-6.08c-.01-1.63-.03-3.25-.04-4.88-.01-1.71-.06-3.43-.04-5.15,0-.84.07-1.76.77-2.34.53-.44,1.24-.58,1.91-.63.63-.05,1.66-.23,1.92.54.12.33-.01.95-.02,1.31,0,.44-.01.87-.02,1.31-.02,1.69-.04,3.38-.06,5.07-.04,3.38-.08,6.77-.12,10.15-1.5-.01-3.01-.02-4.51-.03.05-.02.1-.07.11-.16.2-1.72.11-3.47.1-5.2Zm.99,5.92s.02.02.03.03c.49.35.92.73,1.3,1.17-.78-.41-1.57-.81-2.35-1.21.34,0,.68,0,1.02,0Zm1.58.01s.02.02.03.03c.42.31.76.66,1.08,1.07-.76-.37-1.51-.74-2.27-1.1.39,0,.78,0,1.17,0Zm3.15-.53c-.26,0-.52,0-.79,0,0-.14,0-.27,0-.41.26.14.52.28.78.41Zm-.78-.51c0-.17,0-.34,0-.51.23.2.54.46.64.7.2.27.14.29-.17.06-.16-.08-.32-.17-.47-.25Zm.2-11.77c.12.13,1.46,1.39,1.41,1.54.03-.09-1.27-.73-1.46-.84,0,0-.02,0-.03,0l.02-1.46c.34.38.73.78,1.01,1.14-.14-.17-.58-.38-.89-.5-.07-.03-.11.07-.07.12Zm.67,1.85c.14.18.36.28-.09,0-.21-.13-.44-.24-.66-.35v-.62c.24.34.49.65.75.97Zm-.69.63c.2.36.47.87.79,1.26,0,0-.01,0-.02-.01-.27-.18-.56-.33-.85-.47,0-.1,0-.21,0-.31v-1.16c.41.43.8.89,1.23,1.25.39.33.21.17-.03,0-.33-.23-.69-.43-1.04-.64-.05-.03-.12.03-.09.09Zm-.12,5.27c.51.5,1.03.98,1.56,1.45-.46-.31-.93-.6-1.43-.86-.06-.03-.11.04-.07.09.15.16,2.01,1.98,1.95,2.09,0-.01-1.6-.92-2.05-1.18,0-.54.01-1.09.02-1.63,0,.01,0,.02.02.04Zm-.02-.05c0-.3,0-.6.01-.91.57.62,1.14,1.27,1.75,1.86-.12-.08-.24-.15-.35-.22-.43-.28-.87-.54-1.32-.78-.04-.02-.09.01-.09.05Zm-.03,2.52c0-.23,0-.47,0-.7.41.39,1.42,1.34,1.38,1.42,0,0-1-.52-1.39-.72Zm.04-3.69c0-.26,0-.53,0-.79.37.62.8,1.2,1.32,1.71,0,0-.01-.01-.02-.02-.44-.3-.87-.6-1.31-.9Zm.01-1.11c0-.29,0-.58.01-.87.56.68,1.24,1.37,1.66,2.12,0,.01.01.02.02.03-.01,0-.02-.01-.03-.02-.21-.12-.4-.3-.6-.45-.36-.27-.71-.54-1.07-.81Zm.01-1.07c0-.27,0-.54,0-.81.36.5.75.98,1.19,1.43.23.24.65.51.11.16-.42-.28-.88-.52-1.32-.78Zm.06-5.39v-.61c0-.07,0-.15,0-.22.35.34.83.77.95,1.12.06.18.34.22-.2.02-.26-.09-.51-.21-.76-.31Zm.01-1.13c0-.27,0-.55,0-.82.17.24.63.88.82,1.12-.18-.1-.6-.23-.83-.3Zm.01-1c0-.16,0-.32,0-.48.16.18.33.36.47.55-.02,0-.03-.01-.05-.02-.13-.05-.3-.05-.43-.05Zm.01-.88c0-.14.01-.29.02-.44.17.24.58.6.68.85-.05-.13-.42-.29-.71-.41Zm-7.48,13.25s.06.07.1.1c.07.08.57.51.58.61,0-.07-.35-.24-.68-.4,0-.11,0-.21,0-.32Zm0,1.5c.15.11.29.23.42.36,0,0,.25.18.22.2-.04.03-.41-.09-.64-.17,0-.13,0-.25,0-.38Zm.38,1.08c-.03.18-.22.15-.39.11,0-.18,0-.37,0-.55.18.18.39.41.38.45Zm-.4-3.68c.2.3.4.62.37.66.02-.02-.17-.06-.36-.1,0-.19,0-.37-.01-.56Zm.02,1.98c.1.12.17.2.17.2-.03.03-.09.03-.17.02,0-.07,0-.15,0-.22Zm-.03-2.43c0-.15,0-.29,0-.44.13.16.26.33.32.49.02.05.04.08.06.1-.02,0-.04-.01-.07-.02-.08-.01-.19-.07-.3-.14Zm-.02-.96c0-.13,0-.25-.01-.38.17.21.35.42.55.61-.06-.03-.13-.07-.19-.1-.11-.05-.23-.1-.34-.14Zm-.03-.9c0-.11,0-.23,0-.34.26.3.59.69.64.68-.06.02-.36-.16-.63-.34Zm-.02-.65c0-.13,0-.25-.01-.38.19.19.38.38.49.57.01.02.02.04.04.06-.02,0-.03-.01-.05-.02-.14-.03-.31-.14-.46-.23Zm-.03-.77c0-.18-.01-.37-.02-.55.16.21.32.42.48.63,0,.01.1.12.19.24-.18-.11-.44-.23-.65-.32Zm-.05-1.47c0-.1,0-.21-.01-.31.18.21.38.42.59.61-.17-.1-.35-.2-.53-.3-.02-.01-.04,0-.05,0Zm-.03-.8c0-.1,0-.2-.01-.31.26.3.53.58.81.76-.19-.12-.49-.31-.8-.45Zm-.03-.85c0-.13,0-.26-.01-.38.12.12.25.25.37.37.1.1.28.34.44.5-.13-.08-.27-.17-.27-.18-.18-.1-.35-.21-.53-.31Zm.81-2.1c-.18-.15-.65-.35-.89-.45,0-.06,0-.12,0-.18,0-.15-.01-.31-.02-.47.11.15.7.84.91,1.11Zm-.92-1.18c0-.13-.02-.26-.02-.39.11.13.23.27.35.4.5.54-.02.11-.25-.02-.03-.01-.06,0-.08.02Zm.08,2.55c0-.16-.01-.32-.02-.49.43.49.9,1.01,1.43,1.34-.38-.24-.91-.56-1.41-.86Zm-.02-.78c0-.25-.01-.51-.02-.76.37.41.85.87,1.04,1.32.14.32-.09,0-.29-.12-.24-.14-.49-.29-.73-.43Zm-.11-2.57c-.01-.16-.02-.33-.03-.5.15.24.31.47.49.7.15.19.47.36.11.16-.19-.11-.38-.23-.57-.36Zm.79-.66c.17.2.54.49,0,.13-.27-.18-.56-.34-.84-.5,0-.24,0-.49,0-.73.27.38.54.74.84,1.1Zm.14,16.27c.46,0,.92,0,1.37,0,.54.5,1.08,1.01,1.62,1.51-.9-.48-1.8-.95-2.69-1.43-.09-.05-.18.07-.11.14.45.45.9.91,1.35,1.36-.84-.52-1.67-1.05-2.51-1.58-.08-.05-.18.07-.11.14.6.53,1.19,1.07,1.79,1.6-1-.48-1.95-1.03-2.86-1.67-.08-.06-.17.07-.1.13.47.5.94,1,1.41,1.49-.95-.5-1.85-1.07-2.72-1.71,1.19,0,2.37-.01,3.56,0Zm-1.74,2.14c-.99-.71-1.98-1.42-2.97-2.13.31,0,.61,0,.92,0,0,.02,0,.05.03.06.74.63,1.42,1.32,2.03,2.07Zm-6.69-2.22c.31.02.62.03.93.04,1.07.93,2.06,1.93,2.98,3.01-1.31-1.02-2.61-2.03-3.92-3.05,0,0,0,0,.01,0Zm-.61-.88c.07.07.37.2.62.31-.05.02-.09.04-.14.06-.18-.12-.35-.24-.48-.37Zm.43.97c.63.63,1.27,1.27,1.9,1.9.3.3.6.6.9.9.03.03.08.09.13.15-.25-.2-.51-.4-.76-.6-.74-.59-1.48-1.19-2.22-1.78-.08-.07-.2.05-.12.12.66.56,1.3,1.14,1.92,1.75.24.24.47.48.71.73-.16-.13-.31-.26-.47-.39-.65-.53-1.34-1.01-2.04-1.46-.08-.05-.15.06-.1.12.39.48.8.94,1.22,1.39-.54-.44-1.1-.87-1.67-1.28.14-.53.33-1.04.6-1.55Zm-.67,1.83c.86,1.05,1.7,2.14,2.63,3.11-.7-.72-1.82-1.52-2.77-2.23.03-.3.08-.6.14-.89Zm-.17,1.17c.43.47,1.14,1.23,1.67,1.77-.54-.48-1.27-1.11-1.69-1.47,0-.1.01-.2.02-.3Zm-.03.9c0-.1,0-.2,0-.31.51.59,1.33,1.54,1.78,2.03-.44-.37-1.24-.98-1.78-1.39,0-.12,0-.23,0-.34Zm0,.72c.11.12.21.24.32.35.08.09.2.25.34.42-.21-.16-.43-.3-.65-.43,0-.12,0-.23,0-.35Zm.02.7c.07.08.15.15.22.23.2.21.51.76.71.85-.3-.14-.62-.45-.91-.74,0-.11-.02-.23-.02-.34Zm.03.49c.49.48,1.1,1.1,1.06,1.21-.01.03-.54-.35-1-.69-.03-.17-.05-.35-.07-.52Zm.4,1.64s0,0,0-.01c.11.12.09.1,0,.01Zm.41,5.59s.05-.05.07-.08c.34-.04.69-.08,1.03-.12.33.21.65.44.95.71.13.12.27.25.37.38.26.33.02.08-.21-.04-.63-.36-1.28-.66-1.95-.93-.06-.02-.1.06-.06.1.42.44.95,1.18,1.43,1.45-.58-.33-1.2-.81-1.79-1.2-.06-.04-.11.04-.07.09.28.31.55.61.83.91-.34-.27-.75-.5-1.12-.72.15-.2.32-.38.52-.54Zm2.67-3.78c.44.58.89,1.17,1.33,1.75-.68-.61-1.36-1.22-2.04-1.82.05,0,.09,0,.14,0,.19,0,.38,0,.56-.01-.02.02-.02.05,0,.09Zm9.82-.56c.37.47.73.95,1.1,1.42-.67-.48-1.34-.96-2.01-1.45.31-.03.62-.05.93-.08-.03.03-.04.07-.01.11Zm5.19-.62c.51.63.95,1.3,1.32,2.01-.03,0-.06,0-.09.01-.86-.64-1.73-1.29-2.59-1.93.45-.06.89-.12,1.34-.18,0,.03,0,.06.02.09Zm9.04,1.05c-.45-.67-.89-1.34-1.34-2.01.87.68,1.74,1.36,2.61,2.05-.7.07-1.4.14-2.1.2-.46-.74-.99-1.41-1.6-2.02.82.55,1.58,1.18,2.26,1.91.08.09.24-.03.17-.13Zm3.03-3.36c.24-.06.48-.13.72-.2.5.82,1.01,1.63,1.51,2.45-.71-.78-1.46-1.53-2.23-2.25Zm2.61,3c-.27.02-.54.05-.81.07-.58-.91-1.16-1.81-1.74-2.72.89.84,1.74,1.72,2.56,2.65Zm-1.44-.5c-.73-.75-1.46-1.49-2.19-2.24.22-.05.44-.11.65-.16.51.8,1.03,1.6,1.54,2.4Zm.29.6c-.29.03-.58.05-.87.08-.47-.8-.93-1.61-1.4-2.41.76.78,1.51,1.55,2.27,2.33Zm-1.33-.31c-.74-.76-1.49-1.52-2.23-2.28.27-.06.54-.12.8-.18.48.82.96,1.64,1.43,2.46Zm.12.42c-.18.02-.36.03-.55.05-.44-.66-.89-1.31-1.33-1.97.63.64,1.25,1.28,1.88,1.92Zm-1.18-.51c-.73-.68-1.49-1.33-2.27-1.96.28-.06.56-.12.84-.18.48.71.96,1.42,1.44,2.14Zm.31.59c-.14.01-.28.03-.42.04-.11.01-.22.02-.32.03-.59-.76-1.17-1.52-1.76-2.28.86.7,1.7,1.44,2.51,2.21Zm-1.3-.29c-.85-.67-1.71-1.34-2.56-2.01.29-.05.58-.11.87-.17.56.73,1.13,1.45,1.69,2.18Zm-1.89-.42c-.57-.51-1.17-.97-1.82-1.38.27-.05.54-.1.8-.15.34.51.68,1.02,1.02,1.52Zm-.55.67c-.76-.6-1.55-1.16-2.37-1.68-.11-.07-.23.09-.14.18.63.54,1.16,1.15,1.62,1.83-.93-.66-1.86-1.32-2.8-1.97.65-.1,1.3-.21,1.95-.32.65.59,1.23,1.24,1.74,1.97Zm.12.39c-.22.02-.45.04-.67.07-.29-.46-.61-.89-.96-1.29.56.39,1.1.8,1.64,1.22Zm-3.42.09c-.41-.53-.82-1.06-1.23-1.59.77.51,1.55,1.01,2.32,1.52.11.07.21-.08.13-.17-.37-.42-.75-.84-1.12-1.26.72.51,1.44,1.02,2.17,1.52-1.21.12-2.43.25-3.64.38-.36-.53-.73-1.07-1.09-1.6.78.46,1.56.92,2.34,1.38.11.07.2-.08.13-.17Zm.52-.71c-.64-.42-1.28-.84-1.93-1.26.24-.04.47-.07.71-.11,0,0,0,0,0,0,.4.45.81.91,1.21,1.36Zm-1.02.41c-.76-.44-1.51-.89-2.27-1.33-.09-.05-.2.05-.14.14.36.52.71,1.04,1.07,1.56-.8-.54-1.59-1.09-2.39-1.63.65-.09,1.29-.18,1.93-.28.18-.03.36-.06.54-.08l1.25,1.62Zm-1.2.73c-.23.02-.45.05-.68.07-.17.02-.33.04-.5.05-.29-.56-.62-1.1-1-1.61.72.5,1.45.99,2.17,1.49Zm-3.1-.04c.08.05.19-.06.13-.13-.29-.39-.59-.79-.88-1.18.69.52,1.38,1.03,2.07,1.55-.7.08-1.41.15-2.11.23,0-.02,0-.05,0-.08-.43-.59-.87-1.17-1.3-1.76.7.46,1.39.92,2.09,1.38Zm-2.07-1.6c.26-.03.53-.06.79-.1.3.41.61.81.91,1.22-.57-.37-1.14-.75-1.7-1.12Zm-1.1,2.22c-.37-.48-.74-.96-1.11-1.44.65.46,1.31.92,1.96,1.37.08.06.18-.05.13-.13-.26-.41-.52-.82-.79-1.22.66.43,1.33.85,1.99,1.28-.73.08-1.47.16-2.2.25.03-.03.04-.07.01-.11Zm-1.21.12c-.31-.53-.66-1.03-1.03-1.51.7.5,1.41,1.01,2.11,1.51-.37.04-.74.08-1.11.13.04-.03.06-.08.03-.13Zm-2.07.21c-.4-.5-.8-1.01-1.2-1.51.67.52,1.34,1.05,2.01,1.57-.28.03-.56.07-.84.1.05-.03.07-.11.03-.16Zm-5.33.83c-.45-.69-.91-1.38-1.36-2.07.66.6,1.32,1.2,1.98,1.79.07.07.21-.02.14-.11-.31-.44-.62-.87-.93-1.31.5.41,1.01.82,1.51,1.23.09.08.21-.04.13-.13-.45-.56-.9-1.11-1.35-1.67.74.47,1.4,1.03,1.99,1.69.08.08.2-.02.15-.12-.26-.52-.56-1-.89-1.48.56.44,1.12.87,1.69,1.31.08.06.2-.01.15-.11-.26-.45-.55-.87-.87-1.27.54.45,1.08.9,1.62,1.34.09.08.21-.04.13-.13-.28-.36-.56-.72-.83-1.08.65.48,1.3.96,1.95,1.44,0,0,.02.01.03.01-1.75.21-3.5.43-5.24.66Zm1.68.78c-.09.04-.49-.18-.66-.27.2-.02.4-.05.61-.07,0,.11.01.34.05.35Zm-1.32-.19c.18-.02.35-.04.53-.06,0,0,0,.01,0,.02.16.35-.23.18-.53.05Zm-4.9.07s-.16-.28-.29-.52c.03-.12.03-.25.02-.38.31.22.78.6.86.66.04.03.1-.02.08-.06-.11-.27-.23-.52-.37-.77.4.31.93.56,1.28.72.06.03.14-.05.08-.1-.33-.3-.64-.62-.92-.97-.23-.28-.6-.93-.79-1.01.36.15.72.66,1.01.92.41.38.82.75,1.23,1.13.06.06.19-.02.13-.1l-1.22-1.6c-.19-.25-.38-.5-.58-.76.06.05.11.1.13.11.23.21.45.43.68.64.53.5,1.05,1,1.58,1.5.08.07.19-.04.12-.12-.51-.59-1.01-1.18-1.52-1.77.69.62,1.39,1.25,2.08,1.87.07.06.2-.02.13-.1-.46-.6-.91-1.2-1.37-1.79.66.59,1.3,1.22,1.9,1.88-1.42.19-2.84.4-4.26.62Zm3.82.19c-.11-.03-.2-.06-.3-.09.15-.02.31-.04.46-.06.17.37.14.24-.16.15Zm-.79-.03c.1.12.2.24.29.36-.02-.01-.04-.02-.06-.03-.22-.12-.45-.21-.68-.28.15-.02.3-.04.45-.05Zm.13.97c-.25-.38-1.13-.6-1.64-.79.25-.03.5-.06.75-.09.25.32.67.57.89.88Zm-1.41-.18c-.37-.22-.8-.37-1.21-.5.26-.03.51-.06.77-.09,0,0,0,0,0,.01.14.2.28.39.44.58Zm-1.92-3.4c.38.62.82,1.19,1.33,1.71.06.06.11.1.16.13-.16-.06-.33-.19-.46-.28-.39-.25-.73-.54-1.05-.87.02-.23.03-.46.01-.7Zm-.15,1.36c.05-.15.08-.31.11-.48.29.36.74.96.61,1.06-.03.02-.39-.24-.7-.48,0-.04-.01-.07-.02-.11Zm4.92,1.05c.14.35-.13.19-.37.05.12-.02.25-.03.37-.05Zm7.21-1.52c-.28.03-.56.07-.84.1-.3-.51-.63-.99-1.01-1.43.61.44,1.23.89,1.84,1.33,0,0,0,0,.01,0Zm3.23-.81c-.66-.42-1.32-.85-1.98-1.27-.08-.05-.18.05-.13.13.25.4.51.79.76,1.19-.68-.48-1.37-.96-2.05-1.44.73-.07,1.47-.15,2.2-.23.4.54.8,1.08,1.2,1.62Zm-3.53.36c-.71-.52-1.43-1.03-2.14-1.55.31-.02.62-.05.94-.08,0,0,0,0,0,0,.44.51.84,1.05,1.21,1.62Zm-.94.27c-.74-.58-1.48-1.16-2.22-1.74.26-.02.52-.04.78-.06,0,.02,0,.04.03.06.54.53,1.01,1.1,1.42,1.73Zm-1.31-.18c-.64-.47-1.28-.94-1.92-1.41-.09-.07-.17.07-.11.15.24.31.49.62.73.94-.45-.37-.9-.74-1.34-1.12.19-.01.37-.02.56-.03.29-.02.58-.04.87-.06.41.51.81,1.02,1.22,1.53Zm-1.96-.06c-.56-.44-1.13-.88-1.69-1.32.22-.01.44-.02.66-.04.38.43.73.88,1.04,1.36Zm-1.02.09c-.54-.52-1.14-.97-1.79-1.36.28-.01.57-.03.85-.04,0,.01.01.02.02.04.34.44.64.89.91,1.36Zm-.97.07l-1.34-1.09c-.07-.06-.21.02-.15.11.28.39.56.78.83,1.17-.58-.52-1.15-1.04-1.73-1.56.41-.01.83-.03,1.24-.04,0,0,0,0,0,0,.38.47.76.93,1.14,1.4Zm-1.31.69c-.68-.71-1.4-1.39-2.16-2.03.27,0,.55,0,.82-.02.45.68.89,1.36,1.34,2.04Zm-2.19-.7c-.47-.44-.93-.89-1.4-1.33.09,0,.18.01.27.01.38.44.75.88,1.13,1.32Zm-.96-.29c.18.24.37.54.56.81-.09-.07-.18-.15-.25-.21-.45-.41-.9-.82-1.35-1.23,0,0-.02-.01-.03-.02-.03-.17-.07-.34-.13-.51.12.03.25.05.37.07.27.36.55.72.82,1.08Zm-1.18,1.71c.06.11.1.2.09.21-.04.04-.11.04-.19.01.04-.07.07-.15.1-.22Zm.16.44c-.13.02-.27.04-.4.06.03-.06.06-.12.09-.19,0,0,0-.01.01-.02.1.05.2.1.3.14Zm-1.45,1.39c.38.48,1.19,1.5,1.16,1.52-.02.02-.9-.62-1.42-1,.06-.18.15-.35.25-.52Zm-.33.79c.14.18.27.36.41.54.19.25.56.58.67.88.12.08.15.13.08.13-.18-.12-.36-.24-.54-.36-.23-.15-.46-.31-.68-.46-.01-.24,0-.48.07-.72Zm.01,1.2c.23.27.48.53.74.77.18.17.76.54.1.18-.17-.09-.34-.17-.51-.26-.15-.22-.26-.46-.32-.7Zm1.97,2.39s.04,0,.06,0c.96,1,1.92,2,2.88,3,.05.05.1.11.14.16-.28-.21-.64-.52-.71-.57-.55-.4-1.1-.8-1.64-1.2-.12-.52-.37-1.01-.73-1.4Zm10.78-1.08c.87.84,1.74,1.67,2.61,2.51-1.16-.84-2.33-1.68-3.49-2.51.29-.04.57-.07.86-.11-.02.04-.01.08.02.11Zm18.3-2.32c.14.19.28.38.42.57-.26-.22-.52-.43-.79-.63.12-.01.24-.03.36-.04-.02.03-.02.07,0,.11Zm3.1,3.06c0,.07.01.13.03.2-.51-.6-1.04-1.17-1.61-1.71-.33-.39-.65-.79-.96-1.2.75.48,1.42,1.05,2.02,1.72.03.03.07.04.1.03.07.33.2.65.43.95Zm-.37-2.45s.04-.01.06-.02c0,.02-.01.04-.02.07-.01-.02-.03-.03-.04-.05Zm-1.03,2.99c-.63-.8-1.27-1.59-1.9-2.39.9.8,1.8,1.59,2.71,2.39-.26.04-.52.08-.78.13.01-.04.01-.08-.02-.12Zm-.83.18c-.79-1.04-1.64-2.03-2.54-2.96,1.17.85,2.23,1.83,3.18,2.94-.2.03-.4.06-.6.1,0-.02,0-.03-.02-.05,0,0-.01-.02-.02-.02h0s0,0,0,0Zm-3.33.47c-.59-.83-1.22-1.63-1.89-2.4.93.8,1.85,1.6,2.78,2.4-.3.05-.61.1-.91.15.04-.03.06-.09.02-.14Zm-4.37.62c-.92-.79-1.79-1.64-2.62-2.53,1.13.87,2.25,1.74,3.38,2.61-.28.04-.56.09-.84.13.09-.01.17-.13.08-.21Zm-1.4.21c-.97-1.1-1.94-2.2-2.91-3.31,1.43,1.02,2.81,2.11,4.14,3.27.03.03.06.03.09.03-.45.07-.91.13-1.36.2.06-.04.09-.13.03-.2Zm-12.25,2.62c.17.5.05.32-.29.17-.22-.1-.45-.17-.67-.25-.09-.03-.14.09-.09.15.12.13.24.26.35.38-.02,0-.05,0-.08,0-.34-.04-.75-.29-1.07-.41-.07-.03-.13.07-.1.13.14.26.29.47.49.66-.65-.21-1.3-.41-1.94-.62-.08-.03-.13.08-.08.14.18.21.36.45.57.63.46.41.03.06-.18-.04-.5-.23-1.01-.42-1.54-.58-.08-.03-.13.1-.06.14.17.09,1.38.92.55.58-.57-.24-1.15-.48-1.72-.73,1.71-.15,3.41-.36,5.1-.54.46-.05.91-.1,1.37-.15,0,0,0,.01.01.02.16.22.31.43.47.65-.32-.14-.63-.28-.95-.42-.07-.03-.16.02-.13.1Zm-4.9-.73c-.61-.63-1.21-1.27-1.82-1.9-.15-.15-.29-.3-.44-.46.29.26.58.52.88.78.66.59,1.32,1.18,1.99,1.77-.43.03-.85.07-1.28.1-.39-.41-.78-.82-1.18-1.23-.07-.07-.34-.34-.59-.59.76.59,2.14,1.51,2.34,1.66.07.05.15-.06.09-.12Zm2.39-1.8c.3.21.61.42.91.64.2.15.41.3.62.44.12.09.24.18.36.25.14.1.29.2.44.29-.32.03-.64.07-.97.1-.72-.66-1.44-1.33-2.16-1.99-.36-.33-.71-.66-1.07-.98.61.44,1.26.83,1.87,1.25Zm-.28-.47c-.38-.31-.76-.62-1.13-.95-.01-.01-.03-.03-.05-.05.03.01.05.03.06.03,1.53.9,2.99,1.91,4.39,3-.14.01-.28.03-.42.04,0,0,0,0,0,0-.13-.09-.26-.18-.4-.28-.2-.24-.58-.43-.87-.61-.11-.08-.22-.15-.33-.23-.42-.31-.83-.63-1.24-.95Zm-3.64,1.92c-.06-.04-.12-.09-.18-.13-.39-.31-.79-.62-1.18-.93,0-.14,0-.27-.02-.41.45.49.9,1,1.38,1.47Zm-1.37-.81c.46.52.92,1.05,1.41,1.53,0,0,0,0-.01,0-.11-.07-.22-.15-.33-.22-.38-.26-.77-.52-1.15-.78-.01,0-.03,0-.04,0,.06-.17.1-.35.12-.53Zm.78,1.52s-.25-.32-.43-.52c.07.04.12.07.14.08l.7.47c-.13.01-.27.02-.4.04,0-.02.01-.04,0-.06Zm-.41-.3s-.08-.05-.11-.07c-.17-.11-.35-.19-.53-.26.04-.08.08-.16.12-.24.17.19.37.38.53.58Zm.31.38c-.21.02-.43.04-.64.07,0-.02,0-.04-.01-.06-.04-.03-.28-.23-.5-.43.05-.07.1-.14.15-.21.4.22.91.55,1.01.63Zm-.64.77c.52.35,1.03.72,1.51,1.13.21.18.4.39.62.56.5.39-.01.02-.2-.08-.97-.52-1.95-1.05-2.92-1.57.33-.01.66-.03.99-.04Zm1.59-.11c.35.29.7.59,1.05.88.05.04.2.21.35.34-.07-.03-.13-.05-.15-.05-.84-.36-1.68-.72-2.52-1.08.42-.03.85-.06,1.27-.09Zm-.02-.74c-.4-.45-1.02-1.13-1.36-1.47.44.35,1.34,1.08,1.77,1.43-.14.01-.27.02-.41.03Zm.31-2.24c-.28-.31-.55-.62-.83-.94.1.08.19.15.27.22.35.32.7.64,1.06.96.65.59,1.3,1.18,1.95,1.77-.21.02-.42.03-.63.05-.61-.69-1.21-1.38-1.82-2.07Zm-.19-1.1c1.18.97,2.32,1.99,3.42,3.05-.18.02-.36.03-.54.05-.96-1.03-1.92-2.07-2.88-3.1Zm1.99,1.14c.84.64,1.71,1.24,2.6,1.81-.3.03-.6.06-.91.08-.53-.66-1.1-1.29-1.69-1.89Zm1.65-1.29c1.33.93,2.66,1.86,3.98,2.78-.26.03-.51.06-.77.08-1.07-.96-2.14-1.91-3.21-2.87Zm6.07,2.35l-3.09-3.1c1.43,1.05,2.87,2.11,4.3,3.16-.71.08-1.43.17-2.14.25-1.21-1.12-2.42-2.23-3.63-3.35,1.5,1.04,2.98,2.1,4.45,3.19.09.07.19-.07.12-.15Zm2.35-.49c-.89-.86-1.79-1.72-2.68-2.58,1.34.94,2.69,1.88,4.03,2.83-.74.09-1.49.18-2.23.27,0-.01-.01-.03-.02-.04-1.05-1.05-2.11-2.1-3.16-3.15,1.31.95,2.62,1.89,3.94,2.84.1.07.21-.08.13-.16Zm2.19-.24c-.9-1.03-1.81-2.05-2.71-3.08,1.32,1.05,2.63,2.11,3.95,3.16.12.09.27-.05.17-.17-.82-.97-1.68-1.91-2.55-2.82l3.59,2.86c.12.09.27-.05.17-.17-.88-.97-1.77-1.93-2.65-2.9,1.32.97,2.64,1.95,3.96,2.92.01,0,.03.01.04.02-1.46.21-2.93.41-4.39.6-.74-.91-1.54-1.76-2.38-2.57.92.73,1.8,1.49,2.66,2.3.11.1.26-.05.16-.16Zm8.28-1.41c-.72-.85-1.43-1.7-2.15-2.54,1.17.96,2.35,1.93,3.52,2.89.01,0,.02.01.04.02-.69.11-1.37.22-2.06.32,0-.01-.01-.03-.02-.04-.95-1.03-1.9-2.05-2.84-3.08,1.12.87,2.23,1.74,3.35,2.6.12.1.28-.05.17-.17Zm7.04-.54c-.09.01-.17.03-.26.04,0-.03,0-.06-.03-.09-.72-.82-1.45-1.64-2.17-2.47.27.24.54.48.8.73.53.62,1.08,1.21,1.67,1.79Zm-.39-1.8c-.33-.55-.67-1.1-1-1.65.36.3.71.6,1.07.9-.05.25-.07.5-.06.75Zm-.61-.54c-.55-.5-1.15-.94-1.81-1.31.31-.04.62-.08.94-.13.29.48.58.95.87,1.43Zm-.78.98c-.78-.69-1.56-1.37-2.33-2.06-.12-.11-.27.05-.18.18.42.53.84,1.05,1.26,1.58-.68-.61-1.4-1.17-2.17-1.68.52-.07,1.03-.13,1.55-.2,0,.03,0,.07.03.09.61.7,1.23,1.39,1.84,2.09Zm-1.23.93c-1.13-.92-2.27-1.84-3.4-2.76.26-.03.52-.07.77-.1.93.9,1.81,1.85,2.63,2.86Zm.62.81c-.23.04-.46.07-.68.11-.79-.86-1.58-1.73-2.37-2.59,1.02.83,2.04,1.65,3.05,2.48Zm-2.14-1.12c-.92-.78-1.84-1.56-2.77-2.34.19-.02.37-.05.56-.07,0,0,0,0,0,.01.73.8,1.47,1.6,2.2,2.4Zm1.14,1.28c-.3.05-.59.09-.89.14,0,0,0,0,0,0-1.01-1.09-1.98-2.21-2.92-3.37,1.27,1.08,2.54,2.15,3.81,3.23Zm-2.34-1.11c-.92-.79-1.83-1.58-2.75-2.37.16-.02.33-.04.49-.06.07,0,.14-.02.21-.03.66.83,1.34,1.66,2.04,2.46Zm-.53.66c-1.16-.95-2.32-1.91-3.48-2.86.3-.04.61-.08.91-.12.92.94,1.78,1.93,2.57,2.98Zm-1.72-.28c-1.03-.81-2.07-1.61-3.1-2.42.32-.04.64-.08.96-.12.71.85,1.43,1.69,2.14,2.54Zm-.84.55c-1.24-.93-2.48-1.86-3.72-2.78.34-.04.69-.09,1.03-.13.9.97,1.79,1.94,2.69,2.91Zm.8.9c-.23.04-.46.07-.68.1-.86-.85-1.73-1.7-2.59-2.55,1.09.82,2.18,1.63,3.27,2.45Zm-2.1-.94l-3.27-2.52c-.12-.09-.24.1-.15.2.37.43.75.84,1.13,1.25-.65-.5-1.31-.98-1.98-1.45.53-.07,1.06-.13,1.58-.2,0,.03,0,.07.03.1.88.87,1.77,1.74,2.65,2.62Zm-2.06.56c-1.29-.95-2.59-1.91-3.88-2.86.41-.05.82-.1,1.22-.16.88,1.01,1.77,2.01,2.65,3.02Zm-1.72-.1c-1.1-.87-2.19-1.75-3.29-2.62.27-.03.54-.07.81-.1,0,0,0,.02.02.03.82.9,1.64,1.8,2.46,2.7Zm-1.05.25c-1.13-.91-2.27-1.82-3.4-2.72.25-.03.49-.06.74-.09.92.91,1.8,1.85,2.66,2.82Zm-1.86-.43c-.88-.75-1.8-1.47-2.74-2.14.25-.03.51-.06.76-.1.66.75,1.32,1.49,1.98,2.24Zm.5,1.45c-1.62-1.13-3.23-2.26-4.85-3.39.41-.05.82-.1,1.23-.16,1.31,1.08,2.52,2.26,3.62,3.54Zm-3.17-.18c-1.33-.97-2.65-1.94-3.98-2.92.31-.04.62-.08.93-.12,1.02,1.01,2.03,2.02,3.05,3.04Zm-1.4.04c-1.3-.95-2.61-1.88-3.93-2.79.34-.04.68-.09,1.03-.13.97.97,1.94,1.95,2.91,2.92Zm-.63.63c-1.55-1.08-3.1-2.17-4.64-3.25.32-.04.64-.08.97-.12,1.23,1.13,2.45,2.25,3.68,3.38Zm.34.45c-.17.02-.33.04-.5.05-1.05-.86-2.09-1.73-3.14-2.59,1.21.84,2.43,1.69,3.64,2.54Zm-2.4-1.27c-1.12-.78-2.23-1.56-3.35-2.34.15-.02.3-.04.44-.06.97.8,1.94,1.6,2.9,2.4Zm-.49.49c-1.3-.94-2.64-1.8-4.04-2.6-.08-.05-.17.06-.1.13.34.31.68.61,1.03.91-.5-.35-1-.7-1.5-1.04.49-.06.98-.12,1.47-.19,1.04.93,2.09,1.86,3.14,2.79Zm-2.64-.51l1.06.98c.07.06.14.13.21.2-.18-.11-.37-.21-.53-.32-.4-.28-.8-.56-1.2-.85-.61-.46-1.21-.93-1.8-1.42-.21-.19-.43-.37-.65-.56.23-.03.46-.06.69-.09.74.69,1.48,1.37,2.23,2.06Zm-2.4-1.32c.78.69,1.52,1.42,2.22,2.2-1.04-.97-2.13-1.9-3.24-2.79.11-.01.21-.03.32-.04,0,.02,0,.03.03.05.22.2.45.39.68.58Zm.54,1.39c.21.22.42.45.62.67,0,0-.01,0-.02-.01-.35-.32-.7-.64-1.06-.96-.59-.53-1.18-1.07-1.76-1.6.04,0,.09,0,.13-.01.09-.01.18-.02.26-.03.61.65,1.21,1.3,1.82,1.95Zm-.94-.11c.31.35.61.7.92,1.05-.06-.05-.11-.09-.14-.11-.36-.32-.71-.63-1.07-.95-.65-.58-1.31-1.16-1.96-1.74.23.01.46,0,.7-.01.52.59,1.03,1.18,1.55,1.77Zm-2.34,1.86c.15.14.27.25.28.25-.06.06-.28.02-.49-.03.08-.07.15-.14.22-.21Zm-.64.51c.12-.06.23-.14.33-.22.24.05.48.1.72.14-.36.04-.72.08-1.07.13,0-.02,0-.03.01-.05Zm-.24.68s.08,0,.12,0c.51.36,1.01.71,1.52,1.07.31.22.62.43.92.65.11.08.43.24.63.38-.11-.05-.21-.1-.32-.15-.27-.13-.54-.27-.81-.4-.63-.32-1.25-.65-1.87-.99-.07-.04-.15.06-.08.11.47.38.94.76,1.4,1.13-.65-.37-1.35-.68-1.97-.97-.07-.03-.12.06-.06.1.54.38,1.06.77,1.57,1.18.34.28.75.71,1.06.91-.94-.56-1.93-1.2-2.89-1.79.08-.45.33-.88.77-1.21Zm-.8,1.35l1.08.94c.24.21,1.06.71,1.17,1.02-.04-.1-.68-.35-.88-.46-.29-.17-.58-.35-.85-.54-.08-.06-.14-.11-.19-.13-.1-.07-.19-.14-.28-.21-.04-.21-.06-.42-.04-.63Zm1.66,2.43c-.15-.06-.31-.13-.46-.22-.22-.13-.42-.29-.58-.46.35.23.71.46,1.07.67-.01,0-.02,0-.03,0Zm-.3-.29c-.31-.18-.6-.38-.9-.58-.18-.23-.31-.48-.39-.75.33.29.67.58,1.01.87.3.26.84.58,1.09.91,0,0,0,0-.01,0-.17-.15-.58-.33-.8-.46Zm10.19.24c.71.66,1.45,1.27,2.23,1.83-1.13-.6-2.26-1.2-3.38-1.8.4-.06.79-.12,1.19-.18-.06.02-.09.1-.04.15Zm16.61-2.58c.77.69,1.54,1.37,2.31,2.06l-3-2.07c.22-.03.44-.07.66-.1-.01.04,0,.08.03.11Zm5.41,1.24c.01.27.06.54.14.8-.81-.76-1.61-1.53-2.41-2.29.8.36,1.52.85,2.17,1.46.03.03.07.04.1.03Zm-1.01-1.41c.37.12.74.25,1.12.37-.03.09-.05.18-.07.27-.03.16-.05.33-.05.51-.33-.38-.67-.77-1-1.15Zm-3.01,3.64c-.89-.83-1.78-1.67-2.67-2.5,1.21.83,2.42,1.66,3.63,2.49-.32.05-.63.1-.95.15.03-.04.03-.1-.01-.14Zm-2.1.29c-.92-.82-1.84-1.64-2.75-2.45,1.26.83,2.51,1.65,3.77,2.48-.35.05-.69.11-1.04.16.06-.04.09-.13.03-.18Zm-2.13.34c-1.22-.91-2.45-1.83-3.67-2.75,1.65.75,3.21,1.67,4.68,2.75-.32.05-.65.09-.97.14.02-.05.02-.11-.03-.15Zm2.02-.15c-.25.04-.51.08-.76.12,0-.03-.02-.06-.05-.08-1.24-.89-2.41-1.86-3.5-2.92,1.43.96,2.86,1.92,4.28,2.88,0,0,.02,0,.03.01Zm3.09-3.37c.68.44,1.36.89,2.04,1.33.35.25.71.48,1.07.7.13.08.25-.12.12-.21-.36-.23-.72-.47-1.07-.7-.72-.51-1.4-1.07-2.04-1.69,1.21.81,2.36,1.69,3.46,2.65.04.06.09.13.14.19-.41.07-.83.14-1.24.21-.78-.88-1.61-1.7-2.49-2.48Zm2.14,2.54c-.16.03-.32.05-.49.08,0-.02-.01-.04-.03-.06-.89-.79-1.78-1.59-2.67-2.38,1.11.72,2.17,1.51,3.18,2.36Zm-.55-2.37c-.56-.42-1.14-.81-1.73-1.19.14-.02.27-.04.41-.06.44.42.88.84,1.32,1.26Zm-1.35-.31c-.39-.25-.78-.51-1.17-.76.12-.02.23-.04.35-.05.27.28.54.56.82.82Zm1.05,1.68c-1.07-.82-2.18-1.58-3.34-2.28.23-.03.45-.07.68-.1.93.74,1.82,1.53,2.66,2.38Zm.07,1.13c-.31.05-.61.1-.92.15-.87-.86-1.74-1.72-2.61-2.58,1.18.81,2.35,1.62,3.53,2.43Zm-1.97-.56c-1.22-.83-2.43-1.67-3.65-2.5.32-.05.65-.1.97-.15,0,0,0,0,0,0,.89.88,1.78,1.76,2.67,2.64Zm-1.57-.13l-3.19-2.2s0,0,0,0c.24-.04.48-.07.72-.11.82.77,1.65,1.54,2.47,2.31Zm1.15,1.08c-.21.03-.42.07-.63.1,0-.02-.01-.04-.03-.06-.91-.79-1.82-1.58-2.72-2.37,1.13.78,2.26,1.56,3.38,2.33Zm-2.12-.92c-1.11-.73-2.22-1.46-3.33-2.19.23-.04.46-.07.7-.11.88.76,1.76,1.53,2.63,2.29Zm-1.23.09c-1.05-.7-2.1-1.41-3.15-2.11.22-.03.44-.07.66-.1.83.74,1.66,1.48,2.49,2.22Zm-1.82-.36c-.95-.56-1.94-1.06-2.96-1.5.38-.06.77-.12,1.15-.18.58.58,1.19,1.15,1.81,1.68Zm-.37.82c-1.26-.71-2.52-1.43-3.78-2.14.25-.04.51-.08.76-.12,1.01.75,2.01,1.5,3.02,2.25Zm-3.25-1.38c-.38-.23-.77-.44-1.16-.66.08-.01.15-.02.23-.03l.93.69Zm3.4,2.52c.11.08.22-.11.11-.19-1.06-.78-2.11-1.57-3.17-2.35,1.42.8,2.84,1.6,4.26,2.41-.89.13-1.79.26-2.68.38-1.14-.83-2.28-1.67-3.42-2.5,1.35.74,2.68,1.54,3.96,2.39.12.08.23-.11.11-.19-1.34-.88-2.61-1.86-3.81-2.92,1.61.88,3.16,1.88,4.63,2.98Zm-8.53.89c-1.14-.69-2.21-1.47-3.21-2.34,1.5.81,2.99,1.62,4.49,2.43-.76.09-1.53.18-2.29.26,0,0,0,0-.01-.01-1.31-.81-2.56-1.69-3.74-2.67,1.56.83,3.12,1.66,4.68,2.49.1.05.19-.09.09-.15Zm5.1-2.57c-.78-.46-1.57-.89-2.37-1.31.24-.04.48-.07.72-.11.54.49,1.09.97,1.66,1.42Zm.88,1.42c-1.47-.77-2.94-1.55-4.41-2.32-.1-.05-.22.08-.13.17.56.51,1.14,1,1.74,1.47l-2.77-1.69c.64-.1,1.28-.2,1.92-.29,1.22.89,2.44,1.78,3.65,2.67Zm.6.57c-.37.05-.75.1-1.12.15,0-.01-.02-.02-.03-.03-1.11-.74-2.17-1.54-3.17-2.41,1.44.76,2.89,1.53,4.33,2.29Zm-1.43.19c-.19.02-.38.05-.57.07,0-.01-.02-.02-.03-.03-.97-.73-1.95-1.46-2.92-2.19,1.17.72,2.35,1.44,3.52,2.15Zm-1.86-.67c-1.26-.7-2.52-1.4-3.78-2.1-.11-.06-.2.09-.1.17.67.5,1.34.99,2,1.49-1.01-.59-2.06-1.12-3.14-1.6-.11-.05-.2.1-.1.17.82.54,1.65,1.08,2.48,1.61-1.06-.59-2.11-1.17-3.17-1.76.86-.13,1.72-.27,2.58-.4,1.07.8,2.15,1.61,3.22,2.41Zm.99.78c-.26.03-.52.07-.78.1-.94-.7-1.88-1.4-2.81-2.09,1.2.67,2.39,1.33,3.59,2Zm-1.07.13s0,0,0,0c-.11.01-.22.03-.32.04-1.15-.75-2.3-1.5-3.46-2.25,1.31.64,2.57,1.38,3.79,2.21Zm-.7.08c-.3.04-.6.07-.9.11-1.23-.79-2.41-1.64-3.54-2.57,1.48.82,2.96,1.64,4.44,2.47Zm-2.55-.78c-1.25-.67-2.5-1.35-3.74-2.02-.01,0-.02,0-.03-.01.34-.05.68-.1,1.02-.16,0,0,0,.01.01.02.88.77,1.8,1.49,2.75,2.17Zm-2.79.2c-1.14-.62-2.28-1.23-3.41-1.85.28-.04.57-.09.85-.13.82.7,1.68,1.36,2.56,1.98Zm1.52,1.02c-.23.02-.46.05-.69.07-1.21-.74-2.38-1.52-3.52-2.36,1.4.76,2.81,1.52,4.21,2.28Zm-2.39-.81l-3.6-1.9c.25-.04.51-.08.76-.12.92.71,1.87,1.38,2.84,2.02Zm1.37.92c-.26.03-.52.06-.79.08-.7-.4-1.39-.83-2.06-1.28-.41-.27-.81-.56-1.21-.85-.07-.05-.14-.1-.2-.15.64.36,1.33.65,1.97.99.76.4,1.53.81,2.29,1.21Zm-2.25-.64c-1.38-.71-3.39-1.68-4-1.98.33-.05.66-.1.98-.15.39.3,1.88,1.38,3.01,2.13Zm1.13.76c-.26.03-.53.05-.79.08,0-.01-.02-.02-.03-.03-.09-.05-.17-.09-.26-.14-.01-.02-.05-.04-.11-.06-.16-.08-.31-.16-.47-.25-.12-.07-.24-.13-.36-.19-.41-.22-.82-.43-1.23-.65-.53-.36-1-.81-1.53-1.15,0,0,.01,0,.02,0,.37.22.78.39,1.16.58,1.2.6,2.41,1.2,3.61,1.8Zm-4.31-1.79c-.52-.27-1.04-.55-1.56-.82.17-.03.33-.05.49-.08,0,0,0,.01.01.02.34.31.7.61,1.06.89Zm1.06.74c.69.44,1.41.83,2.17,1.16-.28.03-.57.06-.85.08,0-.03,0-.06-.04-.09-.55-.29-1.11-.59-1.66-.88-.85-.51-1.66-1.09-2.41-1.74.93.49,1.86.98,2.79,1.47Zm-1.9-.54c-.55-.29-1.1-.59-1.65-.88.16-.02.32-.05.48-.07.38.33.77.66,1.17.96Zm-1.61-.67c1.08.68,2.25,1.26,3.4,1.84.4.22.8.43,1.22.63-.44.04-.87.08-1.31.12.03-.03.03-.09-.02-.12-.12-.07-.23-.15-.35-.22-.05-.04-.13-.09-.21-.14-.55-.36-1.08-.74-1.6-1.15-.29-.23-.58-.47-.86-.72-.2-.18-.92-.65-.27-.24Zm2.17,2.68s.01-.07-.03-.09c-.71-.39-1.41-.81-2.09-1.26-.36-.24-.71-.49-1.05-.75-.08-.06-.15-.12-.23-.19.6.33,1.29.6,1.88.9.85.44,1.7.87,2.54,1.31-.34.03-.68.06-1.02.08Zm.22.72c.06.07.11.14.16.19-.13-.08-.34-.17-.33-.17,0,0-.01,0-.02,0,.06,0,.13-.01.19-.02Zm-2.69-.52c-.56-.46-1.11-.92-1.67-1.38-.03-.02-.36-.27-.57-.45,0,0,0-.01,0-.02.19.1.46.2.53.23.45.21.89.45,1.32.7.22.15.43.3.65.44.04.03.07.05.11.07.12.08.25.16.37.23.08.05.16-.08.08-.13-.09-.07-.19-.13-.28-.19-.13-.12-.77-.48-.85-.54-.61-.42-1.2-.87-1.77-1.35,0,0-.02-.02-.06-.05.22.1.47.19.6.25,1,.52,2.01,1.04,3.01,1.56.25.17.52.34.63.33.07.04.14.07.21.11-.77.06-1.54.12-2.31.19Zm1.65.62c.18.13.36.26.54.4.08.06.17.12.25.18-.45-.18-.89-.35-1.34-.53.18-.02.36-.03.55-.05Zm-.89.08c.16.17.53.57.52.62,0,.01-.56-.24-.54-.23-.25-.11-.49-.22-.74-.33.26-.02.51-.04.77-.06Zm-2.77-.51c-.12-.11-.25-.21-.35-.33-.04-.05-.07-.08-.1-.1.02-.03.03-.06.04-.09,0,0,0,0,0,0,.31-.06.95.21,1.26.28.08.02.11-.09.03-.13-.28-.12-.77-.35-.94-.64-.19-.32.3.07.43.14.45.23.89.47,1.34.71-.57.05-1.15.1-1.72.16Zm1.36.61c.27.29.55.56.86.81-.59-.3-1.19-.54-1.81-.76.32-.02.64-.03.96-.05Zm-1.61-1.68c.21.26.45.47.74.65-.05-.03-.11-.06-.16-.08-.21-.08-.45-.13-.68-.17.04-.13.08-.27.1-.41Zm-.08-1.52c.33.28.67.55,1.01.82-.31-.16-.62-.3-.93-.44-.02-.13-.04-.26-.07-.38Zm.11.79c.46.41.93.85,1.43,1.2-.08-.04-.16-.07-.23-.11-.4-.21-.8-.42-1.21-.63.01-.16.01-.31,0-.46Zm5.86,2.04s0,.04.02.05c.32.28.82.51.1.21-.18-.08-.36-.15-.54-.23.14-.01.28-.03.42-.04Zm-2.21-2.13c.27.21.54.41.81.6-.03-.01-.06-.03-.08-.04-.43-.22-.86-.44-1.28-.66-.74-.38-1.49-.76-2.23-1.14.41,0,.83-.05,1.24-.1.5.47,1.01.92,1.54,1.34Zm-1.52.04c.13.09.27.18.41.28-.12-.06-.23-.12-.35-.18-.82-.42-1.63-.84-2.45-1.27-.02-.06-.05-.12-.07-.18.25.04.51.06.77.07.55.45,1.11.88,1.69,1.28Zm-2.42,1.51c.15.14.29.28.28.31-.02.04-.28,0-.5-.04,0,0,0,0,0,0,.09-.08.15-.17.21-.27Zm-.08.4c-.09.01-.18.02-.27.03.02-.02.04-.04.06-.06.07.01.15.02.22.04Zm.38.63c.32.26.64.51.96.76-.59-.31-1.2-.55-1.84-.74.29,0,.58-.01.88-.02Zm-1.13.03s.04,0,.06,0c0,.02,0,.04.02.06.16.12,1.39,1.01,1.85,1.32-.48-.27-1.82-.93-1.99-1.02-.06-.03-.12.04-.08.1.25.29.51.57.77.86.02.02.05.05.09.08-.45-.33-1.03-.57-1.53-.77.21-.26.5-.47.81-.63Zm-.89.74c.22.19,1.52,1.33,1.52,1.34,0,0-1.4-.72-1.73-.89.04-.16.12-.31.21-.45Zm-.24.59c.41.37.86.82,1.29,1.07-.38-.23-.86-.58-1.3-.87,0-.07,0-.14.01-.2Zm2.82,2.27c.06,0,.11-.01.16-.02.12-.01.25-.02.37-.03,1.03.7,2.09,1.35,3.18,1.96-.98-.41-1.98-.79-2.98-1.15-.23-.27-.47-.52-.73-.75Zm11.19-.93c.65.41,1.3.82,1.94,1.23-1-.45-1.99-.89-2.99-1.34.65-.08,1.31-.15,1.96-.23.78.56,1.56,1.12,2.34,1.68-1.06-.5-2.12-1-3.18-1.49-.1-.05-.18.09-.09.15Zm-3.39.51c.83.5,1.67,1,2.5,1.5-1.25-.59-2.52-1.16-3.8-1.71.73-.08,1.45-.15,2.18-.24.84.64,1.71,1.24,2.61,1.8-1.13-.5-2.27-1-3.4-1.5-.1-.04-.18.09-.09.15Zm-6.78,1.53c.92.51,1.85,1.01,2.78,1.49-.84-.38-1.68-.75-2.52-1.13-.08-.12-.17-.24-.26-.36Zm.52.76c.84.56,1.69,1.1,2.56,1.6-.75-.36-1.51-.72-2.26-1.08-.09-.18-.19-.35-.3-.52Zm.73,1.42c-.05-.12-.1-.24-.16-.36-.03-.07-.07-.14-.1-.21.73.53,1.47,1.04,2.24,1.52.1.06.2.12.3.18-.76-.38-1.52-.75-2.28-1.13Zm.36.97c-.06-.19-.12-.37-.19-.55.64.49,1.31.95,1.99,1.37-.57-.28-1.14-.56-1.7-.86-.04-.02-.09,0-.1.04Zm.21.74c-.05-.22-.12-.45-.19-.67,1.03.87,2.12,1.66,3.26,2.36-1.01-.49-2.02-.98-3.03-1.46-.02-.08-.03-.15-.05-.23Zm.09.48c.5.42,1.02.8,1.56,1.16-.46-.22-.93-.44-1.39-.65-.03-.01-.05,0-.07.02-.04-.17-.07-.35-.1-.52Zm.12.61c.55.36,1.09.73,1.64,1.09.12.08.25.16.37.24-.19-.08-.34-.14-.4-.16-.46-.21-.93-.4-1.41-.56-.09-.19-.15-.39-.2-.61Zm1,1.38c-.35-.13-.57-.36-.73-.63,0,0,0,0,0-.01,0-.02.74.29.78.3.4.17.8.35,1.18.55-.43-.02-.85-.07-1.23-.21Zm1.61.22s-.03-.01-.05-.02l-1-.67c-.28-.18-.55-.37-.83-.55.44.23,1.53.77,2.45,1.2.04.02.07.04.11.05-.22,0-.45,0-.69-.01Zm1.12.02c-.46-.21-.91-.43-1.37-.64-.41-.24-.81-.5-1.2-.77-.33-.24-.64-.53-.99-.75-.46-.29-.04-.03.19.09.7.34,1.4.68,2.11,1.02.61.29,1.22.59,1.83.88.05.02.19.11.35.2-.31,0-.61-.02-.92-.03Zm22.95-4.63c.2,1.54,1.01,3.47-1.06,4-1.48.38-3.14.32-4.66.41-3.37.2-6.74.31-10.11.32-1.71,0-3.43,0-5.14-.05-.21,0-.43-.01-.64-.02-.18-.1-.4-.19-.45-.22-1.18-.61-2.31-1.31-3.38-2.09-.34-.25-.67-.5-1-.77-.01-.01-.03-.02-.04-.03.65.39,1.38.69,2.06,1.01.33.16.66.31.99.46.14.06.29.13.43.19.1.04.44.29.41.17.11.05.22.1.33.14.07.03.13-.1.06-.13-.19-.08-.39-.17-.58-.26-.4-.35-1.19-.56-1.62-.8-.67-.37-1.32-.77-1.95-1.21-.29-.2-.56-.44-.84-.65.09.04.19.08.27.13,1.08.54,2.16,1.07,3.24,1.61.28.17.57.34.85.43.18.09.36.18.54.27.09.04.16-.09.08-.13-.15-.08-.3-.15-.45-.23-.1-.09-.25-.15-.4-.21-1.43-.76-2.81-1.6-4.13-2.54.08.03.15.06.17.07.49.23.98.47,1.47.7.8.38,1.6.77,2.4,1.15.11.07.25.15.34.16.11.05.23.11.34.16.09.04.17-.09.08-.13-.12-.06-.24-.12-.37-.18-.07-.06-.21-.12-.33-.17-.8-.4-1.59-.83-2.36-1.28-.48-.28-.95-.56-1.42-.86-.26-.16-.51-.32-.76-.49-.03-.02-.1-.07-.18-.13.24.11.48.21.73.32.54.24,1.08.48,1.62.73.66.3,1.32.59,1.98.89.3.17.61.32.92.41.21.1.43.19.64.29.09.04.17-.09.08-.13-.23-.11-.45-.21-.68-.32-.1-.06-.22-.11-.33-.16-1.46-.7-2.91-1.42-4.34-2.19-.35-.19-.7-.38-1.05-.57.04.02.07.03.08.03,1.01.38,2.01.78,2.99,1.21.74.32,1.47.75,2.22,1.05.28.13.57.26.86.39.09.04.18-.09.08-.14-.18-.09-.36-.18-.54-.27-.02-.01-.04-.02-.06-.03-.54-.26-1.08-.51-1.63-.76-.02,0-.03-.02-.05-.03-1.45-.73-2.85-1.55-4.21-2.44,1.24.54,2.49,1.08,3.73,1.61.93.46,1.89.88,2.87,1.24.09.03.15-.12.07-.16-.92-.4-1.85-.8-2.77-1.2-1.01-.5-1.98-1.04-2.93-1.65,2.46,1.04,4.93,2.09,7.39,3.13.11.04.2-.11.09-.16-1.93-.91-3.81-1.91-5.64-3.01,2.02.92,4.04,1.85,6.06,2.77.1.05.19-.1.09-.15-1.45-.85-2.9-1.7-4.36-2.54,1.84.77,3.68,1.53,5.52,2.3.09.04.16-.12.07-.17-1.67-.79-3.28-1.67-4.85-2.65,1.79.77,3.56,1.59,5.31,2.45.1.05.18-.09.08-.15-.98-.59-1.95-1.17-2.93-1.76,1.13.5,2.26,1,3.38,1.49.1.04.19-.09.09-.15-1.05-.6-2.06-1.26-3.04-1.97,1.24.61,2.48,1.23,3.72,1.84.1.05.18-.09.09-.15-.87-.61-1.75-1.21-2.62-1.82,1.16.52,2.31,1.03,3.46,1.55.1.04.18-.09.09-.15-.6-.38-1.2-.76-1.8-1.14.93.44,1.85.87,2.78,1.31.1.05.17-.08.09-.15-.98-.7-1.96-1.41-2.94-2.11,0,0,.01,0,.02,0,1.23.52,2.4,1.14,3.51,1.88.08.05.18-.07.1-.13-.66-.53-1.31-1.07-1.97-1.6,1.14.54,2.28,1.08,3.42,1.62.11.05.19-.09.09-.16-.77-.56-1.54-1.13-2.32-1.69.97.43,1.94.87,2.91,1.3.09.04.2-.07.11-.15-.46-.37-.91-.74-1.37-1.11.85.41,1.7.82,2.56,1.23.09.04.2-.08.11-.14-.64-.5-1.28-1-1.92-1.5.86.38,1.73.77,2.59,1.15.09.04.19-.06.11-.14-.36-.35-.73-.66-1.13-.94.68.27,1.36.54,2.04.81.08.03.15-.09.09-.15l-1.22-1.06c.78.33,1.57.67,2.35,1,.09.04.18-.06.11-.14-.32-.35-.65-.7-.97-1.05.56.19,1.13.38,1.69.56.09.03.15-.09.09-.15-.11-.12-.23-.24-.34-.37.36.18.74.32,1.16.41.09.02.17-.09.09-.16-.27-.24-.54-.48-.81-.72.3.11.62.22.9.22.01-.01.03-.02.04-.03.03.06.09.11.14.15.04.02.08.01.12-.01.02-.02.04-.04.06-.05.05-.05.02-.14-.04-.16-.03,0-.06-.02-.09-.02.14-.06.28-.07.43-.03.04,0,.09.02.13.02.06-.02.13-.02.19-.05.2-.13.24-.31.1-.47,2.05-.32,4.09-.67,6.11-1.09-1.47,2.12-2.11,4.78-1.79,7.33Zm-28.79-3.19c.21-.02.41-.04.62-.06.54.36,1.1.71,1.66,1.04-.76-.33-1.52-.66-2.28-.98Zm1.1-.1c.37-.03.74-.07,1.11-.11,1.24.77,2.51,1.51,3.81,2.19-1.64-.69-3.28-1.39-4.92-2.08Zm1.62-.16c.3-.03.61-.06.91-.09,0,0,.01.02.03.02,1.31.77,2.63,1.53,3.94,2.3-1.63-.75-3.25-1.49-4.88-2.24Zm1.26-.12c.36-.04.72-.07,1.08-.11,1.05.67,2.11,1.3,3.21,1.89-1.43-.59-2.86-1.19-4.29-1.78Zm4.1-.44c.26-.03.52-.06.79-.09,0,0,0,0,0,0,.8.56,1.61,1.12,2.41,1.67-1.07-.53-2.14-1.06-3.21-1.59Zm7.11-.79c.48.39.96.78,1.44,1.17-.83-.37-1.66-.74-2.5-1.12.35-.05.69-.09,1.03-.14,0,.03,0,.06.03.08Zm5.05-.71c.31.33.62.67.93,1-.71-.3-1.43-.61-2.14-.91.4-.06.8-.12,1.19-.18,0,.03,0,.06.02.09Zm1.26-.14c.17.18.34.37.51.55-.53-.18-1.06-.35-1.58-.53.18-.03.35-.05.53-.08.18-.03.37-.06.55-.08-.03.03-.05.09,0,.14Zm.1-.15c.17-.03.33-.05.5-.08.26.22.51.45.77.67-.44-.14-.86-.33-1.26-.59,0,0,0,0,0,0Zm-9.87,1.36c.23-.03.47-.06.7-.09.48.39.97.78,1.45,1.17-.7-.4-1.42-.76-2.16-1.09Zm1.05-.13c.29-.04.59-.08.88-.11.68.5,1.36.99,2.04,1.49-.97-.46-1.95-.92-2.92-1.38Zm2.58-.34c.26-.04.53-.07.79-.11.54.43,1.09.85,1.63,1.28-.81-.39-1.61-.78-2.42-1.17Zm1.24-.17c.22-.03.43-.06.65-.09,0,0,0,0,0,0,.57.31,1.09.67,1.58,1.08-.74-.33-1.49-.66-2.23-.99Zm1-.14c.34-.05.69-.1,1.03-.15.4.34.79.68,1.19,1.03-.74-.29-1.48-.59-2.22-.88Zm6.69-.9c.09.09-.59.12-.68.14-.1.03-.17.02-.22.14,0,.02-.01.04-.02.07-.24-.06-.48-.13-.72-.19.54-.08,1.08-.17,1.61-.25-.01.03,0,.06.02.09Zm7.57-4.77c.39.53.76,1.01.58,1.73-.19.76-.86,1.1-1.57,1.25-.07-.07-.17-.11-.29-.09-6.26.98-12.49,2.1-18.78,2.9-3.08.39-6.16.74-9.25,1.04-1.5.15-3.08.43-4.58.4-.32,0-.64-.07-.92-.2-.26-.25-.63-.63-.79-.89-.02-.08-.04-.17-.05-.26.09-.03,1.41.88,1.5.94.05.03.11-.04.07-.09-.3-.26-.6-.52-.9-.78-.02-.02-.06-.06-.12-.1.48.25,1.29.57,1.43.64.06.03.12-.05.07-.09-.29-.27-.58-.53-.86-.79-.12-.11-.54-.61-.65-.59.09-.01.62.33.7.37.4.22.76.48,1.12.76.06.05.15-.03.09-.09-.26-.29-.51-.57-.77-.86-.1-.11-.2-.23-.31-.34.02,0,.04,0,.06,0,.68.17,1.42.71,2.05,1.03.07.03.12-.06.06-.1-.38-.27-.75-.55-1.13-.82-.21-.15-.41-.31-.63-.46-.13-.09-.43-.18-.16-.15.85.11,1.79.76,2.48,1.24.06.04.13-.06.08-.1-.43-.34-.85-.68-1.28-1.01-.12-.09-.45-.26-.52-.34.07,0,.13,0,.2,0,.01,0,.02,0,.03,0,.98.24,1.95.77,2.82,1.28.07.04.13-.06.06-.1-.08-.06-1.16-.85-1.56-1.26.13,0,.26-.02.39-.03.6.27,1.5.73,1.64.79.07.03.13-.04.08-.1-.26-.3-1.03-.9-.16-.54.5.2,1,.41,1.5.61.08.03.11-.08.05-.13-.3-.21-.84-.46-1.05-.74-.02-.02-.04-.04-.05-.06.13-.01.25-.02.38-.03.31.07.62.29.83.47.05.04.13-.01.09-.07-.14-.19-.33-.37-.36-.45.06,0,.11-.01.17-.02.05.02.12.05.21.08.4.17.8.35,1.2.52.06.03.14-.05.08-.11,0,0-.23-.19-.38-.3.22.1.65.21.71.24.05.02.09-.03.09-.07.01-.2-.07-.28-.26-.3-.09,0-.09.13,0,.14-.25-.03-.53-.18-.78-.29.52-.05,1.04-.1,1.56-.15,2.87-.28,5.74-.59,8.61-.94,5.74-.71,11.47-1.57,17.17-2.59Zm-2.34-3.35c-.16-.16-.32-.33-.47-.49-.1-.11-.27.06-.16.16.11.11.22.22.32.34-.41-.14-.83-.27-1.24-.41-.12-.04-.18.11-.11.19.16.19.33.38.49.56-.47-.32-.97-.59-1.5-.81,1.14-.18,2.27-.35,3.41-.53-.32.27-.57.6-.74.99Zm1.11-5.31c1.13.82,1.31,2.5.54,3.62-.07-.05-.16-.08-.27-.07-6.55.99-13.1,2.03-19.65,3.05-3.22.5-6.44.99-9.67,1.49-1.14.17-2.38.4-3.52.16-.32-.28-.64-.56-.96-.83-.05-.04-.21-.21-.4-.39.02.02.05.03.06.04.46.28.94.51,1.44.73.05.02.11-.04.06-.08-.75-.66-1.7-1.39-2.36-2,.35.33.92.56,1.33.81.53.33,1.07.65,1.6.98.06.03.12-.05.07-.09-.82-.8-1.77-1.42-2.62-2.17.3.26.88.52,1.31.77.61.35,1.2.72,1.78,1.12.06.04.13-.05.08-.1-.49-.4-.99-.81-1.48-1.21-.18-.15-.37-.3-.55-.45.87.5,1.82.92,2.73,1.34.08.04.15-.07.07-.12-.61-.43-1.23-.86-1.84-1.3-.31-.22-.62-.43-.92-.65-.04-.03-.1-.08-.16-.13,1,.52,3.01,1.67,3.23,1.79.07.04.14-.05.09-.11-.39-.4-.79-.78-1.22-1.13-.18-.15-.39-.35-.61-.53.02,0,.05.02.07.03.29.13.59.25.88.38.59.25,1.18.51,1.77.76.07.03.16-.06.09-.11-.32-.27-.65-.54-.97-.82-.13-.11-.61-.41-.74-.55.18.17.93.37,1.11.45.38.16.76.33,1.14.49.06.03.15-.03.1-.1-.15-.23-.33-.46-.55-.64.08.03.16.06.24.09.46.18.89.39,1.32.62.08.05.16-.06.1-.13-.18-.2-.41-.41-.57-.63-.18-.26-.33-.26.12-.1.58.2,1.16.38,1.75.57.08.03.16-.09.09-.15-.13-.09-.25-.2-.37-.32-.35-.32-.42-.43-.19-.34.12-.07,1.07.41,1.22.47.09.03.14-.09.08-.14-.13-.15-.27-.29-.4-.44.32.12.63.26.93.43.07.04.16-.02.13-.1-.15-.43-.16-.34.18-.25.26.07.52.23.76.34.07.03.19-.04.13-.13-.16-.23-.33-.45-.5-.68.33.09.66.07.79-.29,2.05-.22,4.09-.46,6.14-.72,5.68-.71,11.39-1.48,17.02-2.56Zm-1.34-4.05c-.05-.15-.15-.28-.29-.35-.14-.07-.26.14-.12.21l-.17.05s0-.05,0-.07c0-.09-.14-.17-.2-.08-.12.15-.15.36-.11.55-.21-.18-.42-.35-.63-.53.61-.11,1.21-.26,1.78-.5.08-.03.16-.07.24-.11-.18.26-.35.54-.49.83Zm.87-5.36c1.89.05,1.39,2.28.5,3.19-.78.79-1.86,1.13-2.93,1.33-1.39.26-2.81.38-4.21.56-.73.09-1.47.19-2.2.28-.02-.01-.03-.03-.05-.04-.09-.08-.19-.01-.2.07-3.23.41-6.46.81-9.69,1.22-.06-.04-.13-.02-.17.02-1.05.13-2.09.26-3.14.4-2.9.37-5.79.73-8.69,1.1-1.31.17-2.72.43-3.7-.69-.03-.03-.05-.07-.08-.11.31.16.63.31.94.47.04.02.09-.03.05-.07-.52-.44-1.02-.92-1.46-1.44,0,0,0,0-.01-.01,0-.05-.01-.1-.02-.15.1.07.25.18.35.25.36.24.72.48,1.08.72.04.03.1-.03.07-.07-.11-.15-1.1-1.37-1.42-1.83,0-.03.02-.06.03-.09.38.26,1.52,1.09,1.65,1.19.04.03.1-.03.07-.07-.25-.33-.51-.67-.76-1-.14-.18-.54-.55-.59-.77,0,.04.58.37.69.45.38.27.74.55,1.1.85.06.05.13-.03.08-.08-.28-.31-.56-.61-.84-.92-.04-.04-.17-.18-.28-.29.21.14.56.34.6.37.34.22.68.45,1.02.67.06.04.11-.04.07-.09-.12-.13-1.43-1.46-1.41-1.48.15-.16,2.05,1.04,2.27,1.18.05.03.12-.03.08-.08-.42-.56-.91-.96-1.45-1.4.28.08.55.19.81.31.47.22.9.5,1.3.82.07.05.16-.04.09-.09-.19-.15-1.08-.77-1-1.06,0,.02,1.59.68,1.74.74.07.03.13-.06.06-.11-.15-.1-.96-.58-.89-.83.02-.08.93.45,1.06.54.06.04.11-.05.07-.1-.1-.12-.46-.48-.44-.61.03-.13.87.33.99.41.06.04.1-.03.08-.08-.29-.64.2-.24.52-.08.06.03.11-.03.08-.08-.3-.64.43-.1.68.08.04.03.08-.02.08-.06-.08-.55.31-.21.67-.05.04.02.09-.02.06-.06-.22-.38.23-.49.61-.57,7.54-.91,15.07-1.82,22.65-2.48,1.12-.1,2.28-.3,3.39-.27Zm-.82-.55c-.18.01-.35.03-.53.05-.47-.75-.93-1.51-1.4-2.26.66.74,1.32,1.48,1.99,2.21-.02,0-.04,0-.06,0Zm-1.04-1.56l-1.46-1.63c.07-.02.15-.04.22-.06.41.56.82,1.13,1.24,1.69Zm-.84-1.8c.32-.1.65-.22.97-.36.05.18.1.35.18.5-.11-.08-.23-.17-.34-.25-.1-.08-.19.06-.15.15.14.32.27.63.41.95-.31-.37-.67-.7-1.06-.99Zm1.02.33c.13.1.26.2.4.29,0,.26.02.51.06.77-.15-.35-.3-.71-.45-1.06Zm.42-.13c-.12-.19-.21-.4-.26-.64.16-.08.31-.16.46-.25-.1.29-.17.59-.2.89Zm.52-1.93c-.96.95-2.4,1.23-3.66,1.53-3.15.75-6.33,1.38-9.53,1.89-3.33.53-6.68.92-10.04,1.18-1.59.12-3.18.21-4.77.28-.8.03-1.59.05-2.39.06-.72.01-1.51.08-2.22-.12-.46-.13-.78-.42-1-.8.05.05.11.1.16.15.05.04.11-.02.07-.07-.16-.19-.31-.39-.46-.58-.07-.2-.13-.42-.17-.64.39.26.76.55,1.19.78.05.03.1-.04.06-.08-.45-.48-.89-.99-1.35-1.46,0,0,0,0,0,0,.06.06.12.11.13.13.32.27.63.53.95.8.04.03.1-.01.07-.05-.36-.49-.79-.91-1.18-1.36,0-.05,0-.1,0-.15.1.06.19.12.28.19.42.29.8.61,1.15.98.05.05.12-.02.07-.07-.15-.17-1.02-1.1-1.52-1.65,0-.05,0-.09,0-.14.66.51,2.07,1.66,2.26,1.83.06.05.14-.03.09-.09-.2-.24-1.83-2.16-2.34-2.69.55.48,2.36,2.07,2.59,2.26.07.06.17-.03.1-.1-.49-.51-.98-1.03-1.47-1.54-.25-.26-.5-.53-.76-.79.08.05.14.09.16.11.24.18.48.37.72.55l1.69,1.29c.07.06.14-.06.09-.12-.56-.67-1.12-1.33-1.68-2-.25-.29-.49-.58-.74-.87-.05-.06-.18-.19-.31-.31.3.22.73.47.85.57.3.24.6.48.89.73.17.15,1.36,1.37,1.49,1.35.07.07.14.14.21.2.08.07.19-.04.11-.11-.11-.11-.22-.21-.33-.32-.15-.2-.49-.45-.55-.52-.22-.21-.43-.43-.64-.65-.28-.29-.56-.59-.83-.9-.06-.06-.3-.31-.46-.48.18.12.45.26.55.33.39.28.78.57,1.15.88.43.35.83.71,1.23,1.09.09.11.18.2.25.24.08.08.17.17.25.25.07.08.18-.04.12-.12-.66-.78-1.36-1.52-2.09-2.24.76.61,1.53,1.22,2.29,1.82.08.06.19-.04.11-.11-1.03-1.03-2.06-2.07-3.1-3.1,1.17.91,2.35,1.82,3.52,2.73.08.07.19-.03.12-.12-.2-.25-1.52-1.69-2.46-2.63,1.16.89,3,2.2,3.28,2.41.08.06.15-.06.1-.13-.65-.82-1.34-1.59-2.09-2.31.99.67,1.98,1.33,2.98,2,.08.06.18-.07.11-.14-.63-.61-1.25-1.22-1.88-1.82.85.61,1.7,1.22,2.55,1.83.07.05.17-.05.12-.12-.46-.6-.95-1.17-1.48-1.7.71.47,1.45.89,2.21,1.27.09.04.18-.06.11-.14-.41-.43-.82-.87-1.24-1.3.87.57,1.79,1.06,2.74,1.48.08.04.18-.06.11-.14-.48-.44-.97-.87-1.45-1.31.77.48,1.54.97,2.31,1.45.09.06.18-.07.11-.14-.49-.5-.99-1-1.48-1.49.92.49,1.84.98,2.77,1.48.09.05.19-.07.11-.14-.54-.51-1.08-1.02-1.63-1.53.82.43,1.65.86,2.47,1.28.1.05.19-.07.12-.15-.29-.38-.62-.72-.97-1.03.71.35,1.42.69,2.13,1.04.08.04.2-.05.14-.14-.2-.3-.43-.58-.67-.83.56.3,1.12.58,1.7.84.09.04.2-.05.14-.14-.17-.28-.36-.52-.58-.75.36.13.71.27,1.07.4.1.04.18-.11.1-.17-.13-.11-.25-.22-.38-.33.12.02.24.06.36.1.06,0,.13.03.19,0,.17-.05.28-.16.31-.32,0-.03,0-.05-.01-.08.05,0,.1,0,.15,0,5.43.07,10.87.19,16.3.35,1.2.64.98,2.35.13,3.19Zm8.54-30.55c-1.67,3.96-3.21,7.99-4.14,12.19-.77,3.47-.68,7.14-1.72,10.54-.44,1.44-1.16,2.76-2.31,3.73-.06-.06-.13-.11-.19-.17-.06.07-.08.16-.07.25-.06.05-.1.11-.12.19,0,0,0,.02,0,.02,0,0,0,0,0,0-1.88-.05-3.77-.1-5.65-.14-.15-5.1-.33-10.21-.5-15.31-.04-1.17-.04-2.35-.12-3.51-.05-.76-.17-1.59-.64-2.21-.36-.48-.86-.73-1.42-.84,0-1.58.15-3.14.5-4.69.34-1.48,1.03-2.87,1.3-4.35.18-.97.09-2.05-.54-2.84-.5-.62-1.2-.84-1.94-.9.83-1.86,1.81-3.65,2.78-5.44,2.83-5.23,6.05-10.92,6.53-16.96.24-3.07-.29-6.29-2.01-8.9-.21-.32-.66-.13-.67.16-1.13-.07-2.24-.02-3.38.05-1.05.06-2.13.12-3.09.57-.31-.44-1.08-.49-1.76-.3-.63-.47-1.69-.49-2.4-.21-.02-.01-.04-.03-.06-.04-.76-.51-1.65-.32-2.42.05-.04-.03-.07-.06-.11-.09-.66-.45-1.48-.34-2.19-.06,0,0-.02-.01-.02-.02-.97-.6-2.19-.11-3.18.2-.04-.09-.15-.14-.23-.04,0,0,0,.01-.02.02-.61-.11-1.25.07-1.84.31-.51-.32-1.17-.3-1.68,0-.02-.04-.06-.07-.12-.08-1.87-.35-3.77-.42-5.66-.17-.85.11-1.7.28-2.52.54-.3.1-.63.2-.82.43-.07.02-.14.07-.19.16-1.42,2.5-1.87,5.58-1.49,8.41.39,2.97,1.78,5.55,3.59,7.9,1.81,2.35,3.93,4.45,5.6,6.91,1.54,2.27,2.57,4.8,3.26,7.44-1.07.31-1.9.97-2.01,2.42-.12,1.53.36,3.16.6,4.66.29,1.78.61,3.55.97,5.31-.39.15-.77.34-1.11.59-1.57,1.17-1.57,3.14-1.52,4.92.06,2.6.13,5.21.19,7.81.05,1.9.05,3.82.12,5.72-.04,0-.06.06-.03.08.01,0,.02.02.03.02.02.66.06,1.32.1,1.98,0,.01,0,.02,0,.03-2.41-.02-4.83-.05-7.24.08,0,0,0-.01.01-.02.02-.03.03-.07.03-.1.05.02.09.04.12.05.08.04.15-.07.07-.12-.51-.27-.99-.56-1.47-.88-1.01-.68.21,0,.75.23.18.11.36.22.54.33.08.05.15-.07.07-.12-.15-.09-.3-.18-.45-.26-.27-.24-1.18-.75-1.31-.82-1.03-.61.71.25.93.39.08.05.15-.07.07-.12-.08-.06-.22-.13-.38-.21-.04-.05-.18-.12-.35-.19-.47-.25-.98-.55-1.1-.79.02.05,1.37.5,1.66.65.08.04.14-.07.07-.12-.68-.5-1.37-.99-2.04-1.51-.4-.31.12.07.34.16.41.16.82.32,1.23.49.09.04.14-.11.07-.16-.55-.36-1.08-.77-1.66-1.09-.93-.51.67.17.9.24.11.03.14-.12.04-.16-.17-.07-1.71-1.12-1.69-1.12.26-.08,1.05.34,1.32.43.09.03.14-.11.07-.16-.45-.29-.99-.56-1.4-.91-.02-.02-.05-.04-.07-.05,0,0,.01,0,.02,0,.34.04.79.26,1.07.38.1.04.19-.1.09-.15-.29-.14-1.92-1.24-.61-.58.09.04.18-.06.11-.14-.09-.09-.7-.68-.69-.7,0,0,1,.36,1.08.39.1.03.15-.11.07-.16-.11-.07-1.35-1.02-1.29-1.08.06-.05.14-.05.24-.02.19.14.4.26.63.36.1.05.19-.1.09-.15-.16-.08-.32-.14-.48-.2-.02-.02-.04-.05-.07-.08-.16-.18-.84-.55-.45-.58.25-.02.5.33.69.28.1.07.21.13.32.19.1.06.19-.1.09-.15-.1-.05-.19-.1-.28-.15,0,0,0,0,0,0,0,.02-.83-.62-.88-.66-.86-.8.54-.12.88.08.1.06.18-.09.09-.16-.23-.16-.86-.6-1.03-.91-.29-.56.44,0,.68.11.1.05.19-.09.09-.16-.23-.16-.84-.53-.98-.85-.4-.91.43.18.73.02.09.06.19.12.29.18.11.06.19-.09.09-.16-.15-.1-.29-.18-.43-.25-.4-.45-1.61-1.57-.02-.57.09.06.19-.07.11-.15-.13-.12-.27-.24-.41-.36.06-.01.11-.06.16-.15,0,0,0,0,0,0,.1.07.19.15.3.21.1.07.2-.1.1-.17-.16-.11-.31-.2-.46-.28-.1-.14-.27-.27-.32-.34-.28-.24-.29-.29-.05-.15l.48.24c.1.05.21-.07.12-.16-.28-.26-.6-.52-.86-.8.19.09.39.18.58.27.12.05.21-.1.1-.18-.26-.19-.87-.59-1.03-.92-.13-.27.66.37.81.49.08.06.19-.08.11-.14-.1-.09-.21-.18-.32-.27-.03-.04-.08-.09-.14-.13-.17-.16-.33-.33-.43-.52-.25-.22-.28-.3-.07-.21.27.11.54.21.81.32.09.04.16-.1.09-.16-.29-.28-.85-.65-1.03-1.01-.24-.2-.19-.21.16-.01.23.11.44.25.64.41.09.06.2-.08.12-.15-.52-.43-1.04-.85-1.56-1.28-.03-.1-.06-.19-.1-.29.3.11.84.39,1,.48.1.06.18-.09.09-.15-.39-.3-1.1-.74-1.42-1.18-.02-.05-.04-.1-.06-.15.03.01.06.03.11.04.33.1.67.31.98.45.07.03.16-.06.09-.11-.51-.4-1.07-.82-1.49-1.32,0,0,0,0,0,0,.04.02.09.05.16.09.32.17.64.34.95.51.08.04.17-.06.1-.13-.59-.51-1.22-1-1.77-1.55,0,0-.01-.01-.02-.02.05.03.1.05.16.09.36.19.74.35,1.11.52.1.05.17-.08.08-.15-.67-.46-1.34-.96-1.94-1.52-.04-.07-.08-.14-.12-.21.33.12.65.28.97.42.08.03.19-.07.1-.13-.49-.4-.98-.8-1.48-1.21-.08-.06-.15-.12-.21-.17-.02-.03-.03-.06-.05-.09.23.14.55.33.72.33.12.07.25.15.37.22.1.05.18-.09.09-.15-.17-.1-.34-.19-.52-.28-.24-.2-.7-.54-1.04-.8-.05-.1-.11-.19-.16-.29.21.09.57.28,1.14.59.07.04.16-.06.09-.12-.58-.46-1.21-.89-1.76-1.39-.02-.03-.03-.05-.05-.08.03.02.07.03.11.05.36.19.76.33,1.13.49.1.04.18-.09.09-.15-.19-.12-1.55-1-1.85-1.32-.02-.03-.04-.06-.05-.09,0,0,0,0,0,0,.02-.04,1.38.46,1.53.51.08.03.12-.09.06-.14-.57-.39-1.47-.79-1.92-1.31-.03-.04-.07-.06-.11-.08.07.02.16.04.3.06.39.07.78.23,1.15.37.08.03.13-.1.06-.14-.77-.39-1.49-.84-2.16-1.38-.09-.08-.17-.13-.21-.17,0-.01-.02-.03-.02-.04.04.01.17.07.42.17.41.17.82.31,1.23.46.08.03.15-.09.08-.14-.69-.57-1.37-1.21-2.09-1.74.36.21.78.36,1.14.54.12.06.22-.11.11-.18-.11-.06-.23-.13-.34-.19-.02-.05-.08-.09-.19-.11-.62-.36-1.26-.78-1.71-1.29-.03-.03-.04-.05-.06-.07,0-.02-.02-.03-.02-.05,0-.04.37.23.57.31.47.18.94.36,1.41.54.13.05.22-.16.09-.22-.76-.4-1.48-.85-2.17-1.34l1.16.48c.13.05.19-.14.09-.21-.32-.23-.65-.45-.97-.68-.06-.04-.17-.13-.3-.24.32.14.64.28.96.42.13.06.22-.1.11-.19-.76-.56-1.52-1.12-2.28-1.69-.07-.05-.15-.11-.22-.16,0-.02-.02-.04-.03-.06.46.13.91.32,1.36.48.11.04.18-.13.08-.19-.69-.41-1.34-.86-1.96-1.37-.03-.07-.07-.14-.1-.21.11.06.24.13.36.17.2.13.4.26.61.38.12.07.21-.1.1-.18-.29-.23-.59-.4-.9-.55-.16-.15-.34-.33-.49-.49-.04-.09-.09-.19-.13-.28.49.22,1.35.67,1.52.74.11.05.23-.08.13-.17-.62-.59-1.21-1.22-1.85-1.79-.25-.23-.63-.41.07-.13.39.16.8.28,1.19.42.1.03.19-.11.1-.18-.75-.59-1.51-1.17-2.26-1.76-.04-.03-.07-.06-.1-.08.1.07.25.16.37.22.42.17.84.34,1.25.51.13.05.17-.13.08-.2-.5-.39-1-.77-1.51-1.16.49.16.99.31,1.48.47.13.04.19-.14.09-.21-.67-.47-1.34-.94-2.02-1.41.47.16.95.33,1.42.49.14.05.2-.15.09-.22.04-.03.06-.11,0-.14-.64-.31-1.26-.63-1.88-.97.52.12,1.04.26,1.55.42.11.04.19-.14.08-.19-.28-.15-2.23-.96-2.23-1.18,0,.07,1.47.49,1.76.61.09.04.15-.11.07-.16-.69-.43-1.56-.82-2.16-1.35-.36-.32.04-.04.31.03.41.1.81.23,1.2.36.09.03.15-.11.07-.16-.68-.41-1.38-.83-1.99-1.33-.08-.06-.17-.11-.24-.15,0-.01,0-.02-.01-.03.06.02.15.04.27.08.48.14.93.37,1.37.61.09.05.17-.08.08-.14-.32-.21-.64-.43-.95-.67.02.02-.74-.53-1.05-.82-.01-.04-.02-.08-.04-.13.36.12,1.7.67,1.89.78.1.05.17-.08.09-.15-.19-.14-1.79-1.41-1.87-1.34.05-.04,1.75.5,1.96.56.1.03.17-.12.07-.17-.75-.36-1.77-.83-2.33-1.47-.4-.47-.18-.24.25-.1.14.05.7.37,1.01.42.13.08.27.16.41.24.11.06.21-.11.1-.17-.1-.06-.2-.11-.3-.16,0,0,0,0,0,0,0,.06-1.82-1.46-2.08-1.67,0,0,0-.01,0-.02.13.04.67.34.73.37.48.23.96.46,1.43.69.1.05.17-.08.09-.15-.65-.5-1.29-1-1.91-1.53-.23-.2-.86-.56,0-.2.4.17.79.33,1.19.5.08.03.15-.07.07-.12-.27-.17-1.8-1.37-1.96-1.48,0,0,0,0,0-.01.27-.11,2.23,1.27,2.46,1.41.11.07.19-.09.1-.17-.98-.74-1.88-1.55-2.74-2.42-.05-.34-.09-.69-.14-1.03.34.51.73.98,1.17,1.39-.03-.01-.06-.03-.09-.04-.14-.06-.2.17-.06.23.25.11.51.21.76.32.13.06.18-.14.09-.21-.71-.54-1.34-1.19-1.86-1.91-.01-.01-.02-.02-.04-.03-.01-.11-.02-.22-.03-.33.19.19.38.38.59.56-.03.05-.02.11.03.14.23.14.45.28.68.42.04.03.07.05.09.05.1.06.2.12.31.19.12.07.22-.11.11-.18-.58-.36-1.41-.86-1.83-1.45,0-.07-.01-.15-.02-.22.12.07.29.21.41.27.43.21.85.42,1.28.63.09.04.22-.05.15-.15-.49-.65-1-1.28-1.58-1.85-.11-.1-.27-.23-.37-.3,0,0,0,0,0,0,.05.04.14.1.28.19.42.29.97.48,1.42.71.1.05.21-.08.13-.16-.5-.5-1.07-.98-1.51-1.52,0,0-.01-.01-.02-.02.06.04.13.08.24.14.36.21.75.4,1.12.59.12.06.2-.1.1-.18-.11-.09-1.75-1.76-1.73-1.76.29-.04,1.21.7,1.5.86.1.06.19-.07.12-.15-.11-.12-.74-.8-1.14-1.2.46.28,1.22.65,1.35.71.1.05.22-.08.13-.16-.25-.22-1.68-1.89-1.65-1.9.3-.06,1.72,1.06,1.98,1.22.09.06.18-.07.11-.14-.41-.46-.83-.98-1.29-1.44.24.17.49.33.74.5.1.07.2-.08.12-.16-.2-.23-1.52-2.1-1.6-2.07.04-.01,1.42,1.13,1.58,1.25.1.07.22-.09.13-.17-.55-.51-1.15-1.09-1.45-1.78-.16-.37-.23-.33.28-.03.36.21.73.42,1.09.63.11.06.2-.08.13-.16-.36-.42-.82-.84-1.12-1.31-.38-.37-.38-.43,0-.17.33.18.63.39.92.64.09.07.26-.03.17-.13-.34-.44-1.14-1.16-1.3-1.65.07.22,1.3.76,1.59.92.11.06.2-.08.13-.17-.36-.44-.73-.89-1.09-1.33-.16-.2-.49-.38-.2-.44.39-.08,1.03.52,1.24.73.1.1.26-.06.16-.16-.23-.23-1.4-1.44-1.66-1.9,0-.04.02-.07.03-.11.33.17,1.65.71,1.78.75.12.04.19-.12.12-.2-.4-.46-.8-.92-1.2-1.38.3.15.6.31.9.47.13.07.26-.1.16-.2-.4-.41-.75-.84-1.07-1.3.37.19.75.38,1.12.57.14.07.31-.11.17-.23-.45-.37-.81-.79-1.1-1.28.44.22.87.45,1.3.67.12.06.29-.07.2-.2-.31-.43-.62-.86-.94-1.28.35.19.7.38,1.05.57.1.06.22-.08.13-.17-.13-.12-.26-.25-.39-.37.07.05.14.11.22.17.12.1.27-.05.17-.17-.29-.36-.52-.72-.73-1.1.41.3.83.6,1.24.9.11.08.23-.09.14-.18-.2-.21-.72-1.05-.94-1.16.19.07.76.55.91.65.09.06.21-.06.15-.15-.08-.13-.92-1.24-.87-1.31-.02.04.95.62,1.05.67.08.05.19-.05.13-.13-.15-.24-.55-.63-.58-.89-.17-.18-.16-.22.03-.14.28.05.51.2.68.48.08.07.22-.03.16-.12-.1-.14-1.04-1.26-.98-1.37-.02.05.78.51.94.61.08.05.21-.06.14-.14-.18-.23-.54-.85-.76-.93.23.08.75.52,1.02.7.12.07.21-.08.14-.18.05.06-.93-1.24-.88-1.28.01,0,.75.51.85.58.1.07.22-.06.16-.16-.14-.26-.28-.52-.43-.78.33.22.65.45.98.67.12.08.23-.09.15-.19-.26-.3-.56-.68-.73-1.06-.3-.67.25-.03.5.23.1.1.27-.03.19-.15-.34-.5-.38-.88.37-.26.1.08.28-.02.2-.15-.09-.13-.73-1.11-.63-1.16.06-.03.76.48.82.52.12.07.23-.09.14-.19-.77-.86-.07-.62.37-.29.12.09.24-.1.15-.2-.3-.33-.55-.67-.76-1.05.33.1.64.24.93.44.09.06.23-.04.19-.15-.03-.09-.41-.95-.4-.95,0,0,.76.51.85.57.11.07.23-.07.17-.17-.1-.19-.62-.95-.58-1.15.03-.15.85.44,1.01.55.11.08.24-.07.18-.18-.23-.38-.46-.75-.7-1.13.3.09.57.23.84.42.12.09.23-.08.18-.18-.13-.28-.26-.56-.38-.85.26.15.49.31.75.54.12.11.29-.03.22-.17-.15-.31-.3-.63-.46-.94.35.23.7.46,1.05.69.1.07.24-.04.21-.16-.11-.39-.22-.78-.34-1.17.33.18.66.37,1,.55.12.07.26-.07.19-.19-.14-.26-.27-.52-.41-.78.19.13.39.24.61.33.1.04.26-.03.21-.16-.17-.43-.35-.86-.52-1.29.43.3.88.57,1.36.8.12.06.29-.07.2-.2-.23-.32-.47-.65-.7-.97.34.21.69.41,1.03.62.14.08.27-.08.21-.21-.16-.34-.32-.68-.48-1.02.33.18.62.38.92.64.15.13.34-.06.22-.22-.3-.39-.51-.77-.65-1.21.34.19.67.38,1.01.58.14.08.3-.08.22-.22-.2-.29-.33-.6-.38-.94.38.2.77.4,1.15.6.12.06.27-.04.23-.18-.07-.26-.15-.52-.22-.78l.65.27c.15.06.28-.06.21-.21-.16-.36-.31-.71-.47-1.07.35.13.7.27,1.05.4.14.05.22-.12.17-.22-.14-.29-.28-.58-.42-.87h0c.35.2.67.43.97.72.13.12.3-.03.24-.18-.11-.24-.21-.49-.32-.73.33.18.65.36.98.54.13.07.29-.08.21-.21l-.29-.51c.36.2.72.4,1.08.61.15.08.29-.08.22-.22-.1-.21-.19-.42-.29-.62.31.14.62.25.99.32.14.03.25-.11.19-.24-.12-.23-.24-.46-.36-.7l.82.37c.15.07.3-.07.23-.23-.08-.18-.17-.36-.25-.54.26.17.54.3.87.4.12.04.23-.09.2-.2-.07-.28-.18-.52-.31-.74.3.11.59.23.89.34.15.06.24-.13.19-.24-.09-.19-.19-.39-.28-.58.34.11.69.21,1.03.32.15.05.25-.12.19-.25l-.25-.53c.15.02.29.05.44.09.03.08.07.17.09.26.03.1.17.06.15-.04,0-.05-.02-.09-.03-.13.06.03.11.05.17.08.13.06.24-.04.25-.15.14.05.27-.09.2-.23-.05-.12-.11-.23-.16-.35.27.05.51.17.71.36.12.09.3-.09.22-.22-.03-.04-.06-.08-.09-.13.23.06.45.14.66.24.12.05.25-.06.19-.19-.06-.11-.11-.22-.17-.33.29.13.58.26.87.39.1.05.21-.03.18-.14-.09-.47-.15-.45.49-.14.1.05.18-.03.17-.13-.02-.13-.04-.24-.08-.33.14.08.28.15.41.23.1.06.25-.06.17-.17-.36-.54,1.02-.08,1.01-.09.13.05.19-.13.12-.21.31-.23.63-.3.97-.21.17.02.24-.23.07-.26-.12-.02-.33-.04-.55-.04,8.46-1.35,17.39.2,24.74,4.85,5.93,3.75,10.69,9.3,13.6,15.68,3.33,7.3,3.76,15.34,2.22,23.15-1.68,8.56-5.41,16.42-8.77,24.41Z"/>
    </g>
  </g>
</svg>