<?xml version="1.0" encoding="UTF-8"?>
<svg id="Capa_2" data-name="Capa 2" xmlns="http://www.w3.org/2000/svg" viewBox="0 0 70.17 70.17">
  <defs>
    <style>
      .cls-1 {
        fill: #ecaa04;
      }
    </style>
  </defs>
  <g id="Capa_1-2" data-name="Capa 1">
    <g>
      <path class="cls-1" d="m44.4,31.55c.63,0,1.22-.24,1.67-.69.92-.92.92-2.41,0-3.33-.44-.44-1.04-.69-1.67-.69s-1.22.24-1.67.69c-.92.92-.92,2.41,0,3.33.44.44,1.04.69,1.67.69Zm-.21-2.57c.07-.07.16-.09.21-.09s.14.02.21.09c.12.12.12.31,0,.42-.07.07-.16.09-.21.09s-.14-.02-.21-.09c-.12-.12-.12-.31,0-.42Z"/>
      <path class="cls-1" d="m61.42,20.31c-.54-.7-1.13-1.37-1.76-1.99l-1.44,1.47c.56.55,1.09,1.15,1.57,1.77l1.63-1.25Z"/>
      <path class="cls-1" d="m32.68,8.18l-.29-2.04c-12.76,1.81-23.15,11.5-25.86,24.1l2.01.43c2.53-11.76,12.23-20.8,24.14-22.5Z"/>
      <path class="cls-1" d="m44.15,36.78c0,1.95,1.59,3.54,3.54,3.54s3.54-1.59,3.54-3.54-1.59-3.54-3.54-3.54-3.54,1.59-3.54,3.54Zm3.54-1.48c.82,0,1.48.66,1.48,1.48s-.66,1.48-1.48,1.48-1.48-.66-1.48-1.48.66-1.48,1.48-1.48Z"/>
      <path class="cls-1" d="m36.78,44.15c-1.95,0-3.54,1.59-3.54,3.54s1.59,3.54,3.54,3.54,3.54-1.59,3.54-3.54-1.59-3.54-3.54-3.54Zm0,5.01c-.82,0-1.48-.66-1.48-1.48s.66-1.48,1.48-1.48,1.48.66,1.48,1.48-.66,1.48-1.48,1.48Z"/>
      <path class="cls-1" d="m29.16,42.02c-.63,0-1.22.24-1.67.69-.92.92-.92,2.41,0,3.33.44.44,1.04.69,1.67.69s1.22-.24,1.67-.69c.92-.92.92-2.41,0-3.33-.44-.44-1.04-.69-1.67-.69Zm.21,2.57c-.07.07-.16.09-.21.09s-.14-.02-.21-.09c-.12-.12-.12-.31,0-.42.07-.07.16-.09.21-.09s.14.02.21.09c.12.12.12.31,0,.42Z"/>
      <path class="cls-1" d="m52.55,14.05c-.89-.26-1.8-.44-2.7-.53l-.2,2.05c.77.08,1.55.23,2.32.46l.58-1.97Z"/>
      <path class="cls-1" d="m44.37,46.76c.63,0,1.22-.24,1.67-.69.92-.92.92-2.41,0-3.33-.44-.44-1.04-.69-1.67-.69s-1.22.24-1.67.69c-.92.92-.92,2.41,0,3.33.44.44,1.04.69,1.67.69Zm-.21-2.57c.07-.07.16-.09.21-.09s.14.02.21.09c.12.12.12.31,0,.42-.07.07-.16.09-.21.09s-.14-.02-.21-.09c-.12-.12-.12-.31,0-.42Z"/>
      <path class="cls-1" d="m57.66,16.62c-.78-.57-1.6-1.08-2.44-1.5l-.93,1.83c.74.37,1.46.82,2.15,1.33l1.22-1.66Z"/>
      <path class="cls-1" d="m29.41,36.78c0-1.95-1.59-3.54-3.54-3.54s-3.54,1.59-3.54,3.54,1.59,3.54,3.54,3.54,3.54-1.59,3.54-3.54Zm-5.02,0c0-.82.66-1.48,1.48-1.48s1.48.66,1.48,1.48-.66,1.48-1.48,1.48-1.48-.66-1.48-1.48Z"/>
      <path class="cls-1" d="m52,59.79l1.25,1.63c.7-.54,1.37-1.13,1.99-1.76l-1.47-1.44c-.55.56-1.15,1.09-1.77,1.57Z"/>
      <path class="cls-1" d="m55.29,56.44l1.66,1.22c.57-.78,1.08-1.6,1.5-2.44l-1.83-.93c-.37.74-.82,1.46-1.33,2.15Z"/>
      <path class="cls-1" d="m29.27,63.45l-.53,1.99c1.44.38,2.95.56,4.47.56,4.71,0,9.45-1.76,12.12-4.76l-1.54-1.37c-2.63,2.96-8.79,5.1-14.53,3.58Z"/>
      <path class="cls-1" d="m21.02,59.51c.89.26,1.8.44,2.7.53l.2-2.05c-.77-.08-1.55-.23-2.32-.46l-.58,1.97Z"/>
      <path class="cls-1" d="m57.54,51.97l1.97.58c.26-.89.44-1.8.53-2.7l-2.05-.2c-.08.77-.23,1.55-.46,2.32Z"/>
      <path class="cls-1" d="m60.39,13.17c-6.06-6.06-14.05-9.51-22.58-9.76V0h-1.03c-9.82,0-19.06,3.83-26.01,10.77C3.83,17.72,0,26.96,0,36.78v1.04h3.41c.26,8.53,3.7,16.51,9.76,22.57,6.31,6.3,14.69,9.78,23.6,9.78s17.3-3.47,23.61-9.78c6.31-6.31,9.78-14.69,9.78-23.61s-3.47-17.3-9.78-23.61ZM3.4,35.76h-1.32C2.6,17.43,17.42,2.61,35.75,2.07v9.35c-13.18.53-23.81,11.16-24.33,24.34H3.4Zm33.39,32.35c-16.93,0-30.77-13.5-31.31-30.29h2.67c.77,3.1,2.28,5.81,4.2,7.52l1.37-1.54c-1.52-1.35-2.74-3.49-3.44-5.98h3.19v-1.05c0-12.25,9.51-22.33,21.53-23.25.59-.05,1.19-.07,1.79-.07h1.03v-3.63c2.22-.34,4.45-.24,6.49.3l.53-1.99c-2.22-.59-4.62-.72-7.01-.39v-2.28c16.8.54,30.3,14.38,30.3,31.31,0,17.28-14.05,31.33-31.33,31.33Z"/>
      <path class="cls-1" d="m61.23,28.24l-1.37,1.54c2.95,2.63,5.1,8.79,3.58,14.53l1.99.53c1.57-5.92-.23-13.05-4.2-16.59Z"/>
      <path class="cls-1" d="m12.14,53.25c.54.7,1.13,1.37,1.76,1.99l1.44-1.47c-.56-.55-1.09-1.15-1.57-1.77l-1.63,1.25Z"/>
      <path class="cls-1" d="m29.19,31.51c.63,0,1.22-.24,1.67-.69.92-.92.92-2.41,0-3.33-.44-.44-1.04-.69-1.67-.69s-1.22.24-1.67.69c-.92.92-.92,2.41,0,3.33.44.44,1.04.69,1.67.69Zm-.21-2.57c.07-.07.16-.09.21-.09s.14.02.21.09c.12.12.12.31,0,.42-.07.07-.16.09-.21.09s-.14-.02-.21-.09c-.12-.12-.12-.31,0-.42Z"/>
      <path class="cls-1" d="m36.78,41.96c2.85,0,5.18-2.32,5.18-5.18s-2.32-5.18-5.18-5.18-5.18,2.32-5.18,5.18,2.32,5.18,5.18,5.18Zm0-8.3c1.72,0,3.12,1.4,3.12,3.12s-1.4,3.12-3.12,3.12-3.12-1.4-3.12-3.12,1.4-3.12,3.12-3.12Z"/>
      <path class="cls-1" d="m36.78,55.37c10.25,0,18.59-8.34,18.59-18.59s-8.34-18.59-18.59-18.59-18.59,8.34-18.59,18.59,8.34,18.59,18.59,18.59Zm0-35.13c9.12,0,16.54,7.42,16.54,16.54s-7.42,16.54-16.54,16.54-16.54-7.42-16.54-16.54,7.42-16.54,16.54-16.54Z"/>
      <path class="cls-1" d="m36.78,29.41c1.95,0,3.54-1.59,3.54-3.54s-1.59-3.54-3.54-3.54-3.54,1.59-3.54,3.54,1.59,3.54,3.54,3.54Zm0-5.02c.82,0,1.48.66,1.48,1.48s-.66,1.48-1.48,1.48-1.48-.66-1.48-1.48.66-1.48,1.48-1.48Z"/>
      <path class="cls-1" d="m15.9,56.95c.78.57,1.6,1.08,2.44,1.5l.93-1.83c-.74-.37-1.46-.82-2.15-1.33l-1.22,1.66Z"/>
      <path class="cls-1" d="m36.78,58.87c12.18,0,22.09-9.91,22.09-22.09s-9.91-22.09-22.09-22.09-22.09,9.91-22.09,22.09,9.91,22.09,22.09,22.09Zm0-42.13c11.05,0,20.04,8.99,20.04,20.04s-8.99,20.04-20.04,20.04-20.04-8.99-20.04-20.04,8.99-20.04,20.04-20.04Z"/>
    </g>
  </g>
</svg>