<?xml version="1.0" encoding="UTF-8"?>
<svg id="Capa_2" data-name="Capa 2" xmlns="http://www.w3.org/2000/svg" viewBox="0 0 69.34 69.34">
  <defs>
    <style>
      .cls-1 {
        fill: #fab800;
      }
    </style>
  </defs>
  <g id="inicio">
    <g id="layer1">
      <path id="path12703" class="cls-1" d="m46.23,47.37v-8.07c0-.15-.03-.29-.09-.43l-4.62-11.56c-.25-.62-.53-1.3-1.04-1.91-.43-.52-1.08-1.01-1.91-1.09l.66-1.98c.41-1.22.88-2.23,2.68-3.28l10.51-6.63c.62-.39.67-1.12.35-1.6-.32-.48-.99-.72-1.58-.35l-10.46,6.6c-2.26,1.32-3.21,3.07-3.69,4.53l-.89,2.67h-9.09l1.51-4.23c.74-2.08,2.22-4.22,4.25-5.11l20.87-8.54c.02.08.04.16.07.24l9.66,26.69-10.02,13.36c-.57.76-.03,1.85.92,1.85h6.94c4.46,0,8.08-3.63,8.08-8.09v-2.31c0-1.54-2.31-1.54-2.31,0v2.31c0,3.22-2.55,5.78-5.77,5.78h-4.62l8.66-11.55h2.89c.72,0,1.27-.66,1.13-1.37l-5.52-29.36c-.48-2.55-2.99-4.31-5.81-3.88-2.42.37-3.87,2.1-4.33,3.85l-21.75,8.9c-2.88,1.26-4.62,3.95-5.51,6.45l-1.78,5.01h-.33c-2.1,0-3.04,1.65-3.44,3.26l-2.09,8.29H3.47C1.57,35.83,0,37.4,0,39.3v8.1c0,1.9,1.57,3.46,3.47,3.46h3.46v2.41c-3.91.57-6.94,3.93-6.94,7.99,0,4.46,3.63,8.08,8.1,8.08h35.82c4.46,0,8.08-3.62,8.08-8.08s-3.62-8.09-8.08-8.09h-1.15v-2.31c1.9,0,3.52-1.56,3.47-3.49h0ZM61.52,4.37l5.27,27.99h-1.26s-9.59-26.51-9.59-26.51c-.51-1.41.53-3.17,2.37-3.49,1.57-.27,2.98.7,3.22,2h0Zm-2.58.26c-.64,0-1.16.52-1.16,1.16s.52,1.16,1.16,1.16,1.16-.52,1.16-1.16-.52-1.16-1.16-1.16Zm-16.18,43.91H3.47c-.66,0-1.16-.49-1.16-1.15v-8.1c0-.66.5-1.15,1.16-1.15h16.18c.53,0,1-.36,1.12-.88l2.32-9.32c.22-.87.52-1.36,1.18-1.36h13.87c.3,0,.36.05.56.3.21.25.45.72.67,1.29l4.54,11.34v7.89c.01.64-.5,1.14-1.16,1.14h0Zm-16.17-19.64c-.52,0-.98.35-1.12.86l-1.85,6.93c-.2.74.35,1.46,1.12,1.46h5.31v3.46c0,.23.07.45.2.64l2.31,3.47c.22.32.58.51.96.51h6.94c.63,0,1.15-.52,1.15-1.15v-4.62c0-.16-.03-.31-.09-.45l-4.38-10.4c-.18-.43-.6-.71-1.07-.71h-9.49Zm.89,2.31h2.58v4.62h-3.81l1.24-4.62Zm4.89,0h2.94l3.99,9.48v3.23h-5.16l-1.77-2.66v-10.05Zm-26.6,9.23c-.64,0-1.15.53-1.14,1.17v3.47c-.04,1.58,2.35,1.58,2.31,0v-3.47c0-.65-.52-1.18-1.17-1.17Zm4.62,0c-.64,0-1.15.53-1.14,1.17v3.47c-.03,1.57,2.35,1.57,2.31,0v-3.47c0-.65-.52-1.18-1.17-1.17Zm4.62,0c-.64.01-1.14.53-1.14,1.17v3.47c.03,1.51,2.28,1.51,2.31,0v-3.47c0-.65-.52-1.18-1.18-1.17Zm-5.76,10.42h31.2v2.31h-5.78c-1.54,0-1.54,2.31,0,2.31h9.25c3.22,0,5.77,2.55,5.77,5.78s-2.55,5.77-5.77,5.77H8.1c-3.22,0-5.78-2.55-5.78-5.77s2.56-5.78,5.78-5.78h21.96c1.54,0,1.54-2.31,0-2.31H9.25v-2.31Zm1.16,6.94c-1.9,0-3.47,1.56-3.47,3.46s1.57,3.47,3.47,3.47,3.46-1.57,3.46-3.47c0-1.9-1.56-3.46-3.46-3.46Zm10.4,0c-1.9,0-3.47,1.56-3.47,3.46s1.57,3.47,3.47,3.47,3.46-1.57,3.46-3.47c0-1.9-1.56-3.46-3.46-3.46Zm10.4,0c-1.9,0-3.46,1.56-3.46,3.46,0,1.9,1.56,3.47,3.46,3.47s3.46-1.57,3.46-3.47c0-1.9-1.56-3.46-3.46-3.46h0Zm10.4,0c-1.9,0-3.46,1.56-3.46,3.46,0,1.9,1.56,3.47,3.46,3.47s3.47-1.57,3.47-3.47-1.57-3.46-3.47-3.46Zm-31.19,2.31c.65,0,1.15.5,1.15,1.15s-.5,1.16-1.15,1.16-1.16-.51-1.16-1.16.51-1.15,1.16-1.15Zm10.4,0c.65,0,1.15.5,1.15,1.15s-.5,1.16-1.15,1.16-1.16-.51-1.16-1.16c0-.65.51-1.15,1.16-1.15Zm10.4,0c.65,0,1.15.5,1.15,1.15s-.5,1.16-1.15,1.16-1.15-.51-1.15-1.16.5-1.15,1.15-1.15Zm10.4,0c.65,0,1.16.5,1.16,1.15,0,.65-.51,1.16-1.16,1.16s-1.15-.51-1.15-1.16.5-1.15,1.15-1.15h0Z" vector-effect="none"/>
    </g>
  </g>
</svg>