<?xml version="1.0" encoding="UTF-8"?>
<svg id="Capa_2" data-name="Capa 2" xmlns="http://www.w3.org/2000/svg" viewBox="0 0 66.23 66.35">
  <defs>
    <style>
      .cls-1 {
        fill: #fab800;
      }
    </style>
  </defs>
  <g id="Capa_1-2" data-name="Capa 1">
    <g>
      <path class="cls-1" d="m53.95,55.84c-.4,1.55.35,2.6,1.45,3.58,1.17,1.04,2.24,2.21,3.35,3.32,1.12,1.13,1,2.08-.49,2.65-3.17,1.22-6.41,1.36-9.55-.05-4.41-1.98-7-5.44-7.78-10.21-.18-1.08-.17-2.21.07-3.3.11-.53,0-.91-.4-1.3-2.33-2.29-4.65-4.61-6.94-6.94-.42-.42-.67-.47-1.11-.02-2.24,2.28-4.51,4.53-6.78,6.79-.3.3-.43.58-.35,1.03,1.21,7.47-4.21,13.61-11.07,14.56-6.98.97-13.57-4.51-14.08-11.64-.42-5.94,3.78-12.17,10.18-13.42,1.49-.29,2.98-.31,4.47-.04.43.08.69-.05.97-.33,2.27-2.28,4.54-4.57,6.84-6.83.43-.42.37-.67-.02-1.06-2.29-2.26-4.58-4.54-6.83-6.84-.46-.47-.89-.63-1.55-.55-4.24.53-7.86-.81-10.83-3.84C.05,17.89-.96,12.39.96,7.85c.52-1.24,1.44-1.43,2.42-.48,1.47,1.45,2.94,2.91,4.38,4.38.39.4.79.6,1.36.58.96-.04,1.92-.03,2.88,0,.48.01.74-.12.71-.66-.07-1.08-.11-2.16-.16-3.24-.02-.36-.27-.57-.49-.79-1.41-1.41-2.82-2.81-4.22-4.23-1.15-1.16-.94-2.06.59-2.64,7.34-2.8,15.43,2.41,16.75,9.8.23,1.29.26,2.59.02,3.89-.11.58,0,1,.45,1.43,2.32,2.27,4.61,4.57,6.89,6.88.41.42.67.49,1.12.03,2.24-2.28,4.51-4.54,6.77-6.79.3-.3.43-.57.36-1.03-1.22-7.41,4.15-13.61,11.06-14.57,6.39-.89,12.81,3.79,13.9,10.17,1.23,7.17-3.21,13.57-10.33,14.9-1.37.25-2.74.27-4.1.01-.38-.07-.65-.01-.92.26-2.32,2.34-4.65,4.67-6.99,6.99-.36.35-.31.57.02.9,2.41,2.39,4.82,4.78,7.19,7.2.4.4.8.3,1.22.24,3.8-.49,7.15.55,10.07,3,3.93,3.3,5.43,9.32,3.51,14.05-.47,1.15-1.42,1.38-2.33.5-1.48-1.44-2.94-2.9-4.38-4.38-.37-.38-.76-.55-1.3-.55-.93,0-1.87-.07-2.8-.13-.48-.03-.67.17-.65.64.02.54,0,1.08,0,1.62Zm1.91,7.63c-.23-.25-.38-.43-.55-.6-1.08-1.08-2.15-2.17-3.24-3.23-.41-.41-.6-.86-.6-1.44.02-1.92,0-3.84.01-5.75,0-1.05.43-1.48,1.49-1.46,1.72.04,3.44.13,5.16.19.77.03,1.4.3,1.94.89.95,1.03,1.97,1.99,2.96,2.98.12.12.23.31.41.25.21-.06.14-.29.17-.45.21-.95.1-1.9-.03-2.86-.75-5.4-6.67-9.55-11.97-8.31-1.08.25-1.8,0-2.55-.76-8.54-8.57-17.1-17.12-25.65-25.67-.16-.16-.31-.32-.47-.47-.48-.47-.65-1.02-.45-1.68.24-.81.34-1.65.31-2.48-.1-3.21-1.48-5.83-3.96-7.84-2.07-1.68-4.46-2.45-7.14-2.19-.25.02-.63-.05-.73.22-.1.28.26.43.44.62.91.93,1.81,1.87,2.77,2.76.58.54.87,1.16.9,1.94.06,1.72.15,3.44.19,5.16.03,1.09-.41,1.5-1.52,1.51-1.89,0-3.79-.01-5.68.01-.61,0-1.08-.21-1.5-.64-1.08-1.11-2.18-2.2-3.29-3.29-.14-.14-.24-.38-.56-.33-.05.23-.11.47-.15.71-.41,2.28.09,4.39,1.21,6.38,2.13,3.81,6.65,6.01,10.65,5.07,1.17-.27,1.93,0,2.74.82,8.5,8.54,17.02,17.05,25.54,25.57.16.16.31.32.47.47.51.49.67,1.05.47,1.74-.23.81-.36,1.64-.33,2.48.18,4.78,3.61,8.84,8.3,9.84,1.38.29,2.76.29,4.21-.15Zm-2.74-40.36c6.32,0,11.01-5.32,10.21-11.45-.65-4.97-4.85-8.76-9.8-8.83-6.58-.1-11.44,5.72-10.16,12.23.19.96-.04,1.63-.72,2.3-2.44,2.39-4.83,4.83-7.26,7.23-.42.41-.4.65.01,1.05,1.74,1.7,3.47,3.41,5.16,5.17.48.5.75.46,1.22-.01,2.39-2.44,4.83-4.83,7.23-7.27.61-.62,1.25-.87,2.12-.64.69.18,1.4.27,1.99.22ZM2.75,53.43c-.04.38.06.86.12,1.35.72,5.75,6.48,9.8,12.15,8.52,5.53-1.25,8.91-6.42,7.8-12.02-.18-.93.01-1.59.68-2.24,2.42-2.38,4.79-4.8,7.21-7.18.46-.46.53-.72.02-1.22-1.72-1.65-3.4-3.34-5.06-5.06-.48-.5-.76-.54-1.27-.02-2.39,2.44-4.83,4.83-7.23,7.27-.62.62-1.25.8-2.12.63-6.42-1.3-12.29,3.41-12.31,9.97Z"/>
      <path class="cls-1" d="m60.16,14.28c.02.6-.2,1.11-.62,1.53-1.12,1.14-2.25,2.27-3.39,3.39-.62.61-1.35.85-2.23.6-1.54-.43-3.09-.81-4.63-1.23-.82-.23-1.37-.77-1.6-1.59-.43-1.56-.83-3.13-1.26-4.7-.22-.79-.02-1.48.52-2.04,1.16-1.2,2.35-2.38,3.54-3.55.6-.59,1.35-.71,2.13-.51,1.57.39,3.13.83,4.7,1.26.68.19,1.21.61,1.41,1.29.5,1.7.93,3.41,1.39,5.12.04.14.02.29.03.44Zm-7.79-5.58c-.29-.01-.47.17-.64.34-.82.82-1.63,1.64-2.45,2.45-.23.23-.31.45-.22.79.32,1.11.62,2.22.89,3.34.1.41.33.61.73.71,1.1.27,2.19.56,3.27.88.35.1.6.04.85-.22.79-.81,1.59-1.61,2.4-2.4.29-.29.4-.58.28-.99-.31-1.09-.58-2.18-.88-3.27-.06-.23-.12-.49-.4-.57-1.28-.35-2.56-.7-3.83-1.05Z"/>
      <path class="cls-1" d="m14.14,60.26c-.24-.04-.49-.07-.72-.13-1.43-.37-2.85-.76-4.27-1.13-.96-.25-1.6-.81-1.86-1.79-.37-1.45-.77-2.9-1.16-4.34-.26-.96-.06-1.78.67-2.49,1.04-1.01,2.06-2.04,3.08-3.08.74-.76,1.57-1.03,2.61-.72,1.41.41,2.84.78,4.27,1.16.94.25,1.53.83,1.78,1.77.39,1.47.77,2.95,1.19,4.41.26.93.02,1.7-.64,2.36-1.09,1.1-2.19,2.19-3.28,3.28-.45.45-1,.72-1.66.7Zm-.3-2.61c.32,0,.5-.21.7-.4.78-.78,1.56-1.57,2.35-2.34.28-.27.35-.53.24-.92-.31-1.06-.6-2.13-.86-3.2-.11-.43-.32-.67-.76-.78-1.1-.27-2.19-.56-3.27-.87-.36-.1-.6-.02-.85.24-.79.81-1.59,1.61-2.4,2.4-.3.29-.39.59-.27.99.3,1.06.57,2.14.86,3.2.06.23.09.52.36.6,1.3.37,2.6.73,3.9,1.09Z"/>
    </g>
  </g>
</svg>