<?xml version="1.0" encoding="UTF-8"?>
<svg id="Capa_2" data-name="Capa 2" xmlns="http://www.w3.org/2000/svg" viewBox="0 0 383.53 304.02">
  <defs>
    <style>
      .cls-1 {
        fill: #e6a404;
      }
    </style>
  </defs>
  <g id="Capa_1-2" data-name="Capa 1">
    <g>
      <path class="cls-1" d="m383.53,223.18c-2.16,7.42-6.59,12.94-13.31,16.86-4.62,2.7-8.89,5.99-13.35,8.97-4.4,2.93-8.11,2.7-10.16-.56-2.01-3.2-.85-6.5,3.34-9.35,5.36-3.65,10.75-7.26,16.1-10.91,5.17-3.54,6.91-9.45,4.5-15.12-2.28-5.35-7.77-8.08-13.77-7.18-3.58.54-6.47,2.49-9.63,3.92-26.49,11.93-52.98,23.84-79.52,35.65-10.03,4.46-20.57,6.54-31.61,6.47-23.69-.15-47.39-.05-71.09-.04-2.13,0-4.28.1-5.97-1.56-1.9-1.86-2.31-4.13-1.4-6.53,1.01-2.66,3.18-3.66,5.93-3.66,12.1.01,24.19-.01,36.29,0,3.27,0,6.49-.32,9.57-1.38,8.81-3.01,14.62-12.3,13.26-21.06-1.73-11.14-9.38-17.99-20.73-18.16-11.6-.18-23.2-.1-34.79-.01-2.96.02-5.6-.63-8.23-1.97-12.9-6.54-25.89-12.91-38.78-19.46-11.7-5.94-23.38-6.14-35.22-.5-5.53,2.63-11.29,4.69-17.23,6.15-2.55.62-3.66,1.7-3.64,4.57.12,24.69.1,49.39.03,74.08,0,2.72.59,3.9,3.66,4.17,15.91,1.42,31.17,5.45,45.48,12.64,18.66,9.38,38.46,13.52,59.24,13.31,15.33-.16,30.66.21,46-.45,33.84-1.47,65.21-10.96,94.32-28.12,4.29-2.53,8.43-5.33,12.65-7.98,3.75-2.36,7.34-2.04,9.33.79,2.12,3.03,1.12,6.55-2.73,9.19-29.3,20.13-61.48,32.72-96.87,36.88-2.96.35-5.9.8-8.85,1.2h-71.11c-6.84-1.23-13.72-2.16-20.48-3.87-11.3-2.86-21.67-7.99-32.27-12.61-11.24-4.91-23.01-7.96-35.29-8.81-1.78-.12-3.38-.2-4.1,2.13-3.78,12.4-12.36,19.76-24.63,23.17H3.28C1.16,302.44,0,300.46,0,297.68c.05-25.7.01-51.4.05-77.1,0-4.28,2.26-6.65,5.93-6.6,3.65.05,5.67,2.41,5.78,6.77.03,1.12,0,2.25,0,3.37,0,21.21.09,42.42-.08,63.62-.03,3.73.89,5.16,4.78,4.86,6.08-.48,12.22.46,18.3-.55,10.46-1.74,17.02-9.2,17.12-19.89.13-14.47.05-28.94.05-43.41,0-16.22.04-32.44-.01-48.65-.05-13.45-8.18-21.58-21.7-21.76-4.61-.06-9.24.19-13.84-.08-3.52-.2-4.82.84-4.72,4.55.24,9.47.09,18.96.07,28.44,0,1.24.09,2.55-.26,3.71-.87,2.96-2.9,4.67-6.08,4.45-3.16-.22-5.26-2-5.28-5.21-.11-14.1-.11-28.19,0-42.29.03-3.41,2.29-5.25,5.61-5.27,9.98-.08,20.03-.73,29.92.2,13.05,1.23,21.88,8.91,26.61,21.14,1.74,4.51,1.68,4.63,6.32,3.02,3.88-1.35,7.81-2.66,11.52-4.41,15.42-7.28,30.58-6.76,45.69.93,12.23,6.22,24.56,12.23,36.8,18.44,2.53,1.28,5.05,1.85,7.88,1.83,10.73-.09,21.46-.06,32.19-.03,12.45.04,21.9,5.63,27.99,16.29,6.12,10.71,5.7,21.68-.35,32.44-.57,1.02-2.17,1.95-1.37,3.18.7,1.06,2.32.42,3.53.47,14.64.58,27.86-4.23,40.91-10.27,21.61-10,43.44-19.54,65.18-29.29,1.71-.76,3.44-1.51,5.03-2.48,15.13-9.14,34.47-4.24,39.98,14.61v10.48Z"/>
      <path class="cls-1" d="m205,96.77c-7.01,0-14.03-.02-21.04.01-2.16,0-4.23-.34-6.11-1.37-1.07-.59-1.92-.5-2.94.05-1.82,1-3.83,1.31-5.89,1.31-14.18,0-28.35-.02-42.53.01-2.64,0-4.99-1.59-7.37-1.68-2.26-.08-4.55,1.69-7.12,1.68-14.33-.04-28.65.01-42.98-.03-6.88-.02-11.84-4.36-12.07-11.17-.27-7.82-.53-15.68.2-23.5.69-7.44,4.3-13.26,10.45-17.42,1.58-1.07,1.92-1.75.78-3.49-10.75-16.49-.95-38.09,18.48-40.91,14.51-2.11,28.45,8.83,29.9,23.41.64,6.49-.76,12.44-4.46,17.79-.98,1.41-.88,2.14.63,2.96,2,1.09,3.6,2.74,5.08,4.45.79.91,1.37.93,2.17,0,1.64-1.89,3.46-3.59,5.65-4.83,1.33-.75.77-1.51.17-2.38-2.77-4.08-4.3-8.53-4.65-13.5-.9-12.88,8.31-25.07,20.99-27.54,10.81-2.11,21.36,2.2,27.44,11.18,6.02,8.91,6.05,20.37-.05,29.6-.9,1.37-1.03,2.1.53,2.98,1.98,1.11,3.64,2.69,5.1,4.43.87,1.03,1.5.98,2.3-.05,1.35-1.75,3.03-3.19,4.93-4.27,1.63-.93,1.51-1.71.57-3.16-6.39-9.74-6.03-21.47.83-30.68,6.24-8.39,17.21-12.34,27.34-9.85,10.43,2.57,18.27,11.05,19.96,21.38,1.17,7.14-.4,13.61-4.39,19.56-.59.88-1.13,1.49.19,2.32,7.64,4.8,11.34,11.9,11.57,20.79.18,7.08.45,14.18-.14,21.25-.55,6.51-5.19,10.62-11.79,10.67-7.24.06-14.48.01-21.72.02Zm-114.74-9.71c7,0,14.01-.04,21.01.03,2.1.02,3.01-.71,2.99-2.89-.08-6.7.02-13.41-.06-20.11-.07-6.01-4.15-11.38-9.88-13.25-1.18-.39-2.26-.4-3.48.11-6.85,2.86-13.77,2.93-20.64.08-1.53-.64-2.88-.55-4.34.03-5.66,2.28-9.3,7.51-9.35,13.7-.05,6.4-.02,12.8,0,19.21,0,2.73.37,3.08,3.19,3.08,6.85.01,13.71,0,20.56,0Zm57.46,0c7,0,14.01-.04,21.01.03,2.12.02,2.98-.76,2.96-2.92-.08-6.55.1-13.11-.07-19.66-.16-6.1-3.12-10.54-8.7-13.19-1.8-.85-3.46-.94-5.39-.14-6.17,2.55-12.54,2.77-18.7.26-3.18-1.3-5.66-.69-8.23.98-4.3,2.8-6.51,6.86-6.62,11.93-.13,6.47-.05,12.95-.04,19.43,0,2.98.29,3.27,3.21,3.28,6.85.01,13.71,0,20.56,0Zm57.41,0c7.01,0,14.03-.05,21.04.03,2.17.02,2.97-.9,2.95-2.98-.05-6.33.11-12.67-.06-19-.17-6.42-3.04-11.24-9.09-13.91-1.65-.73-3.21-.81-4.98-.07-6.24,2.64-12.7,2.81-18.94.28-3.12-1.27-5.55-.66-8.04.96-4.2,2.74-6.55,6.64-6.63,11.69-.1,6.71,0,13.42-.06,20.13-.02,2.16.86,2.92,2.98,2.9,6.94-.08,13.88-.03,20.81-.03Zm16.83-60.5c0-9.43-7.3-16.73-16.75-16.76-9.52-.03-17.01,7.38-16.99,16.82.02,9.3,7.78,17.02,17.06,16.94,9.19-.07,16.68-7.71,16.68-17ZM90.37,9.79c-9.48.01-16.73,7.25-16.75,16.73-.02,9.41,7.61,17.13,16.85,17.04,9.19-.09,16.85-7.75,16.91-16.91.06-9.34-7.53-16.87-17.01-16.86Zm57.63,0c-9.48-.09-17.11,7.31-17.21,16.68-.1,9.17,7.73,17.06,16.96,17.09,9.21.03,16.75-7.53,16.81-16.85.06-9.54-7.08-16.83-16.56-16.91Z"/>
      <path class="cls-1" d="m326.4,167.58c-18.1,18.06-46.94,19.83-66.93,4.21-7.13-5.57-12.53-12.39-15.91-20.76-.77-1.91-1.75-2.53-3.81-2.53-42.94.07-85.88.06-128.81.06-5.47,0-6.7-1.22-6.71-6.67,0-7.18-.02-14.37,0-21.55.01-4.67,1.42-6.07,6.06-6.07,43.02,0,86.04-.03,129.06.04,2.32,0,3.43-.65,4.34-2.85,13.62-32.72,53.03-39.58,77.66-20.67,8.29,6.37,14.17,14.43,17.54,24.32,1.97,5.76.28,8.13-5.76,8.13-11.89,0-23.78.05-35.67-.04-1.96-.01-2.56.52-2.47,2.49.16,3.79.18,7.6,0,11.39-.11,2.18.71,2.57,2.68,2.55,11.89-.08,23.78-.05,35.67-.04,5.74,0,7.51,2.41,5.67,7.84-2.61,7.71-6.66,14.53-12.61,20.15Zm-6.76-5.93c3.58-3.68,6.15-6.89,8.05-10.6,1.24-2.44,1.22-2.49-1.53-2.49-11.31,0-22.63,0-33.94,0-4.74,0-6.16-1.46-6.16-6.28,0-7.27,0-14.54,0-21.8,0-4.78,1.44-6.21,6.23-6.21,11.4-.01,22.79-.04,34.19.02,1.86,0,2.39-.31,1.44-2.16-3.35-6.51-7.85-12.03-13.97-16.08-22.59-14.95-54.43-3.94-63.11,21.78-1.64,4.87-2.38,5.4-7.46,5.4-42.12,0-84.24,0-126.35,0-.66,0-1.33.05-1.98,0-1.42-.13-1.88.51-1.85,1.88.06,3.72.02,7.43.02,11.15q0,3.32,3.37,3.32c42.28,0,84.57,0,126.85,0,4.92,0,5.84.62,7.35,5.25,2.67,8.21,7.63,14.89,14.4,20,17.04,12.87,39.75,11.15,54.47-3.19Z"/>
    </g>
  </g>
</svg>