<?xml version="1.0" encoding="UTF-8"?>
<svg id="Capa_2" data-name="Capa 2" xmlns="http://www.w3.org/2000/svg" viewBox="0 0 169.67 218.6">
  <defs>
    <style>
      .cls-1 {
        fill: #e6a404;
      }
    </style>
  </defs>
  <g id="Capa_1-2" data-name="Capa 1">
    <g>
      <path class="cls-1" d="m88.08,0c14.24,3.13,19.09,13.67,20.97,26.56.96,6.59.76,13.22.42,19.84-.11,2.17.57,2.9,2.77,2.88,10.18-.09,20.37-.03,30.55-.05,1.99,0,3.95.16,5.86.68,8.15,2.2,12.68,9.68,10.64,17.88-1.76,7.06-4.62,13.75-7.23,20.53-3.24,8.39-6.48,16.78-9.71,25.18-.91,2.38-2.07,4.61-3.66,6.6-2.66,3.32-6.04,5.2-10.4,5.2-22.58-.02-45.16-.02-67.74,0-2.94,0-5.64-.74-8.04-2.38-1.21-.83-2.12-.99-3.32.04-1.99,1.7-4.39,2.37-7.02,2.35-7.58-.04-15.16.03-22.74-.03-6.68-.05-11.54-4.86-11.55-11.5-.04-17.69-.04-35.37,0-53.06.01-6.66,4.88-11.54,11.5-11.58,7.58-.05,15.16.01,22.74-.03,2.12-.01,4.1.46,5.86,1.57,1.19.75,2.03.74,3.1-.28,2.43-2.33,5.4-3.9,8.53-5,7.68-2.69,11.72-8.34,13.74-15.93,1.82-6.82,2.21-13.85,3.29-20.77.54-3.46,1.2-6.93,4.84-8.69h6.63Zm6.03,117.37c10.18,0,20.37,0,30.55,0,6.3,0,7.88-1.06,10.2-7.02,1.71-4.41,3.33-8.86,5.01-13.29,3.62-9.51,7.62-18.88,10.77-28.57.56-1.71,1.31-3.42,1.03-5.28-.54-3.5-3.45-5.72-7.57-5.72-12.63-.02-25.26,0-37.89-.02-3.68,0-5.06-1.39-5.03-4.98.03-3.32-.07-6.65.24-9.94.5-5.31,0-10.56-.61-15.81-.42-3.62-1.3-7.15-3-10.41-1.98-3.8-4.86-6.56-9.09-7.76-3.28-.92-3.85-.56-4.27,2.8-.7,5.63-1.34,11.27-2.42,16.85-2.24,11.5-7.56,20.53-19.27,24.59-.82.28-1.55.78-2.36,1.1-4.88,1.93-6.84,5.51-6.78,10.73.15,14.68.05,29.37.05,44.05,0,5.96,2.71,8.65,8.71,8.66,10.58.01,21.16,0,31.74,0Zm-48.37-30.32c0-8.28.01-16.57,0-24.85,0-3.8-1.34-5.14-5.13-5.16-6.55-.03-13.1-.02-19.64,0-3.81.01-5.16,1.3-5.17,5.12-.04,16.65-.03,33.29,0,49.94,0,4,1.31,5.25,5.27,5.26,6.39.02,12.78.01,19.17,0,4.27,0,5.51-1.22,5.51-5.46.01-8.28,0-16.57,0-24.85Z"/>
      <path class="cls-1" d="m0,181.76c1-1.46,2.43-2.04,4.14-2.27,4.29-.59,8.56-1.31,12.85-1.91,1.27-.18,1.98-.76,2.51-1.93,1.91-4.2,3.95-8.35,5.91-12.53.73-1.56,1.63-2.86,3.6-2.82,1.92.04,2.87,1.28,3.6,2.85,1.95,4.19,3.97,8.34,5.89,12.54.49,1.08,1.13,1.67,2.34,1.84,4.36.61,8.7,1.34,13.05,1.96,1.79.26,3.36.77,4.02,2.64.66,1.86-.17,3.28-1.45,4.58-3.14,3.19-6.22,6.45-9.39,9.61-1.06,1.06-1.4,2.1-1.11,3.61.85,4.46,1.53,8.95,2.26,13.44.29,1.77.17,3.45-1.45,4.6-1.58,1.13-3.09.55-4.59-.28-3.73-2.06-7.53-4.01-11.19-6.19-1.5-.89-2.61-.8-4.07.05-3.74,2.18-7.59,4.18-11.39,6.26-1.38.76-2.77,1.16-4.22.24-1.53-.97-1.86-2.47-1.61-4.11.73-4.77,1.48-9.54,2.33-14.29.22-1.25.04-2.16-.86-3.07C7.42,192.82,3.72,188.99,0,185.17c0-1.14,0-2.28,0-3.41Zm40.06,26.34c-.58-3.58-1.01-6.65-1.6-9.69-.41-2.14,0-3.88,1.63-5.41,1.86-1.76,3.62-3.62,5.4-5.46.37-.38,1.08-.71.83-1.35-.24-.61-.99-.42-1.53-.51-2.52-.4-5.04-.85-7.57-1.18-1.89-.24-3.11-1.23-3.87-2.92-.73-1.62-1.45-3.25-2.27-4.82-.64-1.22-.84-3.32-2.13-3.36-1.1-.04-1.35,2.09-1.97,3.26-.86,1.63-1.6,3.33-2.36,5.01-.74,1.61-1.91,2.57-3.71,2.82-2.67.36-5.33.81-8,1.23-.47.07-1.09-.03-1.23.58-.11.47.37.73.65,1.03,1.94,1.98,3.87,3.97,5.83,5.92,1.32,1.31,1.78,2.82,1.43,4.66-.52,2.72-.94,5.45-1.4,8.18-.08.48-.36,1.08.05,1.42.56.46,1.04-.18,1.5-.42,1.57-.82,3.23-1.55,4.65-2.58,3.11-2.26,6.02-2.28,9.17-.04,1.87,1.33,4.03,2.27,6.5,3.63Z"/>
      <path class="cls-1" d="m58.1,204.12c.73-4.52,1.51-9.35,2.3-14.18.43-2.66.82-5.33,1.36-7.97.28-1.35-.07-2.28-1.02-3.23-4.82-4.83-9.57-9.72-14.39-14.55-1.39-1.39-2.39-2.84-1.72-4.9.67-2.03,2.41-2.43,4.21-2.7,6.52-1,13.04-2.04,19.58-2.95,1.47-.2,2.22-.85,2.82-2.14,2.92-6.32,5.93-12.6,8.9-18.89.76-1.61,1.61-3.04,3.69-3.02,2.07.02,2.93,1.44,3.68,3.05,2.97,6.3,5.97,12.58,8.91,18.89.6,1.28,1.37,1.91,2.84,2.12,6.26.86,12.49,1.87,18.73,2.83.49.08.98.15,1.47.23,1.65.25,3.04.9,3.56,2.62.52,1.73-.06,3.18-1.32,4.45-4.51,4.54-8.93,9.16-13.51,13.62-1.89,1.84-2.67,3.61-2.11,6.36,1.28,6.25,2.15,12.59,3.23,18.89.32,1.89.47,3.73-1.28,5.05-1.73,1.3-3.34.53-4.96-.36-5.47-3.03-11.02-5.92-16.4-9.09-2.12-1.25-3.73-1.16-5.81.05-5.64,3.29-11.4,6.39-17.16,9.48-2.89,1.55-5.62-.11-5.6-3.62Zm-2.44-40.97c4.3,4.42,8.14,8.41,12.04,12.34,1.36,1.37,1.93,2.88,1.6,4.81-.9,5.18-1.73,10.36-2.59,15.55-.08.48-.46,1.05-.06,1.42.55.51,1.05-.11,1.5-.36,4.24-2.31,8.52-4.56,12.69-7.01,2.17-1.27,4.04-1.16,6.16.09,4.04,2.37,8.2,4.56,12.31,6.81.48.26,1.01.87,1.52.55.69-.43.12-1.16.03-1.74-.79-4.98-1.53-9.97-2.45-14.92-.41-2.19.14-3.83,1.69-5.38,3.43-3.41,6.77-6.9,10.12-10.39.46-.48,1.43-.9,1.08-1.64-.28-.6-1.25-.5-1.95-.61-4.49-.68-8.97-1.49-13.48-2.02-2.52-.3-3.91-1.57-4.9-3.79-1.94-4.35-4.03-8.63-6.08-12.92-.26-.54-.34-1.43-1.1-1.4-.72.03-.81.9-1.07,1.45-1.57,3.26-3.42,6.44-4.59,9.85-1.62,4.72-4.37,7.46-9.56,7.29-.63-.02-1.26.19-1.89.29-3.49.55-6.97,1.1-11.02,1.73Z"/>
      <path class="cls-1" d="m121.2,214.09c.72-4.46,1.41-9.24,2.32-13.98.32-1.69-.08-2.81-1.25-3.97-3.13-3.1-6.14-6.32-9.24-9.46-1.29-1.3-2.09-2.72-1.41-4.58.64-1.78,2.12-2.34,3.84-2.58,4.08-.58,8.14-1.24,12.23-1.76,1.88-.24,2.97-1.07,3.73-2.87,1.7-3.99,3.68-7.85,5.52-11.78.73-1.56,1.64-2.83,3.6-2.82,1.97,0,2.85,1.3,3.59,2.85,1.88,3.99,3.87,7.92,5.63,11.96.72,1.64,1.72,2.4,3.44,2.62,4.08.53,8.15,1.2,12.22,1.78,1.77.25,3.39.7,4.03,2.61.62,1.84-.1,3.27-1.42,4.59-3.21,3.22-6.34,6.53-9.55,9.75-.94.94-1.26,1.86-1,3.23.83,4.39,1.5,8.82,2.23,13.23.07.42.1.85.12,1.27.16,3.73-2.38,5.44-5.68,3.71-4.03-2.12-8.02-4.3-11.96-6.57-1.2-.69-2.11-.69-3.32,0-4.01,2.29-8.06,4.53-12.16,6.65-3.03,1.57-5.64-.18-5.52-3.9Zm8.33-6.44c1,.09,1.55-.42,2.15-.74,2.18-1.19,4.38-2.36,6.53-3.6,1.57-.9,3.06-.9,4.63,0,2.34,1.34,4.73,2.6,7.11,3.88.41.22.86.75,1.32.35.41-.35.15-.94.07-1.42-.44-2.66-.81-5.34-1.37-7.97-.43-2.02.12-3.61,1.54-5.03,1.91-1.9,3.8-3.84,5.68-5.78.32-.33.92-.6.6-1.21-.22-.42-.73-.35-1.15-.42-2.59-.4-5.18-.86-7.79-1.18-1.97-.24-3.23-1.26-4.04-3.03-1.09-2.39-2.22-4.76-3.36-7.13-.21-.43-.32-1.08-.87-1.13-.73-.06-.8.71-1.03,1.18-1.15,2.36-2.27,4.74-3.37,7.13-.77,1.68-1.97,2.7-3.86,2.94-2.53.33-5.05.78-7.57,1.18-.54.09-1.31-.11-1.54.49-.28.74.54,1.07.95,1.49,1.72,1.79,3.44,3.6,5.24,5.31,1.61,1.52,2.06,3.26,1.64,5.41-.59,3.04-1.02,6.11-1.53,9.25Z"/>
      <path class="cls-1" d="m32.52,92.04c1.99-.05,3.54,1.37,3.63,3.34.1,2.1-1.35,3.69-3.43,3.74-2.09.05-3.65-1.47-3.65-3.54,0-1.98,1.47-3.49,3.45-3.54Z"/>
    </g>
  </g>
</svg>