<?xml version="1.0" encoding="UTF-8"?>
<svg id="Capa_2" data-name="Capa 2" xmlns="http://www.w3.org/2000/svg" viewBox="0 0 80.27 80.24">
  <defs>
    <style>
      .cls-1 {
        fill: #fab800;
      }
    </style>
  </defs>
  <g id="Capa_1-2" data-name="Capa 1">
    <g>
      <path class="cls-1" d="m16.6,0c2.32.45,4.53,1.18,6.5,2.56,2.59,1.81,4.43,4.18,5.47,7.15.26.73.62.92,1.35.92,13.52-.02,27.03-.02,40.55-.01,5.03,0,8.84,3.22,9.67,8.16.07.41.08.83.08,1.25,0,4.91.01,9.81,0,14.72-.01,5.2-4.19,9.4-9.39,9.46-1.1.01-2.19.02-3.29,0-.44,0-.69.12-.89.56-.98,2.2-3.2,2.75-5.09,1.29-1.44-1.12-2.87-2.25-4.28-3.42-1.68-1.39-1.67-3.7.02-5.09,1.39-1.14,2.8-2.26,4.22-3.37,1.94-1.5,4.14-.96,5.15,1.27.18.4.4.56.82.54.7-.02,1.41.01,2.11-.01,1.34-.05,2.39-1.05,2.4-2.4.03-4.1.03-8.19,0-12.29-.01-1.53-1.09-2.45-2.75-2.45-7.02,0-14.04,0-21.06,0-6.11,0-12.21.01-18.32-.02-.71,0-1.04.21-1.29.89-2.37,6.38-8.57,10.36-15.1,9.76C6.73,28.83,1.46,24.01.13,17.28.1,17.1.04,16.93,0,16.75c0-1.36,0-2.71,0-4.07.04-.18.09-.35.13-.53C1.01,7.73,3.34,4.32,7.21,1.97c1.74-1.06,3.66-1.6,5.63-1.97h3.76Zm34.24,13.49h0c-5.95,0-11.9,0-17.85,0-.94,0-1.88.01-2.82,0-.49,0-.74.16-.7.68.02.21,0,.42,0,.63q0,1.15,1.15,1.15c8.11,0,16.23,0,24.34,0,4.77,0,9.55-.01,14.32,0,3.23.01,5.58,2.38,5.59,5.6.01,3.91.01,7.83,0,11.74,0,2.85-1.83,4.99-4.62,5.46-1.42.24-2.86.09-4.3.1-1.4.02-1.88-.47-1.96-1.85-.01-.25.06-.56-.22-.71-.32-.17-.54.1-.76.27-1.23.97-2.45,1.95-3.67,2.93-.62.51-.62.67.03,1.2,1.2.97,2.4,1.93,3.61,2.88.22.17.44.44.75.31.33-.14.23-.49.25-.76.07-1.32.57-1.8,1.92-1.81,1.51-.01,3.03-.07,4.54.01,3.66.2,7-2.85,6.9-6.88-.11-4.69-.02-9.39-.03-14.09,0-.6.01-1.2-.13-1.79-.76-3.04-3.27-5.06-6.42-5.07-6.65-.02-13.31,0-19.96,0ZM2.82,14.69c-.05,2.8.87,5.27,2.58,7.46.3.38.48.48.75-.04.52-.98,1.25-1.81,2.23-2.36.63-.35.66-.61.19-1.16-1.52-1.77-2.12-3.83-1.89-6.17.55-5.57,6.89-8.93,11.82-6.22,4.57,2.5,5.69,8.25,2.4,12.34-.37.46-.65.78.09,1.18.96.52,1.7,1.32,2.2,2.28.37.72.6.47.94,0,1.63-2.18,2.45-4.61,2.49-7.35.09-6.72-5.86-12.57-13.05-11.84C7.38,3.46,2.81,8.47,2.82,14.69Zm11.88-6.53c-2.92,0-5.23,2.29-5.25,5.19-.02,2.92,2.33,5.26,5.27,5.26,2.88,0,5.24-2.34,5.27-5.2.03-2.9-2.34-5.25-5.29-5.24Zm.04,18.44c2.09.05,4-.53,5.83-1.49.61-.32.67-.68.41-1.25-.7-1.47-1.84-2.32-3.48-2.36-1.85-.04-3.7-.03-5.55,0-1.59.02-2.98,1.02-3.56,2.49-.2.5-.12.79.38,1.07,1.86,1.04,3.83,1.6,5.97,1.55Z"/>
      <path class="cls-1" d="m0,43.84c.54-2.14,1.48-4.06,3.19-5.53,1.73-1.48,3.73-2.29,6-2.32,3.57-.05,7.15-.03,10.72,0,2.39.01,4.24,1.83,4.23,4.11,0,2.28-1.86,4.07-4.26,4.09-2.97.02-5.95,0-8.92,0-1.83,0-2.81.97-2.81,2.79-.01,3.86-.01,7.72,0,11.58,0,1.83.97,2.76,2.83,2.78.26,0,.52-.02.78,0,.94.1,1.57-.07,2.07-1.1.79-1.64,2.97-2.06,4.46-.97,1.64,1.2,3.23,2.47,4.77,3.8,1.5,1.29,1.45,3.54-.06,4.82-1.47,1.25-2.99,2.45-4.52,3.61-1.78,1.35-4.03.74-4.92-1.32-.22-.5-.49-.63-1-.64-1.67-.02-3.35.19-4.99-.19-3.78-.88-6.25-3.17-7.32-6.93C.17,62.19.08,61.94,0,61.69c0-5.95,0-11.9,0-17.85Zm2.81,8.88s0,0,.01,0c0,2.56-.05,5.11.01,7.67.08,3.47,2.88,6.21,6.33,6.27,1.7.03,3.39,0,5.09.02,1.34.01,1.82.49,1.9,1.83.02.27-.08.61.27.75.29.11.49-.12.69-.28,1.25-.99,2.48-1.99,3.73-2.97.51-.4.48-.73-.01-1.11-1.21-.95-2.4-1.92-3.61-2.88-.24-.19-.46-.5-.81-.37-.37.15-.24.53-.26.83-.07,1.2-.58,1.72-1.75,1.74-1.28.02-2.56.04-3.83,0-2.97-.11-5.27-2.46-5.29-5.42-.02-4.02,0-8.04,0-12.05,0-1.51.56-2.79,1.63-3.85,1.12-1.1,2.5-1.57,4.05-1.58,3-.01,6,0,9-.02.83,0,1.31-.5,1.29-1.24-.01-.71-.48-1.14-1.27-1.19-.16,0-.31,0-.47,0-3.29,0-6.58.09-9.86-.02-3.64-.12-7.02,2.89-6.86,6.85.1,2.34.02,4.7.02,7.04Z"/>
      <path class="cls-1" d="m36.36,61.35c1.83,0,3.65-.02,5.48,0,.56,0,.88-.13,1.12-.7.86-2,3.14-2.57,4.89-1.27.9.67,1.78,1.37,2.63,2.1.5.43.65.34.85-.27,1.76-5.35,5.37-8.83,10.85-10.14,8.59-2.05,17.01,3.99,18,12.8,1.04,9.21-6.87,17.31-16.11,16.28-6.34-.71-10.6-4.27-12.71-10.32-.3-.86-.28-.87-1-.29-.79.63-1.58,1.28-2.39,1.89-1.91,1.44-4.13.87-5.07-1.33-.22-.51-.54-.55-.98-.55-3.68,0-7.36.01-11.03,0-2.16,0-3.82-1.39-4.16-3.4-.43-2.54,1.42-4.75,4.09-4.8,1.85-.04,3.7,0,5.56,0h0Zm29.05,16c6.65.02,11.9-5.17,11.94-11.8.03-6.68-5.19-11.96-11.84-11.98-6.65-.01-11.91,5.19-11.94,11.8-.03,6.68,5.19,11.96,11.85,11.98Zm-28.04-13.12c-1.09,0-2.19,0-3.28,0-1.15,0-2.29-.02-3.44.02-.69.02-1.17.58-1.15,1.23.01.64.45,1.11,1.13,1.18.28.03.57.02.86.02,3.99,0,7.98,0,11.96,0,1.53,0,1.92.38,2.02,1.9.02.26,0,.55.28.68.29.13.49-.08.69-.24,1.26-1.01,2.52-2.02,3.79-3.02.51-.4.47-.72-.02-1.11-1.23-.96-2.45-1.95-3.67-2.92-.22-.17-.42-.47-.74-.34-.33.13-.24.49-.26.76-.15,1.42-.58,1.82-1.99,1.83-2.06,0-4.12,0-6.18,0Z"/>
      <path class="cls-1" d="m43.79,44.19c-1.85,0-3.71.01-5.56,0-.51,0-.78.14-1,.64-.88,2.05-3.16,2.65-4.93,1.31-1.52-1.15-3-2.34-4.47-3.56-1.6-1.33-1.59-3.66,0-4.99,1.43-1.18,2.87-2.34,4.34-3.47,1.9-1.46,4.13-.89,5.09,1.31.22.5.53.55.98.55,3.68,0,7.36-.01,11.04,0,2.09,0,3.77,1.35,4.14,3.26.51,2.57-1.36,4.89-4,4.94-1.88.04-3.76,0-5.64,0h0Zm-1.01-2.88c2.14,0,4.28,0,6.42,0,.46,0,.89-.05,1.19-.45.27-.38.38-.78.18-1.25-.26-.59-.73-.75-1.33-.75-4.12,0-8.24,0-12.36,0-1.71,0-2.05-.3-2.24-1.98-.08-.73-.29-.84-.87-.38-1.25.98-2.5,1.97-3.73,2.97-.67.54-.66.68.04,1.25,1.19.97,2.4,1.92,3.61,2.88.2.16.39.41.68.3.35-.13.25-.48.28-.75.15-1.45.58-1.84,2.05-1.85,2.03,0,4.07,0,6.1,0Z"/>
      <path class="cls-1" d="m59.98,65.42c.73-.02,1.11.37,1.5.76q1.31,1.3,2.59.01c1.77-1.77,3.54-3.54,5.31-5.31.2-.2.4-.43.64-.58.57-.36,1.15-.33,1.66.11.5.44.65.99.37,1.62-.15.34-.41.6-.67.86-2.4,2.4-4.79,4.79-7.19,7.19-1.06,1.06-1.74,1.06-2.79.02-.76-.75-1.52-1.5-2.25-2.28-.42-.45-.59-.99-.29-1.58.25-.51.67-.78,1.13-.82Z"/>
    </g>
  </g>
</svg>