<?xml version="1.0" encoding="UTF-8"?>
<svg id="Capa_2" data-name="Capa 2" xmlns="http://www.w3.org/2000/svg" viewBox="0 0 383.53 332.39">
  <defs>
    <style>
      .cls-1 {
        fill: #e6a404;
      }
    </style>
  </defs>
  <g id="Capa_1-2" data-name="Capa 1">
    <g>
      <path class="cls-1" d="m383.53,251.55c-2.16,7.42-6.59,12.94-13.31,16.86-4.62,2.7-8.89,5.99-13.35,8.97-4.4,2.93-8.11,2.7-10.16-.56-2.01-3.2-.85-6.5,3.34-9.35,5.36-3.65,10.75-7.26,16.1-10.91,5.17-3.54,6.91-9.45,4.5-15.12-2.28-5.35-7.77-8.08-13.77-7.18-3.58.54-6.47,2.49-9.63,3.92-26.49,11.93-52.98,23.84-79.52,35.65-10.03,4.46-20.57,6.54-31.61,6.47-23.69-.15-47.39-.05-71.09-.04-2.13,0-4.28.1-5.97-1.56-1.9-1.86-2.31-4.13-1.4-6.53,1.01-2.66,3.18-3.66,5.93-3.66,12.1.01,24.19-.01,36.29,0,3.27,0,6.49-.32,9.57-1.38,8.81-3.01,14.62-12.3,13.26-21.06-1.73-11.14-9.38-17.99-20.73-18.16-11.6-.18-23.2-.1-34.79-.01-2.96.02-5.6-.63-8.23-1.97-12.9-6.54-25.89-12.91-38.78-19.46-11.7-5.94-23.38-6.14-35.22-.5-5.53,2.63-11.29,4.69-17.23,6.15-2.55.62-3.66,1.7-3.64,4.57.12,24.69.1,49.39.03,74.08,0,2.72.59,3.9,3.66,4.17,15.91,1.42,31.17,5.45,45.48,12.64,18.66,9.38,38.46,13.52,59.24,13.31,15.33-.16,30.66.21,46-.45,33.84-1.47,65.21-10.96,94.32-28.12,4.29-2.53,8.43-5.33,12.65-7.98,3.75-2.36,7.34-2.04,9.33.79,2.12,3.03,1.12,6.55-2.73,9.19-29.3,20.13-61.48,32.72-96.87,36.88-2.96.35-5.9.8-8.85,1.2h-71.11c-6.84-1.23-13.72-2.16-20.48-3.87-11.3-2.86-21.67-7.99-32.27-12.61-11.24-4.91-23.01-7.96-35.29-8.81-1.78-.12-3.38-.2-4.1,2.13-3.78,12.4-12.36,19.76-24.63,23.17H3.28C1.16,330.81,0,328.83,0,326.05c.05-25.7.01-51.4.05-77.1,0-4.28,2.26-6.65,5.93-6.6,3.65.05,5.67,2.41,5.78,6.77.03,1.12,0,2.25,0,3.37,0,21.21.09,42.42-.08,63.62-.03,3.73.89,5.16,4.78,4.86,6.08-.48,12.22.46,18.3-.55,10.46-1.74,17.02-9.2,17.12-19.89.13-14.47.05-28.94.05-43.41,0-16.22.04-32.44-.01-48.65-.05-13.45-8.18-21.58-21.7-21.76-4.61-.06-9.24.19-13.84-.08-3.52-.2-4.82.84-4.72,4.55.24,9.47.09,18.96.07,28.44,0,1.24.09,2.55-.26,3.71-.87,2.96-2.9,4.67-6.08,4.45-3.16-.22-5.26-2-5.28-5.21-.11-14.1-.11-28.19,0-42.29.03-3.41,2.29-5.25,5.61-5.27,9.98-.08,20.03-.73,29.92.2,13.05,1.23,21.88,8.91,26.61,21.14,1.74,4.51,1.68,4.63,6.32,3.02,3.88-1.35,7.81-2.66,11.52-4.41,15.42-7.28,30.58-6.76,45.69.93,12.23,6.22,24.56,12.23,36.8,18.44,2.53,1.28,5.05,1.85,7.88,1.83,10.73-.09,21.46-.06,32.19-.03,12.45.04,21.9,5.63,27.99,16.29,6.12,10.71,5.7,21.68-.35,32.44-.57,1.02-2.17,1.95-1.37,3.18.7,1.06,2.32.42,3.53.47,14.64.58,27.86-4.23,40.91-10.27,21.61-10,43.44-19.54,65.18-29.29,1.71-.76,3.44-1.51,5.03-2.48,15.13-9.14,34.47-4.24,39.98,14.61v10.48Z"/>
      <path class="cls-1" d="m383.53,174.99c-3.61,8.32-9.38,13.49-18.95,13.96-4.51.22-6.56,3.16-6.99,8.24-.75,8.67-6.85,15.8-14.94,17.45-8.41,1.72-16.65-2.12-20.87-9.73-1.35-2.44-1.98-5.05-2.17-7.85-.37-5.42-2.84-7.83-8.19-8.33-10.81-1.01-18.01-8.7-17.96-19.18.04-10.21,7.29-17.78,17.98-18.79,5.35-.5,7.72-2.92,8.21-8.35.94-10.53,8.68-17.82,18.92-17.83,10.28-.01,18.12,7.3,19.02,17.73.44,5.08,2.48,8.02,7,8.24,9.57.47,15.34,5.63,18.94,13.96v10.48Zm-11.67-5.07c.13-3.83-2.91-6.8-7.51-7.35-11.54-1.4-17.04-6.93-18.56-18.67-.57-4.4-3.39-7.33-7.1-7.39-3.67-.06-6.63,2.9-7.24,7.24-1.71,12.19-6.7,17.19-18.79,18.84-4.36.6-7.31,3.5-7.29,7.18.01,3.69,2.96,6.56,7.33,7.15,12.02,1.61,17,6.61,18.76,18.87.62,4.33,3.6,7.28,7.27,7.2,3.72-.08,6.5-3.01,7.06-7.42.19-1.48.2-3,.56-4.43,1.98-7.82,8.8-13.49,16.9-14.15,5.34-.44,8.47-3,8.6-7.07Z"/>
      <path class="cls-1" d="m191.91,30.26c24.57,0,49.15,0,73.72,0,9.09,0,13.35,4.21,13.37,13.17.02,6.74.03,13.47,0,20.21-.04,6.96-3.23,11.23-10,12.35-3.25.54-3.63,2.04-3.62,4.75.06,25.7.07,51.39.02,77.09-.02,10.08-5.47,17.45-14.41,19.9-1.97.54-3.95.51-5.94.51-35.42,0-70.85.02-106.27,0-12.34,0-20.31-7.95-20.34-20.41-.06-25.32-.1-50.64.06-75.96.02-3.72-.71-5.48-4.75-6.19-5.8-1.02-8.84-5.33-8.9-11.29-.08-7.36-.06-14.72,0-22.08.05-7.47,4.66-12.03,12.23-12.04,24.95-.03,49.89-.01,74.84-.01Zm-.07,136.23c7.61,0,15.22,0,22.83,0,9.85,0,19.71.05,29.56-.03,5.92-.05,8.87-2.57,8.88-7.77.07-26.32.01-52.64.08-78.96,0-2.65-1.07-3.46-3.58-3.44-9.73.08-19.46.1-29.19,0-2.76-.03-3.74.97-3.69,3.71.12,7.48.09,14.97.02,22.45-.05,5.57-2.18,7.64-7.75,7.66-10.85.03-21.7.01-32.56,0-7.8,0-9.36-1.57-9.36-9.44,0-18.21-.02-36.42.01-54.63,0-2.31-.05-4.11-3.26-4.09-14.72.11-29.44.09-44.15.01-2.58-.01-3.17,1.15-3.13,3.43.1,4.86.17,9.73-.02,14.59-.12,3.05.86,4.2,4.01,4.14,8.48-.16,16.96-.12,25.44,0,4.12.06,6.86,2.53,7,5.86.14,3.43-2.72,6.12-6.97,6.29-3.36.14-6.73.04-10.1.05-5.21.01-5.22.01-5.22,5.1,0,24.95,0,49.89,0,74.84,0,7.88,2.32,10.21,10.27,10.22,16.96.02,33.93,0,50.89,0Zm12.65-96.3c0-8.23-.06-16.46.04-24.69.03-2.53-.8-3.59-3.45-3.53-6.11.14-12.22.14-18.33,0-2.66-.06-3.45,1.01-3.44,3.54.07,16.46.08,32.92-.01,49.38-.02,2.91,1.22,3.59,3.84,3.53,5.86-.13,11.73-.17,17.58.01,3.01.1,3.88-1.06,3.83-3.92-.14-8.1-.05-16.21-.05-24.32Zm37.51-28.18c-7.11,0-14.22.1-21.32-.05-2.85-.06-4.08.77-3.96,3.79.19,4.86.15,9.73.01,14.59-.08,2.69.83,3.79,3.64,3.77,14.46-.09,28.93-.08,43.4,0,2.53.01,3.61-.8,3.53-3.45-.15-4.86-.18-9.73.01-14.59.12-3.03-.8-4.21-3.99-4.12-7.1.2-14.21.06-21.32.06Z"/>
      <path class="cls-1" d="m365.75,18.99c.04,10.65-8.58,19.26-19.25,19.23-10.32-.03-19.2-8.93-19.08-19.13.13-10.45,8.63-18.93,19.15-19.08,10.25-.15,19.14,8.64,19.18,18.98Zm-12.28.11c-.02-3.89-2.96-6.94-6.76-7.01-3.54-.07-7,3.27-7.08,6.85-.09,3.99,3,7.04,7.1,7.01,4.03-.03,6.76-2.8,6.74-6.85Z"/>
      <path class="cls-1" d="m49.78,110.11c-10.66,0-19.01-8.27-19.04-18.86-.03-10.79,8.32-19.1,19.19-19.07,10.71.03,18.77,8.22,18.76,19.04-.02,10.78-8.15,18.9-18.9,18.89Zm-6.81-19.12c-.07,3.97,2.76,7.07,6.57,7.2,3.71.13,7.33-3.38,7.31-7.07-.02-3.56-3.37-6.92-6.99-7.02-3.75-.1-6.82,2.98-6.89,6.89Z"/>
      <path class="cls-1" d="m192.28,132.2c5.6,0,11.2-.06,16.8.02,4.58.07,7.52,2.53,7.52,6.09,0,3.55-2.94,6.08-7.51,6.11-11.45.07-22.9.07-34.34,0-4.57-.03-7.52-2.56-7.52-6.11,0-3.56,2.94-6.03,7.51-6.09,5.85-.08,11.7-.02,17.54-.02Z"/>
    </g>
  </g>
</svg>