<?xml version="1.0" encoding="UTF-8"?>
<svg id="Capa_2" data-name="Capa 2" xmlns="http://www.w3.org/2000/svg" viewBox="0 0 359.92 359.96">
  <defs>
    <style>
      .cls-1 {
        fill: #22384b;
      }
    </style>
  </defs>
  <g id="Capa_1-2" data-name="Capa 1">
    <g>
      <path class="cls-1" d="m.09,264.1c0-21.32.18-42.65-.09-63.97-.11-8.3,3.28-14.37,9.57-19.21,4.9-3.77,10.47-6.21,16.26-8.27,2.43-.86,3.3,0,4.02,2.21,2.74,8.4,2.8,8.37-4.98,11.95-3.18,1.46-6.3,3.01-8.85,5.49-4.3,4.19-4.27,7.21.22,11.3,2.61,2.38,5.64,4.18,8.91,5.4,23.75,8.83,47.49,8.83,71.14-.37,3.39-1.32,6.44-3.28,8.94-6,3.18-3.46,3.22-6.04.04-9.47-3.77-4.06-8.66-6.28-13.78-7.95-2.73-.89-3.47-2.05-2.51-4.89,3.22-9.47.59-9.73,11.46-5.42,3.72,1.47,7.18,3.49,10.35,5.94,6.28,4.84,9.68,10.87,9.65,19.18-.19,42.65-.28,85.29.06,127.94.08,9.92-4.32,16.29-12.14,21.1-8.98,5.52-18.97,8.19-29.29,9.54-18.61,2.44-37.05,1.9-55.06-4.07-6.07-2.01-11.82-4.72-16.73-8.92C2.64,341.6.01,336.71.05,330.31c.13-22.07.05-44.14.05-66.21Zm107.79-46.31c-32.08,14.05-63.48,14.08-95.29-.05v4.06c0,24.2.24,48.41-.15,72.6-.12,7.08,2.81,11.3,8.54,14.34,1.87.99,3.77,1.96,5.74,2.72,15.38,5.94,31.32,6.72,47.49,4.85,9.23-1.07,18.16-3.27,26.27-8.04,4.98-2.93,7.58-6.83,7.51-13.08-.29-24.45-.12-48.9-.12-73.35v-4.04Zm-53.89,120.26q0-8.08-7.91-8.89c-.87-.09-1.74-.09-2.6-.2-6.93-.88-7.04-.88-6.9,6.2.23,11.58-2.36,9.25,10.26,11.29,6.97,1.12,7.15.78,7.16-6.17,0-.75,0-1.49,0-2.24Zm29.94-1.57q0-8.17-7.87-7.43c-.25.02-.5.03-.74.05q-8.83.76-8.83,9.51c0,8.96,0,8.91,9.18,7.52,10.17-1.54,7.98-.4,8.27-9.65Zm-71.34-17.36c0,2.87,0,5.22,0,7.57,0,6.94,2.39,10.36,8.9,13.03,1.73.71,2.57.57,2.55-1.51-.04-3.86-.04-7.71,0-11.57.02-1.56-.6-2.54-2.05-3.18-2.94-1.29-5.84-2.69-9.4-4.34Zm83.85,12.12c0,3.1.02,5.08,0,7.07-.02,1.74.63,2.13,2.3,1.54,6.14-2.18,9.14-6.33,9.15-12.88,0-1.74-.06-3.48.02-5.22.09-2.02-.28-2.79-2.45-1.6-4.94,2.7-11.95,3.73-9,11.1Z"/>
      <path class="cls-1" d="m180.4,0C215.7,0,251,0,286.29,0c12.45,0,19.72,7.29,19.72,19.76.01,26.94.02,53.88,0,80.82,0,12.42-7.31,19.69-19.79,19.7-26.94.01-53.88.04-80.82-.05-2.89,0-4.85.74-6.57,3.19-4.08,5.81-8.42,11.45-12.75,17.09-3.97,5.17-8.21,5.15-12.2-.06-4.25-5.54-8.51-11.08-12.53-16.79-1.77-2.5-3.73-3.46-6.82-3.45-26.82.12-53.63.07-80.45.06-12.94,0-20.09-7.17-20.09-20.14,0-26.82-.01-53.63,0-80.45C54,7.19,61.21.01,73.76,0c35.55-.01,71.09,0,106.64,0Zm-.06,12.5c-34.91,0-69.83,0-104.74,0-7.24,0-9.1,1.85-9.1,9.05-.01,25.56,0,51.12,0,76.69,0,7.91,1.68,9.55,9.74,9.55,27.93,0,55.86.05,83.79-.06,3.76-.02,6.39,1.23,8.53,4.26,3.01,4.28,6.31,8.36,9.37,12.61,1.57,2.18,2.73,2.03,4.23-.06,2.68-3.75,5.72-7.27,8.22-11.13,2.71-4.18,6.12-5.77,11.2-5.73,27.55.23,55.11.11,82.67.1,7.48,0,9.28-1.8,9.29-9.25,0-25.44,0-50.87,0-76.31,0-8.05-1.65-9.72-9.56-9.72-34.54,0-69.08,0-103.62,0Z"/>
      <path class="cls-1" d="m359.91,245.71c0,23.33,0,46.65,0,69.98,0,6.34-1.89,8.18-8.3,8.2-5.86.02-11.73.14-17.59-.05-3.04-.1-4.18.82-4.11,4,.19,8.1.09,16.22.05,24.32-.03,5.6-2.07,7.62-7.72,7.65-6.86.03-13.72.03-20.58,0-6.19-.02-8.12-1.9-8.14-7.98-.03-8.11-.07-16.22.03-24.32.03-2.4-.64-3.23-3.24-3.78-5.47-1.16-1.91-5.85-2.7-8.88-.64-2.47.77-3.5,3.37-3.49,17.09.07,34.18.03,51.27.03q5.15,0,5.16-5.07c0-4.99-.11-9.98.04-14.97.08-2.65-.96-3.45-3.52-3.43-11.35.09-22.7-.08-34.05.11-3.45.05-4.55-1.06-4.45-4.48.29-9.33-.99-8,7.88-8.07,10.1-.08,20.21-.11,30.31.04,2.99.05,3.94-.96,3.84-3.89-.19-5.23-.22-10.48,0-15.71.15-3.26-1.21-3.97-4.17-3.94-11.1.13-22.21-.04-33.31.11-3.27.04-4.7-.75-4.58-4.35.33-9.53-1.05-8.11,8.15-8.19,9.85-.08,19.71-.13,29.56.04,3.17.06,4.52-.72,4.35-4.15-.26-5.1-.22-10.23-.01-15.34.13-3.1-.93-4.08-4.04-4.06-18.96.12-37.92.06-56.88.05-4.97,0-5.03-.02-4.99-4.92.07-8.66-.99-7.54,7.57-7.56,17.96-.06,35.93-.1,53.89.05,3.4.03,4.66-.89,4.47-4.41-.28-5.1-.23-10.23-.01-15.34.13-3.05-1.07-3.81-3.93-3.8-20.96.09-41.91.05-62.87.04-5.1,0-5.14-.02-5.11-5.18.06-8.32-.89-7.22,7.46-7.32,2.37-.03,4.75-.13,7.11.03,2.66.18,3.46-.96,3.43-3.51-.11-8.23-.06-16.47-.03-24.7.02-5.69,2.01-7.71,7.61-7.74,7.23-.04,14.47-.05,21.71,0,4.89.04,7.06,2.22,7.1,7.12.06,7.86.02,15.72.02,23.58q0,5.21,5.39,5.21c5.61,0,11.23-.02,16.84,0,5.63.03,7.69,2.05,7.7,7.67.02,23.45,0,46.9.01,70.36Zm-53.89-90h.01c0,3.1,0,6.2,0,9.31,0,1.16.09,2.46,1.56,2.53,2.72.14,5.46.12,8.18.03,1.46-.05,1.69-1.22,1.69-2.42,0-6.08,0-12.16,0-18.24,0-1.35-.29-2.31-1.92-2.65-7.59-1.58-9.52-.13-9.52,7.35,0,1.36,0,2.73,0,4.09Zm11.45,180.27c0-1.36.02-2.73,0-4.09-.19-9.07,1.62-7.82-8.15-8.03-2.71-.06-3.42,1.1-3.34,3.57.13,3.97-.03,7.94.05,11.91.19,9.06-1.87,7.87,8.51,8.01,2.35.03,3.02-1.04,2.95-3.18-.09-2.73-.02-5.46-.02-8.19Z"/>
      <path class="cls-1" d="m154.8,317.49c13.55,0,24.15,8.35,27.48,20.66,2.49,9.19,2.5,8.95,12.11,9.28,4.16.14,5.7-1.34,6.39-5.22,2.36-13.24,9.79-21.88,23.37-24.38,7.28-1.34,13.75,1.13,19.86,4.89,5.96,3.67,5.99,3.63,10.86-1.25q5.65-5.66,1.53-12.61c-10.39-17.53-2.29-36.8,17.42-41.74,9.06-2.27,7.66-.38,7.69-9.89.03-8.28,1.09-6.64-7.62-8.82-12.14-3.04-19.58-10.48-21.84-22.81-1.34-7.28,1.11-13.75,4.89-19.86,3.69-5.95,3.65-5.98-1.24-10.86q-5.66-5.66-12.61-1.55c-17.57,10.39-36.69,2.35-41.76-17.43-2.3-8.98-.25-7.66-9.89-7.69-8.07-.02-6.71-1.02-8.6,6.92-2.95,12.43-10.34,20.19-23.03,22.55-5.34.99-10.5.01-15.24-2.45-4.42-2.29-8.58-5.07-12.89-7.57-1.67-.97-1.96-2.11-.88-3.66.07-.1.14-.21.2-.32q4.64-8.58,12.89-3.53c1.6.98,3.17,1.99,4.8,2.9,8.58,4.83,18.45.8,21.13-8.7,1.18-4.19,2-8.49,3.12-12.7,1.24-4.66,2.93-5.94,7.68-5.96,7.61-.04,15.22-.04,22.82,0,4.69.02,6.38,1.34,7.63,6.03,1.03,3.85,1.86,7.75,2.84,11.62,2.7,10.63,12.69,14.84,22.09,9.29,3.54-2.09,7-4.34,10.54-6.43,3.88-2.3,6.28-2.19,9.47.88,5.65,5.45,11.21,11.01,16.67,16.67,3.06,3.17,3.17,5.59.87,9.47-2.16,3.65-4.48,7.2-6.62,10.86-5.27,9.03-1.03,19.06,9.13,21.67,3.98,1.02,8.01,1.85,11.98,2.92,4.68,1.26,5.99,2.96,6.02,7.64.04,7.61.04,15.22,0,22.82-.02,4.71-1.32,6.42-5.98,7.68-3.85,1.04-7.75,1.88-11.62,2.85-10.8,2.69-14.93,12.73-9.19,22.36,2.04,3.43,4.21,6.78,6.25,10.21,2.37,4.01,2.19,6.39-1.07,9.76-5.29,5.46-10.68,10.84-16.13,16.14-3.47,3.37-5.85,3.51-10.06.99-3.53-2.12-6.99-4.35-10.54-6.42-9.04-5.28-19.05-1.12-21.71,9.04-1.1,4.22-2.01,8.49-3.1,12.71-.92,3.6-3.22,5.41-7.05,5.37-7.98-.07-15.96-.06-23.95,0-3.67.02-5.88-1.8-6.79-5.21-1.11-4.22-2.01-8.49-3.11-12.71-2.68-10.37-12.72-14.52-21.93-9.09-3.11,1.84-6.21,3.7-9.25,5.67-1.82,1.18-2.99.98-4.32-.87-5.75-8-5.78-7.92,2.53-13.11,5.86-3.66,11.79-7.08,17.76-7.01Z"/>
      <path class="cls-1" d="m149.81,257.6c0-23.37,18.65-42.01,42.04-42.01,23.68,0,42.3,18.54,42.3,42.13,0,23.63-18.63,42.25-42.22,42.21-23.6-.04-42.12-18.66-42.12-42.33Zm42.49-29.48c-16.21-.08-29.69,13.29-29.95,29.7-.25,15.69,13.79,29.66,29.69,29.54,16.1-.12,29.65-13.72,29.56-29.67-.09-15.91-13.54-29.49-29.29-29.57Z"/>
      <path class="cls-1" d="m78.46,171.65c0,7.6-.08,15.21.04,22.81.04,2.72-.88,3.77-3.66,3.71-10.56-.22-8.76,1.17-8.85-8.55-.11-12.22-.02-24.43-.03-36.65,0-5.52-2.04-8.53-5.71-8.54-3.67-.01-5.73,3-5.74,8.51-.02,13.59-.1,27.18.06,40.76.04,3.36-.91,4.62-4.42,4.51-9.47-.31-8.07,1.05-8.12-8.19-.08-13.09-.04-26.18-.01-39.27.03-11.14,7.58-18.98,18.19-18.99,10.64,0,18.19,7.82,18.24,18.95.03,6.98,0,13.96,0,20.94Z"/>
      <path class="cls-1" d="m24.05,266.37c0-9.6.09-19.19-.05-28.79-.05-3.07.96-4.16,4.06-4.08,9.94.25,8.42-1.08,8.46,8.2.08,17.94-.05,35.89.09,53.83.03,3.4-1,4.58-4.45,4.47-9.44-.3-8.01,1.05-8.1-8.21-.08-8.47-.02-16.95-.01-25.42Z"/>
      <path class="cls-1" d="m96.43,267.14c0,9.6-.1,19.19.06,28.79.05,3.09-1,4.14-4.08,4.06-9.92-.25-8.4,1.08-8.45-8.22-.08-17.82.08-35.64-.11-53.46-.04-3.79,1.08-4.98,4.86-4.84,8.86.34,7.64-.93,7.71,7.87.07,8.6.01,17.2.01,25.8Z"/>
      <path class="cls-1" d="m66.48,272.9c0,9.72-.08,19.44.05,29.16.04,2.87-.85,3.99-3.84,3.92-10.29-.25-8.62,1.14-8.67-8.36-.1-17.82.06-35.64-.1-53.46-.03-3.55.96-4.82,4.62-4.69,9.2.33,7.86-1.01,7.94,8.01.08,8.47.02,16.95.01,25.42Z"/>
      <path class="cls-1" d="m132.09,96.12c-6.46-.17-12.97.93-19.39-.48-18.01-3.96-29.26-18.82-28.74-37.94.44-16.25,13.5-31.31,30.61-33.24,12.31-1.39,24.99-1.87,37.27.4,17.83,3.3,29.08,19.03,28.38,38.1-.59,16.15-14.13,30.9-30.95,33.05-5.64.72-11.45.11-17.18.11Zm-11.83-12.34c12.94-.2,23.77-11.22,23.48-23.87-.29-12.82-11.14-23.59-23.58-23.41-13.01.19-23.71,10.9-23.68,23.7.03,12.82,11.08,23.78,23.77,23.58Zm27.89-46.81c3.06,4.16,5.54,7.72,6.34,11.86.85,4.37,3.07,5.82,7.2,5.08.48-.09,1-.05,1.49,0,3.01.26,3.5-1.09,2.29-3.55-3.37-6.88-8.71-11.3-17.31-13.38Zm0,46.36c6.55-1.55,11.09-4.36,14.52-8.84,1.64-2.14,4.32-4.83,3.06-7.12-1.32-2.38-5.01-.63-7.65-.92-1.44-.16-2.27.61-2.62,2.06-1.24,5.12-3.52,9.77-7.31,14.82Z"/>
      <path class="cls-1" d="m269.57,45.41c-8.41,8.41-15.97,16-23.57,23.57-4.76,4.74-7.48,4.7-12.31-.09q-5.8-5.75-11.61.06c-7.68,7.67-15.41,15.29-22.98,23.06-2.07,2.12-3.4,2.52-5.69.18-6.17-6.32-6.27-6.22.03-12.52,9.53-9.53,19.04-19.07,28.59-28.57,4.43-4.41,7.31-4.39,11.78,0q6.15,6.03,12.14.04c4.65-4.64,9.32-9.27,14.77-14.68-4.62,0-8.18-.08-11.74.03-2.33.07-3.41-.73-3.38-3.21.16-11.29-1.26-9.1,8.87-9.28,6.73-.12,13.47-.06,20.21,0,5.19.04,7.34,2.12,7.37,7.23.05,8.48-.09,16.97.07,25.45.06,3.04-1.15,3.86-3.97,3.8-10.12-.23-8.39,1.16-8.58-8.49-.04-1.83,0-3.67,0-6.54Z"/>
    </g>
  </g>
</svg>