<?xml version="1.0" encoding="UTF-8"?>
<svg id="Capa_2" data-name="Capa 2" xmlns="http://www.w3.org/2000/svg" viewBox="0 0 296.83 236.42">
  <defs>
    <style>
      .cls-1 {
        fill: #22384b;
      }
    </style>
  </defs>
  <g id="Capa_1-2" data-name="Capa 1">
    <path class="cls-1" d="m296.83,186.26c-1.68,2.79-4.19,4.33-7.27,5.33-45.17,14.58-90.34,29.19-135.47,43.91-3.88,1.26-7.36,1.22-11.23-.05-45.04-14.69-90.13-29.25-135.2-43.84-6.33-2.05-7.93-3.95-7.63-10.44,1-21.88,11.16-38.5,29.37-50.39.65-.42,1.3-.84,1.99-1.18,1.83-.88,2.37-1.61.33-3.11-4.23-3.11-7.67-7.03-10.59-11.4-19.85-29.78-1.77-70.3,33.69-75.43,9.62-1.39,18.87.03,27.61,4.25,2.25,1.09,3.09,1.01,4.14-1.5C96.32,19.25,113.62,5.23,138.36.91c29.59-5.17,60.17,12.19,71.66,40.26.18.45.42.88.53,1.34.52,2.18,1.45,2.61,3.66,1.58,29.89-14.01,64.02,3.78,69.2,36.38,2.9,18.21-3.4,33.4-17.34,45.42-2.72,2.34-2.72,2.28.46,4.23,16.69,10.23,26.78,24.93,29.92,44.32.08.47.25.93.37,1.39v10.43Zm-78.93,9.79c-.03-.57-.03-.86-.07-1.14-.13-.86-.27-1.71-.43-2.57-5.54-29.11-22.39-48.75-50.91-56.35-28.35-7.56-52.84.76-72.06,23.17-8.57,9.98-13.32,21.84-15.18,34.83-.32,2.26-.72,4.4,2.54,5.44,21.51,6.83,42.97,13.85,64.44,20.82,1.41.46,2.73.61,4.22.13,21.65-7.05,43.31-14.07,64.98-21.05,1.84-.59,2.87-1.52,2.47-3.28Zm-18.4-129.22c.04-28.32-22.62-51.22-50.75-51.3-28.35-.09-51.19,22.69-51.24,51.1-.05,28.39,22.49,51.11,50.75,51.16,28.55.05,51.21-22.48,51.25-50.96ZM28.56,84.22c-.03,18.87,9.79,31.98,24.05,35.93,14.77,4.08,30.12-2.01,37.84-14.92,1.21-2.03,1.38-3.62.13-5.8-6.2-10.79-9.06-22.5-8.72-34.93.06-2.33-.66-3.78-2.66-4.92-11.03-6.3-22.34-6.77-33.41-.69-11.29,6.21-17.01,16.16-17.23,25.34Zm239.89.07c-.19-9.22-5.93-19.17-17.19-25.4-11.06-6.12-22.37-5.62-33.41.66-1.99,1.13-2.77,2.54-2.71,4.89.31,12.32-2.41,23.97-8.58,34.67-1.46,2.52-1.13,4.32.28,6.57,7.95,12.73,23.15,18.56,37.8,14.39,14.1-4.01,23.81-17.06,23.81-35.79Zm-33.15,52.8c-8.32-.19-16.01,2.03-23.23,6.07-1.46.82-1.67,1.42-.46,2.77,11.5,12.84,18.75,27.73,21.23,44.84.32,2.21,1.09,2.58,3.22,1.87,14.01-4.64,28.05-9.19,42.13-13.64,2.44-.77,3.15-1.94,2.67-4.42-4.23-21.79-23.31-37.53-45.54-37.49Zm-173.6,0c-22.22-.04-41.32,15.72-45.55,37.48-.48,2.49.23,3.65,2.67,4.43,13.98,4.42,27.93,8.92,41.84,13.55,2.38.79,3.2.38,3.56-2.08,2.46-16.91,9.65-31.63,20.99-44.33,1.41-1.58,1.16-2.22-.53-3.14-7.17-3.92-14.77-6.1-22.98-5.92Zm120.19-12.6c3.41,1.82,6.97,2.98,9.53,5.26,4.98,4.42,9.25,3.47,13.69-.44.07-.06.16-.1.25-.15,1.36-.7,1.32-1.4.13-2.32-3.83-2.97-7.21-6.38-10.01-10.36-.65-.93-1.28-1.43-2.3-.46-3.35,3.18-7.19,5.72-11.3,8.46Zm-66.76-.04c-4.19-2.64-7.98-5.24-11.33-8.41-1.27-1.2-1.85-.07-2.46.76-2.78,3.73-5.97,7.06-9.66,9.89-1.52,1.16-1.31,1.89.24,2.65.52.26,1.08.5,1.48.89,3.72,3.61,7.16,3.3,11.2.1,3.01-2.39,6.78-3.83,10.54-5.87Z"/>
  </g>
</svg>