<?xml version="1.0" encoding="UTF-8"?>
<svg id="Capa_2" data-name="Capa 2" xmlns="http://www.w3.org/2000/svg" viewBox="0 0 77.37 69.41">
  <defs>
    <style>
      .cls-1 {
        fill: #fab800;
      }
    </style>
  </defs>
  <g id="Capa_1-2" data-name="Capa 1">
    <g>
      <path class="cls-1" d="m38.65,69.41c-12.02,0-24.03,0-36.05,0-2.38,0-2.6-.22-2.6-2.58,0-6.62,0-13.25,0-19.87,0-1.58.36-1.93,1.95-1.93,3.17,0,6.33-.02,9.5,0,.73,0,1.06-.18,1-.96-.06-.7-.05-1.41,0-2.12.05-.7-.19-.98-.93-.96-1.6.05-3.19.02-4.79.01-1.45,0-1.86-.42-1.86-1.88,0-10.86,0-21.73,0-32.59,0-1.39.44-1.84,1.83-1.85,1.39-.01,2.77-.01,4.16,0,.49,0,.82-.09,1.03-.62.39-.96,1.17-1.47,2.21-1.46.53,0,.72-.22.66-.71C14.62.63,15.2,0,16.7,0c1.94,0,3.87-.02,5.81,0,1.47.02,1.87.42,1.9,1.86,0,.52.16.75.72.75,1.01.01,1.76.52,2.15,1.44.21.51.52.64,1.02.63,1.39-.02,2.77-.01,4.16,0,1.38,0,1.85.48,1.85,1.84,0,5.21,0,10.42,0,15.63,0,1.05,0,1.05,1.04,1.05,9.14,0,18.27,0,27.41,0,1.8,0,2.17.37,2.17,2.16,0,6.2,0,12.41,0,18.61,0,1.03,0,1.03,1.05,1.03,3.19,0,6.39,0,9.58,0,1.38,0,1.8.4,1.8,1.76,0,6.94,0,13.87,0,20.81,0,1.28-.39,1.7-1.65,1.79-.34.03-.68.02-1.02.02-12.02,0-24.03,0-36.05,0Zm-6.92-46.5c0-3.61,0-7.22,0-10.83,0-1.36-.02-2.72,0-4.08,0-.54-.19-.76-.73-.73-.55.03-1.1,0-1.65,0q-1.75,0-1.81,1.77c-.03,1.2-.48,1.66-1.68,1.67-2.35,0-4.71,0-7.06,0-1.88,0-3.77.01-5.65,0-1.02,0-1.49-.48-1.52-1.49-.02-.42-.02-.84,0-1.26.03-.5-.17-.71-.69-.7-.84.02-1.68.06-2.51,0-.83-.07-1,.26-1,1.03.02,9.71.02,19.41,0,29.12,0,.77.18,1.04,1,1.03,7.43-.03,14.86-.03,22.29,0,.79,0,1.02-.22,1.02-1.02-.03-4.84-.02-9.68-.02-14.52Zm19.42,22.11c3.46,0,6.91,0,10.37,0,.5,0,.85-.03.84-.69-.02-5.94-.02-11.88,0-17.83,0-.56-.22-.72-.75-.71-1.73.02-3.46.03-5.18,0-.6-.01-.77.23-.76.79.03,1.36.01,2.72,0,4.08,0,1.11-.45,1.64-1.53,1.66-2.01.04-4.03.04-6.05,0-1.01-.02-1.45-.53-1.46-1.55-.01-1.33-.04-2.67.01-4,.03-.73-.17-1.02-.95-.99-1.59.06-3.19.05-4.79,0-.71-.02-.95.19-.94.92.03,5.81.03,11.62,0,17.43,0,.69.2.9.89.89,3.43-.03,6.86-.01,10.29-.01Zm-37.38,21.73c3.43,0,6.85,0,10.28,0,.59,0,.92-.1.91-.81-.02-5.86-.02-11.72,0-17.58,0-.6-.23-.76-.79-.75-1.67.02-3.35.03-5.02,0-.64-.01-.89.18-.87.84.04,1.31.02,2.62,0,3.92,0,1.25-.45,1.68-1.72,1.69-1.88,0-3.77,0-5.65,0-1.29,0-1.67-.39-1.67-1.7,0-1.28-.04-2.57.01-3.85.03-.75-.25-.94-.95-.92-1.59.04-3.19.04-4.79,0-.7-.02-.96.18-.95.93.03,5.76.03,11.51,0,17.27,0,.77.26.98,1,.97,3.4-.03,6.8-.01,10.2-.01Zm49.81,0c3.43,0,6.85,0,10.28,0,.58,0,.93-.09.92-.8-.02-5.86-.02-11.72,0-17.58,0-.58-.21-.78-.78-.77-1.7.02-3.4.03-5.1,0-.63-.01-.81.24-.8.83.03,1.33.01,2.67,0,4,0,1.2-.41,1.62-1.59,1.63-1.94,0-3.87,0-5.81,0-1.2,0-1.64-.45-1.65-1.68,0-1.33-.02-2.67,0-4,.01-.58-.2-.78-.78-.77-1.67.03-3.35.04-5.02,0-.71-.02-.88.24-.88.91.02,5.76.03,11.51,0,17.27,0,.76.24.99.99.98,3.4-.03,6.8-.01,10.2-.01Zm-24.9,0c3.4,0,6.8,0,10.21,0,.57,0,.93-.07.93-.8-.02-5.86-.02-11.72,0-17.58,0-.59-.23-.77-.79-.76-1.65.03-3.3.03-4.95,0-.68-.02-.85.26-.84.88.03,1.33.03,2.67,0,4-.02,1.1-.52,1.56-1.61,1.57-1.91,0-3.82,0-5.73,0-1.33,0-1.77-.45-1.78-1.8-.01-1.26-.04-2.51,0-3.77.03-.7-.24-.9-.92-.89-1.57.04-3.14.05-4.71,0-.79-.03-.96.27-.96,1,.02,5.7.01,11.41.01,17.11,0,1.02.01,1.03,1.07,1.03,3.35,0,6.7,0,10.05,0Zm-12.52-21.73c3.37,0,6.75,0,10.12,0q1.09,0,1.09-1.06c0-5.36,0-10.72,0-16.09,0-2.09,0-2.06-2.11-2.09-.78-.01-.97.26-.96.99.03,4.11.02,8.21.01,12.32,0,1.49-.42,1.92-1.91,1.92-3.61,0-7.22,0-10.83,0-1.94,0-3.87.02-5.81,0-.58,0-.8.19-.77.78.04.78.05,1.57,0,2.35-.04.68.19.91.88.9,3.43-.03,6.85-.01,10.28-.01Zm-6.62-36.9c1.57,0,3.14,0,4.71,0,.35,0,.71,0,.71-.5,0-.65,0-1.31,0-1.96,0-.19-.02-.39-.27-.4-.2,0-.24.17-.26.33-.15.96-.8,1.3-1.68,1.3-2.12.01-4.24.02-6.36,0-1-.01-1.33-.31-1.62-1.26-.05-.18-.06-.4-.31-.36-.24.04-.22.26-.23.44,0,.55.02,1.1-.02,1.65-.04.58.2.78.78.77,1.52-.03,3.04,0,4.55,0Zm19.15,43.37q1.98,0,1.98-1.9t-2-1.95-1.98,1.89,2,1.96Zm14.41-23.73q0-1.96-1.92-1.96c-1.96,0-1.97,0-1.95,1.94.02,2.23-.3,1.94,1.97,1.94,2.22,0,1.87.27,1.91-1.92ZM13.79,47.63q-1.96,0-1.96,1.85,0,2.01,1.97,2.01,1.91,0,1.91-1.9,0-1.95-1.92-1.96Zm51.75,1.96q0-1.97-1.93-1.96-1.95,0-1.95,1.93c0,1.93,0,1.94,1.96,1.93,2.21-.02,1.89.31,1.92-1.9ZM19.58,4.24c.55,0,1.1,0,1.64,0,.56.01.61-.35.61-.78,0-.42-.01-.8-.58-.8-1.1,0-2.19,0-3.29,0-.55,0-.63.33-.62.77.01.41.01.81.59.81.55,0,1.1,0,1.64,0Z"/>
      <path class="cls-1" d="m22.82,36.12c-1.44,0-2.87,0-4.31,0-.36,0-.74-.03-1.08-.13-.59-.18-.91-.63-.88-1.24.03-.6.37-1.04.98-1.16.38-.08.78-.11,1.17-.11,2.74,0,5.49,0,8.23,0,.39,0,.79.03,1.17.1.64.13,1.02.55,1.03,1.2.01.65-.35,1.09-.98,1.24-.33.08-.67.1-1.01.11-1.44.01-2.87,0-4.31,0Z"/>
      <path class="cls-1" d="m22.77,16.64c-1.41,0-2.82,0-4.23,0-.34,0-.68-.02-1.01-.1-.64-.15-1-.61-.98-1.24.01-.64.38-1.08,1.03-1.2.36-.07.73-.1,1.09-.1,2.77,0,5.54,0,8.31,0,.36,0,.73.03,1.09.09.64.12,1.03.52,1.06,1.18.03.7-.37,1.13-1.03,1.28-.38.08-.78.09-1.17.09-1.38.01-2.77,0-4.15,0Z"/>
      <path class="cls-1" d="m22.89,20.53c1.54,0,3.08,0,4.63,0,1.03,0,1.62.49,1.62,1.3,0,.8-.61,1.28-1.64,1.28-3.08,0-6.17,0-9.25,0-.16,0-.32,0-.47-.02-.76-.11-1.28-.7-1.24-1.38.05-.66.57-1.16,1.34-1.17,1.67-.02,3.35,0,5.02,0,0,0,0,0,0,0Z"/>
      <path class="cls-1" d="m22.85,29.57c-1.59,0-3.19,0-4.78,0-.93,0-1.51-.48-1.54-1.21-.03-.76.58-1.35,1.51-1.35,3.19-.02,6.38-.02,9.57,0,.97,0,1.54.55,1.53,1.32-.02.78-.59,1.24-1.58,1.25-1.57,0-3.14,0-4.7,0Z"/>
      <path class="cls-1" d="m15.33,13.88c0,.84-2.33,3.19-3.16,3.2-.77.01-2.12-1.37-2.11-2.15.02-.78.75-1.44,1.48-1.2.61.2.93-.01,1.27-.41.15-.18.33-.34.51-.48.41-.32.86-.36,1.32-.12.46.24.67.63.68,1.15Z"/>
      <path class="cls-1" d="m12.22,36.56c-.84,0-2.19-1.38-2.17-2.16.02-.81.78-1.42,1.57-1.17.5.16.79.03,1.08-.32.17-.2.36-.38.56-.54.51-.42,1.07-.43,1.58-.03.52.4.68,1.02.34,1.54-.65,1.01-1.54,1.83-2.52,2.53-.14.1-.34.11-.45.14Z"/>
      <path class="cls-1" d="m11.52,20.23c.63.38,1.01-.14,1.45-.57.68-.66,1.49-.73,2.01-.2.53.53.46,1.34-.2,2.02-.54.56-1.09,1.13-1.67,1.66-.66.6-1.29.6-1.95,0-.33-.3-.65-.62-.9-.98-.29-.41-.3-.89-.03-1.33.27-.43.67-.65,1.28-.59Z"/>
      <path class="cls-1" d="m15.33,26.86c0,.81-2.35,3.17-3.17,3.18-.83,0-2.12-1.29-2.1-2.12.02-.81.8-1.44,1.57-1.18.49.17.78.06,1.08-.29.18-.22.4-.41.62-.59.4-.33.85-.37,1.32-.13.46.23.69.62.69,1.14Z"/>
    </g>
  </g>
</svg>