<?xml version="1.0" encoding="UTF-8"?>
<svg id="Capa_2" data-name="Capa 2" xmlns="http://www.w3.org/2000/svg" viewBox="0 0 212.04 211.98">
  <defs>
    <style>
      .cls-1 {
        fill: #e6a404;
      }
    </style>
  </defs>
  <g id="Capa_1-2" data-name="Capa 1">
    <g>
      <path class="cls-1" d="m69.84,94.02c-2.13-2.79-3.98-5.47-5.57-8.32-4.95-8.86-6.83-18.46-6.86-28.49-.04-10.81.04-21.61-.04-32.42-.02-3.07,1.01-4.95,4.01-6.2,14.1-5.89,28.12-11.97,42.15-18.03,1.69-.73,3.24-.76,4.93-.04,14.36,6.18,28.74,12.33,43.11,18.48,1.82.78,2.87,2.03,2.96,4.03.03.57.1,1.14.09,1.7-.13,12.23.24,24.45-.22,36.68-.45,11.99-4.42,22.65-11.86,32.01-1.26,1.59-.79,1.81.75,2.47,5.59,2.41,10.06-.23,14.57-2.91.75-.44.6-1.03.36-1.66-.48-1.26-1.02-2.5-1.43-3.79-1.56-4.86.62-9.85,5.32-11.83,4.12-1.74,8.3-3.37,12.51-4.88,5.39-1.92,10.4.58,12.61,6.26,7.27,18.68,14.5,37.37,21.74,56.06.82,2.12,1.69,4.22,2.45,6.37,1.71,4.84-.29,9.92-4.96,11.98-4.29,1.89-8.67,3.59-13.11,5.11-5.02,1.72-9.89-.62-11.96-5.71-.77-1.89-1.53-2.4-3.4-1.41-1.75.93-3.64,1.6-5.5,2.32-1.07.41-1.55,1.04-1.53,2.23.1,5.91-2.7,10-8.02,12.41-1.01.46-1.3.98-1.14,2.13,1.13,8.33-4.09,14.62-12.52,15.1-1.26.07-1.68.49-1.8,1.75-.65,7.02-6.47,12.12-13.48,11.76-1.41-.07-1.75.22-1.94,1.62-1.23,9.14-11.17,14.04-19.25,9.44-2.05-1.17-3.25-1.35-5.2.43-6.09,5.55-15.42,3.95-19.86-3.22-.79-1.27-1.48-1.54-2.88-1.24-5.8,1.26-10.51-.59-13.98-5.4-.71-.98-1.23-1.4-2.57-.97-8.9,2.87-17.04-2.59-17.78-11.91-.12-1.55-.54-2.13-2.13-2.46-9.3-1.92-13.82-11.19-9.17-19.49,2.16-3.87,2.78-7.34,1.52-11.59-1.3-4.4-4.12-7.48-8.55-8.12-1.32-.19-1.29.92-1.59,1.6-1.53,3.52-4.05,5.75-7.89,6.43-1.76.31-3.42,0-4.99-.68-3.92-1.67-7.84-3.37-11.7-5.16-5.48-2.55-7.46-7.8-5.02-13.33,8.97-20.36,17.96-40.7,26.97-61.04,2.32-5.25,7.69-7.35,12.95-5.13,3.73,1.58,7.43,3.23,11.12,4.9,5.77,2.63,7.69,7.67,5.22,13.57-1.62,3.87-1.64,3.92,2.15,5.55,2.41,1.03,4.64,2.5,7.27,3.02.91.18,1.8.36,3.12.05Zm20.25,44.89c-8.74.13-14.79-3.42-19.68-9.28-3.19-3.82-2.76-6.46,1.54-8.98,9.08-5.32,17.12-11.95,24.6-19.3,1.12-1.1,1.16-1.62-.42-2.08-3.11-.91-6.26-1.17-9.48-.77-3.68.46-7.24,1.43-10.85,2.22-5.72,1.25-11.27,1.14-16.55-1.79-1.43-.79-2.99-1.34-4.43-2.11-1.49-.8-2.38-.64-3.06,1.09-1.14,2.91-2.51,5.73-3.77,8.59-4.28,9.68-8.54,19.38-12.86,29.04-.57,1.26-.47,1.96.9,2.41.81.26,1.55.73,2.35.99,4.59,1.48,7.8,4.28,8.87,9.17.28,1.27.97.93,1.71.42,7.93-5.53,18.4-1.03,20.44,7.5.19.79.49,1.21,1.43,1.18,6.08-.19,10.53,2.4,13.19,7.91.43.9.94,1.23,1.98,1.1,6.61-.82,11.4,1.66,14.33,7.5.6,1.19,1.22,1.41,2.48,1.24,3.74-.51,7.34.17,10.19,2.73,2.32,2.08,4.96,3.53,7.6,5.05,3.45,1.99,6.92,3.94,10.39,5.88,3.57,1.99,6.81,1.38,8.57-1.57,1.79-3,.66-6.19-2.97-8.35-.31-.18-.62-.35-.93-.53-6.87-3.88-13.74-7.75-20.61-11.64-.49-.28-.99-.56-1.46-.89-1.8-1.25-2.31-3.3-1.29-5.02.97-1.64,2.92-2.25,4.84-1.22,4.2,2.24,8.33,4.62,12.48,6.94,5.52,3.09,11.03,6.19,16.55,9.28,2.22,1.24,4.39,1.06,6.41-.41,1.95-1.43,2.3-3.51,1.93-5.74-.34-2-1.77-3.16-3.43-4.1-6.69-3.77-13.38-7.53-20.05-11.32-.8-.45-1.62-.94-2.24-1.59-1.22-1.26-1.45-2.78-.44-4.28,1.01-1.5,2.44-2.19,4.24-1.5.86.33,1.66.81,2.46,1.26,6.63,3.73,13.23,7.51,19.88,11.19,3.93,2.17,8.29.15,8.75-4.06.32-2.89-1.26-4.77-3.7-6.15-9.77-5.53-19.59-10.99-29.24-16.73-4.24-2.52-8.47-2.96-13.07-1.66-4.8,1.35-9.31,3.48-13.98,5.2-4.68,1.72-9.41,3.24-13.61,3.17Zm31.68-41.56c-1.62.1-3.25.05-4.87.41-5.37,1.19-9.94,3.93-13.87,7.6-7.76,7.23-15.52,14.43-24.7,19.88-1.26.75-.9,1.34-.06,2.08,3.7,3.28,7.93,4.84,12.92,4.25,4.22-.5,8.13-1.95,12.04-3.48,4.7-1.83,9.32-3.87,14.26-5.03,5.66-1.33,10.91-.63,15.99,2.35,9.63,5.64,19.34,11.15,29.11,16.54,2.05,1.13,3.57,3.76,6.04,3.41,2.39-.33,4.59-1.84,6.93-2.68,1.7-.61,2.1-1.39,1.4-3.16-4.75-12.03-9.38-24.11-14.06-36.17-1.53-3.94-1.63-4.07-5.18-1.92-5.2,3.14-10.55,3.51-16.16,1.5-2.74-.98-5.45-2.05-8.18-3.07-3.74-1.4-7.51-2.67-11.59-2.5Zm13.55-48.82c0-4.94-.09-9.06.04-13.18.06-1.81-.64-2.67-2.23-3.33-8.51-3.58-17-7.22-25.47-10.88-1.13-.49-2.13-.5-3.26-.01-8.61,3.72-17.22,7.42-25.86,11.07-1.39.59-1.87,1.41-1.86,2.91.06,8.17,0,16.34.06,24.51.02,1.98.23,3.98.62,5.92,3.01,14.69,12.14,23.81,26.1,28.51,1.29.43,2.43.41,3.65-.3,2.79-1.61,5.83-2.6,8.97-3.27.85-.18,1.62-.49,2.35-.95,8.51-5.42,13.94-13,16.05-22.91,1.33-6.25.67-12.6.84-18.09Zm55.65,101.15c.24-.08.85-.24,1.44-.47,3.18-1.23,6.36-2.46,9.53-3.71,2.99-1.18,3.29-1.82,2.14-4.81-3.03-7.89-6.09-15.76-9.14-23.64-4.75-12.25-9.49-24.49-14.25-36.74-1.17-3.02-1.94-3.32-5.01-2.13-2.98,1.16-5.96,2.31-8.93,3.47-3.3,1.29-3.64,2.01-2.38,5.26,5,12.91,10,25.82,15,38.73,2.8,7.22,5.59,14.43,8.39,21.65.51,1.31,1.1,2.52,3.21,2.38ZM50.86,81.52c.15-1.91-.69-2.51-1.72-2.97-3.44-1.53-6.86-3.1-10.33-4.57-2.44-1.03-3.4-.62-4.51,1.88-8.84,19.94-17.65,39.89-26.46,59.85-.98,2.22-.6,3.23,1.6,4.24,3.23,1.48,6.49,2.89,9.74,4.33,2.85,1.27,3.67,1.01,4.95-1.87,8.78-19.81,17.54-39.63,26.29-59.46.28-.64.42-1.34.45-1.43Zm13.9-36.19c.25,5.29-.31,11.9.32,18.5.95,9.94,4.73,18.63,11.03,26.32,1.53,1.87,3.09,2.81,5.46,1.83.58-.24,1.53-.24,1.71-.63.36-.78-.62-1.15-1.08-1.61-6.71-6.7-11.01-14.69-12.16-24.11-1.42-11.53-.56-23.14-.59-34.72,0-2.08,1.23-3.3,3.14-4.11,10.34-4.37,20.67-8.79,30.96-13.27,1.7-.74,3.18-.76,4.89-.02,9.97,4.33,19.93,8.7,30,12.8,3.15,1.29,4.33,3.2,4.28,6.46-.11,8.17.01,16.35-.05,24.53-.06,7.25-1.19,14.28-4.51,20.85-2.14,4.23-4.8,8.04-8.14,11.4-.31.31-1.45.65-.37,1.4,2.04,1.43,4.55,1.11,6.16-.77,7.54-8.85,11.26-19.18,11.43-30.73.16-10.73,0-21.47.07-32.21.01-1.6-.54-2.41-1.99-3.03-12.63-5.35-25.24-10.76-37.83-16.19-1.09-.47-1.97-.38-3.02.07-12.6,5.43-25.2,10.83-37.83,16.19-1.37.58-1.93,1.33-1.9,2.86.09,5.62.04,11.23.04,18.16Zm12.98,125.15c.03-2.8-1.81-5.14-4.51-5.84-2.47-.64-4.64.37-6.01,2.78-2.74,4.82-5.49,9.62-8.22,14.45-1.94,3.43-1.13,7.07,1.88,8.71,3.23,1.75,6.61.59,8.53-3.02,2.59-4.9,5.12-9.83,7.68-14.74.4-.77.72-1.55.65-2.34Zm4.17,26.7c2.29.1,4.01-.97,5.1-3.05,2.2-4.22,4.41-8.43,6.57-12.67,1.43-2.81.26-6.11-2.6-7.53-2.84-1.41-6.02-.43-7.47,2.34-2.24,4.28-4.14,8.77-6.75,12.81-2.26,3.51,1.05,8.5,5.16,8.11Zm-19.48-37.61c0-3.07-1.64-5.21-4.43-5.97-2.45-.67-5.18.43-6.56,2.81-1.46,2.52-2.8,5.1-4.13,7.7-.87,1.7-2.03,3.27-2.45,5.18-.57,2.61,1.02,5.61,3.51,6.62,2.72,1.1,5.42.15,6.9-2.41,1.99-3.44,3.98-6.89,5.98-10.32.69-1.18,1.3-2.38,1.18-3.6Zm48.2,29.44c.01-3.73-1.67-6.02-4.2-6.64-2.91-.72-5.22.29-6.58,2.9-1.9,3.65-3.81,7.3-5.69,10.96-1.43,2.78-1.07,5.05,1.05,6.91,1.98,1.74,5.41,2.23,7.23.3,4.09-4.32,6.22-9.84,8.18-14.43Zm14.17,8.01c0-2.8-3.64-6.83-6.25-6.95-.72-.03-.78.47-.88.95-.53,2.47-1.75,4.65-3.08,6.74-1.13,1.78-1.1,2.93,1,3.7.46.17.87.48,1.32.68,3.82,1.69,7.89-.96,7.89-5.13Z"/>
      <path class="cls-1" d="m89.11,46.85c2.49-.01,4.59.93,6.35,2.62,1.44,1.37,2.9,2.74,4.22,4.22,1.07,1.2,1.8,1.14,2.91,0,4.56-4.69,9.2-9.3,13.81-13.94,2.67-2.68,5.89-3.38,9.42-2.31,3.44,1.04,5.42,3.57,6.13,7.02.61,2.99-.28,5.69-2.38,7.85-7.2,7.38-14.39,14.76-21.74,21.99-4.15,4.09-9.34,3.91-13.46-.16-4-3.94-8.01-7.88-11.89-11.94-2.7-2.82-3.38-6.23-1.78-9.85,1.59-3.59,4.5-5.36,8.4-5.5Zm.02,7.46c-.69-.01-1.3.18-1.58.85-.46,1.07,0,1.92.76,2.67,3.56,3.57,7.11,7.15,10.69,10.7,1.85,1.83,2.51,1.81,4.41-.09,4.87-4.87,9.72-9.76,14.56-14.65,2-2.02,3.96-4.07,5.92-6.12.81-.85,1.23-1.85.34-2.83-.95-1.05-1.92-.54-2.78.25-.47.43-.92.89-1.37,1.34-5.2,5.24-10.4,10.49-15.61,15.71-2.38,2.39-4.17,2.4-6.57.06-2.29-2.23-4.52-4.51-6.78-6.77-.56-.55-1.11-1.12-1.98-1.12Z"/>
      <path class="cls-1" d="m178.5,87.91c.06,2.2-1.9,4.29-4.11,4.38-2.29.09-4.41-1.95-4.43-4.26-.01-2.19,1.99-4.22,4.22-4.26,2.22-.04,4.26,1.92,4.32,4.15Z"/>
      <path class="cls-1" d="m44.58,84c0,2.23-1.96,4.26-4.18,4.32-2.29.06-4.39-2.02-4.37-4.34.02-2.21,2.06-4.2,4.29-4.19,2.23,0,4.26,2.01,4.27,4.21Z"/>
    </g>
  </g>
</svg>