<?xml version="1.0" encoding="UTF-8"?>
<svg id="Capa_2" data-name="Capa 2" xmlns="http://www.w3.org/2000/svg" viewBox="0 0 40.43 40.46">
  <defs>
    <style>
      .cls-1 {
        fill: #fab800;
      }
    </style>
  </defs>
  <g id="Capa_1-2" data-name="Capa 1">
    <g>
      <path class="cls-1" d="m18.56,40.46c-1.15-.15-2.29-.32-3.41-.6C7.38,37.87,1.33,31.3.24,23.36-.87,15.34,1.89,8.8,8.33,3.88,11.06,1.79,14.22.61,17.64.17c2.79-.36,5.54-.14,8.24.64.16.05.33.09.49.16.51.23.75.77.59,1.27-.17.53-.7.84-1.25.7-1.07-.29-2.14-.55-3.24-.69-3-.37-5.92-.07-8.72,1.06C7.51,5.82,3.64,10.41,2.39,17c-1.07,5.65.38,10.76,4.13,15.14,2.89,3.38,6.6,5.41,11,6.05,5.49.79,10.42-.63,14.63-4.27,3.37-2.91,5.35-6.62,6.03-11.01.4-2.57.21-5.11-.5-7.61-.04-.15-.09-.3-.13-.46-.15-.61.13-1.14.7-1.31.55-.17,1.11.11,1.31.71.26.77.45,1.57.58,2.37.11.69.2,1.38.3,2.06v3.16c-.09.66-.15,1.33-.29,1.98-1.75,8.29-6.72,13.61-14.82,16.03-1.12.34-2.29.47-3.44.62h-3.32Z"/>
      <path class="cls-1" d="m32.27,20.26c0-.33,0-.66,0-.99,0-.6.41-1.04.98-1.09.55-.04,1.02.37,1.11.96.13.83.08,1.66-.01,2.48-.31,2.83-1.34,5.37-3.18,7.56-2.35,2.79-5.32,4.5-8.95,4.99-7.17.97-13.79-3.47-15.63-10.46-2.08-7.91,3.17-16.07,11.24-17.45,1.12-.19,2.24-.31,3.37-.16.59.07,1,.5,1.02,1.07.02.52-.3.93-.8,1.01-.19.03-.39.01-.59,0-4.39-.14-7.86,1.61-10.42,5.14-1.24,1.72-1.92,3.67-2.09,5.79-.3,3.66.83,6.83,3.37,9.46,2.06,2.13,4.6,3.34,7.57,3.58,3.93.31,7.25-.99,9.92-3.86,2.09-2.25,3.12-4.95,3.11-8.03Z"/>
      <path class="cls-1" d="m34.44,4.42c0,.39.02.79,0,1.18-.02.34.12.43.44.43.76-.02,1.53,0,2.29,0,.52,0,.97.15,1.19.66.23.53,0,.93-.37,1.3-1.91,1.9-3.82,3.81-5.72,5.72-.33.33-.69.48-1.16.47-.97-.02-1.95,0-2.92-.01-.3,0-.52.09-.73.3-2.09,2.1-4.18,4.19-6.27,6.28-.24.24-.48.44-.84.45-.46.01-.8-.17-.99-.58-.19-.38-.15-.77.12-1.11.1-.12.21-.23.32-.34,2.06-2.06,4.11-4.11,6.17-6.16.22-.22.32-.44.32-.76-.02-.99,0-1.97,0-2.96,0-.42.13-.76.43-1.06,1.94-1.93,3.87-3.87,5.81-5.8.35-.35.75-.55,1.24-.34.51.21.68.63.69,1.14,0,.39,0,.79,0,1.18Zm-2.1,1.23c-.08.04-.11.04-.13.06-1.23,1.22-2.45,2.45-3.68,3.67-.11.11-.16.23-.15.39,0,.66,0,1.31,0,1.97,0,.26.1.35.35.34.6-.01,1.21-.01,1.81,0,.27,0,.47-.08.66-.27,1.1-1.11,2.21-2.21,3.31-3.32.08-.08.2-.14.2-.31-.46-.02-.91-.02-1.36-.07-.68-.07-.99-.43-1-1.12,0-.43,0-.86,0-1.34Z"/>
      <path class="cls-1" d="m20.28,26.16c3.28,0,5.9-2.55,6-5.83.02-.74.45-1.21,1.08-1.2.62,0,1.02.5,1.02,1.25,0,.38-.04.76-.1,1.14-.59,3.53-3.48,6.29-7.03,6.71-4.43.52-8.51-2.69-9.01-7.1-.51-4.51,2.75-8.55,7.28-9.01.23-.02.47-.02.71-.02.63,0,1.09.43,1.11,1,.02.59-.42,1.06-1.07,1.09-.48.02-.94.07-1.4.18-2.51.59-4.73,3-4.56,6.24.14,2.62,2.22,4.99,4.92,5.48.35.06.7.07,1.06.08Z"/>
    </g>
  </g>
</svg>