<?xml version="1.0" encoding="UTF-8"?>
<svg id="Capa_2" data-name="Capa 2" xmlns="http://www.w3.org/2000/svg" viewBox="0 0 36.59 40.65">
  <defs>
    <style>
      .cls-1 {
        fill: #fab800;
      }
    </style>
  </defs>
  <g id="Capa_1-2" data-name="Capa 1">
    <g>
      <path class="cls-1" d="m17.98,40.65c-.38-.22-.51-.55-.51-.99.02-1.62,0-3.25,0-4.87,0-.14,0-.29.04-.43.11-.38.49-.6.9-.55.39.05.69.36.7.78,0,1.77,0,3.54,0,5.3,0,.36-.22.58-.5.76h-.63Z"/>
      <path class="cls-1" d="m18.31,9.2c3.61,0,6.89,1.11,9.93,2.98,3.2,1.96,5.87,4.5,8.08,7.52.34.47.37.78.06,1.2-3.38,4.52-7.5,8.06-12.97,9.8-4.13,1.31-8.2.99-12.15-.71-4.43-1.9-7.91-4.99-10.81-8.78-.59-.77-.59-.97,0-1.75,2.72-3.58,6.01-6.49,10.08-8.46,2.4-1.16,5.14-1.8,7.78-1.8Zm0,1.65c-1.98,0-4.31.49-6.24,1.31-4.05,1.72-7.24,4.5-9.97,7.89-.2.25-.13.41.04.61,2.15,2.69,4.63,5,7.64,6.72,2.94,1.68,6.07,2.62,9.5,2.39,2.43-.16,4.69-.87,6.84-1.99,3.32-1.74,6.03-4.21,8.37-7.11.19-.23.21-.4.01-.65-2.18-2.7-4.68-5.03-7.71-6.76-2.63-1.5-5.44-2.38-8.49-2.41Z"/>
      <path class="cls-1" d="m19.12,3.44c0,.83,0,1.66,0,2.5,0,.59-.32.94-.84.93-.5,0-.8-.35-.8-.93,0-1.68,0-3.36,0-5.03C17.48.34,17.8,0,18.3,0c.5,0,.82.34.82.91,0,.85,0,1.69,0,2.54Z"/>
      <path class="cls-1" d="m6.64,11.07c-.29,0-.49-.12-.66-.29-1.09-1.09-2.19-2.18-3.27-3.28-.39-.39-.39-.89-.03-1.23.35-.33.82-.32,1.2.06,1.1,1.09,2.19,2.18,3.28,3.27.28.28.38.6.21.97-.15.32-.41.46-.72.49Z"/>
      <path class="cls-1" d="m34.18,6.86c0,.29-.13.49-.3.66-1.08,1.08-2.16,2.17-3.25,3.25-.4.39-.88.41-1.23.06-.35-.35-.34-.84.06-1.23,1.08-1.09,2.16-2.17,3.25-3.25.28-.28.59-.39.97-.23.34.15.49.42.51.75Z"/>
      <path class="cls-1" d="m7.45,31.2c0,.29-.11.49-.29.66-1.09,1.09-2.18,2.19-3.28,3.27-.39.39-.89.39-1.23.03-.33-.35-.32-.82.06-1.2,1.09-1.1,2.18-2.19,3.28-3.28.28-.28.6-.38.97-.21.32.15.46.41.49.72Z"/>
      <path class="cls-1" d="m29.97,30.39c.28,0,.48.13.65.3,1.08,1.08,2.17,2.16,3.25,3.25.39.4.41.88.07,1.23-.34.35-.84.34-1.23-.05-1.1-1.09-2.19-2.18-3.28-3.28-.28-.28-.37-.61-.19-.98.15-.32.42-.46.73-.48Z"/>
      <path class="cls-1" d="m18.21,13.17c3.75,0,6.82,2.74,7.24,6.38.48,4.21-2.85,7.91-7.08,7.97-3.29.05-6.7-2.38-7.2-6.34-.08-.67-.08-1.35.05-2.01.1-.54.49-.88.94-.81.5.08.79.49.71,1.05-.49,3.22,1.64,5.64,4.02,6.26,3.29.85,6.51-1.38,6.88-4.75.35-3.17-2.08-5.79-4.88-6.04-.85-.08-1.66.03-2.46.28-.55.17-.96.02-1.15-.4-.21-.46,0-.94.53-1.14.8-.3,1.62-.47,2.41-.44Z"/>
      <path class="cls-1" d="m21.5,20.32c0,1.8-1.39,3.21-3.18,3.21-1.82,0-3.22-1.4-3.22-3.21,0-1.79,1.41-3.19,3.2-3.19,1.79,0,3.2,1.4,3.2,3.19Zm-1.65.07c.05-.81-.65-1.55-1.5-1.6-.8-.05-1.55.65-1.6,1.5-.05.8.65,1.55,1.5,1.6.8.05,1.55-.65,1.6-1.5Z"/>
      <path class="cls-1" d="m13.52,15.55c.47,0,.83.34.84.81,0,.47-.35.83-.82.83-.46,0-.8-.34-.82-.79-.01-.48.33-.84.8-.85Z"/>
    </g>
  </g>
</svg>