<?xml version="1.0" encoding="UTF-8"?>
<svg id="Capa_2" data-name="Capa 2" xmlns="http://www.w3.org/2000/svg" viewBox="0 0 363.97 367.82">
  <defs>
    <style>
      .cls-1 {
        fill: #22384b;
      }
    </style>
  </defs>
  <g id="Capa_1-2" data-name="Capa 1">
    <g>
      <path class="cls-1" d="m227.67,160.15c4.74,0,9.48-.06,14.22.01,10.57.15,17.99,5.27,22.26,14.79,1.11,2.47,2.61,3.47,5.1,4.2,43.07,12.67,69.05,41.03,77.42,85.17,2.27,11.95.92,24.14,1,36.22.02,3.13.89,4.85,3.7,6.41,10.03,5.6,14.42,16.39,11.91,28.2-2.25,10.55-10.81,17.8-22.57,19.27-33.61,4.19-67.24,8.23-100.81,12.76-12.48,1.68-24.59-.3-36.81-1.78-19.16-2.33-38.31-4.78-57.46-7.19-11.12-1.4-22.28-2.56-33.34-4.31-10.91-1.73-18.55-9.51-20.27-19.74-1.97-11.67,2.28-21.75,11.99-27.13,3.02-1.67,3.73-3.56,3.77-6.75.18-12.57-1.21-25.22,1.33-37.69,8.82-43.32,34.75-70.95,76.99-83.4,2.65-.78,4.15-1.93,5.31-4.48,4.28-9.34,11.64-14.37,22.04-14.55,4.74-.08,9.48-.01,14.22-.01Zm-64.51,143.71c11.72,0,23.45-.08,35.17.05,2.97.03,4.06-.93,3.71-3.9-1.63-14.1-3.17-28.21-4.75-42.32-2.15-19.18-4.33-38.36-6.42-57.54-.49-4.44-.81-4.91-5-3.49-30.65,10.4-50.41,31.18-58.95,62.44-3.78,13.82-2.11,28.01-2.41,42.06-.06,2.84,1.91,2.7,3.85,2.7,11.6-.01,23.2,0,34.79,0Zm129.01,0c11.72,0,23.45,0,35.17,0,1.85,0,3.64,0,3.58-2.58-.29-12.94,1.28-25.99-1.67-38.77-7.57-32.8-27.47-54.63-59.2-65.7-4.67-1.63-4.99-1.21-5.48,3.6-.98,9.66-2.07,19.32-3.16,28.97-2.63,23.39-5.27,46.77-7.97,70.15-.37,3.18.47,4.46,3.95,4.41,11.6-.19,23.19-.07,34.79-.07Zm-64.06,16.8c-10.85,0-21.7,0-32.56,0-26.32,0-52.64-.02-78.96.04-5.13.01-8.16,3.1-8.34,8.09-.16,4.73,2.69,8.15,7.42,8.76,10.13,1.29,20.27,2.52,30.41,3.79,21.26,2.66,42.51,5.4,63.78,7.97,7.9.95,15.76,2.63,23.8,1.56,10.99-1.45,21.99-2.85,32.99-4.22,24.35-3.05,48.71-6.06,73.06-9.12,3.16-.4,5.63-1.85,6.82-5.05,2.38-6.43-1.33-11.78-8.4-11.79-36.67-.04-73.35-.02-110.02-.02Zm-.29-143.71s0,.02,0,.03c-4.74,0-9.48-.1-14.22.03-4.66.13-7.43,2.93-7.34,7.62.07,3.72.6,7.44,1.01,11.15,2.13,19.18,4.29,38.36,6.42,57.55,1.77,15.97,3.55,31.93,5.26,47.9.2,1.87,1.05,2.64,2.87,2.62,3.87-.03,7.73-.05,11.6,0,1.99.03,2.86-.77,3.08-2.82,1.45-13.75,2.98-27.48,4.51-41.22,1.87-16.83,3.77-33.66,5.65-50.49.86-7.67,1.86-15.33,2.5-23.02.53-6.46-2.24-9.27-8.62-9.35-4.24-.05-8.48,0-12.72,0Z"/>
      <path class="cls-1" d="m226.76,132.11c-.74-10.48,3.94-17.14,12.95-21.38,8.2-3.86,8.12-4.03,5.2-12.58-1.76-5.14-2.53-5.59-7.92-4.7-1.6.26-3.2.51-4.8.78-8.35,1.42-14.92-1.54-19.93-8.19-2.63-3.48-5.15-7.05-7.67-10.61-4.57-6.46-5.35-13.28-1.84-20.47,1.04-2.13,2.13-4.23,3.18-6.36.39-.78,1.07-1.6,1.04-2.38-.17-5.31-5.41-5.87-8.33-8.61-1.81-1.7-3.63-1.11-5.24.56-1.56,1.61-3.18,3.17-4.76,4.77-6.44,6.51-13.92,8.32-22.58,5.14-3.39-1.25-6.84-2.36-10.3-3.41-8.19-2.48-13.09-7.86-14.61-16.3-.13-.74-.3-1.47-.4-2.21-1.21-9.05-4.46-11.15-13.57-8.84-1.92.49-3.02,1.47-3.3,3.51-.42,3.08-.85,6.18-1.56,9.21-1.68,7.12-6.15,11.85-13,14.27-4.23,1.49-8.56,2.71-12.81,4.13-7.9,2.63-14.71.74-20.65-4.88-1.27-1.2-2.48-2.46-3.71-3.7q-4.25-4.24-9.32-.71c-7.29,5.08-7.41,5.15-3.04,12.91,5.04,8.96,4.56,17.32-1.94,25.36-2.11,2.61-3.98,5.43-5.95,8.16-5.07,7.04-11.84,10.02-20.46,8.6-.25-.04-.49-.07-.74-.1-10.92-1.56-9.63-2.68-13.35,8.88-.87,2.69-.02,4.28,2.33,5.47,2.45,1.23,4.89,2.49,7.28,3.84,6.64,3.75,10.13,9.41,10.17,17.08.02,4.74,0,9.48-.02,14.22-.04,7.68-3.53,13.34-10.16,17.08-2.39,1.35-4.87,2.53-7.31,3.77-2.33,1.19-3.17,2.84-2.3,5.51,3.78,11.65,2.53,10.65,13.34,8.84,9.67-1.62,16.76,1.79,22.09,9.73,2.01,3,4.24,5.86,6.35,8.79,4.7,6.55,5.51,13.48,1.92,20.79-1.1,2.24-2.14,4.51-3.39,6.67-1.43,2.48-1.15,4.38,1.23,6.11,10.91,7.92,8.16,7.03,16.13-.75,5.69-5.56,12.13-8.21,20.03-6.1,4.8,1.28,7.25,5.25,6.33,9.95-.83,4.24-4.89,7.22-9.53,6.39-2.95-.53-4.42,1.08-6.06,2.76-4.2,4.28-8.24,8.71-14.65,9.77-2.52.41-4.96.64-7.39-.11-8.74-2.69-15.99-7.76-21.11-15.21-4.31-6.27-4.14-13.45-.02-19.81,3.95-6.09,3.5-10.62-1.07-16.52-3.91-5.05-7.23-6.42-13.3-5.11-12.11,2.62-20.57-2.65-24.66-14.4-1.06-3.06-2.12-6.14-2.9-9.28-2.23-8.93,1.14-18.32,9.57-21.73,8.55-3.46,11.08-8.63,10.26-17.32-.4-4.31-1.35-6.88-5.41-8.51-6.98-2.8-12.58-7.12-14.5-14.95-.7-2.85-.83-5.66-.16-8.51,1.05-4.5,2.43-8.91,4.21-13.17,3.52-8.44,11.22-12.92,20.35-11.97,2.72.28,5.48.54,8.13,1.2,2.65.66,4.24-.26,5.65-2.38,1.8-2.7,3.66-5.37,5.74-7.85,1.85-2.21,2.2-4.26.69-6.79-1.34-2.24-2.46-4.63-3.55-7.01-3.33-7.28-2.55-14.3,2.49-20.35,4.41-5.3,10.09-9.41,16.47-12.05,8-3.31,15.61-1.5,21.11,4.93,5,5.85,9.57,7.11,17,4.33,5.61-2.1,7.95-4.62,8.38-10.32.7-9.27,5.21-16.08,14.52-18.78,5.21-1.51,10.64-1.4,15.98-.83,11.32,1.22,18.03,7.63,19.05,19,.55,6.16,2.96,8.92,8.98,11.08,7.02,2.52,11.22,1.36,16.06-4.03,7.6-8.46,17.18-9.02,26.59-2.64,2.78,1.89,5.52,3.86,8.16,5.95,7.44,5.9,10.37,15.72,5.48,23.73-4.72,7.74-4.13,13.48,1.83,20.04,2.77,3.05,4.8,4.92,8.97,3.67,2.23-.67,4.67-.78,7.02-.92,9.04-.52,16.08,3.81,19.49,12.18,1.55,3.8,2.83,7.74,3.86,11.71,2.41,9.21-1.44,17.83-9.81,22.49-.22.12-.43.28-.66.35-6.52,2.19-10.32,5.76-9.3,13.6.61,4.67-3.99,8.32-8.4,8.2-4.52-.13-7.92-3.68-8.15-8.58-.07-1.49-.01-2.99-.01-4.12Z"/>
      <path class="cls-1" d="m59.8,137.05c.02-37.69,27.71-68.53,64.52-72.54,38.12-4.16,73.52,23.3,79.05,61.21.67,4.61.69,9.19.62,13.8-.08,5.15-3.56,8.75-8.26,8.8-4.38.05-8.06-3.47-8.42-8.38-.34-4.59-.04-9.19-.87-13.78-4.53-25.05-27.95-46.52-57.8-45.07-25.6,1.25-48.49,22.05-51.79,48.2-3.3,26.15,12.2,51.04,37.09,59.56,1.06.36,2.13.72,3.15,1.18,4.32,1.97,6.32,6.28,4.89,10.44-1.49,4.32-5.9,6.65-10.56,5.19-22.76-7.12-38.5-21.86-47.17-44.05-3.16-8.08-4.78-16.51-4.44-24.57Z"/>
    </g>
  </g>
</svg>