<?xml version="1.0" encoding="UTF-8"?>
<svg id="Capa_2" data-name="Capa 2" xmlns="http://www.w3.org/2000/svg" viewBox="0 0 383.72 383.62">
  <defs>
    <style>
      .cls-1 {
        fill: #22384b;
      }
    </style>
  </defs>
  <g id="Capa_1-2" data-name="Capa 1">
    <g>
      <path class="cls-1" d="m.07,261.56c2.2-12.24,5.42-24.26,12.74-34.44,4.39-6.12,6.1-12.34,5.25-19.51-1.44-12.16,2.17-22.45,10.45-31.51,4.83-5.28,8.05-12.14,15.64-14.44,1.45-.44,1.24-1.98,1.4-3.2.97-7.66,1.92-15.32,2.96-22.98.57-4.21,2.99-6.29,6.68-5.95,3.57.33,5.56,3.01,5.12,7.26-.73,6.94-1.5,13.87-2.48,20.78-.42,2.97.64,3.57,3.39,3.55,8.67-.04,8.83.08,10-8.63,2.24-16.66,4.27-33.36,6.42-50.03.34-2.61-.3-3.85-3.3-3.89-8.95-.12-8.94-.24-10.26,8.47-.89,5.9-2.99,8.33-6.85,7.96-4.05-.39-5.58-3.28-5-9.47.02-.25-.02-.51.05-.74,1.16-3.9.34-5.92-4.17-7.27-6.32-1.88-9.01-9.47-6.33-15.8,1.6-3.78,3.49-7.47,5.59-11,4.26-7.16,11.19-9.02,18.94-9.02,19.09,0,38.17,0,57.26,0,23.45,0,46.9.03,70.35-.01,11.66-.02,21.52,3.62,28.58,13.38,4.09,5.65,5.51,12.27,6.66,18.89,3.69,21.36,7.17,42.76,10.65,64.15.4,2.49,1.32,3.7,4,3.84,3.72.2,7.42.92,11.13,1.26,4.54.42,4.95.03,4.95-4.55.02-17.96,0-35.92.03-53.89,0-2.49.26-4.98.41-7.46.15-2.33.85-4.73,2.62-6.03,3.48-2.56,3.44-5.94,3.41-9.62-.08-14.34-.12-28.69,0-43.03.1-12.61,5.9-21.91,17.03-27.79,6.06-3.2,12.23-6.22,18.4-9.22,7.23-3.51,13.86-1.23,17.56,5.96,1.77,3.44,3.57,6.87,5.14,10.4,2.79,6.29.69,12.64-5.34,16.01-3.81,2.13-7.76,4.01-11.66,5.95-2.86,1.42-4.21,3.6-4.19,6.87.07,12.85.04,25.7.02,38.54,0,1.69.27,3.16,1.66,4.35,3.51,2.99,4.48,6.96,4.46,11.42-.06,21.08.06,42.16-.1,63.24-.03,3.65.92,4.88,4.72,5.13,7.82.51,15.6,1.61,23.38,2.67,7.64,1.04,14.03,4.69,18.67,10.75,6.06,7.92,11.71,16.19,16.16,25.14,3.72,7.46,5.32,15.53,5.31,23.89-.01,11.73.01,23.45-.01,35.18,0,2.02.29,3.91,1.1,5.81,10.73,25.31,4.18,53.3-16.64,71.41-.63.54-1.52.92-1.57,2.62,2.67,0,5.34.04,8.01,0,9.94-.18,16.07,5,15.19,15.28-.21,2.48-.17,5,0,7.48.44,6.68-2.38,11.28-8.52,13.87H71.18c-2.33-2.12-4.17-4.46-2.74-7.83,1.41-3.32,4.28-3.84,7.47-3.67,1.24.07,2.49.01,3.74.01,95.06,0,190.11,0,285.17,0,7.73,0,6.97.71,7-7.07.02-5.89,0-5.9-5.85-5.9-115.27,0-230.53,0-345.8,0-8.73,0-8.6,0-8.68,8.75-.03,3.29,1.05,4.33,4.31,4.28,10.1-.17,20.21-.02,30.31-.08,3.09-.02,5.85.5,7,3.76,1.15,3.27-.13,5.83-2.89,7.75-15.89,0-31.79-.04-47.68.05-1.96.01-2.58-.24-2.54-2.42.17-8.69.07-17.38.07-26.07,3.22-6.37,8.7-8.36,15.46-8.22,7.09.15,14.18.06,21.27,0,1.11,0,2.47.57,3.48-.91-.65-.46-1.24-.89-1.84-1.3-12.08-8.16-21.6-18.63-28.57-31.45-5.11-9.41-7.84-19.56-9.8-29.99v-21.71Zm365.21-9.41c0-7.16-.04-14.34.01-21.52.06-7.84-2.15-15.04-6.22-21.64-3.53-5.73-7.28-11.33-11.04-16.92-3-4.46-7.2-7.33-12.53-8.07-7.03-.97-14.11-1.6-21.16-2.36-15.35-1.65-30.7-3.41-46.07-4.91-15.49-1.5-30.89-4.11-46.55-3.47-5.16.21-5.18.05-5.18,5.2,0,14.34.04,28.69-.02,43.03-.03,8.05-4.36,12.87-12.33,13.66-3.21.32-6.48.21-9.72.17-2.08-.02-3.03.43-2.23,2.81,4.68,14.01,6.04,28.48,5.53,43.16-.11,3.18,1.12,4.01,4.14,4,18.46-.11,36.92-.1,55.38,0,2.83.02,4.08-.82,4.9-3.69,12.75-44.7,64.54-60.66,100.19-30.96.72.6,1.22,1.62,2.89,1.51ZM26.87,317.41c.54-1.34.74-1.92.99-2.47,1.77-3.82,4.79-5.32,8.06-4.01,3.08,1.23,4.31,4.31,3.17,8.13-.61,2.03-1.26,4.05-2.04,6.02-.73,1.87-.41,3.16,1.23,4.52,9.81,8.11,20.92,13.47,33.35,16.12,2.69.57,4.14.29,2.91-3.13-1.16-3.24.37-6.14,3.36-7.31,3.18-1.25,5.62-.1,7.38,2.63.94,1.46,1.9,2.99,2.43,4.63,1.25,3.89,3.92,4.62,7.57,4.11,11.81-1.64,22.67-5.7,32.64-12.24,2.36-1.55,3.24-2.45-.19-3.87-3.16-1.3-4.26-4.57-3.14-7.46,1.21-3.1,4.11-4.46,7.64-3.48,1.92.53,3.89,1.02,5.68,1.86,2.61,1.22,4.3.56,6.06-1.65,7.91-9.96,13.17-21.08,15.65-33.57.63-3.16-.16-3.11-2.66-2.1-3.3,1.33-6.56-.05-7.86-2.96-1.26-2.82-.24-5.94,2.72-7.69,2.14-1.27,4.39-2.37,6.66-3.4,1.92-.87,2.47-2.23,2.17-4.21-.77-5.18-1.51-10.37-3.13-15.37-2.61-8.09-6.18-15.68-11.76-22.65-.45.96-.71,1.51-.96,2.07-1.74,3.97-4.61,5.57-7.84,4.34-3.35-1.27-4.6-4.23-3.46-8.34.4-1.44.71-2.96,1.41-4.25,1.79-3.33.53-5.36-2.23-7.49-9.65-7.46-20.34-12.48-32.31-14.89-3.09-.62-3.5-.02-2.45,2.86,1.21,3.32-.2,6.33-3,7.53-3,1.29-6.13.16-7.92-2.99-1.05-1.84-2.06-3.72-2.84-5.68-.95-2.36-2.52-3.11-4.97-2.82-12.73,1.53-24.49,5.65-35.09,12.94-.74.51-1.89.8-1.8,2.22.64.29,1.33.58,1.99.91,3.48,1.73,4.82,4.75,3.56,7.97-1.15,2.94-4.16,4.19-7.81,3.2-1.56-.43-3.16-.83-4.61-1.53-3.11-1.51-5.24-.73-7.35,1.99-7.38,9.54-12.49,20.09-14.91,31.9-.25,1.22-.87,2.6.05,3.91,1.66-.25,3.05-1.21,4.74-1.18,2.68.04,4.5,1.24,5.58,3.64,1.12,2.5.4,4.67-1.45,6.45-.88.85-2.02,1.45-3.11,2.04q-7.51,4.09-6.1,12.59c.06.37.08.75.15,1.11,2.17,11.18,6.55,21.35,13.84,31.04Zm177.42-123.8c-.07,0-.14,0-.21,0,0-9.35,1.03-18.84-.21-28.03-2.84-21.1-6.84-42.04-10.24-63.07-.5-3.11-1.88-4-4.97-3.96-11.85.18-23.7.21-35.54-.01-3.79-.07-4.92,1.07-4.89,4.86.15,24.2.12,48.39.02,72.59-.01,2.97,1.04,4.76,3.41,6.45,11.39,8.14,20.69,18.28,28.45,29.93,2.37,3.56,3.08,9,7.24,10.4,3.93,1.32,8.64.19,13,.43,3.21.18,4.05-1.16,4-4.15-.14-8.48-.05-16.96-.05-25.44Zm-72.69,152.92h152.59c-1.22-1.15-1.83-1.74-2.46-2.31-13.16-11.62-20.64-26.05-21.34-43.7-.13-3.23-1.6-3.56-4.2-3.56-27.55.06-55.1.09-82.65-.04-3.24-.02-4.55,1.16-5.53,4.09-3.61,10.76-9.39,20.29-16.86,28.86-5.53,6.34-12.03,11.5-19.53,16.66Zm148.41-22.43c.62-1.19.86-1.62,1.08-2.06,1.89-3.73,4.63-5.14,7.73-3.98,3.32,1.24,4.62,4.32,3.46,8.3-.49,1.67-.93,3.38-1.65,4.96-1.27,2.8-.5,4.76,2.06,6.27,1.5.88,2.89,1.96,4.39,2.84,4.24,2.5,8.72,4.35,14.17,5.39-1-2.72-1.98-4.68-1.17-6.86.91-2.45,2.67-3.95,5.27-4.13,3.4-.23,5.08,2.07,6.49,4.74q4.32,8.23,13.35,5.65c2.15-.62,4.28-1.35,6.33-2.24,2.29-.99,4.78-1.76,6.62-3.97-.71-.38-1.13-.62-1.56-.84-3.79-1.9-5.11-4.5-3.92-7.73,1.22-3.32,4.26-4.61,8.31-3.44,2.15.62,4.28,1.36,6.4,2.07,1.14.38,2.26.52,3.1-.48,4.86-5.79,8.12-12.34,9.87-20.27-1.65.47-2.67.83-3.73,1.05-2.6.54-4.69-.39-6.19-2.49-1.55-2.17-1.39-4.43.03-6.64,1-1.56,2.64-2.23,4.19-3.02q7.63-3.9,5.45-12.28c-.54-2.04-1.18-4.08-2.01-6.02-1.14-2.66-1.99-5.54-4.46-7.74-.43.81-.71,1.36-1.01,1.89-1.94,3.48-4.96,4.74-8.03,3.36-2.94-1.32-4.1-4.25-3.05-7.86.56-1.91,1.11-3.84,1.85-5.68.89-2.19.43-3.79-1.48-5.19-4.97-3.65-10.36-6.42-16.29-8.17-2.55-.75-2.78-.07-2.06,2.25,1.13,3.61-.23,6.44-3.31,7.65-2.9,1.14-5.78.05-7.58-3.04-1.19-2.04-2.15-4.22-3.24-6.32-.51-.98-.89-2.18-2.33-2.08-7.8.54-14.91,2.97-21.84,7.55,1.23.61,1.91.9,2.55,1.26,3.23,1.81,4.46,4.5,3.39,7.39-1.18,3.2-4.19,4.62-7.93,3.6-2.28-.62-4.5-1.46-6.77-2.14-.93-.28-2-.81-2.81.1-5.2,5.84-8.32,12.67-10.35,20.73,1.4-.4,1.98-.57,2.57-.73,3.86-1.03,6.82.16,8.11,3.26,1.27,3.05-.02,5.94-3.66,7.95-1.85,1.02-3.76,1.95-5.67,2.88-1.37.66-2.16,1.63-2.04,3.22.59,7.45,3.06,14.22,7.34,21.04ZM30.47,205.68c1.32.09,1.88-.89,2.62-1.46,15.08-11.69,32.23-18.01,51.22-18.29,27.26-.39,50.17,9.9,67.9,30.61,15.35,17.94,22.18,38.97,20.33,62.65-.47,6.05-.52,6.06,5.52,6.06,1.5,0,3-.06,4.49,0,1.99.09,2.93-.64,3.03-2.77,1.03-21.66-2.49-42.29-14.1-60.97-17.6-28.32-43.1-44.72-76.26-47.78-15.21-1.4-30.65-.33-45.99-.41-2.62-.01-4.44,1.26-5.94,3.3-2.8,3.82-5.37,7.88-8.6,11.31-4.93,5.24-4.86,11.33-4.23,17.74Zm103.53-118.83c25.56,0,51.12,0,76.68-.02,1.19,0,2.75.56,3.48-.67.82-1.41-.51-2.58-1.23-3.65-4.02-5.98-9.78-8.61-16.88-8.61-31.05,0-62.09,0-93.14,0-12.72,0-25.44.07-38.15-.04-3.98-.03-6.7,1.43-8.22,5.13-.47,1.15-1.1,2.24-1.65,3.36-2.11,4.29-2,4.5,2.81,4.5,25.44,0,50.87,0,76.31,0Zm-22.65,44.84c0-9.47-.14-18.94.07-28.41.08-3.48-.79-5-4.54-4.72-4.09.3-8.23.29-12.33,0-3.34-.24-4.6,1.01-4.99,4.25-2.19,18.28-4.53,36.55-6.85,54.82-.3,2.34.38,3.5,2.96,3.45,7.62-.13,15.17.74,22.61,2.3,2.83.59,3.11-.63,3.09-2.91-.07-9.59-.03-19.19-.03-28.79Zm185.77,13.93c0-6.23-.06-12.46.03-18.69.04-2.47-.71-3.65-3.41-3.59-6.1.13-12.21.13-18.31,0-2.62-.06-3.47.93-3.45,3.5.09,11.59.11,23.17,0,34.76-.03,2.81,1.28,3.69,3.77,3.9,6.07.52,12.16,1,18.2,1.8,2.71.36,3.23-.66,3.2-3-.08-6.23-.03-12.46-.03-18.69Zm-18.58-85.9s-.02,0-.03,0c0,6.36-.03,12.71,0,19.07.06,9.26-1.02,7.8,8.25,8.14,3.63.13,4.38-1.28,4.34-4.56-.16-11.46-.08-22.93-.04-34.4,0-1.86.13-3.74.46-5.56,1.49-8.05,7.42-11.89,14.19-15.11,8.73-4.16,8.61-4.26,3.73-12.72-1.13-1.96-2.28-2.29-4.22-1.29-5.65,2.91-11.45,5.54-16.99,8.63-6.21,3.46-9.7,8.79-9.7,16.12,0,7.23,0,14.46,0,21.68Zm-142.46,76.09c0-9.6,0-19.21,0-28.81,0-8.43,0-8.26-8.62-8.45-3.56-.08-4.41,1.17-4.39,4.52.14,18.33.42,36.68-.12,55-.2,6.84,1.14,11.26,8.32,12.57.47.09.94.36,1.35.62,2.65,1.67,3.55,1.09,3.51-2.15-.15-11.1-.06-22.2-.06-33.3Zm85.48,25.25c.87,0,1.75-.09,2.61.02,2.96.35,4.26-.66,3.29-3.75-.18-.58-.15-1.23-.25-1.85-2.7-16.2-5.28-32.42-8.15-48.58-1.68-9.47.38-8.09-9.78-8.3-3.1-.06-4.15.68-3.55,4.08,3.05,17.4,5.85,34.84,8.72,52.28,1.01,6.11.98,6.12,7.11,6.12Zm62.94-49.47c3.24,0,6.47-.03,9.71.01,1.76.02,3.16-.56,2.84-2.5-.57-3.46,1.87-7.39-1.62-10.36-.15-.13-.48-.08-.73-.08-6.72,0-13.45-.02-20.17,0-3.28.01-2.79,2.66-2.39,4.33.7,2.87-2.52,6.86,2.28,8.57.44.16.99.04,1.49.04,2.86,0,5.73,0,8.59,0Z"/>
      <path class="cls-1" d="m290.73,198.47c2.47-.04,4.36,1.01,5.49,3.19,2.12,4.09,4.25,8.17,6.17,12.35,1.49,3.24.31,6.44-2.6,7.96-2.97,1.54-6.17.67-7.95-2.55-2.22-4.03-4.32-8.14-6.15-12.35-1.9-4.36.65-8.47,5.05-8.59Z"/>
      <path class="cls-1" d="m272.02,215.76c-.11,3.5-1.33,5.49-3.94,6.52-2.71,1.06-5.15.21-6.6-2-3-4.57-5.45-9.49-7.32-14.63-.89-2.45.25-4.7,2.4-6.14,2.28-1.53,5.08-1.83,6.88.22,4.21,4.82,6.22,10.9,8.58,16.03Z"/>
      <path class="cls-1" d="m86.18,229.12c24.23-.02,43.6,19.22,43.61,43.34.02,23.92-19.71,43.83-43.42,43.81-23.77-.02-43.68-19.86-43.76-43.61-.08-23.87,19.57-43.52,43.57-43.53Zm31.41,43.42c0-17.55-13.63-31.34-31.22-31.62-17.1-.26-31.54,14.32-31.5,31.81.04,17.4,14.04,31.31,31.49,31.28,17.42-.03,31.23-13.96,31.22-31.48Z"/>
      <path class="cls-1" d="m321.79,321.85c-13.6-.08-24.7-11.13-24.61-24.52.09-13.46,11.65-24.86,25.02-24.67,13.14.19,24.37,11.44,24.43,24.5.07,13.61-11.15,24.76-24.84,24.69Zm.06-36.93c-7.09.02-12.47,5.47-12.43,12.58.04,6.68,5.67,12.36,12.36,12.45,6.78.09,12.6-5.69,12.66-12.57.06-6.95-5.52-12.48-12.59-12.45Z"/>
      <path class="cls-1" d="m67.96,272.71c-.04-10.27,8.28-18.69,18.45-18.68,9.77.01,18.46,8.79,18.36,18.55-.1,10.07-8.42,18.37-18.41,18.37-10.16,0-18.36-8.13-18.4-18.24Zm24.65-.09c.07-3.29-2.75-6.21-6.1-6.34-3.68-.14-6.32,2.5-6.31,6.32,0,3.53,2.27,5.92,5.73,6.06,3.71.15,6.61-2.47,6.68-6.04Z"/>
    </g>
  </g>
</svg>