<?xml version="1.0" encoding="UTF-8"?>
<svg id="Capa_2" data-name="Capa 2" xmlns="http://www.w3.org/2000/svg" viewBox="0 0 243.04 229.36">
  <defs>
    <style>
      .cls-1 {
        fill: #e6a404;
      }
    </style>
  </defs>
  <g id="Capa_1-2" data-name="Capa 1">
    <g>
      <path class="cls-1" d="m.11,105.15C.11,82.1.37,59.06,0,36.02-.18,24.67,8.33,13.76,21.99,13.81c3.53.01,3.66-.04,3.52-3.68C25.3,4.12,28.9-.5,35.69.04c2.18.17,4.38,0,6.57.04,4.75.08,8.13,3.37,8.31,8.06q.23,5.68,5.91,5.68c4.38,0,8.76-.06,13.14.03,1.84.04,2.75-.52,2.56-2.49-.11-1.13-.05-2.27,0-3.41.22-4.44,3.58-7.76,8.01-7.86,2.6-.06,5.19-.03,7.79-.02,5.63.02,8.94,3.19,9.21,8.78q.24,4.97,5.21,4.97c4.06,0,8.11,0,12.17,0q3.91,0,3.93-3.8c0-.73-.02-1.47.06-2.19.52-4.64,3.83-7.69,8.46-7.75,2.76-.04,5.52-.05,8.28,0,4.74.1,8.06,3.42,8.24,8.15q.21,5.58,5.77,5.58c3.98,0,7.95,0,11.93,0q3.9,0,3.91-4.02c0-.73-.02-1.46.03-2.19.25-4,3.57-7.34,7.6-7.5,2.75-.11,5.52-.05,8.28-.03,5.43.03,8.78,3.21,9.11,8.64q.3,4.8,5.09,5.14c12.16.86,20.36,9.58,20.37,21.73.02,31.81.02,63.61-.04,95.42,0,2.03.6,3.19,2.38,4.24,18.33,10.86,28.02,31.84,24.26,52.26-3.87,21.06-20,37.18-41.07,41.05-22.49,4.13-45.54-8.18-54.93-29.46-.87-1.97-1.92-2.56-3.99-2.56-40.33.06-80.65.05-120.98.03-10.42,0-18.77-6.86-20.87-16.96-.35-1.69-.28-3.39-.29-5.09,0-23.12,0-46.25,0-69.37Zm107.71-46.36c-32.21,0-64.41.02-96.62-.04-2.12,0-2.99.43-2.99,2.81.07,37.4.05,74.8.06,112.19,0,2.11.15,4.23.9,6.22,2.01,5.35,6.29,8.14,12.53,8.14,39.35,0,78.69,0,118.04,0,.32,0,.65-.03.97,0,1.51.11,1.94-.46,1.72-2.02-.58-4.26-.68-8.52-.23-12.84,3.16-29.81,32.12-50.48,61.44-43.74,3.54.81,3.57.8,3.58-2.76,0-21.5,0-43,0-64.49,0-3.48-.01-3.48-3.52-3.48-31.96,0-63.93,0-95.89,0Zm-.22-8.47c26.28,0,52.56,0,78.85,0,6.08,0,12.17-.03,18.25.02,1.68.01,2.58-.46,2.55-2.32-.08-4.7-.05-9.41-.07-14.11-.01-2.26-.76-4.29-2.05-6.13-3.31-4.75-8.1-5.85-13.5-5.46-1.21.09-1.42.88-1.42,1.85-.01,1.7.05,3.41-.05,5.11-.29,4.86-3.49,8.33-8.01,8.55-3.08.15-6.17.15-9.24,0-4.32-.21-7.55-3.61-7.72-7.92-.07-1.78-.1-3.57,0-5.35.09-1.68-.54-2.32-2.24-2.28-4.22.08-8.44.02-12.65.02q-6.66,0-6.72,6.53c0,.16,0,.32,0,.49-.11,5.05-3.54,8.47-8.65,8.56-2.43.04-4.87.03-7.3,0-5.5-.07-8.9-3.43-9.09-8.97-.05-1.54-.06-3.08-.01-4.62.05-1.46-.6-2.01-2.04-2-5.76.04-11.52.04-17.28,0-1.5-.01-2.01.67-1.98,2.07.04,1.62.06,3.25-.03,4.87-.28,5.28-3.67,8.57-8.91,8.65-2.68.04-5.36.08-8.03-.02-4.55-.17-7.91-3.58-8.06-8.11-.06-1.78-.06-3.57,0-5.35.04-1.38-.38-2.11-1.92-2.1-5.92.04-11.84.04-17.76,0-1.53-.01-1.98.69-1.93,2.09.06,1.78.05,3.57,0,5.35-.15,4.53-3.5,7.95-8.05,8.13-2.59.1-5.19.05-7.79.03-5.52-.06-8.95-3.38-9.17-8.89-.07-1.62-.02-3.24-.04-4.87-.01-.85-.14-1.64-1.23-1.77-8.48-1.06-14.72,3.67-15.69,10.64-.64,4.61-.25,9.23-.33,13.85-.06,3.49,0,3.5,3.44,3.5,31.96,0,63.92,0,95.88,0Zm126.9,128.47c0-23.38-18.66-42.11-41.97-42.12-23.36-.01-42.15,18.68-42.19,41.96-.04,23.48,18.67,42.2,42.15,42.19,23.45-.01,42-18.57,42.01-42.03ZM181.74,18.98c0-1.7.02-3.41,0-5.11-.1-5.9,1.02-5.33-5.48-5.42-1.99-.03-2.76.71-2.72,2.7.09,4.21-.01,8.43.03,12.65.06,6.23-.99,5.57,6.05,5.62,1.56.01,2.18-.62,2.14-2.18-.07-2.75-.02-5.51-.01-8.27Zm-54.75-.21c0,1.78-.02,3.57,0,5.35.09,5.86-.9,5.17,5.31,5.34,2.33.06,2.92-.89,2.86-3.02-.11-4.13,0-8.26-.04-12.4-.06-6.09.96-5.53-5.85-5.58-1.64-.01-2.36.59-2.31,2.29.08,2.67.02,5.35.02,8.02Zm-38.23.35c0-1.78.03-3.57,0-5.35-.1-5.79,1.01-5.24-5.58-5.31-1.87-.02-2.62.67-2.59,2.56.08,4.21-.02,8.43.03,12.64.08,6.4-1.15,5.73,6.13,5.76,1.43,0,2.05-.58,2.03-2.03-.05-2.75-.02-5.51,0-8.27Zm-46.59-.18s0,0,0,0c0-1.7.01-3.4,0-5.11-.04-5.81.65-5.28-5.36-5.39-2.06-.04-2.92.57-2.85,2.76.14,4.21-.02,8.43.05,12.64.11,6.21-1.34,5.54,6,5.57,1.57,0,2.18-.7,2.15-2.22-.04-2.76-.01-5.51-.01-8.27Z"/>
      <path class="cls-1" d="m73.07,171.77c-2.92,0-5.84.04-8.75-.01-3.11-.06-4.69-1.54-4.73-4.62-.07-5.83-.07-11.67,0-17.5.04-2.92,1.55-4.64,4.47-4.72,5.99-.15,11.99-.16,17.98,0,3,.08,4.47,1.84,4.5,4.95.06,5.67.06,11.34,0,17.02-.03,3.37-1.57,4.85-4.97,4.89-2.84.04-5.67,0-8.51,0Zm-5.03-13.59c.06,5.72-.67,5.17,5.24,5.18,5.38.01,4.82.36,4.8-4.87-.02-6.02.71-5.2-5.1-5.21-5.53,0-4.88-.73-4.94,4.9Z"/>
      <path class="cls-1" d="m73.08,102.14c-3,0-6,.05-8.99-.02-2.82-.06-4.43-1.55-4.47-4.36-.09-5.99-.09-11.99,0-17.99.04-2.65,1.53-4.37,4.21-4.44,6.15-.17,12.31-.18,18.46,0,2.78.08,4.22,1.84,4.25,4.66.07,5.83.07,11.67,0,17.5-.04,3.1-1.61,4.59-4.71,4.64-2.92.05-5.83.01-8.75,0Zm5.01-13.4c-.07-5.85.66-5.09-5-5.09-5.7,0-5.04-.76-5.05,5.03,0,5.54-.64,5.05,5.11,5.05,5.55,0,4.88.41,4.93-5Z"/>
      <path class="cls-1" d="m142.65,110.13c2.92,0,5.84-.05,8.75.01,3.04.06,4.69,1.59,4.74,4.66.1,5.83.09,11.67,0,17.5-.04,3-1.71,4.71-4.71,4.76-5.83.1-11.67.09-17.5,0-3.01-.05-4.68-1.75-4.72-4.74-.07-5.92-.08-11.83,0-17.75.04-2.8,1.64-4.34,4.43-4.42,3-.09,6-.02,9-.03Zm5.06,13.55c-.06-5.65.67-5.07-5.03-5.11-.08,0-.16,0-.24,0-5.35.03-4.78-.43-4.77,4.89.01,5.95-.68,5.16,5.15,5.17,5.51,0,4.83.68,4.89-4.95Z"/>
      <path class="cls-1" d="m142.6,102.15c-2.84,0-5.67.03-8.51,0-3.27-.04-4.85-1.51-4.88-4.71-.06-5.75-.06-11.5,0-17.26.03-3.07,1.51-4.81,4.55-4.89,5.91-.16,11.83-.16,17.74,0,3.15.08,4.64,1.83,4.67,5.05.05,5.59.06,11.18,0,16.77-.04,3.54-1.57,5.02-5.06,5.05-2.84.03-5.67,0-8.51,0Zm-4.94-13.63c.06,5.65-.68,5.22,4.96,5.22,5.75,0,5.09.48,5.08-5.08,0-5.79.67-5.01-5.06-5.01-5.54,0-4.93-.75-4.98,4.87Z"/>
      <path class="cls-1" d="m73.14,110.13c2.92,0,5.84-.05,8.75.01,2.9.07,4.57,1.6,4.62,4.52.11,5.91.09,11.83,0,17.74-.04,2.87-1.7,4.6-4.56,4.65-5.91.11-11.83.11-17.74,0-2.98-.05-4.6-1.8-4.63-4.83-.07-5.75-.07-11.51,0-17.26.04-3.33,1.65-4.79,5.04-4.84,2.84-.04,5.67,0,8.51,0Zm-.13,18.51c5.72-.07,5.01.73,5.07-5.03,0-.08,0-.16,0-.24-.04-5.27.55-4.81-4.85-4.8-5.9.01-5.18-.59-5.19,5.19,0,5.57-.6,4.81,4.97,4.88Z"/>
      <path class="cls-1" d="m121.21,123.74c0,2.91.05,5.83-.01,8.74-.06,2.86-1.43,4.48-4.28,4.54-5.99.14-11.98.13-17.97.02-2.76-.05-4.29-1.43-4.46-4.17-.39-6.22-.41-12.46.02-18.68.19-2.71,1.76-4.02,4.53-4.05,5.91-.06,11.82-.07,17.73,0,2.95.04,4.39,1.6,4.44,4.6.05,3,.01,5.99,0,8.99Zm-13.54,4.9c6.13-.08,5.39.75,5.37-4.69-.02-6.09.93-5.35-5.45-5.37-5.67-.02-4.9-.47-4.89,4.97,0,5.8-.81,5.02,4.97,5.1Z"/>
      <path class="cls-1" d="m24.92,123.4c0-2.91-.05-5.83.01-8.74.06-2.96,1.53-4.47,4.53-4.51,5.83-.07,11.66-.06,17.49,0,2.99.03,4.56,1.37,4.72,4.39.33,6.06.39,12.14-.04,18.2-.21,2.91-1.65,4.27-4.55,4.32-5.91.11-11.82.11-17.73-.01-2.98-.06-4.37-1.67-4.42-4.66-.05-2.99-.01-5.99-.01-8.99Zm13.55-4.83c-6.2.06-5.4-.63-5.39,4.96,0,5.87-.85,5.09,5.19,5.09,5.99,0,5.13.77,5.15-5.14.01-5.41.76-4.87-4.95-4.91Z"/>
      <path class="cls-1" d="m107.87,171.77c-3,0-5.99.05-8.99-.01-2.65-.06-4.17-1.28-4.35-3.92-.45-6.3-.46-12.62.01-18.91.19-2.58,1.66-3.96,4.33-4.02,5.99-.13,11.98-.14,17.97,0,2.95.07,4.34,1.73,4.37,4.72.04,5.83.05,11.66,0,17.49-.03,3.28-1.46,4.63-4.83,4.67-2.83.03-5.67,0-8.5,0Zm.19-18.51c-6.09.09-5.37-.78-5.36,4.65.02,6.06-.93,5.44,5.35,5.45,5.8.01,5,.45,4.99-5.08,0-5.75.79-4.94-4.98-5.02Z"/>
      <path class="cls-1" d="m38.01,171.77c-2.83,0-5.67.04-8.5-.01-3.05-.05-4.54-1.45-4.57-4.43-.06-5.99-.05-11.98,0-17.97.03-2.7,1.42-4.37,4.12-4.44,6.15-.15,12.3-.14,18.45,0,2.35.06,3.94,1.49,4.1,3.99.4,6.3.44,12.62-.01,18.91-.19,2.64-1.72,3.86-4.36,3.91-3.07.06-6.15.01-9.23.02Zm.27-18.51c-5.96.08-5.2-.75-5.2,4.81,0,5.86-.88,5.28,5.26,5.29,5.86,0,5.09.47,5.08-5-.01-5.89.83-5.02-5.14-5.1Z"/>
      <path class="cls-1" d="m190.83,88.9c0,2.91.04,5.83-.01,8.74-.06,3.02-1.49,4.47-4.51,4.49-5.91.05-11.82.05-17.73,0-2.77-.02-4.26-1.26-4.47-4.07-.44-6.14-.37-12.3-.05-18.44.15-2.84,1.72-4.3,4.57-4.36,5.83-.13,11.66-.14,17.48,0,3.4.09,4.68,1.66,4.71,5.13.03,2.83,0,5.67,0,8.5Zm-13.12-5.27c-6.18.09-5.38-.8-5.38,4.87,0,5.81-.85,5.22,5.33,5.23,5.82,0,5.02.45,5.02-5.06,0-5.77.79-4.96-4.96-5.04Z"/>
      <path class="cls-1" d="m38.12,102.15c-2.92,0-5.84.04-8.76-.01-2.89-.06-4.38-1.49-4.41-4.35-.06-6-.06-12.01,0-18.01.02-2.7,1.2-4.21,3.89-4.39,6.31-.42,12.65-.36,18.96-.03,2.27.12,3.69,1.63,3.83,4,.38,6.24.41,12.49,0,18.72-.19,2.8-1.7,4-4.5,4.05-3,.05-6,.01-9.01.01Zm.23-18.51c-6.01.08-5.27-.76-5.26,4.75.01,5.98-.9,5.34,5.44,5.35,5.66.02,4.91.4,4.9-4.94-.02-5.94.83-5.08-5.08-5.17Z"/>
      <path class="cls-1" d="m121.2,88.84c0,3,.06,6.01-.02,9.01-.07,2.75-1.51,4.24-4.23,4.27-6.08.06-12.17.05-18.26,0-2.36-.02-3.95-1.28-4.13-3.63-.51-6.47-.49-12.96,0-19.44.19-2.54,2-3.74,4.32-3.79,5.92-.12,11.85-.16,17.76.01,3.28.09,4.53,1.68,4.57,5.04.03,2.84,0,5.68,0,8.52,0,0,0,0-.01,0Zm-8.14-.22c-.08-5.72.77-4.91-5.04-4.99-.16,0-.32,0-.48,0-5.57.07-4.84-.68-4.84,4.93,0,5.69-.83,5.17,5.14,5.17,6.02,0,5.14.53,5.22-5.11Z"/>
      <path class="cls-1" d="m224.83,165.42c-.12,2.52-1.16,5.18-3.31,7.36-9,9.12-17.96,18.29-27.03,27.34-4.86,4.85-11.35,4.75-16.25-.09-4.91-4.84-9.76-9.74-14.63-14.63-3.27-3.29-4.34-7.19-2.86-11.6,1.49-4.43,4.79-6.86,9.36-7.42,3.52-.43,6.53.91,9.05,3.32,1.99,1.91,3.96,3.84,5.86,5.84,1.01,1.07,1.72,1.08,2.77,0,5.14-5.3,10.37-10.51,15.51-15.81,3.05-3.15,6.14-6.03,10.99-5.82,5.78.26,10.57,5.17,10.55,11.49Zm-8.51-.57c-.15-1.49-.89-2.35-2.47-2.43-1.39-.07-2.22.81-3.08,1.68-6.77,6.87-13.52,13.74-20.31,20.59-3.04,3.07-5.02,3.07-8.04.07-2.88-2.85-5.71-5.74-8.61-8.58-1.79-1.76-3.43-1.95-4.61-.57-1.53,1.79-.4,3.14.86,4.4,4.57,4.59,9.15,9.19,13.75,13.75,2.05,2.03,3.14,2.08,5.12.07,8.73-8.8,17.43-17.63,26.14-26.45.69-.7,1.33-1.43,1.25-2.54Z"/>
    </g>
  </g>
</svg>