<?xml version="1.0" encoding="UTF-8"?>
<svg id="Capa_2" data-name="Capa 2" xmlns="http://www.w3.org/2000/svg" viewBox="0 0 43.08 43.07">
  <defs>
    <style>
      .cls-1 {
        fill: #fab800;
      }
    </style>
  </defs>
  <g id="Capa_1-2" data-name="Capa 1">
    <g>
      <path class="cls-1" d="m7.1,43.07c-1.43,0-2.86,0-4.28,0-.62,0-.79-.16-.86-.78-.46-3.74-.92-7.47-1.38-11.21-.19-1.54-.38-3.08-.56-4.61-.09-.73.12-1,.84-1.01,1.83-.02,3.66,0,5.49,0,.48,0,.78.21.9.7.14.54.34,1.06.48,1.6.1.36.27.38.58.24.8-.35,1.38-.99,2.04-1.53,2.75-2.24,5.82-2.74,9.06-1.39,1.6.66,3.16.93,4.86.97,1.55.03,2.92-.23,4.22-1.09.72-.48,1.49-.88,2.4-.95.93-.07,1.79.12,2.56.63.28.18.49.22.8.06,1.14-.59,2.45-.39,3.4.5.26.24.44.27.76.12,1.52-.71,3.33-.25,4.34,1.08.47.62.43.9-.21,1.34-2.58,1.78-5.17,3.55-7.75,5.33-1.43.98-2.87,1.96-4.3,2.95-1.85,1.28-3.94,1.71-6.11,1.4-2.73-.39-5.43-.95-8.15-1.45-.64-.12-1.23-.03-1.78.32-1.03.66-2.07,1.32-3.11,1.96-.25.15-.33.3-.23.6.34,1.05.65,2.1.97,3.16.24.79.03,1.07-.79,1.07-1.4,0-2.79,0-4.19,0Zm18.39-6.83c1.45,0,2.84-.27,4.07-1.09,1.2-.8,2.38-1.63,3.57-2.44,2.67-1.83,5.35-3.67,8.02-5.5.43-.3.43-.4-.02-.66-.77-.45-1.57-.48-2.35-.06-2.12,1.13-4.23,2.28-6.35,3.42-.18.1-.33.2-.37.44-.06.45-.36.63-.79.61-.9-.04-1.8-.06-2.69-.12-1.66-.11-3.31-.13-4.97.08-.46.06-.79-.16-.83-.53-.04-.35.23-.63.67-.68,1.02-.12,2.03-.22,3.06-.18,1.21.05,2.42.1,3.62.17.62.03.69-.05.43-.59-.56-1.2-1.53-1.82-2.83-1.85-1.47-.03-2.95-.04-4.42,0-1.39.04-2.67-.26-3.9-.89-1.01-.52-2.1-.78-3.23-.78-2.07,0-3.89.67-5.4,2.12-.66.64-1.37,1.22-2.26,1.52-.3.1-.26.27-.19.5.73,2.37,1.45,4.74,2.16,7.12.1.34.23.37.51.18.98-.63,1.96-1.26,2.95-1.86.7-.42,1.45-.6,2.27-.45,1.63.3,3.26.61,4.89.89,1.45.25,2.87.65,4.36.64Zm-18.55,5.64c1.13,0,2.26,0,3.39,0,.35,0,.42-.08.32-.42-1.47-4.78-2.93-9.57-4.38-14.36-.1-.33-.25-.44-.59-.44-1.18.02-2.36,0-3.53,0-.91,0-.88,0-.77.91.34,2.69.66,5.38.99,8.07.24,1.94.49,3.87.71,5.81.04.34.17.44.5.43,1.12-.02,2.23,0,3.35,0Zm29.83-15.79c-.02-.1-.11-.15-.18-.19-.6-.36-1.2-.47-1.85-.11-.9.49-1.8.97-2.7,1.46-.84.46-.83.46-.39,1.29.13.24.24.27.47.14,1.48-.81,2.97-1.61,4.46-2.41.08-.04.18-.07.2-.18Zm-7.92.05c.47.19.87.32,1.22.56.15.1.29.07.44,0,.6-.33,1.2-.65,1.8-.98.08-.04.2-.07.18-.18-.01-.1-.13-.12-.21-.16-.1-.04-.21-.07-.31-.1-1.18-.34-2.1.26-3.11.86Z"/>
      <path class="cls-1" d="m21.54,21.92c-2.14,0-4.28,0-6.42,0-.84,0-1.03-.2-1.04-1.05,0-.09-.01-.19,0-.28.05-.41-.13-.53-.53-.53-2.79.01-5.58,0-8.38,0-.84,0-.98-.14-.98-.96,0-1.12,0-2.23,0-3.35.02-2.18,1.69-3.96,3.87-4.14.34-.03.59.07.82.32,1.13,1.24,2.72,1.24,3.86,0,.22-.24.45-.34.78-.32.51.03.98.18,1.42.4.22.11.38.12.57-.08.82-.82,1.82-1.26,2.98-1.37.35-.03.59.07.82.32,1.32,1.47,3.18,1.49,4.55.05.26-.27.51-.4.9-.35,1.07.13,2,.56,2.76,1.31.2.19.35.24.6.11.29-.14.6-.24.92-.33.6-.16,1.1-.12,1.58.41.95,1.04,2.56,1.01,3.52-.02.43-.46.86-.52,1.42-.39,1.97.45,3.3,2.1,3.32,4.12,0,1.13,0,2.26,0,3.4,0,.67-.18.86-.85.86-2.78,0-5.55,0-8.33,0q-.7,0-.7.72c0,.09,0,.19,0,.28-.02.6-.24.84-.86.85-1.47,0-2.95,0-4.42,0-.73,0-1.46,0-2.19,0Zm0-1.25c1.91,0,3.82,0,5.73,0,.34,0,.51-.08.51-.46-.02-1.71.01-3.41-.02-5.12-.02-1.47-1.15-2.82-2.57-3.19-.28-.07-.49-.03-.72.17-1.69,1.51-3.98,1.54-5.66.03-.31-.27-.57-.3-.92-.2-1.49.43-2.54,1.79-2.55,3.35-.01,1.63,0,3.26-.01,4.89,0,.42.14.53.54.52,1.89-.02,3.79,0,5.68,0Zm11.83-1.85c1.29,0,2.58,0,3.86,0,.36,0,.49-.12.48-.49-.02-.79,0-1.58-.01-2.37-.03-1.41-.75-2.48-1.95-2.96-.36-.14-.64-.13-.97.16-1.39,1.21-3.46,1.22-4.81,0-.42-.38-.76-.29-1.18-.13-.21.08-.28.21-.19.44.15.36.27.73.31,1.12.15,1.24.05,2.48.07,3.72,0,.38.12.52.51.52,1.29-.02,2.58,0,3.86,0Zm-23.64,0c1.24,0,2.48,0,3.72,0,.63,0,.63,0,.64-.66,0-.9,0-1.8,0-2.7,0-.59.09-1.17.29-1.73.19-.55,0-.83-.6-.84-.23,0-.36.15-.52.27-1.56,1.25-3.46,1.22-4.96-.1-.22-.19-.42-.22-.67-.15-1.12.29-2,1.28-2.17,2.42-.15.97-.03,1.95-.08,2.92-.02.42.11.57.55.56,1.27-.02,2.54,0,3.81,0Z"/>
      <path class="cls-1" d="m25.84,5.2c-.03.53.02,1.05-.07,1.58-.39,2.2-2.32,3.74-4.51,3.6-2.17-.14-3.93-1.94-4.01-4.16-.03-.88-.08-1.77.07-2.65C17.64,1.55,19.43.01,21.47,0c2.13-.02,3.92,1.46,4.29,3.53.1.56.06,1.11.08,1.67Zm-1.25.16c0-.52,0-.88,0-1.24-.05-1.63-1.37-2.88-3.04-2.89-1.68,0-3.02,1.27-3.06,2.92-.02.67-.01,1.33,0,2,.02,1.48,1.18,2.8,2.58,2.96,1.62.19,3.01-.71,3.43-2.21.16-.57.07-1.14.09-1.54Z"/>
      <path class="cls-1" d="m28.49,6.94c-.07-1.04.04-2.04.66-2.93.93-1.35,2.6-1.97,4.16-1.54,1.64.45,2.76,1.86,2.84,3.62.03.74.06,1.49-.05,2.23-.31,2.03-2.06,3.43-4.12,3.28-1.93-.14-3.47-1.81-3.49-3.81,0-.28,0-.56,0-.84Zm1.24,0c0,.31-.01.62,0,.93.06,1.46,1.17,2.5,2.64,2.48,1.42-.02,2.52-1.12,2.54-2.56.01-.57.01-1.15,0-1.72-.03-1.09-.75-2.06-1.77-2.39-1.09-.35-2.24.02-2.92.9-.55.71-.52,1.53-.5,2.36Z"/>
      <path class="cls-1" d="m14.58,7c.07,1.04-.05,2.04-.67,2.93-.94,1.35-2.6,1.96-4.17,1.52-1.64-.46-2.76-1.87-2.83-3.63-.03-.74-.06-1.49.05-2.23.31-2,2.09-3.42,4.09-3.27,1.96.15,3.49,1.8,3.51,3.78,0,.29,0,.59,0,.88Zm-1.24-.03s0,0,0,0c0-.31.01-.62,0-.93-.06-1.46-1.17-2.49-2.64-2.48-1.41.02-2.52,1.12-2.54,2.54-.01.59-.02,1.18,0,1.76.04,1.38,1.17,2.46,2.56,2.47,1.44.01,2.54-1,2.61-2.4.02-.32,0-.65,0-.98Z"/>
      <path class="cls-1" d="m6.59,41.4c-1.02-.01-1.76-.78-1.76-1.82,0-.98.8-1.77,1.77-1.77,1.01,0,1.84.84,1.82,1.84-.02,1.01-.81,1.76-1.84,1.75Zm.58-1.87c-.03-.28-.21-.47-.56-.47-.33,0-.62.28-.57.59.04.32.24.54.58.56.33.02.57-.26.56-.67Z"/>
    </g>
  </g>
</svg>