<?xml version="1.0" encoding="UTF-8"?>
<svg id="Capa_2" data-name="Capa 2" xmlns="http://www.w3.org/2000/svg" viewBox="0 0 43.46 36.29">
  <defs>
    <style>
      .cls-1 {
        fill: #fab800;
      }
    </style>
  </defs>
  <g id="inicio">
    <g>
      <path class="cls-1" d="m42.72,26.45c.03-.14.05-.28.05-.43,0-.65-.3-1.26-.81-1.67l-3.85-21.44c0-.05,0-.1,0-.15C38.12,1.24,36.9,0,35.38,0c-1.52,0-2.75,1.22-2.76,2.74,0,.33.06.66.18.98l-7.87,10.18-1.67-5.66c-.32-1.06-1.3-1.79-2.41-1.8h-6.54c-1.39,0-2.51,1.12-2.51,2.51v6.24h-1.58v-2.21c0-.36-.29-.65-.65-.65H3.14c-.36,0-.65.29-.65.65h0v2.21c-1.38.01-2.49,1.13-2.49,2.51v6.79c0,1.39,1.12,2.51,2.51,2.51h3.57l-1.06,1.3h-.28c-2.21,0-4,1.79-4,4s1.79,4,4,4h19.23c2.21,0,4-1.79,4-4s-1.79-4-4-4h-.29l-1.06-1.3h1.44c1.39,0,2.51-1.12,2.51-2.51v-.28l7.74-15.52,4.3,16.65c-.07.22-.11.45-.11.68,0,.29.07.58.19.85l-6.25,6.97c-.24.27-.22.68.05.92.05.05.11.08.17.11,1.41.66,2.94,1.01,4.49,1.04,1.73.06,3.4-.59,4.64-1.8,1.83-1.86,2.18-4.78.93-7.67h0Zm-1.25-.43c0,.46-.38.83-.84.83-.46,0-.83-.38-.83-.84,0-.46.37-.83.83-.83.46,0,.84.37.84.83,0,0,0,0,0,0ZM35.37,1.31c.8,0,1.44.65,1.45,1.45-.01.79-.65,1.43-1.45,1.44-.8,0-1.44-.65-1.44-1.44s.65-1.44,1.44-1.44Zm-14.53,6.42c.53,0,1.01.35,1.16.86l3.04,10.3h-3.78l-3.02-11.16h2.59Zm-7.75,1.21c0-.67.54-1.21,1.21-1.21h2.61c.84,3.12,2.14,7.92,3.02,11.16h-2.72l-4.11-3.38v-6.58ZM3.79,13.62h5.11v1.56H3.79v-1.56Zm20.18,15.98c1.49,0,2.7,1.21,2.7,2.7s-1.21,2.7-2.7,2.7H4.74c-1.49,0-2.7-1.21-2.7-2.7s1.21-2.7,2.7-2.7h19.23Zm-17.27-1.3l1.06-1.3h13.18l1.06,1.3H6.7Zm18.57-6.04h-11.68c-.36,0-.65.29-.65.65s.29.65.65.65h11.68v.93c0,.67-.54,1.21-1.21,1.21H2.51c-.67,0-1.21-.54-1.21-1.21v-6.79c0-.67.54-1.21,1.21-1.21h9.69l4.35,3.57c.12.1.26.15.41.15h8.3v2.06Zm1.3-.97v-1.74c0-.06-.01-.12-.03-.19l-1.16-3.93,8.2-10.6c.27.23.59.41.93.53l-7.94,15.92Zm8.62-14.37l.73-1.47s.03,0,.04-.01c.43-.1.83-.29,1.17-.58l3.42,19.03c-.32.01-.63.1-.92.24l-4.45-17.22Zm5.67,26.29c-1.52,1.54-4.04,1.83-6.84.82l5.52-6.16c.71.42,1.61.39,2.29-.07.65,2.11.31,4.12-.97,5.42h0Z"/>
      <path class="cls-1" d="m3.3,32.29c0,1.01.82,1.83,1.83,1.83s1.83-.82,1.83-1.83-.82-1.83-1.83-1.83h0c-1.01,0-1.82.82-1.83,1.83Zm2.35,0c0,.29-.23.52-.52.52s-.52-.23-.52-.52.23-.52.52-.52h0c.29,0,.52.23.52.52Z"/>
      <path class="cls-1" d="m11.28,34.12c1.01,0,1.83-.82,1.83-1.83,0-1.01-.82-1.83-1.83-1.83s-1.83.82-1.83,1.83h0c0,1.01.82,1.82,1.83,1.83Zm0-2.35c.29,0,.52.23.52.52,0,.29-.23.52-.52.52s-.52-.23-.52-.52h0c0-.29.23-.52.52-.52Z"/>
      <path class="cls-1" d="m17.43,34.12c1.01,0,1.83-.82,1.83-1.83,0-1.01-.82-1.83-1.83-1.83s-1.83.82-1.83,1.83h0c0,1.01.82,1.83,1.83,1.83Zm0-2.35c.29,0,.52.23.53.52,0,.29-.23.52-.52.53-.29,0-.52-.23-.53-.52h0c0-.29.23-.52.52-.53Z"/>
      <path class="cls-1" d="m23.58,34.12c1.01,0,1.83-.82,1.83-1.83,0-1.01-.82-1.83-1.83-1.83s-1.83.82-1.83,1.83h0c0,1.01.82,1.82,1.83,1.83Zm0-2.35c.29,0,.52.23.52.52s-.23.52-.52.52c-.29,0-.52-.23-.52-.52h0c0-.29.23-.52.52-.52Z"/>
    </g>
  </g>
</svg>