<?xml version="1.0" encoding="UTF-8"?>
<svg id="Capa_2" data-name="Capa 2" xmlns="http://www.w3.org/2000/svg" viewBox="0 0 171.7 218.65">
  <defs>
    <style>
      .cls-1 {
        fill: #e6a404;
      }
    </style>
  </defs>
  <g id="Capa_1-2" data-name="Capa 1">
    <g>
      <path class="cls-1" d="m93.11,0c5.76.89,11.51,1.87,16.94,4.06,26.01,10.49,41.52,29.44,45.96,57.25,1.24,7.77.69,15.61.69,23.42,0,2.16.51,3.08,2.78,3.47,7.41,1.25,12.19,7.07,12.2,14.72.03,33.63.02,67.27,0,100.9,0,1.2-.17,2.42-.43,3.59-1.43,6.44-7.1,11.17-13.59,11.18-24.46.04-48.92.02-73.38.01-3.11,0-4.93-1.63-4.97-4.32-.04-2.8,1.79-4.45,5.02-4.49.71,0,1.42,0,2.13,0,22.83,0,45.65,0,68.48,0,1.21,0,2.41,0,3.59-.35,2.39-.7,3.96-2.44,3.99-4.93.08-6.68.02-13.37.06-20.05.01-1.52-.81-1.72-2.04-1.71-5.69.03-11.38.02-17.07,0-.84,0-1.73-.04-2.52-.29-1.99-.62-3-2.11-3.09-4.15-.09-1.95,1.27-3.76,3.22-4.27,1.02-.26,2.11-.35,3.16-.35,5.33-.03,10.67-.07,16,0,1.75.02,2.4-.58,2.35-2.35-.1-3.62-.11-7.25,0-10.88.06-1.92-.54-2.65-2.53-2.6-4.62.12-9.24.04-13.86.04-.78,0-1.56,0-2.35,0-3.81-.06-6-1.73-6.02-4.6-.02-2.78,2.27-4.49,6.04-4.5,5.4,0,10.81-.09,16.21.04,2.03.05,2.57-.68,2.51-2.59-.12-3.62-.12-7.25,0-10.88.06-1.9-.47-2.64-2.51-2.59-5.4.13-10.81.05-16.21.04-.71,0-1.43.03-2.13-.07-2.19-.32-3.79-2.07-3.91-4.17-.12-2.09,1.3-4.02,3.46-4.52,1.03-.24,2.11-.3,3.17-.3,5.26-.03,10.52-.07,15.79.01,1.77.03,2.36-.62,2.33-2.37-.08-5.83-.02-11.66-.03-17.49,0-5.15-1.78-6.95-6.88-6.95-34.34,0-68.69,0-103.03,0-12.3,0-24.6,0-36.9,0-4.71,0-6.6,1.89-6.61,6.57-.01,5.9.07,11.81-.04,17.7-.04,2.02.71,2.57,2.61,2.54,5.12-.09,10.24-.04,15.36-.02.92,0,1.85.03,2.76.19,2.52.44,4.2,2.45,4.02,4.72-.18,2.31-2.07,4.12-4.62,4.15-5.76.07-11.52.03-17.28.03q-2.79,0-2.8,2.85c0,3.34,0,6.68,0,10.03q0,3.08,2.99,3.09c5.69,0,11.38-.04,17.07.03,2.52.03,4.46,1.87,4.65,4.14.19,2.31-1.43,4.26-3.99,4.74-.83.15-1.7.18-2.54.18-5.05.02-10.1,0-15.15,0q-3.02,0-3.03,3.1c0,3.48.06,6.97-.03,10.45-.04,1.68.59,2.25,2.24,2.23,5.26-.06,10.52-.03,15.79-.01.85,0,1.71.02,2.55.15,2.57.42,4.25,2.31,4.16,4.61-.09,2.34-2.1,4.26-4.72,4.29-5.62.06-11.23.02-16.85.03q-3.14,0-3.14,3.15c0,5.69,0,11.38,0,17.07.01,4.7,2.03,6.79,6.73,6.8,9.39.03,18.77,0,28.16.02.78,0,1.58-.03,2.34.12,2.1.42,3.46,2.34,3.35,4.57-.12,2.27-1.76,4.08-4.1,4.09-10.95.05-21.91.23-32.85-.07-7.01-.19-12.67-6.91-12.73-14.46-.08-9.74-.02-19.48-.02-29.22,0-23.61,0-47.22,0-70.82,0-8.95,4.29-14.26,13.05-15.97,1.57-.31,1.92-1,1.91-2.43-.05-5.05-.05-10.1-.01-15.15C15.21,35.18,41.22,5.39,76.1.4c.84-.12,1.67-.27,2.51-.4,4.84,0,9.67,0,14.51,0ZM24.08,74.64c0,4.73.03,8-.02,11.27-.02,1.34.45,1.94,1.85,1.93,5.12-.04,10.24-.05,15.35,0,1.59.02,1.87-.81,1.86-2.14-.04-4.62,0-9.24-.02-13.86-.01-3.06.26-6.1.82-9.11,3.81-20.39,22.85-37.23,46.58-34.51,22.39,2.57,38.03,20.75,38.07,43.36,0,4.62.05,9.24-.02,13.86-.03,1.68.43,2.45,2.27,2.41,4.9-.09,9.81-.07,14.71,0,1.57.02,2.13-.55,2.11-2.12-.07-5.54-.02-11.09-.04-16.63-.02-4.93-.79-9.76-2.05-14.51-7.7-29.06-36.38-49.93-68.49-45.09-22.35,3.37-38.24,15.8-47.8,36.22-4.49,9.61-5.73,19.86-5.2,28.91Zm61.7,13.19c6.96,0,13.93,0,20.89,0,3.62,0,7.25-.02,10.87,0,1.14,0,1.93-.24,1.92-1.63-.06-6.4.45-12.84-.2-19.18-1.94-18.89-18.82-31.77-36.95-29.91-14.66,1.51-27.53,13.32-29.62,27.86-.97,6.72-.19,13.48-.49,20.22-.09,2.05.6,2.69,2.65,2.67,10.3-.09,20.61-.04,30.92-.04Z"/>
      <path class="cls-1" d="m126.89,142.18c0,2.7-.21,5.42.04,8.1.62,6.52-1.62,12.18-4.9,17.55-6.71,10.97-15.14,20.43-25.23,28.39-1.22.97-2.54,1.83-3.86,2.67-4.74,2.99-9.57,3.16-14.21-.05-13.75-9.54-24.55-21.71-31.99-36.75-1.37-2.77-1.99-5.73-1.96-8.87.08-7.68.15-15.36,0-23.04-.09-4.6,1.91-7.37,6.06-9.21,10.72-4.75,21.37-9.69,32-14.64,2.12-.99,3.99-.96,6.09.01,10.83,5.03,21.69,9.99,32.57,14.91,3.64,1.65,5.49,4.27,5.4,8.33-.1,4.19-.02,8.39-.02,12.59h.01Zm-72.94.66h-.01c0,2.63.2,5.28-.04,7.89-.45,4.73,1.19,8.77,3.57,12.67,4.93,8.07,11.04,15.15,17.95,21.56,2.5,2.32,5.16,4.46,8.05,6.29,1.64,1.04,3.09,1.08,4.74.02,2.65-1.69,5.11-3.61,7.41-5.73,8.15-7.51,15.42-15.73,20.49-25.69.87-1.71,1.66-3.46,1.65-5.45-.02-7.68-.04-15.35.02-23.03.01-1.44-.56-2.18-1.81-2.75-9.64-4.37-19.27-8.78-28.89-13.2-.85-.39-1.58-.39-2.43,0-9.68,4.45-19.37,8.89-29.08,13.29-1.2.54-1.68,1.3-1.66,2.63.07,3.84.02,7.68.02,11.51Z"/>
      <path class="cls-1" d="m68.92,214.13c.03,2.54-1.86,4.45-4.4,4.46-2.55,0-4.42-1.88-4.4-4.44.02-2.47,1.82-4.3,4.28-4.35,2.55-.05,4.49,1.81,4.52,4.34Z"/>
      <path class="cls-1" d="m67.38,154.37c0-2.21.83-3.55,2.38-4.4,1.67-.92,3.36-.74,4.78.46,1.63,1.37,3.17,2.86,4.61,4.42,1.14,1.24,1.93,1.21,3.1-.01,5.26-5.49,10.59-10.91,15.9-16.35,1.55-1.59,3.3-2.48,5.54-1.46,2.62,1.19,3.5,4.26,1.82,6.6-.66.92-1.46,1.75-2.25,2.56-6.04,6.21-12.1,12.42-18.16,18.62-3.24,3.31-5.41,3.33-8.66.1-2.47-2.45-4.93-4.92-7.4-7.37-.99-.99-1.71-2.09-1.67-3.15Z"/>
    </g>
  </g>
</svg>