<?xml version="1.0" encoding="UTF-8"?>
<svg id="Capa_2" data-name="Capa 2" xmlns="http://www.w3.org/2000/svg" viewBox="0 0 195.9 218.72">
  <defs>
    <style>
      .cls-1 {
        fill: #e6a404;
      }
    </style>
  </defs>
  <g id="Capa_1-2" data-name="Capa 1">
    <g>
      <path class="cls-1" d="m89.53,0c6.78,1.16,13.29,3.1,19.07,6.97,14.79,9.89,22.31,23.84,21.36,41.54-.89,16.72-9.22,29.39-23.8,37.82-.8.46-1.59.91-2.39,1.36.06.83.76.84,1.22,1.04,5.61,2.5,10.93,5.49,15.69,9.39,1.33,1.09,2.08.78,3.16-.3,14.02-14.03,28.08-28.02,42.13-42.02,1.07-1.06,2.12-2.1,3.7-2.36,2.24-.36,4.33.98,5.32,3.65,2.95,7.93,5.84,15.87,8.75,23.81,3.84,10.48,7.59,20.98,11.54,31.41,1.23,3.26.58,5.61-1.84,8.03-29.55,29.47-59.03,59-88.56,88.49-10.11,10.1-23.92,12.66-36.03,6.79-3.36-1.63-6.3-3.86-8.93-6.49-16.79-16.79-33.58-33.59-50.38-50.37C3.44,152.65.08,145.28,0,136.64c-.07-7.41,2.27-14.15,7.11-19.85,5.3-6.24,11.42-11.3,19.76-12.94,2.66-.52,5.33-.84,8.05-.65,1.2.09,2.19-.16,3.08-1.07,6.52-6.74,14.06-11.94,22.91-15.18.25-.09.47-.27.85-.49-2.06-1.64-4.28-2.74-6.21-4.3-9.3-7.5-15.24-17.03-17.09-28.84-2.23-14.22,1.44-26.93,10.92-37.81C56.91,6.87,66.47,1.83,77.84.22c.21-.03.4-.15.6-.22,3.7,0,7.4,0,11.09,0Zm-7.25,209c6.36.04,11.48-2.63,15.9-7.06,16.42-16.46,32.87-32.89,49.31-49.33,12.27-12.27,24.53-24.54,36.81-36.79.92-.92,1.47-1.69.94-3.13-5.36-14.46-10.64-28.95-15.95-43.43-.87-2.37-.9-2.36-2.65-.63-.35.35-.7.7-1.06,1.06-26.1,26.09-52.19,52.18-78.29,78.27-4.05,4.05-6.02,4.04-10.14-.08-9.4-9.4-18.8-18.8-28.21-28.2-5.38-5.37-11.76-7.75-19.37-6.53-5.64.9-9.89,4.09-13.64,8.14-8.46,9.11-8.56,21.46.13,30.25,16.94,17.14,34.05,34.13,51.1,51.16,4.16,4.15,9.19,6.35,15.13,6.3Zm8.09-126.96c9.59-.98,19.92-7.67,26.43-20.17.74-1.41.49-2.24-.59-3.29-6.73-6.53-13.46-13.07-20.05-19.74-1.74-1.77-3.18-2.15-5.56-1.27-13.38,4.97-26.83,9.79-40.28,14.56-1.85.66-2.18,1.47-1.69,3.29,4.26,15.78,19.45,28.12,41.75,26.61Zm-42.72-39.23c.69-.18,1.17-.26,1.62-.42,14.09-5.09,28.2-10.13,42.26-15.31,3.2-1.18,5.61-.77,8.05,1.72,6.22,6.34,12.63,12.49,18.97,18.7.44.43.85,1.25,1.5,1.02.82-.3.44-1.24.48-1.9.16-2.36-.1-4.71-.58-6.99-3.32-15.61-12.64-25.87-28.23-29.29-14.93-3.28-27.48,1.64-36.96,13.7-4.25,5.4-6.61,11.65-7.1,18.77Zm29.45,91.52c.52-.74.35-1.32.35-1.87.01-11.72.02-23.44-.01-35.17,0-.89.48-2.31-1.02-2.38-3.04-.15-6.2-.63-9.13.14-7.11,1.88-13.35,5.51-18.87,10.38-.85.75-.99,1.33.11,1.92,4.14,2.23,7.25,5.67,10.52,8.93,5.98,5.97,11.95,11.94,18.05,18.04Zm9.97-.01c.48-.27.69-.33.83-.47,8.83-8.87,17.64-17.75,26.49-26.6.96-.96.64-1.45-.26-2.14-2.71-2.09-5.57-3.98-8.64-5.47-5.22-2.54-10.38-5.39-16.54-4.83-1.34.12-1.93.49-1.89,1.88.07,2.13.01,4.27.01,6.4,0,10.31,0,20.61,0,31.24Z"/>
      <path class="cls-1" d="m52.24,151.53c-.07,4.22-3.92,6.41-7.05,4.56-.78-.46-1.48-1.1-2.13-1.75-5.43-5.41-10.85-10.84-16.26-16.28-.65-.65-1.27-1.36-1.74-2.14-1.12-1.84-.79-4.2.7-5.68,1.61-1.6,3.91-1.86,5.85-.61.59.38,1.12.88,1.62,1.38,5.63,5.62,11.24,11.25,16.87,16.87,1.18,1.18,2.19,2.44,2.14,3.65Z"/>
    </g>
  </g>
</svg>