<?xml version="1.0" encoding="UTF-8"?>
<svg id="Capa_2" data-name="Capa 2" xmlns="http://www.w3.org/2000/svg" xmlns:xlink="http://www.w3.org/1999/xlink" viewBox="0 0 179.51 68.61">
  <defs>
    <style>
      .cls-1 {
        fill: #fff;
      }

      .cls-2, .cls-3, .cls-4 {
        fill: none;
      }

      .cls-3 {
        clip-path: url(#clippath);
      }

      .cls-4 {
        clip-path: url(#clippath-1);
      }
    </style>
    <clipPath id="clippath">
      <rect class="cls-2" width="179.51" height="68.61"/>
    </clipPath>
    <clipPath id="clippath-1">
      <rect class="cls-2" y="0" width="179.51" height="68.61"/>
    </clipPath>
  </defs>
  <g id="Capa_1-2" data-name="Capa 1">
    <g id="Ilustración_5" data-name="Ilustración 5">
      <g class="cls-3">
        <g class="cls-4">
          <path class="cls-1" d="m86.2,1.26h-10.14c-.49,0-.88.39-.88.88v50.28c0,.49.39.88.88.88h10.14c.49,0,.88-.39.88-.88V2.14c0-.49-.39-.88-.88-.88m90.73,12.82c-1.11,0-2.02.91-2.02,2.02s.91,2.02,2.02,2.02,2.02-.91,2.02-2.02-.91-2.02-2.02-2.02m1.12,3.07l-.42-.75c-.06-.1-.09-.14-.09-.14h0c.23-.12.35-.4.35-.65,0-.34-.17-.58-.43-.68-.1-.04-.22-.06-.46-.06h-.82v2.35h.57v-.79h.27l.42.79h.53c-.28.26-.65.42-1.05.42-.85,0-1.54-.69-1.54-1.54s.69-1.54,1.54-1.54,1.54.69,1.54,1.54c0,.41-.16.78-.42,1.06m-.74-1.5c0,.19-.11.29-.3.29h-.25v-.57h.19c.29,0,.35.11.35.28m1.33-14.21h-36.58c-.49,0-.88.39-.88.88v8.95c-4.42-5.85-11.93-9.83-20.71-9.83-14.67,0-26.14,11.54-26.14,26s11.26,25.86,26.93,25.86c13.96,0,24.57-9.26,24.57-24.5v-4.27h-24.12c-.49,0-.88.39-.88.88v8.22c0,.49.39.88.88.88h12.44c-1.78,4.77-6.13,7.69-12.75,7.69-9.69,0-15.67-6.2-15.67-14.67s6.27-14.96,14.67-14.96c5.63,0,10.11,2.56,12.18,5.84l9.69-5.56s-.02-.03-.03-.04h12.21v39.38c0,.49.39.88.88.88h10.04c.49,0,.88-.39.88-.88V12.79h12.39c.49,0,.88-.39.88-.88V2.31c0-.49-.39-.88-.88-.88"/>
          <path class="cls-1" d="m67.96,23.88L59.1,1.63c-.32-.8-1.01-1.36-1.86-1.5-.13-.02-.27-.03-.4-.03-.71,0-1.38.31-1.85.86l-7.14,8.38c-.09-.11-.18-.21-.27-.31-.14-.15-.28-.3-.42-.44l-.08-.08-.09-.1c-.14-.15-.28-.29-.42-.44-.1-.1-.2-.2-.31-.3l-.12-.12-.08-.07c-.18-.17-.36-.35-.55-.52-.06-.05-.12-.11-.19-.16-.04-.03-.07-.06-.11-.09-.26-.22-.53-.46-.81-.69h0s-.02-.02-.02-.02c-2.49-1.99-5.29-3.53-8.33-4.55l-.08-.03s-.08-.03-.13-.04c-.36-.12-.71-.22-1.01-.31l-.13-.04c-.08-.02-.16-.05-.24-.07-.32-.09-.64-.16-.91-.23l-.13-.03c-.12-.03-.24-.06-.37-.08-.28-.06-.57-.11-.84-.16h-.07c-.18-.04-.35-.08-.53-.1-.26-.04-.52-.08-.79-.11-.22-.03-.43-.06-.65-.08-.26-.03-.52-.05-.78-.07-.05,0-.1,0-.15-.01-.08,0-.16-.02-.24-.02-.19-.01-.38-.02-.59-.03h0s0,0,0,0h-.02s0,0,0,0h-.02s0,0,0,0c-.37-.02-.7-.02-1.01-.03-.02,0-.04,0-.05,0h-.03C22.55,0,17.9,1.23,13.81,3.56c0,0-.01,0-.02,0-.12.06-.68.38-1.5.93h-.01s-.01.02-.01.02h-.01C4.58,9.6,0,18.1,0,27.27,0,35.71,3.84,43.54,10.52,48.76c4.85,3.78,10.65,5.78,16.78,5.78,4.31,0,8.6-1.03,12.43-2.98h0s0,0,0,0c.27-.14.53-.28.79-.42h0s.02-.01.02-.01c.26-.14.51-.29.76-.44l.04-.02c.27-.16.51-.31.73-.45l.05-.03.02-.02c.25-.16.47-.31.68-.45l.05-.04.03-.02c.25-.17.46-.33.66-.47l.07-.05.04-.03c.21-.16.41-.31.62-.48.02-.02.05-.04.07-.06l.04-.04c.2-.16.39-.32.59-.48.03-.02.06-.05.08-.07l.05-.04c.19-.16.37-.32.55-.48.03-.03.06-.05.09-.08l.05-.05c.18-.16.35-.32.52-.49.03-.03.06-.06.09-.09l.06-.06c.16-.16.33-.32.49-.49.03-.03.07-.07.1-.11l.06-.07c.16-.16.31-.33.46-.5.04-.04.07-.08.11-.12l.07-.08.02-.02c.14-.16.27-.31.41-.47.04-.05.08-.1.12-.15l.07-.09.04-.05c.12-.14.24-.29.35-.43.04-.05.08-.11.13-.17l.07-.1.05-.07c.1-.13.2-.27.3-.4.04-.06.09-.12.13-.18l.07-.11.07-.1c.09-.12.18-.25.26-.37.05-.07.09-.14.14-.21l.07-.11.06-.1c.08-.12.16-.24.23-.36.05-.08.1-.16.14-.23l.07-.12.07-.11c.07-.11.13-.22.2-.33.05-.09.1-.18.15-.26l.07-.12.08-.13c.03-.06.06-.11.1-.17,4.37-4.09,7.48-9.49,8.8-15.29l4.67,1.98c.31.13.63.2.96.2.63,0,1.23-.25,1.69-.7.71-.7.93-1.71.56-2.64M30.3,2.26c.84.1,1.68.24,2.51.43h.03s.06.02.06.02c.4.09.8.19,1.17.3l.06.02.08.02c.39.11.75.22,1.1.34l.07.03.07.03c.37.13.73.26,1.07.39l.08.03.06.02c.36.14.72.3,1.06.45l.13.06c.35.16.71.34,1.05.51h.03s.09.06.09.06c.35.18.69.37,1.04.57l.05.03.05.03c.34.2.69.42,1.03.64l.04.03.03.02c.35.23.69.47,1.03.72l.03.02c1.05.78,2.05,1.64,2.97,2.57.01.01.03.03.04.04.02.02.04.04.06.07.28.28.53.55.76.81.06.07.12.14.18.21l.12.14s.04.05.06.07l-7.03,8.25c-.65.76-.77,1.79-.32,2.68.42.82,1.24,1.33,2.16,1.33.06,0,.13,0,.19,0l4.85-.36c-1.96,6.85-8.34,11.73-15.53,11.73-8.91,0-16.15-7.25-16.15-16.15S21.67,2.54,30.3,2.26m15.54,42.11l-.09.1c-.07.07-.13.14-.2.21-.07.07-.13.14-.2.21l-.09.09-.08.08c-.07.07-.13.14-.2.21-.07.07-.15.14-.23.22l-.08.07-.07.06c-.07.07-.15.14-.22.21-.09.08-.18.16-.26.24l-.05.04-.02.02c-.09.08-.18.16-.28.24-.11.09-.21.18-.32.27-.1.08-.2.17-.3.25-.11.09-.22.18-.33.26-.1.08-.2.16-.31.24-.11.08-.23.17-.34.25-.1.08-.21.15-.31.23-.12.08-.23.16-.35.24-.11.07-.21.14-.32.21-.12.08-.24.16-.36.23-.09.06-.19.12-.29.18l-.04.02-.04.02c-.11.07-.22.13-.32.2-.09.05-.18.1-.27.15l-.06.04-.08.04c-.1.06-.19.11-.29.16-.08.04-.16.08-.24.13l-.1.05-.11.06c-.09.05-.18.09-.27.14-.08.04-.15.08-.23.11l-.11.05c-.24.12-.48.23-.72.34l-.12.05c-.08.04-.17.08-.25.11-.09.04-.17.07-.26.11l-.12.05-.11.05c-.09.04-.17.07-.26.11-.09.04-.18.07-.28.11l-.11.04-.09.03c-.09.04-.19.07-.28.11-.1.04-.21.07-.31.11l-.08.03-.07.02c-.1.04-.21.07-.31.1-.12.04-.25.08-.37.11h-.02c-.14.05-.26.09-.39.12-.13.04-.26.07-.4.11-.13.04-.26.07-.39.1-.13.03-.27.07-.4.1-.13.03-.27.06-.4.09-.13.03-.27.06-.4.08-.13.03-.27.05-.4.08-.13.02-.27.05-.4.07-.14.02-.27.04-.41.06h-.02c-.13.02-.26.04-.38.06-.13.02-.26.03-.39.05h-.03s-.08.01-.08.01c-.11.01-.21.02-.32.04-.12.01-.24.02-.36.03h-.07s-.12.02-.12.02c-.09,0-.19.02-.28.02-.12,0-.24.01-.35.02h-.1s-.13.01-.13.01c-.08,0-.17,0-.25.01-.17,0-.34,0-.52,0h-.04s-.12,0-.12,0c-.05,0-.1,0-.15,0-6.73,0-13.06-2.62-17.83-7.39-4.77-4.76-7.4-11.09-7.4-17.81,0-.03,0-.06,0-.09v-.09c0-.12,0-.24,0-.36.67,2.8,1.98,5.64,3.9,8.51.01.02.03.04.05.06,5.61,8.21,14.87,13.11,24.78,13.11,5.28,0,10.48-1.42,15.02-4.04t0,0m20.12-19.34c-.05.05-.14.1-.24.1-.05,0-.09-.01-.14-.03l-5.84-2.48c-.13-.05-.27-.08-.41-.08-.17,0-.34.04-.5.13-.28.15-.47.41-.53.73-1.07,5.9-4.1,11.4-8.53,15.5h0s0,.01,0,.01h0s-.11.11-.11.11c-5.16,4.71-11.84,7.31-18.82,7.31-9.24,0-17.87-4.58-23.1-12.26-.01-.02-.02-.03-.04-.05-9.79-14.67.57-24.19,5.47-27.61l.05-.03.03-.02.05-.03.12-.08h0c.72-.49,1.2-.76,1.33-.84.02,0,.04-.02.05-.03,2.08-1.19,4.33-2.07,6.66-2.63-1.34.81-2.58,1.79-3.69,2.92-3.34,3.42-5.18,7.94-5.18,12.71,0,10.05,8.18,18.23,18.23,18.23,8.71,0,16.24-6.2,17.89-14.75.06-.32-.03-.65-.24-.89-.2-.22-.48-.35-.78-.35-.03,0-.05,0-.08,0l-6.27.47s-.02,0-.03,0c-.19,0-.28-.12-.31-.19-.03-.06-.09-.23.05-.39l7.6-8.92,7.93-9.31c.07-.08.16-.12.26-.12.02,0,.04,0,.06,0,.13.02.22.1.27.22l8.86,22.25c.08.2-.03.33-.08.38"/>
          <polygon class="cls-1" points="1.49 58.83 3.36 58.83 1.87 66.47 0 66.47 1.49 58.83"/>
          <path class="cls-1" d="m4.52,60.97h1.78l-.09.43c-.03.17-.11.4-.11.4h.02c.3-.39.86-.95,1.67-.95.76,0,1.27.31,1.46.93h.02c.35-.46,1.06-.93,1.84-.93.94,0,1.57.41,1.57,1.51,0,.22-.03.48-.09.77l-.64,3.35h-1.85l.63-3.2c.03-.17.03-.23.03-.32,0-.26-.1-.43-.36-.43-.67,0-1.16.79-1.33,1.68l-.45,2.27h-1.85l.63-3.2c.03-.17.03-.23.03-.32,0-.26-.1-.43-.36-.43-.65,0-1.16.79-1.33,1.68l-.45,2.27h-1.85l1.07-5.5Z"/>
          <path class="cls-1" d="m14.68,68.61h-1.84l1.47-7.64h1.67l-.05.28c-.03.18-.1.35-.1.35h.02c.38-.47,1-.76,1.66-.76,1.32,0,2.13.94,2.13,2.39,0,2-1.51,3.36-3.01,3.36-.55,0-1.08-.18-1.44-.58h-.02s-.02.19-.07.47l-.41,2.11Zm1.71-3.54c.64,0,1.38-.62,1.38-1.7,0-.6-.32-.97-.85-.97-.57,0-1.38.62-1.38,1.7,0,.53.26.97.85.97"/>
          <path class="cls-1" d="m23.57,60.84c1.66,0,2.85.97,2.85,2.47,0,1.94-1.72,3.29-3.43,3.29s-2.85-.96-2.85-2.47c0-1.93,1.71-3.29,3.43-3.29m-.54,4.22c.74,0,1.53-.63,1.53-1.63,0-.65-.43-1.05-1-1.05-.73,0-1.54.66-1.54,1.67,0,.64.43,1.01,1.01,1.01"/>
          <path class="cls-1" d="m27.89,60.97h1.77l-.18.93c-.03.18-.09.34-.09.34h.01c.35-.75,1.13-1.37,1.91-1.37.18,0,.32.02.32.02l-.35,1.82s-.14-.03-.36-.03c-.56,0-1.6.44-1.89,1.92l-.36,1.87h-1.85l1.07-5.5Z"/>
          <path class="cls-1" d="m32.07,64.33l.36-1.83h-.69l.28-1.44h.76l.31-1.58h1.77l-.31,1.58h1.16l-.28,1.44h-1.16l-.3,1.57c-.02.1-.03.23-.03.29,0,.45.41.53.81.53.16,0,.29-.01.29-.01l-.31,1.6s-.28.03-.49.03c-1.21,0-2.22-.49-2.22-1.76,0-.13.02-.28.05-.43"/>
          <path class="cls-1" d="m39.21,63.04h.07c.01-.07.02-.17.02-.2,0-.36-.26-.5-.69-.5-.69,0-1.59.5-1.59.5l-.4-1.39s1.13-.61,2.35-.61c.93,0,2.18.36,2.18,1.75,0,.16-.02.34-.05.53l-.64,3.34h-1.69l.06-.33c.03-.18.1-.34.1-.34h-.02s-.6.8-1.62.8c-.82,0-1.61-.49-1.61-1.42,0-1.67,2.13-2.14,3.54-2.14m-1.23,2.15c.48,0,1-.52,1.09-.97l.02-.12h-.17c-.4,0-1.39.09-1.39.74,0,.2.14.35.45.35"/>
          <path class="cls-1" d="m44.95,60.84c.46,0,1.08.12,1.39.49h.02s.01-.14.03-.25l.44-2.25h1.85l-1.48,7.64h-1.73l.07-.36c.03-.17.06-.31.06-.31h-.02c-.37.5-.96.8-1.58.8-1.35,0-2.14-.93-2.14-2.36,0-2.04,1.45-3.4,3.09-3.4m-.35,4.23c.59,0,1.37-.66,1.37-1.7,0-.52-.26-.97-.85-.97-.63,0-1.38.62-1.38,1.7,0,.6.33.97.86.97"/>
          <path class="cls-1" d="m52.09,60.84c1.66,0,2.85.97,2.85,2.47,0,1.94-1.72,3.29-3.43,3.29s-2.85-.96-2.85-2.47c0-1.93,1.71-3.29,3.43-3.29m-.54,4.22c.74,0,1.53-.63,1.53-1.63,0-.65-.43-1.05-1-1.05-.73,0-1.54.66-1.54,1.67,0,.64.43,1.01,1.01,1.01"/>
          <path class="cls-1" d="m56.41,60.97h1.77l-.18.93c-.03.18-.09.34-.09.34h.01c.35-.75,1.13-1.37,1.91-1.37.18,0,.32.02.32.02l-.35,1.82s-.14-.03-.36-.03c-.56,0-1.6.44-1.89,1.92l-.36,1.87h-1.85l1.07-5.5Z"/>
          <path class="cls-1" d="m63.34,63.04h.07c.01-.07.02-.17.02-.2,0-.36-.26-.5-.69-.5-.69,0-1.59.5-1.59.5l-.4-1.39s1.13-.61,2.35-.61c.93,0,2.18.36,2.18,1.75,0,.16-.02.34-.05.53l-.64,3.34h-1.69l.06-.33c.03-.18.1-.34.1-.34h-.02s-.6.8-1.62.8c-.82,0-1.61-.49-1.61-1.42,0-1.67,2.13-2.14,3.54-2.14m-1.23,2.15c.48,0,1-.52,1.09-.97l.02-.12h-.17c-.4,0-1.39.09-1.39.74,0,.2.14.35.45.35"/>
          <polygon class="cls-1" points="70.09 58.83 74.87 58.83 74.56 60.44 71.64 60.44 71.38 61.82 73.69 61.82 73.37 63.43 71.05 63.43 70.78 64.87 73.84 64.87 73.53 66.47 68.6 66.47 70.09 58.83"/>
          <path class="cls-1" d="m75,64.33l1.07-5.5h1.85l-1.03,5.3c-.03.14-.05.32-.05.42,0,.28.19.35.42.35.12,0,.22-.01.22-.01l-.31,1.6s-.25.03-.5.03c-.97,0-1.74-.36-1.74-1.52,0-.19.02-.42.08-.67"/>
          <path class="cls-1" d="m85.64,58.71c1.97,0,2.94.98,2.94.98l-1.08,1.29s-.68-.57-1.82-.57c-1.83,0-2.7,1.4-2.7,2.68s.83,1.79,1.79,1.79c.9,0,1.66-.55,1.66-.55l.12-.59h-1.08l.31-1.59h2.73l-.84,4.32h-1.56l.04-.21c.03-.16.07-.32.07-.32h-.02s-.61.66-1.87.66c-1.68,0-3.3-1.22-3.3-3.38,0-2.46,1.98-4.52,4.6-4.52"/>
          <path class="cls-1" d="m89.93,60.97h1.77l-.18.93c-.03.18-.09.34-.09.34h.01c.35-.75,1.13-1.37,1.91-1.37.18,0,.32.02.32.02l-.35,1.82s-.14-.03-.36-.03c-.56,0-1.6.44-1.89,1.92l-.36,1.87h-1.85l1.07-5.5Z"/>
          <path class="cls-1" d="m96.87,63.04h.07c.01-.07.02-.17.02-.2,0-.36-.26-.5-.69-.5-.69,0-1.59.5-1.59.5l-.4-1.39s1.13-.61,2.35-.61c.93,0,2.18.36,2.18,1.75,0,.16-.02.34-.05.53l-.64,3.34h-1.69l.06-.33c.03-.18.1-.34.1-.34h-.02s-.6.8-1.62.8c-.82,0-1.61-.49-1.61-1.42,0-1.67,2.13-2.14,3.54-2.14m-1.23,2.15c.48,0,1-.52,1.09-.97l.02-.12h-.17c-.39,0-1.39.09-1.39.74,0,.2.14.35.45.35"/>
          <path class="cls-1" d="m100.47,60.97h1.78l-.05.28c-.05.28-.14.54-.14.54h.02c.31-.49,1.08-.95,1.84-.95.95,0,1.73.42,1.73,1.56,0,.18-.03.38-.07.61l-.67,3.46h-1.85l.62-3.16c.02-.13.03-.25.03-.32,0-.33-.16-.47-.49-.47-.73,0-1.35.72-1.5,1.52l-.47,2.44h-1.85l1.07-5.5Z"/>
          <polygon class="cls-1" points="111.54 60.44 109.23 60.44 109.54 58.83 116.02 58.83 115.71 60.44 113.41 60.44 112.23 66.47 110.36 66.47 111.54 60.44"/>
          <path class="cls-1" d="m118.26,60.84c1.66,0,2.85.97,2.85,2.47,0,1.94-1.72,3.29-3.43,3.29s-2.85-.96-2.85-2.47c0-1.93,1.71-3.29,3.43-3.29m-.54,4.22c.74,0,1.53-.63,1.53-1.63,0-.65-.43-1.05-1-1.05-.73,0-1.54.66-1.54,1.67,0,.64.43,1.01,1.01,1.01"/>
          <path class="cls-1" d="m122.58,60.97h1.77l-.18.93c-.03.18-.09.34-.09.34h.01c.35-.75,1.13-1.37,1.91-1.37.18,0,.32.02.32.02l-.35,1.82s-.14-.03-.36-.03c-.56,0-1.6.44-1.89,1.92l-.36,1.87h-1.85l1.07-5.5Z"/>
          <path class="cls-1" d="m127.17,60.97h1.78l-.05.28c-.05.28-.14.54-.14.54h.02c.31-.49,1.08-.95,1.84-.95.95,0,1.73.42,1.73,1.56,0,.18-.03.38-.07.61l-.67,3.46h-1.85l.62-3.16c.02-.13.03-.25.03-.32,0-.33-.16-.47-.49-.47-.73,0-1.35.72-1.5,1.52l-.47,2.44h-1.85l1.07-5.5Z"/>
          <path class="cls-1" d="m133.95,60.97h1.85l-1.07,5.5h-1.84l1.06-5.5Zm.44-2.14h1.81l-.28,1.44h-1.81l.28-1.44Z"/>
          <path class="cls-1" d="m136.43,64.33l1.07-5.5h1.85l-1.03,5.3c-.03.14-.05.32-.05.42,0,.28.19.35.42.35.12,0,.22-.01.22-.01l-.31,1.6s-.25.03-.5.03c-.97,0-1.74-.36-1.74-1.52,0-.19.02-.42.08-.67"/>
          <path class="cls-1" d="m139.88,64.33l1.07-5.5h1.85l-1.03,5.3c-.03.14-.05.32-.05.42,0,.28.19.35.42.35.12,0,.22-.01.22-.01l-.31,1.6s-.25.03-.5.03c-.97,0-1.74-.36-1.74-1.52,0-.19.02-.42.08-.67"/>
          <path class="cls-1" d="m146.53,60.84c1.66,0,2.85.97,2.85,2.47,0,1.94-1.72,3.29-3.43,3.29s-2.85-.96-2.85-2.47c0-1.93,1.71-3.29,3.43-3.29m-.54,4.22c.74,0,1.53-.63,1.53-1.63,0-.65-.43-1.05-1-1.05-.73,0-1.54.66-1.54,1.67,0,.64.43,1.01,1.01,1.01"/>
          <path class="cls-1" d="m153.27,64.19s.7.69,1.81.69c.36,0,.92-.16.92-.67,0-.8-2.85-1-2.85-3.12,0-1.51,1.42-2.38,2.84-2.38,1.79,0,2.61.89,2.61.89l-1,1.38s-.67-.54-1.63-.54c-.37,0-.94.19-.94.66,0,.84,2.87.97,2.87,3.12,0,1.31-1.2,2.39-2.84,2.39-1.95,0-2.88-1.09-2.88-1.09l1.11-1.32Z"/>
          <polygon class="cls-1" points="158.81 64.72 160.56 64.72 160.23 66.47 158.47 66.47 158.81 64.72"/>
          <path class="cls-1" d="m172.23,64.19s.7.69,1.81.69c.36,0,.92-.16.92-.67,0-.8-2.85-1-2.85-3.12,0-1.51,1.42-2.38,2.84-2.38,1.79,0,2.61.89,2.61.89l-1,1.38s-.67-.54-1.63-.54c-.37,0-.94.19-.94.66,0,.84,2.87.97,2.87,3.12,0,1.31-1.2,2.39-2.84,2.39-1.95,0-2.88-1.09-2.88-1.09l1.11-1.32Z"/>
          <polygon class="cls-1" points="177.76 64.72 179.51 64.72 179.18 66.47 177.43 66.47 177.76 64.72"/>
          <path class="cls-1" d="m164.83,58.83h2.15l1.06,7.64h-1.87l-.16-1.6h-2.38l-.77,1.6h-2l3.97-7.64Zm1.03,4.54l-.15-1.48c-.04-.48-.06-1.31-.06-1.31h-.02s-.31.83-.54,1.31l-.73,1.48h1.51Z"/>
          <polygon class="cls-1" points="168.98 64.72 170.73 64.72 170.4 66.47 168.65 66.47 168.98 64.72"/>
        </g>
      </g>
    </g>
  </g>
</svg>