<?xml version="1.0" encoding="utf-8"?>
<!-- Generator: $$$/GeneralStr/196=Adobe Illustrator 27.6.0, SVG Export Plug-In . SVG Version: 6.00 Build 0)  -->
<svg version="1.1" id="Capa_2_00000167359597961775231790000018029555933318576015_"
	 xmlns="http://www.w3.org/2000/svg" xmlns:xlink="http://www.w3.org/1999/xlink" x="0px" y="0px" viewBox="0 0 205.1 76.2"
	 style="enable-background:new 0 0 205.1 76.2;" xml:space="preserve">
<style type="text/css">
	.st0{fill:#22384B;}
	.st1{fill:#FBBA00;}
	.st2{clip-path:url(#SVGID_00000121268895551772668660000001091081884825385613_);}
	.st3{fill:#FAB900;}
	.st4{fill:#F9B800;}
	.st5{fill:#F8B800;}
	.st6{fill:#F7B700;}
	.st7{fill:#F6B600;}
	.st8{fill:#F5B600;}
	.st9{fill:#F4B500;}
	.st10{fill:#F3B400;}
	.st11{fill:#F2B300;}
	.st12{fill:#F1B300;}
	.st13{fill:#F0B200;}
	.st14{fill:#EFB100;}
	.st15{fill:#EEB100;}
	.st16{fill:#EDB000;}
	.st17{fill:#ECAF00;}
	.st18{fill:#EBAF00;}
	.st19{fill:#EAAE00;}
	.st20{fill:#E9AD00;}
	.st21{fill:#E8AD00;}
	.st22{fill:#E7AC00;}
	.st23{fill:#E6AC00;}
	.st24{fill:#E6AB00;}
	.st25{fill:#E5AA00;}
	.st26{fill:#E4AA00;}
	.st27{fill:#E3A900;}
	.st28{fill:#E2A900;}
	.st29{fill:#E2A800;}
	.st30{fill:#E1A800;}
	.st31{fill:#E0A700;}
	.st32{fill:#DFA700;}
	.st33{fill:#DFA600;}
	.st34{fill:#DEA600;}
	.st35{fill:#DDA500;}
	.st36{fill:#DCA500;}
	.st37{fill:#DCA400;}
	.st38{fill:#DBA400;}
	.st39{fill:#DAA300;}
	.st40{fill:#D9A200;}
	.st41{fill:#D8A200;}
	.st42{fill:#D8A100;}
	.st43{fill:#D7A100;}
	.st44{fill:#D6A000;}
	.st45{fill:#D59F00;}
	.st46{fill:#D49F00;}
	.st47{fill:#D39E00;}
	.st48{fill:#D29E00;}
	.st49{fill:#D29D00;}
	.st50{fill:#D19D00;}
	.st51{fill:#D09C00;}
	.st52{fill:#CF9B00;}
	.st53{fill:#CE9B00;}
	.st54{fill:#CD9A00;}
	.st55{fill:#CC9900;}
	.st56{fill:#CB9900;}
	.st57{fill:#CA9800;}
	.st58{fill:#FFFFFF;}
	.st59{clip-path:url(#SVGID_00000000940271646435239300000005258398404834845831_);}
</style>
<g>
	<path class="st0" d="M204.1,0.2h-41.8c-0.6,0-1,0.4-1,1v10.2c-5.1-6.7-13.6-11.2-23.7-11.2c-16.8,0-29.9,13.2-29.9,29.7
		s12.9,29.5,30.8,29.5c15.9,0,28.1-10.6,28.1-28v-4.9H139c-0.6,0-1,0.5-1,1V37c0,0.5,0.4,1,1,1h14.2c-2,5.5-7,8.8-14.6,8.8
		c-11.1,0-17.9-7.1-17.9-16.8s7.2-17.1,16.8-17.1c6.4,0,11.6,2.9,13.9,6.7l11.1-6.4c0,0,0,0,0-0.1h13.9v45c0,0.5,0.4,1,1,1h11.5
		c0.6,0,1-0.5,1-1v-45h14.2c0.6,0,1-0.4,1-1V1.2C205.1,0.7,204.6,0.2,204.1,0.2 M202.1,14.6c-1.3,0-2.3,1-2.3,2.3s1,2.3,2.3,2.3
		s2.3-1,2.3-2.3S203.4,14.6,202.1,14.6 M203.4,18.2l-0.5-0.9c-0.1-0.1-0.1-0.2-0.1-0.2l0,0c0.3-0.1,0.4-0.5,0.4-0.7
		c0-0.4-0.2-0.7-0.5-0.8c-0.1,0-0.2-0.1-0.5-0.1h-0.9v2.7h0.6v-0.9h0.3l0.5,0.9L203.4,18.2c-0.4,0.4-0.8,0.5-1.3,0.5
		c-1,0-1.8-0.8-1.8-1.8s0.8-1.8,1.8-1.8s1.8,0.8,1.8,1.8C203.9,17.4,203.7,17.8,203.4,18.2 M202.5,16.4c0,0.2-0.1,0.3-0.3,0.3h-0.3
		v-0.6h0.2C202.5,16.1,202.5,16.2,202.5,16.4 M98.5,0H86.9c-0.6,0-1,0.4-1,1v57.4c0,0.5,0.4,1,1,1h11.6c0.6,0,1-0.5,1-1V1
		C99.5,0.4,99,0,98.5,0"/>
</g>
<g>
	<polygon class="st0" points="1.7,65 0,73.8 2.1,73.8 3.8,65 	"/>
	<path class="st0" d="M12.7,67.3c-0.9,0-1.7,0.5-2.1,1.1h0c-0.2-0.7-0.8-1.1-1.7-1.1C8,67.3,7.4,68,7,68.4h0c0,0,0.1-0.3,0.1-0.4
		l0.1-0.5h-2L4,73.8h2.1l0.5-2.6c0.2-1,0.8-1.9,1.5-1.9c0.3,0,0.4,0.2,0.4,0.5c0,0.1,0,0.2,0,0.4l-0.7,3.7h2.1l0.5-2.6
		c0.2-1,0.8-1.9,1.5-1.9c0.3,0,0.4,0.2,0.4,0.5c0,0.1,0,0.2,0,0.4l-0.7,3.7h2.1l0.7-3.8c0.1-0.3,0.1-0.6,0.1-0.9
		C14.5,67.8,13.8,67.3,12.7,67.3"/>
	<path class="st0" d="M20,67.3c-0.7,0-1.5,0.3-1.9,0.9h0c0,0,0.1-0.2,0.1-0.4l0.1-0.3h-1.9l-1.7,8.7h2.1l0.5-2.4
		c0.1-0.3,0.1-0.5,0.1-0.5h0c0.4,0.4,1,0.7,1.6,0.7c1.7,0,3.4-1.6,3.4-3.8C22.4,68.4,21.5,67.3,20,67.3 M18.7,72.2
		c-0.7,0-1-0.5-1-1.1c0-1.2,0.9-1.9,1.6-1.9c0.6,0,1,0.4,1,1.1C20.3,71.5,19.4,72.2,18.7,72.2"/>
	<path class="st0" d="M26.9,67.3c-2,0-3.9,1.6-3.9,3.8c0,1.7,1.4,2.8,3.3,2.8s3.9-1.5,3.9-3.8C30.2,68.4,28.8,67.3,26.9,67.3
		 M26.3,72.2c-0.7,0-1.2-0.4-1.2-1.2c0-1.1,0.9-1.9,1.8-1.9c0.7,0,1.1,0.4,1.1,1.2C28,71.4,27.1,72.2,26.3,72.2"/>
	<path class="st0" d="M35.8,67.4c-0.9,0-1.8,0.7-2.2,1.6h0c0,0,0.1-0.2,0.1-0.4l0.2-1.1h-2l-1.2,6.3h2.1l0.4-2.1
		c0.3-1.7,1.5-2.2,2.2-2.2c0.3,0,0.4,0,0.4,0l0.4-2.1C36.1,67.4,36,67.4,35.8,67.4"/>
	<path class="st0" d="M39.1,69.2h1.3l0.3-1.7h-1.3l0.3-1.8h-2l-0.3,1.8h-0.9l-0.3,1.7H37l-0.4,2.1c0,0.2-0.1,0.3-0.1,0.5
		c0,1.4,1.2,2,2.5,2c0.2,0,0.6,0,0.6,0L40,72c0,0-0.2,0-0.3,0c-0.5,0-0.9-0.1-0.9-0.6c0-0.1,0-0.2,0-0.3L39.1,69.2L39.1,69.2z"/>
	<path class="st0" d="M44.5,67.3c-1.4,0-2.7,0.7-2.7,0.7l0.5,1.6c0,0,1-0.6,1.8-0.6c0.5,0,0.8,0.2,0.8,0.6c0,0,0,0.2,0,0.2h-0.1
		c-1.6,0-4,0.5-4,2.4c0,1.1,0.9,1.6,1.8,1.6c1.2,0,1.9-0.9,1.9-0.9h0c0,0-0.1,0.2-0.1,0.4l-0.1,0.4h1.9l0.7-3.8
		c0-0.2,0.1-0.4,0.1-0.6C47,67.7,45.6,67.3,44.5,67.3 M44.6,71.2c-0.1,0.5-0.7,1.1-1.2,1.1c-0.3,0-0.5-0.2-0.5-0.4
		c0-0.7,1.1-0.8,1.6-0.8h0.2C44.6,71,44.6,71.2,44.6,71.2z"/>
	<path class="st0" d="M53.5,65L53,67.6c0,0.1,0,0.3,0,0.3h0c-0.3-0.4-1.1-0.6-1.6-0.6c-1.9,0-3.5,1.6-3.5,3.9c0,1.6,0.9,2.7,2.4,2.7
		c0.7,0,1.4-0.3,1.8-0.9h0c0,0,0,0.2-0.1,0.4l-0.1,0.4h2l1.7-8.7H53.5L53.5,65z M50.9,72.2c-0.6,0-1-0.4-1-1.1
		c0-1.2,0.8-1.9,1.6-1.9s1,0.5,1,1.1C52.5,71.4,51.6,72.2,50.9,72.2"/>
	<path class="st0" d="M59.5,67.3c-2,0-3.9,1.6-3.9,3.8c0,1.7,1.4,2.8,3.3,2.8s3.9-1.5,3.9-3.8C62.8,68.4,61.4,67.3,59.5,67.3
		 M58.9,72.2c-0.7,0-1.2-0.4-1.2-1.2c0-1.1,0.9-1.9,1.8-1.9c0.7,0,1.1,0.4,1.1,1.2C60.6,71.4,59.7,72.2,58.9,72.2"/>
	<path class="st0" d="M68.3,67.4c-0.9,0-1.8,0.7-2.2,1.6l0,0c0,0,0.1-0.2,0.1-0.4l0.2-1.1h-2l-1.2,6.3h2.1l0.4-2.1
		c0.3-1.7,1.5-2.2,2.2-2.2c0.2,0,0.4,0,0.4,0l0.4-2.1C68.7,67.4,68.5,67.4,68.3,67.4"/>
	<path class="st0" d="M72.1,67.3c-1.4,0-2.7,0.7-2.7,0.7l0.4,1.6c0,0,1-0.6,1.8-0.6c0.5,0,0.8,0.2,0.8,0.6c0,0,0,0.2,0,0.2h-0.1
		c-1.6,0-4,0.5-4,2.4c0,1.1,0.9,1.6,1.8,1.6c1.2,0,1.9-0.9,1.9-0.9h0c0,0-0.1,0.2-0.1,0.4l-0.1,0.4h1.9l0.7-3.8
		c0-0.2,0.1-0.4,0.1-0.6C74.6,67.7,73.1,67.3,72.1,67.3 M72.2,71.2c-0.1,0.5-0.7,1.1-1.2,1.1c-0.3,0-0.5-0.2-0.5-0.4
		c0-0.7,1.1-0.8,1.6-0.8h0.2C72.2,71,72.2,71.2,72.2,71.2z"/>
	<polygon class="st0" points="85.2,66.9 85.5,65 80.1,65 78.3,73.8 84,73.8 84.3,71.9 80.8,71.9 81.2,70.3 83.8,70.3 84.2,68.4 
		81.5,68.4 81.8,66.9 	"/>
	<path class="st0" d="M87.8,71.6c0-0.1,0-0.3,0.1-0.5L89,65h-2.1l-1.2,6.3c-0.1,0.3-0.1,0.6-0.1,0.8c0,1.3,0.9,1.7,2,1.7
		c0.3,0,0.6,0,0.6,0l0.3-1.8c0,0-0.1,0-0.2,0C88,72,87.8,71.9,87.8,71.6"/>
	<path class="st0" d="M97.6,70.7h1.2l-0.1,0.7c0,0-0.9,0.6-1.9,0.6c-1.1,0-2.1-0.7-2.1-2.1s1-3.1,3.1-3.1c1.3,0,2.1,0.7,2.1,0.7
		l1.2-1.5c0,0-1.1-1.1-3.4-1.1c-3,0-5.3,2.3-5.3,5.2c0,2.5,1.8,3.9,3.8,3.9c1.4,0,2.1-0.8,2.1-0.8h0c0,0-0.1,0.2-0.1,0.4l-0.1,0.2
		h1.8l1-4.9H98L97.6,70.7L97.6,70.7z"/>
	<path class="st0" d="M106.6,67.4c-0.9,0-1.8,0.7-2.2,1.6l0,0c0,0,0.1-0.2,0.1-0.4l0.2-1.1h-2l-1.2,6.3h2.1l0.4-2.1
		c0.3-1.7,1.5-2.2,2.2-2.2c0.2,0,0.4,0,0.4,0l0.4-2.1C107,67.4,106.8,67.4,106.6,67.4"/>
	<path class="st0" d="M110.4,67.3c-1.4,0-2.7,0.7-2.7,0.7l0.4,1.6c0,0,1-0.6,1.8-0.6c0.5,0,0.8,0.2,0.8,0.6c0,0,0,0.2,0,0.2h-0.1
		c-1.6,0-4,0.5-4,2.4c0,1.1,0.9,1.6,1.8,1.6c1.2,0,1.9-0.9,1.9-0.9h0c0,0-0.1,0.2-0.1,0.4l-0.1,0.4h1.9l0.7-3.8
		c0-0.2,0.1-0.4,0.1-0.6C112.9,67.7,111.4,67.3,110.4,67.3 M110.5,71.2c-0.1,0.5-0.7,1.1-1.2,1.1c-0.3,0-0.5-0.2-0.5-0.4
		c0-0.7,1.1-0.8,1.6-0.8h0.2C110.5,71,110.5,71.2,110.5,71.2z"/>
	<path class="st0" d="M118.7,67.3c-0.9,0-1.7,0.5-2.1,1.1h0c0,0,0.1-0.3,0.2-0.6l0.1-0.3h-2l-1.2,6.3h2.1l0.5-2.8
		c0.2-0.9,0.9-1.7,1.7-1.7c0.4,0,0.6,0.2,0.6,0.5c0,0.1,0,0.2,0,0.4l-0.7,3.6h2.1l0.8-4c0.1-0.2,0.1-0.5,0.1-0.7
		C120.7,67.8,119.8,67.3,118.7,67.3"/>
	<polygon class="st0" points="125.1,65 124.8,66.9 127.4,66.9 126.1,73.8 128.2,73.8 129.5,66.9 132.2,66.9 132.5,65 	"/>
	<path class="st0" d="M135.1,67.3c-2,0-3.9,1.6-3.9,3.8c0,1.7,1.4,2.8,3.3,2.8s3.9-1.5,3.9-3.8C138.3,68.4,137,67.3,135.1,67.3
		 M134.5,72.2c-0.7,0-1.2-0.4-1.2-1.2c0-1.1,0.9-1.9,1.8-1.9c0.7,0,1.1,0.4,1.1,1.2C136.2,71.4,135.3,72.2,134.5,72.2"/>
	<path class="st0" d="M143.9,67.4c-0.9,0-1.8,0.7-2.2,1.6h0c0,0,0.1-0.2,0.1-0.4l0.2-1.1h-2l-1.2,6.3h2.1l0.4-2.1
		c0.3-1.7,1.5-2.2,2.2-2.2c0.3,0,0.4,0,0.4,0l0.4-2.1C144.3,67.4,144.1,67.4,143.9,67.4"/>
	<path class="st0" d="M149.2,67.3c-0.9,0-1.7,0.5-2.1,1.1h0c0,0,0.1-0.3,0.2-0.6l0.1-0.3h-2l-1.2,6.3h2.1l0.5-2.8
		c0.2-0.9,0.9-1.7,1.7-1.7c0.4,0,0.6,0.2,0.6,0.5c0,0.1,0,0.2,0,0.4l-0.7,3.6h2.1l0.8-4c0.1-0.2,0.1-0.5,0.1-0.7
		C151.2,67.8,150.3,67.3,149.2,67.3"/>
	<path class="st0" d="M153.5,65l-0.3,1.7h2.1l0.3-1.7H153.5z M153,67.5l-1.2,6.3h2.1l1.2-6.3H153z"/>
	<path class="st0" d="M157.9,71.6c0-0.1,0-0.3,0.1-0.5l1.2-6.1h-2.1l-1.2,6.3c-0.1,0.3-0.1,0.6-0.1,0.8c0,1.3,0.9,1.7,2,1.7
		c0.3,0,0.6,0,0.6,0l0.4-1.8c0,0-0.1,0-0.3,0C158.2,72,157.9,71.9,157.9,71.6"/>
	<path class="st0" d="M161.9,71.6c0-0.1,0-0.3,0.1-0.5l1.2-6.1H161l-1.2,6.3c-0.1,0.3-0.1,0.6-0.1,0.8c0,1.3,0.9,1.7,2,1.7
		c0.3,0,0.6,0,0.6,0l0.4-1.8c0,0-0.1,0-0.2,0C162.1,72,161.9,71.9,161.9,71.6"/>
	<path class="st0" d="M167.4,67.3c-2,0-3.9,1.6-3.9,3.8c0,1.7,1.4,2.8,3.3,2.8s3.9-1.5,3.9-3.8C170.6,68.4,169.3,67.3,167.4,67.3
		 M166.8,72.2c-0.7,0-1.2-0.4-1.2-1.2c0-1.1,0.9-1.9,1.8-1.9c0.7,0,1.1,0.4,1.1,1.2C168.5,71.4,167.6,72.2,166.8,72.2"/>
	<path class="st0" d="M177.1,67.6c0-0.5,0.6-0.8,1.1-0.8c1.1,0,1.9,0.6,1.9,0.6l1.1-1.6c0,0-0.9-1-3-1c-1.6,0-3.2,1-3.2,2.7
		c0,2.4,3.3,2.7,3.3,3.6c0,0.6-0.6,0.8-1.1,0.8c-1.2,0-2.1-0.8-2.1-0.8l-1.3,1.5c0,0,1.1,1.2,3.3,1.2c1.9,0,3.2-1.2,3.2-2.7
		C180.3,68.7,177.1,68.6,177.1,67.6"/>
	<polygon class="st0" points="181.4,71.8 181,73.8 183,73.8 183.4,71.8 	"/>
	<path class="st0" d="M198.7,67.6c0-0.5,0.6-0.8,1.1-0.8c1.1,0,1.9,0.6,1.9,0.6l1.1-1.6c0,0-0.9-1-3-1c-1.6,0-3.2,1-3.2,2.7
		c0,2.4,3.3,2.7,3.3,3.6c0,0.6-0.6,0.8-1.1,0.8c-1.2,0-2.1-0.8-2.1-0.8l-1.3,1.5c0,0,1.1,1.2,3.3,1.2c1.9,0,3.2-1.2,3.2-2.7
		C202,68.7,198.7,68.6,198.7,67.6"/>
	<polygon class="st0" points="203.1,71.8 202.7,73.8 204.7,73.8 205.1,71.8 	"/>
	<path class="st0" d="M190.7,65h-2.4l-4.5,8.7h2.3l0.9-1.8h2.7l0.2,1.8h2.1L190.7,65L190.7,65z M187.7,70.2l0.8-1.7
		c0.3-0.6,0.6-1.5,0.6-1.5h0c0,0,0,0.9,0.1,1.5l0.2,1.7H187.7z"/>
	<polygon class="st0" points="193,71.8 192.6,73.8 194.6,73.8 195,71.8 	"/>
</g>
<g>
	<g>
		<path class="st1" d="M47.2,25.1c-1,0-2-0.6-2.5-1.5c-0.5-1-0.4-2.2,0.4-3.1l8-9.4c0,0,0-0.1-0.1-0.1l-0.1-0.2
			c-0.1-0.1-0.1-0.2-0.2-0.2c-0.3-0.3-0.5-0.6-0.9-0.9c0,0,0-0.1-0.1-0.1c0,0,0,0,0-0.1c-1-1.1-2.2-2.1-3.4-2.9l0,0
			c-0.4-0.3-0.8-0.6-1.2-0.8l0,0l0,0c-0.4-0.3-0.8-0.5-1.2-0.7l-0.1-0.1c-0.4-0.2-0.8-0.4-1.2-0.7l-0.1-0.1h0
			C44,4,43.6,3.8,43.2,3.6l-0.2-0.1c-0.4-0.2-0.8-0.3-1.2-0.5l-0.1,0l-0.1,0c-0.4-0.2-0.8-0.3-1.2-0.5l-0.1,0l-0.1,0
			C39.9,2.3,39.5,2.2,39,2L39,2l-0.1,0c-0.4-0.1-0.9-0.2-1.3-0.3l-0.1,0h0c-0.9-0.2-1.9-0.4-2.9-0.5c-9.9,0.3-17.9,8.6-17.9,18.4
			S25,38,35.2,38c8.2,0,15.5-5.6,17.7-13.4L47.4,25C47.3,25,47.2,25,47.2,25.1 M35.2,53.9c-11.3,0-21.9-5.6-28.3-15c0,0,0,0-0.1-0.1
			c-2.2-3.3-3.7-6.5-4.5-9.7c0,0.1,0,0.3,0,0.4v0.1c0,0,0,0.1,0,0.1c0,7.7,3,14.9,8.4,20.3c5.4,5.4,12.7,8.4,20.4,8.4
			c0.1,0,0.1,0,0.2,0h0.2c0.2,0,0.4,0,0.6,0c0.1,0,0.2,0,0.3,0h0.2l0.1,0c0.1,0,0.3,0,0.4,0l0.3,0h0.1l0.1,0c0.1,0,0.3,0,0.4,0
			c0.1,0,0.2,0,0.4,0h0.1l0,0c0.2,0,0.3,0,0.5,0c0.2,0,0.3,0,0.4-0.1h0c0.2,0,0.3,0,0.5-0.1c0.2,0,0.3,0,0.5-0.1
			c0.2,0,0.3,0,0.5-0.1c0.2,0,0.3-0.1,0.5-0.1c0.2,0,0.3-0.1,0.5-0.1c0.2,0,0.3-0.1,0.5-0.1c0.2,0,0.3-0.1,0.5-0.1
			c0.2,0,0.3-0.1,0.5-0.1c0.1,0,0.3-0.1,0.4-0.1h0c0.1,0,0.3-0.1,0.4-0.1c0.1,0,0.2-0.1,0.4-0.1l0.1,0l0.1,0c0.1,0,0.2-0.1,0.3-0.1
			c0.1,0,0.2-0.1,0.3-0.1l0.1,0l0.1,0c0.1,0,0.2-0.1,0.3-0.1c0.1,0,0.2-0.1,0.3-0.1l0.1,0l0.1,0c0.1,0,0.2-0.1,0.3-0.1
			c0.1,0,0.2-0.1,0.3-0.1L43,56c0.3-0.1,0.5-0.2,0.8-0.4l0.1-0.1c0.1,0,0.2-0.1,0.3-0.1c0.1,0,0.2-0.1,0.3-0.2l0.1-0.1l0.1-0.1
			c0.1,0,0.2-0.1,0.3-0.1l0.3-0.2l0.1,0l0.1,0c0.1-0.1,0.2-0.1,0.3-0.2c0.1-0.1,0.2-0.2,0.4-0.2l0,0l0,0c0.1-0.1,0.2-0.1,0.3-0.2
			c0.1-0.1,0.3-0.2,0.4-0.3c0.1-0.1,0.2-0.2,0.4-0.2c0.1-0.1,0.3-0.2,0.4-0.3l0.4-0.2c0.1-0.1,0.3-0.2,0.4-0.3
			c0.1-0.1,0.2-0.2,0.3-0.3c0.1-0.1,0.2-0.2,0.4-0.3c0.1-0.1,0.2-0.2,0.3-0.3c0.1-0.1,0.2-0.2,0.4-0.3c0.1-0.1,0.2-0.2,0.3-0.3l0,0
			l0.1,0c0.1-0.1,0.2-0.2,0.3-0.3c0.1-0.1,0.2-0.2,0.2-0.2l0.1-0.1l0.1-0.1c0.1-0.1,0.2-0.2,0.3-0.2l0.2-0.2l0.1-0.1l0.1-0.1
			c0.1-0.1,0.2-0.2,0.2-0.2s0.2-0.2,0.2-0.2l0.1-0.1l0,0C47.1,52.3,41.2,53.9,35.2,53.9"/>
		<path class="st0" d="M75.3,27.2c-0.1,0.1-0.2,0.1-0.3,0.1c-0.1,0-0.1,0-0.2,0l-6.7-2.8c-0.2-0.1-0.3-0.1-0.5-0.1
			c-0.2,0-0.4,0-0.6,0.1c-0.3,0.2-0.5,0.5-0.6,0.8c-1.2,6.7-4.7,13-9.8,17.7h0v0l0,0l-0.1,0.1c-5.9,5.4-13.5,8.3-21.5,8.3
			c-10.5,0-20.4-5.2-26.4-14c0,0,0,0,0-0.1C-2.4,20.7,9.5,9.8,15.1,5.9l0.1,0l0,0l0.1,0l0.1-0.1l0,0c0.8-0.6,1.4-0.9,1.5-1
			c0,0,0,0,0.1,0c2.4-1.4,4.9-2.4,7.6-3c-1.5,0.9-3,2-4.2,3.3c-3.8,3.9-5.9,9.1-5.9,14.5c0,11.5,9.3,20.8,20.8,20.8
			c10,0,18.5-7.1,20.4-16.9c0.1-0.4,0-0.7-0.3-1c-0.2-0.2-0.5-0.4-0.9-0.4c0,0-0.1,0-0.1,0l-7.2,0.5c0,0,0,0,0,0
			c-0.2,0-0.3-0.1-0.4-0.2c0-0.1-0.1-0.3,0-0.5l8.7-10.2l9.1-10.6C64.7,1.1,64.8,1,64.9,1c0,0,0,0,0.1,0c0.1,0,0.2,0.1,0.3,0.2
			l10.1,25.4C75.5,26.9,75.4,27.1,75.3,27.2"/>
	</g>
	<g>
		<defs>
			<path id="SVGID_1_" d="M7.8,41L7.8,41c6,8.8,16,14.5,27.4,14.5c4.7,0,9.2-1,13.3-2.8c0,0,0,0,0.1-0.1c0.1-0.1,0.2-0.2,0.3-0.3
				c0.1-0.1,0.2-0.2,0.4-0.3c0.1-0.1,0.2-0.2,0.3-0.3c0.1-0.1,0.2-0.2,0.4-0.3c0.1-0.1,0.2-0.2,0.3-0.3l0,0l0.1,0
				c0.1-0.1,0.2-0.2,0.3-0.3c0.1-0.1,0.2-0.2,0.2-0.2l0.1-0.1l0.1-0.1c0.1-0.1,0.2-0.2,0.3-0.2c0.1-0.1,0.2-0.2,0.2-0.2l0.1-0.1
				l0.1-0.1c0.1-0.1,0.2-0.2,0.2-0.2c0.1-0.1,0.2-0.2,0.2-0.2l0.1-0.1l0,0c-5.2,3-11.1,4.6-17.2,4.6c-11.3,0-21.9-5.6-28.3-15
				c0,0,0,0-0.1-0.1c-0.9-1.4-1.8-2.8-2.4-4.2C5.2,36.6,6.3,38.8,7.8,41 M45.6,25.2L45.6,25.2c0,0.8,0.7,1.6,1.7,1.5l5.1-0.4
				c0.2-0.6,0.4-1.1,0.6-1.7L47.4,25c-0.1,0-0.2,0-0.2,0c-0.6,0-1.2-0.2-1.6-0.5L45.6,25.2L45.6,25.2z"/>
		</defs>
		<clipPath id="SVGID_00000049938968038795530700000001197439239814575004_">
			<use xlink:href="#SVGID_1_"  style="overflow:visible;"/>
		</clipPath>
		<g style="clip-path:url(#SVGID_00000049938968038795530700000001197439239814575004_);">
			<rect x="4.4" y="34.6" class="st1" width="0.5" height="21"/>
			<rect x="4.9" y="34.6" class="st3" width="0.5" height="21"/>
			<rect x="5.4" y="34.6" class="st3" width="0.5" height="21"/>
			<rect x="6" y="34.6" class="st4" width="0.5" height="21"/>
			<rect x="6.5" y="34.6" class="st5" width="0.5" height="21"/>
			<rect x="7" y="34.6" class="st6" width="0.5" height="21"/>
			<rect x="7.5" y="34.6" class="st6" width="0.5" height="21"/>
			<rect x="8" y="34.6" class="st7" width="0.5" height="21"/>
			<rect x="8.5" y="34.6" class="st8" width="0.5" height="21"/>
			<rect x="9.1" y="34.6" class="st9" width="0.5" height="21"/>
			<rect x="9.6" y="34.6" class="st9" width="0.5" height="21"/>
			<rect x="10.1" y="34.6" class="st10" width="0.5" height="21"/>
			<rect x="10.6" y="34.6" class="st11" width="0.5" height="21"/>
			<rect x="11.1" y="34.6" class="st12" width="0.5" height="21"/>
			<rect x="11.6" y="34.6" class="st13" width="0.5" height="21"/>
			<rect x="12.2" y="34.6" class="st13" width="0.5" height="21"/>
			<rect x="12.7" y="34.6" class="st14" width="0.5" height="21"/>
			<rect x="13.2" y="34.6" class="st15" width="0.5" height="21"/>
			<rect x="13.7" y="34.6" class="st16" width="0.5" height="21"/>
			<rect x="14.2" y="34.6" class="st16" width="0.5" height="21"/>
			<rect x="14.7" y="34.6" class="st17" width="0.5" height="21"/>
			<rect x="15.3" y="34.6" class="st18" width="0.5" height="21"/>
			<rect x="15.8" y="34.6" class="st19" width="0.5" height="21"/>
			<rect x="16.3" y="34.6" class="st19" width="0.5" height="21"/>
			<rect x="16.8" y="34.6" class="st20" width="0.5" height="21"/>
			<rect x="17.3" y="34.6" class="st21" width="0.5" height="21"/>
			<rect x="17.8" y="34.6" class="st22" width="0.5" height="21"/>
			<rect x="18.4" y="34.6" class="st23" width="0.5" height="21"/>
			<rect x="18.9" y="34.6" class="st24" width="0.5" height="21"/>
			<rect x="19.4" y="34.6" class="st25" width="0.5" height="21"/>
			<rect x="19.9" y="34.6" class="st26" width="0.5" height="21"/>
			<rect x="20.4" y="34.6" class="st27" width="0.5" height="21"/>
			<rect x="20.9" y="34.6" class="st28" width="0.5" height="21"/>
			<rect x="21.5" y="34.6" class="st29" width="0.5" height="21"/>
			<rect x="22" y="34.6" class="st30" width="0.5" height="21"/>
			<rect x="22.5" y="34.6" class="st31" width="0.5" height="21"/>
			<rect x="23" y="34.6" class="st32" width="0.5" height="21"/>
			<rect x="23.5" y="34.6" class="st33" width="0.5" height="21"/>
			<rect x="24" y="34.6" class="st34" width="0.5" height="21"/>
			<rect x="24.6" y="34.6" class="st35" width="0.5" height="21"/>
			<rect x="25.1" y="34.6" class="st36" width="0.5" height="21"/>
			<rect x="25.6" y="34.6" class="st37" width="0.5" height="21"/>
			<rect x="26.1" y="34.6" class="st38" width="0.5" height="21"/>
			<rect x="26.6" y="34.6" class="st39" width="0.5" height="21"/>
			<rect x="27.1" y="34.6" class="st40" width="0.5" height="21"/>
			<rect x="27.7" y="34.6" class="st41" width="0.5" height="21"/>
			<rect x="28.2" y="34.6" class="st42" width="0.5" height="21"/>
			<rect x="28.7" y="34.6" class="st43" width="0.5" height="21"/>
			<rect x="29.2" y="34.6" class="st44" width="0.5" height="21"/>
			<rect x="29.7" y="34.6" class="st44" width="0.5" height="21"/>
			<rect x="30.2" y="34.6" class="st45" width="0.5" height="21"/>
			<rect x="30.8" y="34.6" class="st46" width="0.5" height="21"/>
			<rect x="31.3" y="34.6" class="st47" width="0.5" height="21"/>
			<rect x="31.8" y="34.6" class="st48" width="0.5" height="21"/>
			<rect x="32.3" y="34.6" class="st49" width="0.5" height="21"/>
			<rect x="32.8" y="34.6" class="st50" width="0.5" height="21"/>
			<rect x="33.3" y="34.6" class="st51" width="0.5" height="21"/>
			<rect x="33.9" y="34.6" class="st52" width="0.5" height="21"/>
			<rect x="34.4" y="34.6" class="st53" width="0.5" height="21"/>
			<rect x="34.9" y="34.6" class="st54" width="0.5" height="21"/>
			<rect x="35.4" y="34.6" class="st54" width="0.5" height="21"/>
			<rect x="35.9" y="34.6" class="st55" width="0.5" height="21"/>
			<rect x="36.4" y="34.6" class="st56" width="0.5" height="21"/>
			<rect x="37" y="34.6" class="st57" width="0.5" height="21"/>
			<rect x="37.5" y="34.6" class="st57" width="14.9" height="21"/>
			<rect x="45.6" y="24.5" class="st57" width="7.4" height="2.3"/>
		</g>
	</g>
	<path class="st58" d="M47.4,53.5c-0.1,0.1-0.2,0.2-0.4,0.2C47.2,53.7,47.3,53.6,47.4,53.5c0.1-0.1,0.3-0.2,0.4-0.3
		C47.7,53.3,47.6,53.4,47.4,53.5"/>
	<g>
		<defs>
			<path id="SVGID_00000117677512432279851620000001788403788838194351_" d="M7.8,41L7.8,41c6,8.8,16,14.5,27.4,14.5
				c4.7,0,9.2-1,13.3-2.8c0,0,0,0,0.1-0.1c0.1-0.1,0.2-0.2,0.3-0.3c0.1-0.1,0.2-0.2,0.4-0.3c0.1-0.1,0.2-0.2,0.3-0.3
				c0.1-0.1,0.2-0.2,0.4-0.3c0.1-0.1,0.2-0.2,0.3-0.3l0,0l0.1,0c0.1-0.1,0.2-0.2,0.3-0.3c0.1-0.1,0.2-0.2,0.2-0.2l0.1-0.1l0.1-0.1
				c0.1-0.1,0.2-0.2,0.3-0.2c0.1-0.1,0.2-0.2,0.2-0.2l0.1-0.1l0.1-0.1c0.1-0.1,0.2-0.2,0.2-0.2c0.1-0.1,0.2-0.2,0.2-0.2l0.1-0.1l0,0
				c-5.2,3-11.1,4.6-17.2,4.6c-11.3,0-21.9-5.6-28.3-15c0,0,0,0-0.1-0.1c-0.9-1.4-1.8-2.8-2.4-4.2C5.2,36.6,6.3,38.8,7.8,41
				 M45.6,25.2L45.6,25.2c0,0.8,0.7,1.6,1.7,1.5l5.1-0.4c0.2-0.6,0.4-1.1,0.6-1.7L47.4,25c-0.1,0-0.2,0-0.2,0
				c-0.6,0-1.2-0.2-1.6-0.5L45.6,25.2L45.6,25.2z"/>
		</defs>
		<clipPath id="SVGID_00000170980764560362209470000012919428053642982329_">
			<use xlink:href="#SVGID_00000117677512432279851620000001788403788838194351_"  style="overflow:visible;"/>
		</clipPath>
		<g style="clip-path:url(#SVGID_00000170980764560362209470000012919428053642982329_);">
			<rect x="4.4" y="34.6" class="st1" width="0.5" height="21"/>
			<rect x="4.9" y="34.6" class="st3" width="0.5" height="21"/>
			<rect x="5.4" y="34.6" class="st3" width="0.5" height="21"/>
			<rect x="6" y="34.6" class="st4" width="0.5" height="21"/>
			<rect x="6.5" y="34.6" class="st5" width="0.5" height="21"/>
			<rect x="7" y="34.6" class="st6" width="0.5" height="21"/>
			<rect x="7.5" y="34.6" class="st6" width="0.5" height="21"/>
			<rect x="8" y="34.6" class="st7" width="0.5" height="21"/>
			<rect x="8.5" y="34.6" class="st8" width="0.5" height="21"/>
			<rect x="9.1" y="34.6" class="st9" width="0.5" height="21"/>
			<rect x="9.6" y="34.6" class="st9" width="0.5" height="21"/>
			<rect x="10.1" y="34.6" class="st10" width="0.5" height="21"/>
			<rect x="10.6" y="34.6" class="st11" width="0.5" height="21"/>
			<rect x="11.1" y="34.6" class="st12" width="0.5" height="21"/>
			<rect x="11.6" y="34.6" class="st13" width="0.5" height="21"/>
			<rect x="12.2" y="34.6" class="st13" width="0.5" height="21"/>
			<rect x="12.7" y="34.6" class="st14" width="0.5" height="21"/>
			<rect x="13.2" y="34.6" class="st15" width="0.5" height="21"/>
			<rect x="13.7" y="34.6" class="st16" width="0.5" height="21"/>
			<rect x="14.2" y="34.6" class="st16" width="0.5" height="21"/>
			<rect x="14.7" y="34.6" class="st17" width="0.5" height="21"/>
			<rect x="15.3" y="34.6" class="st18" width="0.5" height="21"/>
			<rect x="15.8" y="34.6" class="st19" width="0.5" height="21"/>
			<rect x="16.3" y="34.6" class="st19" width="0.5" height="21"/>
			<rect x="16.8" y="34.6" class="st20" width="0.5" height="21"/>
			<rect x="17.3" y="34.6" class="st21" width="0.5" height="21"/>
			<rect x="17.8" y="34.6" class="st22" width="0.5" height="21"/>
			<rect x="18.4" y="34.6" class="st23" width="0.5" height="21"/>
			<rect x="18.9" y="34.6" class="st24" width="0.5" height="21"/>
			<rect x="19.4" y="34.6" class="st25" width="0.5" height="21"/>
			<rect x="19.9" y="34.6" class="st26" width="0.5" height="21"/>
			<rect x="20.4" y="34.6" class="st27" width="0.5" height="21"/>
			<rect x="20.9" y="34.6" class="st28" width="0.5" height="21"/>
			<rect x="21.5" y="34.6" class="st29" width="0.5" height="21"/>
			<rect x="22" y="34.6" class="st30" width="0.5" height="21"/>
			<rect x="22.5" y="34.6" class="st31" width="0.5" height="21"/>
			<rect x="23" y="34.6" class="st32" width="0.5" height="21"/>
			<rect x="23.5" y="34.6" class="st33" width="0.5" height="21"/>
			<rect x="24" y="34.6" class="st34" width="0.5" height="21"/>
			<rect x="24.6" y="34.6" class="st35" width="0.5" height="21"/>
			<rect x="25.1" y="34.6" class="st36" width="0.5" height="21"/>
			<rect x="25.6" y="34.6" class="st37" width="0.5" height="21"/>
			<rect x="26.1" y="34.6" class="st38" width="0.5" height="21"/>
			<rect x="26.6" y="34.6" class="st39" width="0.5" height="21"/>
			<rect x="27.1" y="34.6" class="st40" width="0.5" height="21"/>
			<rect x="27.7" y="34.6" class="st41" width="0.5" height="21"/>
			<rect x="28.2" y="34.6" class="st42" width="0.5" height="21"/>
			<rect x="28.7" y="34.6" class="st43" width="0.5" height="21"/>
			<rect x="29.2" y="34.6" class="st44" width="0.5" height="21"/>
			<rect x="29.7" y="34.6" class="st44" width="0.5" height="21"/>
			<rect x="30.2" y="34.6" class="st45" width="0.5" height="21"/>
			<rect x="30.8" y="34.6" class="st46" width="0.5" height="21"/>
			<rect x="31.3" y="34.6" class="st47" width="0.5" height="21"/>
			<rect x="31.8" y="34.6" class="st48" width="0.5" height="21"/>
			<rect x="32.3" y="34.6" class="st49" width="0.5" height="21"/>
			<rect x="32.8" y="34.6" class="st50" width="0.5" height="21"/>
			<rect x="33.3" y="34.6" class="st51" width="0.5" height="21"/>
			<rect x="33.9" y="34.6" class="st52" width="0.5" height="21"/>
			<rect x="34.4" y="34.6" class="st53" width="0.5" height="21"/>
			<rect x="34.9" y="34.6" class="st54" width="0.5" height="21"/>
			<rect x="35.4" y="34.6" class="st54" width="0.5" height="21"/>
			<rect x="35.9" y="34.6" class="st55" width="0.5" height="21"/>
			<rect x="36.4" y="34.6" class="st56" width="0.5" height="21"/>
			<rect x="37" y="34.6" class="st57" width="0.5" height="21"/>
			<rect x="37.5" y="34.6" class="st57" width="14.9" height="21"/>
			<rect x="45.6" y="24.5" class="st57" width="7.4" height="2.3"/>
		</g>
	</g>
	<g>
		<g>
			<path class="st58" d="M47.4,53.5c-0.1,0.1-0.2,0.2-0.4,0.2C47.2,53.7,47.3,53.6,47.4,53.5c0.1-0.1,0.3-0.2,0.4-0.3
				C47.7,53.3,47.6,53.4,47.4,53.5"/>
		</g>
	</g>
</g>
</svg>
