<?xml version="1.0" encoding="UTF-8"?>
<svg id="Capa_2" data-name="Capa 2" xmlns="http://www.w3.org/2000/svg" xmlns:xlink="http://www.w3.org/1999/xlink" viewBox="0 0 205.05 76.2">
  <defs>
    <style>
      .cls-1 {
        fill: #dea600;
      }

      .cls-2 {
        clip-path: url(#clippath-4);
      }

      .cls-2, .cls-3, .cls-4, .cls-5, .cls-6, .cls-7, .cls-8 {
        fill: none;
      }

      .cls-9 {
        fill: #dfa700;
      }

      .cls-10 {
        fill: #d8a200;
      }

      .cls-11 {
        fill: #e5aa00;
      }

      .cls-3 {
        clip-path: url(#clippath-2);
      }

      .cls-12 {
        fill: #fff;
      }

      .cls-13 {
        fill: #f3b400;
      }

      .cls-14 {
        fill: #cb9900;
      }

      .cls-15 {
        fill: #d09c00;
      }

      .cls-16 {
        fill: #e6ab00;
      }

      .cls-17 {
        fill: #f8b800;
      }

      .cls-18 {
        fill: #ecaf00;
      }

      .cls-19 {
        fill: #f0b200;
      }

      .cls-20 {
        fill: #ce9b00;
      }

      .cls-21 {
        fill: #f5b600;
      }

      .cls-22 {
        fill: #f1b300;
      }

      .cls-23 {
        fill: #e2a800;
      }

      .cls-24 {
        fill: #d6a000;
      }

      .cls-25 {
        fill: #cd9a00;
      }

      .cls-26 {
        fill: #e1a800;
      }

      .cls-27 {
        fill: #dfa600;
      }

      .cls-28 {
        fill: #e8ad00;
      }

      .cls-29 {
        fill: #e4aa00;
      }

      .cls-30 {
        fill: #e0a700;
      }

      .cls-31 {
        fill: #d9a200;
      }

      .cls-32 {
        fill: #dba400;
      }

      .cls-33 {
        fill: #f2b300;
      }

      .cls-4 {
        clip-path: url(#clippath-5);
      }

      .cls-34 {
        fill: #d49f00;
      }

      .cls-35 {
        fill: #c90;
      }

      .cls-36 {
        fill: #ca9800;
      }

      .cls-37 {
        fill: #daa300;
      }

      .cls-38 {
        fill: #eeb100;
      }

      .cls-39 {
        fill: #f4b500;
      }

      .cls-40 {
        fill: #edb000;
      }

      .cls-41 {
        fill: #fab900;
      }

      .cls-5 {
        clip-path: url(#clippath-3);
      }

      .cls-42 {
        fill: #f6b600;
      }

      .cls-43 {
        fill: #fbba00;
      }

      .cls-44 {
        fill: #efb100;
      }

      .cls-45 {
        fill: #d29e00;
      }

      .cls-46 {
        fill: #f7b700;
      }

      .cls-47 {
        fill: #d8a100;
      }

      .cls-48 {
        fill: #22384b;
      }

      .cls-49 {
        fill: #d19d00;
      }

      .cls-50 {
        fill: #f9b800;
      }

      .cls-7 {
        clip-path: url(#clippath);
      }

      .cls-51 {
        fill: #e6ac00;
      }

      .cls-52 {
        fill: #e7ac00;
      }

      .cls-53 {
        fill: #eaae00;
      }

      .cls-8 {
        clip-path: url(#clippath-1);
      }

      .cls-54 {
        fill: #cf9b00;
      }

      .cls-55 {
        fill: #e2a900;
      }

      .cls-56 {
        fill: #e9ad00;
      }

      .cls-57 {
        fill: #dda500;
      }

      .cls-58 {
        fill: #d7a100;
      }

      .cls-59 {
        fill: #d29d00;
      }

      .cls-60 {
        fill: #d39e00;
      }

      .cls-61 {
        fill: #d59f00;
      }

      .cls-62 {
        fill: #e3a900;
      }

      .cls-63 {
        fill: #dca500;
      }

      .cls-64 {
        fill: #ebaf00;
      }

      .cls-65 {
        fill: #dca400;
      }
    </style>
    <clipPath id="clippath">
      <rect class="cls-6" x="0" width="205.05" height="76.2"/>
    </clipPath>
    <clipPath id="clippath-1">
      <rect class="cls-6" x="0" width="205.05" height="76.2"/>
    </clipPath>
    <clipPath id="clippath-2">
      <path class="cls-6" d="m7.79,41.03h0c5.96,8.76,16,14.52,27.36,14.52,4.74,0,9.25-1.01,13.33-2.82.03-.02.05-.04.08-.06.12-.09.23-.18.35-.27.13-.1.25-.2.38-.3.12-.09.23-.19.34-.28.12-.1.25-.21.37-.31.11-.09.21-.18.31-.28l.02-.02.06-.05c.1-.09.2-.18.3-.27.08-.08.17-.16.25-.24l.08-.07.09-.08c.09-.08.17-.16.26-.25.08-.08.16-.16.23-.23l.09-.09.1-.1c.08-.08.16-.16.23-.24.08-.08.15-.16.22-.24l.1-.11s0,0,0,0c-5.19,3-11.13,4.62-17.16,4.62-11.31,0-21.89-5.6-28.3-14.97-.02-.02-.04-.05-.05-.07-.95-1.41-1.75-2.82-2.44-4.22.78,2.04,1.88,4.19,3.39,6.43m37.77-15.84h0c.03.84.73,1.62,1.71,1.54l5.07-.38c.22-.56.42-1.14.59-1.72l-5.54.41c-.07,0-.15,0-.22,0-.6,0-1.16-.19-1.62-.53v.67Z"/>
    </clipPath>
    <clipPath id="clippath-3">
      <rect class="cls-6" x="0" width="205.05" height="76.2"/>
    </clipPath>
    <clipPath id="clippath-4">
      <path class="cls-6" d="m7.79,41.03h0c5.96,8.76,16,14.52,27.36,14.52,4.74,0,9.25-1.01,13.33-2.82.03-.02.05-.04.08-.06.12-.09.23-.18.35-.27.13-.1.25-.2.38-.3.12-.09.23-.19.34-.28.12-.1.25-.21.37-.31.11-.09.21-.18.31-.28l.02-.02.06-.05c.1-.09.2-.18.3-.27.08-.08.17-.16.25-.24l.08-.07.09-.08c.09-.08.17-.16.26-.25.08-.08.16-.16.23-.23l.09-.09.1-.1c.08-.08.16-.16.23-.24.08-.08.15-.16.22-.24l.1-.11s0,0,0,0c-5.19,3-11.13,4.62-17.16,4.62-11.31,0-21.89-5.6-28.3-14.97-.02-.02-.04-.05-.05-.07-.95-1.41-1.75-2.82-2.44-4.22.78,2.04,1.88,4.19,3.39,6.43m37.77-15.84h0c.03.84.73,1.62,1.71,1.54l5.07-.38c.22-.56.42-1.14.59-1.72l-5.54.41c-.07,0-.15,0-.22,0-.6,0-1.16-.19-1.62-.53v.67Z"/>
    </clipPath>
    <clipPath id="clippath-5">
      <rect class="cls-6" x="0" width="205.05" height="76.2"/>
    </clipPath>
  </defs>
  <g id="inicio">
    <g id="Ilustración_4" data-name="Ilustración 4">
      <g class="cls-7">
        <g class="cls-8">
          <path class="cls-43" d="m47.18,25.06c-1.05,0-1.99-.58-2.47-1.52-.52-1.02-.38-2.19.36-3.06l8.03-9.42s-.05-.06-.08-.08l-.13-.16c-.07-.08-.14-.16-.21-.24-.27-.3-.55-.6-.87-.93-.02-.03-.05-.05-.07-.08-.02-.02-.03-.04-.05-.05-1.05-1.06-2.19-2.05-3.4-2.94l-.03-.02c-.39-.28-.78-.56-1.18-.82l-.03-.02-.04-.03c-.39-.26-.79-.5-1.17-.73l-.11-.06c-.39-.23-.79-.45-1.18-.65l-.1-.05h-.03c-.39-.22-.8-.41-1.2-.6l-.15-.06c-.39-.18-.8-.35-1.21-.52l-.07-.03-.09-.04c-.39-.15-.8-.3-1.23-.45l-.08-.03-.09-.03c-.4-.13-.81-.26-1.25-.39l-.09-.03-.07-.02c-.43-.12-.88-.24-1.34-.34l-.06-.02h-.03c-.94-.21-1.9-.38-2.86-.49-9.85.31-17.86,8.57-17.86,18.43s8.27,18.45,18.45,18.45c8.21,0,15.51-5.57,17.74-13.39l-5.54.41c-.07,0-.14,0-.21,0m-11.99,28.81c-11.31,0-21.89-5.59-28.3-14.97-.02-.03-.04-.05-.05-.08-2.2-3.28-3.69-6.53-4.46-9.72,0,.14,0,.27,0,.41v.11s0,.07,0,.11c0,7.67,3,14.89,8.45,20.34,5.45,5.44,12.68,8.44,20.36,8.44.06,0,.11,0,.17,0h.19c.2,0,.4,0,.59-.01.09,0,.19,0,.28-.01h.15s.11-.01.11-.01c.13,0,.27,0,.4-.02l.32-.03h.13s.08-.02.08-.02c.14,0,.28-.02.41-.04.12-.01.24-.03.36-.04h.09s.03-.01.03-.01c.15-.02.3-.04.45-.05.15-.02.29-.04.44-.06h.02c.16-.03.32-.05.47-.08.16-.03.31-.05.46-.08.15-.03.31-.05.46-.08.16-.03.31-.06.46-.1.15-.03.3-.07.45-.1.15-.04.31-.07.46-.11.15-.04.3-.08.45-.12.15-.04.3-.08.45-.12.14-.04.28-.08.44-.13h.03c.14-.05.28-.09.42-.14.12-.04.24-.08.36-.12l.08-.03.09-.03c.12-.04.24-.08.35-.12.11-.04.22-.08.32-.12l.1-.04.12-.04c.11-.04.21-.08.32-.12.1-.04.2-.08.3-.12l.13-.05.13-.05c.1-.04.2-.08.3-.12.1-.04.19-.08.29-.13l.14-.06c.27-.12.55-.25.82-.39l.12-.06c.09-.04.18-.08.27-.13.1-.05.2-.11.31-.16l.12-.07.12-.06c.09-.04.18-.09.27-.14l.33-.19.08-.05.08-.04c.1-.06.2-.12.31-.18.12-.07.24-.15.37-.22l.04-.03.04-.03c.11-.07.22-.14.33-.2.13-.09.27-.18.4-.27.12-.08.24-.16.36-.24.13-.09.27-.19.4-.28l.36-.25c.13-.1.26-.19.39-.29.12-.09.24-.18.35-.27.12-.1.25-.2.38-.3.12-.09.23-.19.34-.28.12-.1.24-.2.37-.31.1-.09.21-.18.31-.28l.02-.02.06-.05c.1-.09.2-.18.3-.27.08-.08.17-.16.25-.24l.08-.07.09-.08c.08-.08.17-.16.26-.24l.23-.23.09-.09.1-.1c.08-.08.16-.16.24-.24.08-.08.15-.16.22-.24l.1-.11h0c-5.19,3-11.13,4.61-17.16,4.61"/>
          <path class="cls-48" d="m75.34,27.16c-.06.06-.16.12-.28.12-.05,0-.11-.01-.16-.04l-6.67-2.83c-.15-.06-.3-.09-.46-.09-.2,0-.4.05-.57.14-.32.17-.53.48-.6.83-1.22,6.73-4.68,13.02-9.75,17.71h-.01s0,.02,0,.02h0s-.13.12-.13.12c-5.9,5.38-13.53,8.35-21.49,8.35-10.55,0-20.42-5.23-26.38-14-.01-.02-.03-.04-.04-.06-11.18-16.75.65-27.63,6.25-31.53l.05-.04.04-.03.06-.04.13-.09h0c.82-.56,1.38-.88,1.52-.96.02,0,.04-.02.06-.03,2.38-1.36,4.94-2.37,7.61-3-1.53.92-2.95,2.04-4.21,3.34-3.81,3.92-5.91,9.07-5.91,14.52,0,11.48,9.34,20.83,20.82,20.83,9.95,0,18.55-7.09,20.44-16.85.07-.36-.03-.74-.28-1.01-.23-.25-.55-.4-.89-.4-.03,0-.06,0-.09,0l-7.16.53s-.02,0-.03,0c-.21,0-.32-.14-.36-.22-.04-.07-.11-.26.05-.45l8.68-10.19,9.06-10.63c.08-.09.19-.14.3-.14.02,0,.04,0,.07,0,.14.02.25.12.31.25l10.12,25.41c.09.22-.04.38-.09.44"/>
        </g>
        <g class="cls-3">
          <rect class="cls-43" x="4.41" y="34.6" width=".52" height="20.95"/>
          <rect class="cls-41" x="4.92" y="34.6" width=".52" height="20.95"/>
          <rect class="cls-41" x="5.44" y="34.6" width=".52" height="20.95"/>
          <rect class="cls-50" x="5.96" y="34.6" width=".52" height="20.95"/>
          <rect class="cls-17" x="6.47" y="34.6" width=".52" height="20.95"/>
          <rect class="cls-46" x="6.99" y="34.6" width=".52" height="20.95"/>
          <rect class="cls-46" x="7.51" y="34.6" width=".52" height="20.95"/>
          <rect class="cls-42" x="8.02" y="34.6" width=".52" height="20.95"/>
          <rect class="cls-21" x="8.54" y="34.6" width=".52" height="20.95"/>
          <rect class="cls-39" x="9.06" y="34.6" width=".52" height="20.95"/>
          <rect class="cls-39" x="9.57" y="34.6" width=".52" height="20.95"/>
          <rect class="cls-13" x="10.09" y="34.6" width=".52" height="20.95"/>
          <rect class="cls-33" x="10.61" y="34.6" width=".52" height="20.95"/>
          <rect class="cls-22" x="11.12" y="34.6" width=".52" height="20.95"/>
          <rect class="cls-19" x="11.64" y="34.6" width=".52" height="20.95"/>
          <rect class="cls-19" x="12.16" y="34.6" width=".52" height="20.95"/>
          <rect class="cls-44" x="12.67" y="34.6" width=".52" height="20.95"/>
          <rect class="cls-38" x="13.19" y="34.6" width=".52" height="20.95"/>
          <rect class="cls-40" x="13.71" y="34.6" width=".52" height="20.95"/>
          <rect class="cls-40" x="14.22" y="34.6" width=".52" height="20.95"/>
          <rect class="cls-18" x="14.74" y="34.6" width=".52" height="20.95"/>
          <rect class="cls-64" x="15.26" y="34.6" width=".52" height="20.95"/>
          <rect class="cls-53" x="15.77" y="34.6" width=".52" height="20.95"/>
          <rect class="cls-53" x="16.29" y="34.6" width=".52" height="20.95"/>
          <rect class="cls-56" x="16.81" y="34.6" width=".52" height="20.95"/>
          <rect class="cls-28" x="17.32" y="34.6" width=".52" height="20.95"/>
          <rect class="cls-52" x="17.84" y="34.6" width=".52" height="20.95"/>
          <rect class="cls-51" x="18.36" y="34.6" width=".52" height="20.95"/>
          <rect class="cls-16" x="18.87" y="34.6" width=".52" height="20.95"/>
          <rect class="cls-11" x="19.39" y="34.6" width=".52" height="20.95"/>
          <rect class="cls-29" x="19.91" y="34.6" width=".52" height="20.95"/>
          <rect class="cls-62" x="20.42" y="34.6" width=".52" height="20.95"/>
          <rect class="cls-55" x="20.94" y="34.6" width=".52" height="20.95"/>
          <rect class="cls-23" x="21.46" y="34.6" width=".52" height="20.95"/>
          <rect class="cls-26" x="21.97" y="34.6" width=".52" height="20.95"/>
          <rect class="cls-30" x="22.49" y="34.6" width=".52" height="20.95"/>
          <rect class="cls-9" x="23.01" y="34.6" width=".52" height="20.95"/>
          <rect class="cls-27" x="23.52" y="34.6" width=".52" height="20.95"/>
          <rect class="cls-1" x="24.04" y="34.6" width=".52" height="20.95"/>
          <rect class="cls-57" x="24.56" y="34.6" width=".52" height="20.95"/>
          <rect class="cls-63" x="25.07" y="34.6" width=".52" height="20.95"/>
          <rect class="cls-65" x="25.59" y="34.6" width=".52" height="20.95"/>
          <rect class="cls-32" x="26.11" y="34.6" width=".52" height="20.95"/>
          <rect class="cls-37" x="26.62" y="34.6" width=".52" height="20.95"/>
          <rect class="cls-31" x="27.14" y="34.6" width=".52" height="20.95"/>
          <rect class="cls-10" x="27.66" y="34.6" width=".52" height="20.95"/>
          <rect class="cls-47" x="28.17" y="34.6" width=".52" height="20.95"/>
          <rect class="cls-58" x="28.69" y="34.6" width=".52" height="20.95"/>
          <rect class="cls-24" x="29.21" y="34.6" width=".52" height="20.95"/>
          <rect class="cls-24" x="29.72" y="34.6" width=".52" height="20.95"/>
          <rect class="cls-61" x="30.24" y="34.6" width=".52" height="20.95"/>
          <rect class="cls-34" x="30.76" y="34.6" width=".52" height="20.95"/>
          <rect class="cls-60" x="31.27" y="34.6" width=".52" height="20.95"/>
          <rect class="cls-45" x="31.79" y="34.6" width=".52" height="20.95"/>
          <rect class="cls-59" x="32.31" y="34.6" width=".52" height="20.95"/>
          <rect class="cls-49" x="32.82" y="34.6" width=".52" height="20.95"/>
          <rect class="cls-15" x="33.34" y="34.6" width=".52" height="20.95"/>
          <rect class="cls-54" x="33.86" y="34.6" width=".52" height="20.95"/>
          <rect class="cls-20" x="34.37" y="34.6" width=".52" height="20.95"/>
          <rect class="cls-25" x="34.89" y="34.6" width=".52" height="20.95"/>
          <rect class="cls-25" x="35.41" y="34.6" width=".52" height="20.95"/>
          <rect class="cls-35" x="35.92" y="34.6" width=".52" height="20.95"/>
          <rect class="cls-14" x="36.44" y="34.6" width=".52" height="20.95"/>
          <rect class="cls-36" x="36.96" y="34.6" width=".52" height="20.95"/>
          <rect class="cls-36" x="37.47" y="34.6" width="14.88" height="20.95"/>
          <rect class="cls-36" x="45.56" y="24.52" width="7.38" height="2.29"/>
        </g>
        <g class="cls-5">
          <path class="cls-12" d="m47.42,53.49c-.12.08-.24.16-.36.24.12-.08.24-.16.36-.24.13-.09.27-.19.4-.28-.13.09-.26.19-.4.28"/>
          <path class="cls-48" d="m204.05.2h-41.79c-.55,0-1,.45-1,1v10.22c-5.05-6.68-13.63-11.22-23.66-11.22-16.76,0-29.86,13.18-29.86,29.7s12.86,29.54,30.75,29.54c15.95,0,28.07-10.58,28.07-27.99v-4.88h-27.56c-.56,0-1.01.45-1.01,1.01v9.39c0,.55.45,1,1.01,1h14.21c-2.03,5.45-7,8.79-14.56,8.79-11.07,0-17.9-7.08-17.9-16.76s7.16-17.08,16.76-17.08c6.43,0,11.55,2.93,13.91,6.67l11.07-6.35s-.02-.04-.03-.05h13.95v44.98c0,.55.45,1,1,1h11.47c.56,0,1.01-.45,1.01-1V13.17h14.16c.55,0,1-.45,1-1.01V1.21c0-.56-.45-1-1-1m-1.95,14.44c-1.27,0-2.31,1.03-2.31,2.31s1.04,2.31,2.31,2.31,2.31-1.03,2.31-2.31-1.03-2.31-2.31-2.31m1.28,3.51l-.48-.86c-.07-.11-.1-.16-.1-.16h0c.27-.14.4-.45.4-.74,0-.39-.19-.66-.49-.78-.12-.04-.25-.07-.52-.07h-.93v2.68h.65v-.9h.31l.48.9h.61c-.32.29-.74.47-1.2.47-.97,0-1.76-.79-1.76-1.76s.79-1.76,1.76-1.76,1.76.79,1.76,1.76c0,.47-.18.89-.48,1.21m-.85-1.72c0,.21-.13.33-.34.33h-.28v-.65h.22c.33,0,.4.12.4.32M98.46,0h-11.58c-.56,0-1.01.45-1.01,1v57.43c0,.55.45,1,1.01,1h11.58c.55,0,1-.45,1-1V1c0-.55-.45-1-1-1"/>
          <polygon class="cls-48" points="1.7 65.03 0 73.76 2.14 73.76 3.83 65.03 1.7 65.03"/>
          <path class="cls-48" d="m12.71,67.33c-.89,0-1.7.54-2.1,1.06h-.02c-.22-.71-.81-1.06-1.67-1.06-.91,0-1.56.65-1.9,1.09h-.02s.08-.26.12-.45l.1-.49h-2.04l-1.22,6.28h2.11l.51-2.6c.2-1.01.78-1.92,1.53-1.92.3,0,.41.2.41.49,0,.1,0,.17-.04.36l-.72,3.66h2.11l.51-2.6c.2-1.01.76-1.92,1.53-1.92.3,0,.41.2.41.49,0,.1,0,.17-.04.36l-.72,3.66h2.11l.73-3.83c.06-.33.1-.62.1-.88,0-1.25-.72-1.72-1.79-1.72"/>
          <path class="cls-48" d="m19.99,67.33c-.74,0-1.45.33-1.89.87h-.03s.07-.2.11-.4l.06-.32h-1.9l-1.69,8.72h2.1l.46-2.42c.06-.32.08-.53.08-.53h.03c.41.45,1.01.66,1.65.66,1.72,0,3.44-1.56,3.44-3.84,0-1.66-.92-2.73-2.43-2.73m-1.28,4.83c-.69,0-.98-.5-.98-1.11,0-1.23.93-1.94,1.58-1.94.61,0,.97.43.97,1.11,0,1.23-.84,1.94-1.57,1.94"/>
          <path class="cls-48" d="m26.92,67.33c-1.96,0-3.92,1.55-3.92,3.76,0,1.72,1.37,2.82,3.26,2.82s3.92-1.54,3.92-3.76c0-1.71-1.37-2.82-3.26-2.82m-.62,4.82c-.67,0-1.16-.43-1.16-1.16,0-1.14.93-1.9,1.76-1.9.66,0,1.14.45,1.14,1.19,0,1.15-.9,1.87-1.74,1.87"/>
          <path class="cls-48" d="m35.77,67.37c-.89,0-1.78.71-2.18,1.56h-.01s.06-.18.1-.39l.2-1.06h-2.02l-1.22,6.28h2.11l.42-2.14c.33-1.7,1.52-2.2,2.16-2.2.26,0,.41.04.41.04l.4-2.07s-.16-.03-.37-.03"/>
          <path class="cls-48" d="m39.14,69.23h1.33l.32-1.65h-1.33l.35-1.8h-2.02l-.35,1.8h-.87l-.32,1.65h.79l-.41,2.09c-.04.17-.06.34-.06.49,0,1.45,1.16,2.02,2.54,2.02.24,0,.56-.04.56-.04l.36-1.83s-.15.01-.33.01c-.46,0-.93-.1-.93-.61,0-.06.01-.22.04-.33l.34-1.79Z"/>
          <path class="cls-48" d="m44.51,67.33c-1.39,0-2.68.69-2.68.69l.45,1.59s1.03-.57,1.82-.57c.5,0,.79.16.79.57,0,.04-.01.15-.02.23h-.08c-1.61,0-4.04.53-4.04,2.44,0,1.06.9,1.62,1.84,1.62,1.17,0,1.86-.92,1.86-.92h.02s-.07.18-.11.39l-.08.38h1.93l.73-3.82c.04-.22.06-.43.06-.61,0-1.59-1.42-2-2.49-2m.11,3.85c-.1.51-.69,1.11-1.25,1.11-.35,0-.51-.17-.51-.4,0-.74,1.13-.84,1.58-.84h.2l-.02.13Z"/>
          <path class="cls-48" d="m53.49,65.03l-.5,2.58c-.02.12-.04.28-.04.28h-.03c-.35-.43-1.06-.56-1.58-.56-1.86,0-3.52,1.55-3.52,3.88,0,1.63.9,2.7,2.44,2.7.71,0,1.38-.34,1.81-.92h.02s-.04.16-.07.36l-.08.41h1.98l1.7-8.73h-2.11Zm-2.55,7.13c-.61,0-.99-.43-.99-1.11,0-1.23.85-1.94,1.58-1.94s.97.51.97,1.11c0,1.18-.89,1.94-1.56,1.94"/>
          <path class="cls-48" d="m59.5,67.33c-1.96,0-3.92,1.55-3.92,3.76,0,1.72,1.37,2.82,3.26,2.82s3.92-1.54,3.92-3.76c0-1.71-1.37-2.82-3.26-2.82m-.62,4.82c-.67,0-1.16-.43-1.16-1.16,0-1.14.93-1.9,1.76-1.9.66,0,1.14.45,1.14,1.19,0,1.15-.9,1.87-1.74,1.87"/>
          <path class="cls-48" d="m68.34,67.37c-.89,0-1.78.71-2.19,1.56h0s.06-.18.1-.39l.2-1.06h-2.02l-1.22,6.28h2.11l.42-2.14c.32-1.7,1.52-2.2,2.16-2.2.25,0,.41.04.41.04l.4-2.07s-.16-.03-.36-.03"/>
          <path class="cls-48" d="m72.08,67.33c-1.39,0-2.69.69-2.69.69l.45,1.59s1.02-.57,1.82-.57c.5,0,.8.16.8.57,0,.04-.01.15-.03.23h-.08c-1.61,0-4.04.53-4.04,2.44,0,1.06.9,1.62,1.84,1.62,1.17,0,1.86-.92,1.86-.92h.03s-.08.18-.11.39l-.08.38h1.93l.73-3.82c.04-.22.06-.43.06-.61,0-1.59-1.43-2-2.49-2m.11,3.85c-.1.51-.69,1.11-1.25,1.11-.35,0-.51-.17-.51-.4,0-.74,1.13-.84,1.59-.84h.2l-.03.13Z"/>
          <polygon class="cls-48" points="85.16 66.87 85.52 65.03 80.06 65.03 78.35 73.76 83.99 73.76 84.35 71.93 80.85 71.93 81.16 70.28 83.81 70.28 84.17 68.45 81.53 68.45 81.83 66.87 85.16 66.87"/>
          <path class="cls-48" d="m87.77,71.56c0-.11.02-.32.06-.48l1.17-6.05h-2.11l-1.22,6.29c-.06.29-.08.55-.08.77,0,1.32.88,1.74,1.99,1.74.29,0,.57-.04.57-.04l.35-1.83s-.12.01-.25.01c-.26,0-.48-.08-.48-.4"/>
          <path class="cls-48" d="m97.62,70.65h1.23l-.13.67s-.86.63-1.89.63c-1.09,0-2.05-.65-2.05-2.05s1-3.06,3.08-3.06c1.29,0,2.07.65,2.07.65l1.23-1.48s-1.11-1.12-3.36-1.12c-3,0-5.26,2.35-5.26,5.16,0,2.47,1.85,3.86,3.77,3.86,1.44,0,2.14-.76,2.14-.76h.02s-.05.18-.08.36l-.05.24h1.78l.97-4.93h-3.12l-.36,1.82Z"/>
          <path class="cls-48" d="m106.64,67.37c-.89,0-1.78.71-2.19,1.56h0s.06-.18.1-.39l.2-1.06h-2.02l-1.22,6.28h2.11l.41-2.14c.33-1.7,1.53-2.2,2.16-2.2.25,0,.41.04.41.04l.4-2.07s-.16-.03-.36-.03"/>
          <path class="cls-48" d="m110.38,67.33c-1.39,0-2.69.69-2.69.69l.45,1.59s1.02-.57,1.82-.57c.5,0,.8.16.8.57,0,.04-.01.15-.03.23h-.08c-1.61,0-4.04.53-4.04,2.44,0,1.06.9,1.62,1.84,1.62,1.17,0,1.86-.92,1.86-.92h.03s-.08.18-.11.39l-.08.38h1.93l.73-3.82c.04-.22.06-.43.06-.61,0-1.59-1.43-2-2.49-2m.11,3.85c-.1.51-.69,1.11-1.25,1.11-.35,0-.51-.17-.51-.4,0-.74,1.13-.84,1.59-.84h.2l-.03.13Z"/>
          <path class="cls-48" d="m118.7,67.33c-.87,0-1.74.53-2.1,1.09h-.02s.1-.31.16-.62l.06-.32h-2.04l-1.22,6.28h2.11l.54-2.78c.17-.92.88-1.74,1.71-1.74.38,0,.56.16.56.54,0,.08-.01.22-.04.36l-.71,3.61h2.11l.77-3.96c.05-.25.08-.49.08-.69,0-1.3-.89-1.78-1.98-1.78"/>
          <polygon class="cls-48" points="125.12 65.03 124.77 66.87 127.4 66.87 126.06 73.76 128.19 73.76 129.54 66.87 132.17 66.87 132.53 65.03 125.12 65.03"/>
          <path class="cls-48" d="m135.08,67.33c-1.96,0-3.92,1.55-3.92,3.76,0,1.72,1.37,2.82,3.26,2.82s3.92-1.54,3.92-3.76c0-1.71-1.37-2.82-3.26-2.82m-.62,4.82c-.67,0-1.16-.43-1.16-1.16,0-1.14.93-1.9,1.76-1.9.66,0,1.15.45,1.15,1.19,0,1.15-.9,1.87-1.75,1.87"/>
          <path class="cls-48" d="m143.93,67.37c-.89,0-1.78.71-2.19,1.56h-.01s.06-.18.1-.39l.21-1.06h-2.03l-1.22,6.28h2.11l.41-2.14c.33-1.7,1.53-2.2,2.16-2.2.26,0,.41.04.41.04l.4-2.07s-.16-.03-.36-.03"/>
          <path class="cls-48" d="m149.2,67.33c-.86,0-1.74.53-2.1,1.09h-.03s.1-.31.16-.62l.06-.32h-2.04l-1.22,6.28h2.11l.54-2.78c.17-.92.88-1.74,1.7-1.74.38,0,.57.16.57.54,0,.08-.01.22-.04.36l-.71,3.61h2.11l.77-3.96c.05-.25.09-.49.09-.69,0-1.3-.89-1.78-1.98-1.78"/>
          <path class="cls-48" d="m153.51,65.03l-.32,1.65h2.06l.32-1.65h-2.06Zm-.5,2.44l-1.21,6.28h2.1l1.22-6.28h-2.11Z"/>
          <path class="cls-48" d="m157.94,71.56c0-.11.03-.32.06-.48l1.17-6.05h-2.11l-1.22,6.29c-.06.29-.09.55-.09.77,0,1.32.88,1.74,1.99,1.74.29,0,.57-.04.57-.04l.36-1.83s-.12.01-.26.01c-.26,0-.48-.08-.48-.4"/>
          <path class="cls-48" d="m161.88,71.56c0-.11.02-.32.06-.48l1.17-6.05h-2.11l-1.22,6.29c-.06.29-.08.55-.08.77,0,1.32.88,1.74,1.99,1.74.29,0,.57-.04.57-.04l.35-1.83s-.12.01-.25.01c-.26,0-.48-.08-.48-.4"/>
          <path class="cls-48" d="m167.37,67.33c-1.96,0-3.92,1.55-3.92,3.76,0,1.72,1.37,2.82,3.26,2.82s3.92-1.54,3.92-3.76c0-1.71-1.37-2.82-3.26-2.82m-.62,4.82c-.67,0-1.16-.43-1.16-1.16,0-1.14.93-1.9,1.76-1.9.66,0,1.14.45,1.14,1.19,0,1.15-.9,1.87-1.74,1.87"/>
          <path class="cls-48" d="m177.07,67.61c0-.54.65-.76,1.07-.76,1.1,0,1.86.62,1.86.62l1.15-1.58s-.93-1.01-2.98-1.01c-1.62,0-3.24,1-3.24,2.72,0,2.42,3.26,2.65,3.26,3.56,0,.58-.64.77-1.05.77-1.25,0-2.06-.79-2.06-.79l-1.27,1.51s1.06,1.25,3.29,1.25c1.88,0,3.24-1.23,3.24-2.73,0-2.45-3.28-2.6-3.28-3.56"/>
          <polygon class="cls-48" points="181.4 71.76 181.02 73.76 183.02 73.76 183.4 71.76 181.4 71.76"/>
          <path class="cls-48" d="m198.72,67.61c0-.54.65-.76,1.07-.76,1.1,0,1.87.62,1.87.62l1.14-1.58s-.93-1.01-2.98-1.01c-1.62,0-3.24,1-3.24,2.72,0,2.42,3.26,2.65,3.26,3.56,0,.58-.64.77-1.05.77-1.25,0-2.06-.79-2.06-.79l-1.27,1.51s1.06,1.25,3.29,1.25c1.88,0,3.24-1.23,3.24-2.73,0-2.45-3.28-2.6-3.28-3.56"/>
          <polygon class="cls-48" points="203.05 71.76 202.67 73.76 204.67 73.76 205.05 71.76 203.05 71.76"/>
          <path class="cls-48" d="m190.73,65.03h-2.45l-4.54,8.73h2.28l.88-1.83h2.72l.19,1.83h2.13l-1.21-8.73Zm-3,5.19l.83-1.7c.27-.55.62-1.5.62-1.5h.02s.03.95.08,1.5l.17,1.7h-1.72Z"/>
          <polygon class="cls-48" points="193.01 71.76 192.64 73.76 194.64 73.76 195.02 71.76 193.01 71.76"/>
          <path class="cls-43" d="m47.18,25.06c-1.05,0-1.99-.58-2.47-1.52-.52-1.02-.38-2.19.36-3.06l8.03-9.42s-.05-.06-.08-.08l-.13-.16c-.07-.08-.14-.16-.21-.24-.27-.3-.55-.6-.87-.93-.02-.03-.05-.05-.07-.08-.02-.02-.03-.04-.05-.05-1.05-1.06-2.19-2.05-3.4-2.94l-.03-.02c-.39-.28-.78-.56-1.18-.82l-.03-.02-.04-.03c-.39-.26-.79-.5-1.17-.73l-.11-.06c-.39-.23-.79-.45-1.18-.65l-.1-.05h-.03c-.39-.22-.8-.41-1.2-.6l-.15-.06c-.39-.18-.8-.35-1.21-.52l-.07-.03-.09-.04c-.39-.15-.8-.3-1.23-.45l-.08-.03-.09-.03c-.4-.13-.81-.26-1.25-.39l-.09-.03-.07-.02c-.43-.12-.88-.24-1.34-.34l-.06-.02h-.03c-.94-.21-1.9-.38-2.86-.49-9.85.31-17.86,8.57-17.86,18.43s8.27,18.45,18.45,18.45c8.21,0,15.51-5.57,17.74-13.39l-5.54.41c-.07,0-.14,0-.21,0m-11.99,28.81c-11.31,0-21.89-5.59-28.3-14.97-.02-.03-.04-.05-.05-.08-2.2-3.28-3.69-6.53-4.46-9.72,0,.14,0,.27,0,.41v.11s0,.07,0,.11c0,7.67,3,14.89,8.45,20.34,5.45,5.44,12.68,8.44,20.36,8.44.06,0,.11,0,.17,0h.19c.2,0,.4,0,.59-.01.09,0,.19,0,.28-.01h.15s.11-.01.11-.01c.13,0,.27,0,.4-.02l.32-.03h.13s.08-.02.08-.02c.14,0,.28-.02.41-.04.12-.01.24-.03.36-.04h.09s.03-.01.03-.01c.15-.02.3-.04.45-.05.15-.02.29-.04.44-.06h.02c.16-.03.32-.05.47-.08.16-.03.31-.05.46-.08.15-.03.31-.05.46-.08.16-.03.31-.06.46-.1.15-.03.3-.07.45-.1.15-.04.31-.07.46-.11.15-.04.3-.08.45-.12.15-.04.3-.08.45-.12.14-.04.28-.08.44-.13h.03c.14-.05.28-.09.42-.14.12-.04.24-.08.36-.12l.08-.03.09-.03c.12-.04.24-.08.35-.12.11-.04.22-.08.32-.12l.1-.04.12-.04c.11-.04.21-.08.32-.12.1-.04.2-.08.3-.12l.13-.05.13-.05c.1-.04.2-.08.3-.12.1-.04.19-.08.29-.13l.14-.06c.27-.12.55-.25.82-.39l.12-.06c.09-.04.18-.08.27-.13.1-.05.2-.11.31-.16l.12-.07.12-.06c.09-.04.18-.09.27-.14l.33-.19.08-.05.08-.04c.1-.06.2-.12.31-.18.12-.07.24-.15.37-.22l.04-.03.04-.03c.11-.07.22-.14.33-.2.13-.09.27-.18.4-.27.12-.08.24-.16.36-.24.13-.09.27-.19.4-.28l.36-.25c.13-.1.26-.19.39-.29.12-.09.24-.18.35-.27.12-.1.25-.2.38-.3.12-.09.23-.19.34-.28.12-.1.24-.2.37-.31.1-.09.21-.18.31-.28l.02-.02.06-.05c.1-.09.2-.18.3-.27.08-.08.17-.16.25-.24l.08-.07.09-.08c.08-.08.17-.16.26-.24l.23-.23.09-.09.1-.1c.08-.08.16-.16.24-.24.08-.08.15-.16.22-.24l.1-.11h0c-5.19,3-11.13,4.61-17.16,4.61"/>
          <path class="cls-48" d="m75.34,27.16c-.06.06-.16.12-.28.12-.05,0-.11-.01-.16-.04l-6.67-2.83c-.15-.06-.3-.09-.46-.09-.2,0-.4.05-.57.14-.32.17-.53.48-.6.83-1.22,6.73-4.68,13.02-9.75,17.71h-.01s0,.02,0,.02h0s-.13.12-.13.12c-5.9,5.38-13.53,8.35-21.49,8.35-10.55,0-20.42-5.23-26.38-14-.01-.02-.03-.04-.04-.06-11.18-16.75.65-27.63,6.25-31.53l.05-.04.04-.03.06-.04.13-.09h0c.82-.56,1.38-.88,1.52-.96.02,0,.04-.02.06-.03,2.38-1.36,4.94-2.37,7.61-3-1.53.92-2.95,2.04-4.21,3.34-3.81,3.92-5.91,9.07-5.91,14.52,0,11.48,9.34,20.83,20.82,20.83,9.95,0,18.55-7.09,20.44-16.85.07-.36-.03-.74-.28-1.01-.23-.25-.55-.4-.89-.4-.03,0-.06,0-.09,0l-7.16.53s-.02,0-.03,0c-.21,0-.32-.14-.36-.22-.04-.07-.11-.26.05-.45l8.68-10.19,9.06-10.63c.08-.09.19-.14.3-.14.02,0,.04,0,.07,0,.14.02.25.12.31.25l10.12,25.41c.09.22-.04.38-.09.44"/>
        </g>
        <g class="cls-2">
          <rect class="cls-43" x="4.41" y="34.6" width=".52" height="20.95"/>
          <rect class="cls-41" x="4.92" y="34.6" width=".52" height="20.95"/>
          <rect class="cls-41" x="5.44" y="34.6" width=".52" height="20.95"/>
          <rect class="cls-50" x="5.96" y="34.6" width=".52" height="20.95"/>
          <rect class="cls-17" x="6.47" y="34.6" width=".52" height="20.95"/>
          <rect class="cls-46" x="6.99" y="34.6" width=".52" height="20.95"/>
          <rect class="cls-46" x="7.51" y="34.6" width=".52" height="20.95"/>
          <rect class="cls-42" x="8.02" y="34.6" width=".52" height="20.95"/>
          <rect class="cls-21" x="8.54" y="34.6" width=".52" height="20.95"/>
          <rect class="cls-39" x="9.06" y="34.6" width=".52" height="20.95"/>
          <rect class="cls-39" x="9.57" y="34.6" width=".52" height="20.95"/>
          <rect class="cls-13" x="10.09" y="34.6" width=".52" height="20.95"/>
          <rect class="cls-33" x="10.61" y="34.6" width=".52" height="20.95"/>
          <rect class="cls-22" x="11.12" y="34.6" width=".52" height="20.95"/>
          <rect class="cls-19" x="11.64" y="34.6" width=".52" height="20.95"/>
          <rect class="cls-19" x="12.16" y="34.6" width=".52" height="20.95"/>
          <rect class="cls-44" x="12.67" y="34.6" width=".52" height="20.95"/>
          <rect class="cls-38" x="13.19" y="34.6" width=".52" height="20.95"/>
          <rect class="cls-40" x="13.71" y="34.6" width=".52" height="20.95"/>
          <rect class="cls-40" x="14.22" y="34.6" width=".52" height="20.95"/>
          <rect class="cls-18" x="14.74" y="34.6" width=".52" height="20.95"/>
          <rect class="cls-64" x="15.26" y="34.6" width=".52" height="20.95"/>
          <rect class="cls-53" x="15.77" y="34.6" width=".52" height="20.95"/>
          <rect class="cls-53" x="16.29" y="34.6" width=".52" height="20.95"/>
          <rect class="cls-56" x="16.81" y="34.6" width=".52" height="20.95"/>
          <rect class="cls-28" x="17.32" y="34.6" width=".52" height="20.95"/>
          <rect class="cls-52" x="17.84" y="34.6" width=".52" height="20.95"/>
          <rect class="cls-51" x="18.36" y="34.6" width=".52" height="20.95"/>
          <rect class="cls-16" x="18.87" y="34.6" width=".52" height="20.95"/>
          <rect class="cls-11" x="19.39" y="34.6" width=".52" height="20.95"/>
          <rect class="cls-29" x="19.91" y="34.6" width=".52" height="20.95"/>
          <rect class="cls-62" x="20.42" y="34.6" width=".52" height="20.95"/>
          <rect class="cls-55" x="20.94" y="34.6" width=".52" height="20.95"/>
          <rect class="cls-23" x="21.46" y="34.6" width=".52" height="20.95"/>
          <rect class="cls-26" x="21.97" y="34.6" width=".52" height="20.95"/>
          <rect class="cls-30" x="22.49" y="34.6" width=".52" height="20.95"/>
          <rect class="cls-9" x="23.01" y="34.6" width=".52" height="20.95"/>
          <rect class="cls-27" x="23.52" y="34.6" width=".52" height="20.95"/>
          <rect class="cls-1" x="24.04" y="34.6" width=".52" height="20.95"/>
          <rect class="cls-57" x="24.56" y="34.6" width=".52" height="20.95"/>
          <rect class="cls-63" x="25.07" y="34.6" width=".52" height="20.95"/>
          <rect class="cls-65" x="25.59" y="34.6" width=".52" height="20.95"/>
          <rect class="cls-32" x="26.11" y="34.6" width=".52" height="20.95"/>
          <rect class="cls-37" x="26.62" y="34.6" width=".52" height="20.95"/>
          <rect class="cls-31" x="27.14" y="34.6" width=".52" height="20.95"/>
          <rect class="cls-10" x="27.66" y="34.6" width=".52" height="20.95"/>
          <rect class="cls-47" x="28.17" y="34.6" width=".52" height="20.95"/>
          <rect class="cls-58" x="28.69" y="34.6" width=".52" height="20.95"/>
          <rect class="cls-24" x="29.21" y="34.6" width=".52" height="20.95"/>
          <rect class="cls-24" x="29.72" y="34.6" width=".52" height="20.95"/>
          <rect class="cls-61" x="30.24" y="34.6" width=".52" height="20.95"/>
          <rect class="cls-34" x="30.76" y="34.6" width=".52" height="20.95"/>
          <rect class="cls-60" x="31.27" y="34.6" width=".52" height="20.95"/>
          <rect class="cls-45" x="31.79" y="34.6" width=".52" height="20.95"/>
          <rect class="cls-59" x="32.31" y="34.6" width=".52" height="20.95"/>
          <rect class="cls-49" x="32.82" y="34.6" width=".52" height="20.95"/>
          <rect class="cls-15" x="33.34" y="34.6" width=".52" height="20.95"/>
          <rect class="cls-54" x="33.86" y="34.6" width=".52" height="20.95"/>
          <rect class="cls-20" x="34.37" y="34.6" width=".52" height="20.95"/>
          <rect class="cls-25" x="34.89" y="34.6" width=".52" height="20.95"/>
          <rect class="cls-25" x="35.41" y="34.6" width=".52" height="20.95"/>
          <rect class="cls-35" x="35.92" y="34.6" width=".52" height="20.95"/>
          <rect class="cls-14" x="36.44" y="34.6" width=".52" height="20.95"/>
          <rect class="cls-36" x="36.96" y="34.6" width=".52" height="20.95"/>
          <rect class="cls-36" x="37.47" y="34.6" width="14.88" height="20.95"/>
          <rect class="cls-36" x="45.56" y="24.52" width="7.38" height="2.29"/>
        </g>
        <g class="cls-4">
          <path class="cls-12" d="m47.42,53.49c-.12.08-.24.16-.36.24.12-.08.24-.16.36-.24.13-.09.27-.19.4-.28-.13.09-.26.19-.4.28"/>
        </g>
      </g>
    </g>
  </g>
</svg>