<?xml version="1.0" encoding="UTF-8"?>
<svg id="Capa_2" data-name="Capa 2" xmlns="http://www.w3.org/2000/svg" viewBox="0 0 81.34 57.73">
  <defs>
    <style>
      .cls-1 {
        fill: #ecaa04;
      }
    </style>
  </defs>
  <g id="Capa_1-2" data-name="Capa 1">
    <g>
      <g>
        <path class="cls-1" d="m37.93,23.15c0-1.56-1.27-2.83-2.83-2.83s-2.83,1.27-2.83,2.83,1.27,2.83,2.83,2.83,2.83-1.27,2.83-2.83Zm-4.52,0c0-.94.76-1.7,1.7-1.7s1.7.76,1.7,1.7-.76,1.7-1.7,1.7-1.7-.76-1.7-1.7Z"/>
        <path class="cls-1" d="m46.01,30.05c-3.74,0-6.79,3.04-6.79,6.79s3.04,6.79,6.79,6.79,6.79-3.04,6.79-6.79-3.04-6.79-6.79-6.79h0Zm0,12.44c-3.12,0-5.65-2.54-5.65-5.65s2.54-5.65,5.65-5.65,5.65,2.54,5.65,5.65-2.54,5.65-5.65,5.65Z"/>
        <path class="cls-1" d="m46.01,34.58c-1.25,0-2.26,1.01-2.26,2.26s1.01,2.26,2.26,2.26,2.26-1.01,2.26-2.26-1.01-2.26-2.26-2.26Zm0,3.39c-.62,0-1.13-.51-1.13-1.13s.51-1.13,1.13-1.13,1.13.51,1.13,1.13-.51,1.13-1.13,1.13Z"/>
        <path class="cls-1" d="m32.47,35.5c0-1.01-.82-1.84-1.84-1.84s-1.84.82-1.84,1.84.82,1.84,1.84,1.84,1.84-.82,1.84-1.84Zm-2.54,0c0-.39.32-.71.71-.71s.71.32.71.71-.32.71-.71.71-.71-.32-.71-.71Z"/>
        <path class="cls-1" d="m50.23,28.84l-9.76-8.82c-1.08-1.84-3.08-3.08-5.37-3.08-.98,0-1.93.22-2.8.67-.28.14-.39.48-.25.76.14.28.48.39.76.25.71-.36,1.49-.54,2.29-.54,2.81,0,5.09,2.28,5.09,5.09s-2.28,5.09-5.09,5.09-5.09-2.28-5.09-5.09c0-.33.03-.67.1-.99.06-.31-.14-.6-.45-.66-.31-.06-.6.14-.66.45-.08.4-.12.81-.12,1.21,0,.18,0,.35.02.52l-2.08,9.37c-.46.71-.72,1.55-.72,2.45,0,2.45,1.96,4.45,4.39,4.52l10.16,4.11c1.5,1.1,3.35,1.76,5.35,1.76,4.99,0,9.05-4.06,9.05-9.05,0-3.47-1.96-6.48-4.83-8h0Zm-2.7-.92c-.49-.08-1-.13-1.52-.13-.1,0-.2,0-.3,0l-4.42-3.99c.02-.21.03-.43.03-.65,0-.31-.02-.61-.07-.9l6.27,5.67Zm-6.51-2.84l3.19,2.89c-4.13.84-7.25,4.49-7.25,8.87,0,.78.1,1.53.28,2.25l-2.82-1.14c.46-.71.72-1.55.72-2.45,0-2.45-1.96-4.45-4.39-4.52l.63-2.83c1.04.77,2.32,1.23,3.71,1.23,2.76,0,5.1-1.8,5.91-4.29h0Zm-7.36,13.77l4.08,1.65c.25.56.56,1.09.91,1.59l-6.14-2.49c.42-.19.81-.45,1.15-.76Zm-3.23-11.6l-.85,3.84c-.45.11-.88.29-1.27.52l1.25-5.65c.24.47.53.9.87,1.29Zm-3.19,8.24c0-1.87,1.52-3.39,3.39-3.39s3.39,1.52,3.39,3.39-1.52,3.39-3.39,3.39-3.39-1.52-3.39-3.39Zm18.77,9.26c-4.37,0-7.92-3.55-7.92-7.92s3.55-7.92,7.92-7.92,7.92,3.55,7.92,7.92-3.55,7.92-7.92,7.92Z"/>
        <path class="cls-1" d="m30.6,20.3c.31,0,.57-.25.57-.57s-.25-.57-.57-.57h0c-.31,0-.57.25-.57.57s.25.57.57.57Z"/>
      </g>
      <g>
        <path class="cls-1" d="m80.03,15.74h-7.87c-.73,0-1.31.59-1.31,1.31v6.56h-2.62v-1.31c0-.35-.14-.68-.38-.93l-10.5-10.5c-.25-.25-.58-.38-.93-.38h-9.18v-2.62h7.87c.73,0,1.31-.59,1.31-1.31V1.31c0-.73-.59-1.31-1.31-1.31H20.99c-.73,0-1.31.59-1.31,1.31v5.25c0,.73.59,1.31,1.31,1.31h7.87v2.62h-10.5c-.73,0-1.31.59-1.31,1.31v9.18h-5.25c-.73,0-1.31.59-1.31,1.31v5.25h-2.62v-7.87c0-.73-.59-1.31-1.31-1.31H1.31c-.73,0-1.31.59-1.31,1.31v28.86c0,.73.59,1.31,1.31,1.31h5.25c.73,0,1.31-.59,1.31-1.31v-7.87h2.62v6.56c0,.73.59,1.31,1.31,1.31h9.95l8.8,8.8c.25.25.58.38.93.38h35.42c.73,0,1.31-.59,1.31-1.31v-9.18h2.62v6.56c0,.73.59,1.31,1.31,1.31h7.87c.73,0,1.31-.59,1.31-1.31V17.06c0-.73-.59-1.31-1.31-1.31ZM5.25,47.23h-2.62v-26.24h2.62v26.24Zm2.62-9.18v-7.87h2.62v7.87h-2.62ZM22.3,2.62h31.49v2.62h-31.49v-2.62Zm9.18,5.25h13.12v2.62h-13.12v-2.62Zm34.11,47.23h-33.57l-8.8-8.8c-.25-.25-.58-.38-.93-.38h-9.18v-22.3h5.25c.73,0,1.31-.59,1.31-1.31v-9.18h36.19l9.73,9.73v32.26Zm2.62-10.5v-18.37h2.62v18.37h-2.62Zm10.5,7.87h-5.25V18.37h5.25v34.11Z"/>
        <path class="cls-1" d="m60.35,49.86h2.62v2.62h-2.62v-2.62Z"/>
        <path class="cls-1" d="m32.8,49.86h24.93v2.62h-24.93v-2.62Z"/>
      </g>
    </g>
  </g>
</svg>