<?xml version="1.0" encoding="UTF-8"?>
<svg id="Capa_2" data-name="Capa 2" xmlns="http://www.w3.org/2000/svg" viewBox="0 0 46.81 46.71">
  <defs>
    <style>
      .cls-1 {
        fill: #ecaa04;
      }
    </style>
  </defs>
  <g id="Capa_1-2" data-name="Capa 1">
    <path class="cls-1" d="m41,0H15.82c-3.21,0-5.82,2.61-5.82,5.82v11.02h-5.82c-.98,0-1.78.8-1.78,1.78v2.4c0,.32.26.58.58.58h.17L.94,37.97h-.35c-.32,0-.58.26-.58.58v2.4c0,.98.8,1.78,1.78,1.78h.66v3.39c0,.32.26.58.58.58h16.52c.32,0,.58-.26.58-.58v-1.5h20.87c3.21,0,5.82-2.61,5.82-5.82V5.82C46.81,2.61,44.21,0,41,0h0ZM3.57,18.62c0-.34.28-.62.62-.62h14.21c.34,0,.62.28.62.62v1.82H3.57v-1.82ZM27.83,7.95v2.16h-13.17v-2.16h13.17Zm-13.17-1.16v-.97c0-.64.52-1.16,1.16-1.16h12.01v2.13h-13.17Zm13.17,4.48v2.16h-13.17v-2.16h13.17Zm0,3.32v2.16h-13.17v-2.16h13.17Zm-5.83,23.37h-.35l-.02-.12h6.2v2.13h-5.25v-1.43c0-.32-.26-.58-.58-.58h0Zm-.53-1.28l-.29-2.16h6.66v2.16h-6.36Zm-.45-3.32l-.29-2.16h7.11v2.16h-6.81Zm-.45-3.32l-.29-2.16h7.56v2.16h-7.26Zm-3.25-8.43h.93l2.22,16.36h-1.55l-1.6-16.36Zm.43,16.36h-1.65l-.96-16.36h1.01l1.6,16.36Zm2.37-11.25l-.29-2.16h8.01v2.16h-7.71Zm-.45-3.32l-.24-1.79h.17c.25,0,.46-.15.54-.37h7.69v2.16h-8.16Zm.51-3.32v-1.45c0-.25-.05-.49-.15-.71h7.8v2.16h-7.65Zm-5.24,17.89h-1.69l-.31-16.36h1.04l.96,16.36Zm-2.85,0h-1.58l.31-16.36h.96l.31,16.36Zm-2.44-16.36l-.31,16.36h-1.69l.96-16.36h1.04Zm-2.2,0l-.96,16.36h-1.65l1.6-16.36h1.01Zm-3.11,0h.93l-1.6,16.36h-1.55l2.22-16.36Zm14.64,23.94H3.61v-2.81h15.36v2.81h0Zm-17.19-3.97c-.34,0-.62-.28-.62-.62v-1.82h20.25v1.82c0,.34-.28.62-.62.62H1.78Zm43.87-2.76c0,2.57-2.09,4.65-4.65,4.65h-20.87v-.73h.66c.92,0,1.68-.7,1.77-1.59h18.43c1.28,0,2.33-1.04,2.33-2.33V5.82c0-1.28-1.04-2.33-2.33-2.33H15.82c-1.28,0-2.33,1.04-2.33,2.33v11.02h-2.33V5.82c0-2.57,2.09-4.65,4.65-4.65h25.18c2.57,0,4.65,2.09,4.65,4.65v33h0Zm-3.49-30.87v2.16h-13.17v-2.16h13.17Zm-13.17-1.16v-2.13h12.01c.64,0,1.16.52,1.16,1.16v.97h-13.17Zm13.17,4.48v2.16h-13.17v-2.16h13.17Zm0,3.32v2.16h-13.17v-2.16h13.17Zm0,3.32v2.16h-13.17v-2.16h13.17Zm0,3.32v2.16h-13.17v-2.16h13.17Zm0,3.32v2.16h-13.17v-2.16h13.17Zm0,3.32v2.16h-13.17v-2.16h13.17Zm0,3.32v2.16h-13.17v-2.16h13.17Zm0,3.32v2.16h-13.17v-2.16h13.17Zm0,3.32v.97c0,.64-.52,1.16-1.16,1.16h-12.01v-2.13h13.17Z"/>
  </g>
</svg>