<?xml version="1.0" encoding="UTF-8"?>
<svg id="Capa_2" data-name="Capa 2" xmlns="http://www.w3.org/2000/svg" viewBox="0 0 68.33 68.33">
  <defs>
    <style>
      .cls-1 {
        fill: none;
        stroke: #ecaa04;
        stroke-linecap: round;
        stroke-linejoin: round;
        stroke-width: 1.59px;
      }
    </style>
  </defs>
  <g id="Capa_1-2" data-name="Capa 1">
    <g>
      <polygon class="cls-1" points="39.3 32.08 32.08 39.3 42.11 49.34 49.34 42.11 39.3 32.08 39.3 32.08"/>
      <path class="cls-1" d="m13.07,2.03L2.03,13.07c-.43.43-.43,1.14,0,1.57l25.67,25.67c.43.43,1.14.43,1.57,0l11.04-11.04c.43-.43.43-1.14,0-1.57L14.64,2.03c-.43-.43-1.14-.43-1.57,0h0Z"/>
      <path class="cls-1" d="m4.93,2.09l-2.84,2.84c-1.73,1.73-1.73,4.55,0,6.28L11.21,2.09h0c-1.73-1.73-4.54-1.73-6.28,0h0Z"/>
      <path class="cls-1" d="m8.99,23.4l-1.24,1.24c-.48.48-1.26.48-1.74,0l-3.12-3.12c-.48-.48-.48-1.26,0-1.74l1.24-1.24,4.86,4.86h0Z"/>
      <path class="cls-1" d="m22.14,36.55l-1.24,1.24c-.48.48-1.26.48-1.74,0l-3.12-3.12c-.48-.48-.48-1.26,0-1.74l1.24-1.24,4.86,4.86h0Z"/>
      <path class="cls-1" d="m31.69,17.28l1.24-1.24c.48-.48,1.26-.48,1.74,0l3.12,3.12c.48.48.48,1.26,0,1.74l-1.24,1.24-4.86-4.86h0Z"/>
      <path class="cls-1" d="m18.54,4.14l1.24-1.24c.48-.48,1.26-.48,1.74,0l3.12,3.12c.48.48.48,1.26,0,1.74l-1.24,1.24-4.86-4.86h0Z"/>
      <path class="cls-1" d="m61.69,61.69c-2.68,2.68-7.01,2.68-9.69,0-2.68-2.68-2.68-7.01,0-9.69,2.68-2.68,7.01-2.68,9.69,0,2.68,2.68,2.68,7.01,0,9.69h0Zm-12.4-12.4c-4.17,4.17-4.17,10.94,0,15.12,4.17,4.17,10.94,4.17,15.12,0,4.17-4.17,4.17-10.94,0-15.12-4.17-4.17-10.94-4.17-15.12,0h0Z"/>
      <path class="cls-1" d="m55.29,46.35l-3.31-3.31c-.49-.49-1.28-.49-1.77,0h0l-7.18,7.18c-.49.49-.49,1.28,0,1.77l3.31,3.31"/>
    </g>
  </g>
</svg>