<?xml version="1.0" encoding="UTF-8"?>
<svg id="Capa_2" data-name="Capa 2" xmlns="http://www.w3.org/2000/svg" viewBox="0 0 142.63 127.3">
  <defs>
    <style>
      .cls-1 {
        fill: #fab800;
      }
    </style>
  </defs>
  <g id="inicio">
    <g>
      <path class="cls-1" d="m34.18,31.08c-1.78,1.11-3.57,2.22-5.35,3.33-1.63,1.02-3.36,1.97-4.88,3.14-1.15.88-2.28,2.09-2.31,3.62-.03,1.38.87,2.49,2.06,3.08,1.28.63,2.7.8,4.1.91,2.07.17,4.15.31,6.22.51.93.09,1.8.16,2.59-.43.62-.46,1.03-1.13,1.37-1.81.65-1.32.99-2.76,1.03-4.23.05-1.67-.3-3.3-.97-4.82-.65-1.46-1.71-3-3.09-3.86.1.38.2.75.3,1.13.81-1.46,2.68-2.09,4.27-1.99,1.92.12,3.37,1.46,4.17,3.13,1.68,3.49,1.49,8.38-.9,11.5-.67.87-1.58,1.75-2.7,1.98-.94.19-2-.29-2.22-1.27-.2-.88-1.45-.49-1.32.37.17,1.14,1.16,1.97,2.25,2.23,1.22.29,2.45-.15,3.42-.89,1.95-1.48,3.09-3.9,3.47-6.28.38-2.38.21-4.93-.61-7.21-.79-2.17-2.26-4.17-4.61-4.74-2.43-.58-4.87.34-6.51,2.17-.29.33-.34.84,0,1.17.89.86,1.71,1.66,2.31,2.77.57,1.06.94,2.26,1.1,3.45.15,1.21.08,2.44-.25,3.62-.16.57-.36,1.13-.64,1.65-.16.3-.33.63-.53.91-.28.37-.67.46-1.12.45-1.77-.01-3.56-.29-5.32-.46-1.44-.13-2.92-.18-4.31-.6-1-.3-2.12-.88-2.34-2-.27-1.32.86-2.43,1.8-3.17,1.51-1.18,3.23-2.12,4.84-3.15,1.74-1.12,3.47-2.24,5.21-3.36.53-.34.04-1.19-.5-.85h0Z"/>
      <path class="cls-1" d="m40.81,28.68c-.57-.13.29-.65.43-.73.33-.2.67-.38,1.01-.57.68-.38,1.36-.74,2.07-1.06,1.33-.59,2.77-1.01,4.24-.95,1.26.05,2.56.46,3.49,1.33,1.05.98,1.41,2.39,1.65,3.76.54,3.15,1.01,6.59.38,9.76-.51,2.55-1.85,5.14-4.17,6.45-2.23,1.26-5.31,1.02-6.99-1.02-.56-.67-1.51.29-.96.96,1.88,2.27,5.26,2.57,7.83,1.43,2.88-1.28,4.58-4.36,5.17-7.33.38-1.91.37-3.87.2-5.8-.17-1.85-.37-3.74-.76-5.56-.33-1.55-1.02-2.97-2.36-3.89-1.22-.85-2.8-1.17-4.27-1.09-2.03.11-3.93.98-5.69,1.95-.45.25-.9.51-1.34.78-.34.21-.65.42-.77.82-.15.51.22,1.27.83,1.03.11-.05.15-.23,0-.26h0Z"/>
      <path class="cls-1" d="m21.55,40.62c-.31-.15-.5-.23-.86-.2-.33.03-.65.14-.97.21-.82.21-1.65.41-2.47.64-1.57.45-3.13.89-4.7,1.31-3.07.84-6.16,1.64-9.25,2.43-.75.19-1.51.38-2.27.57-.33.08-.62.13-.82.42-.2.29-.26.69-.19,1.03.27,1.26,1.65,1.6,2.75,1.44,1.56-.22,3.11-.6,4.66-.93,1.58-.34,3.15-.68,4.72-1.05,3.49-.8,6.95-1.7,10.39-2.68.72-.21.41-1.33-.31-1.12-3.64,1.06-7.3,2.02-10.99,2.87-1.85.43-3.7.82-5.56,1.18-.9.17-1.79.35-2.69.5-.39.07-.89.18-1.28.03-.21-.08-.46-.34-.32-.59-.14.11-.27.21-.41.32,3.58-.87,7.14-1.79,10.69-2.77,1.77-.49,3.54-1,5.31-1.52.89-.26,1.76-.54,2.63-.84.4-.14.82-.24,1.2-.43.38-.18.55-.36.75-.71.02-.04.01-.1-.03-.12h0Z"/>
      <path class="cls-1" d="m50.53,25.32c2.07-1.32,4.17-2.59,6.31-3.79,1.07-.6,2.15-1.18,3.24-1.75.48-.25.97-.5,1.46-.75.55-.28,1.19-.7,1.84-.68,1,.04,1.6,1.25,2.04,2,.52.88.98,1.79,1.4,2.72.86,1.94,1.51,3.97,1.97,6.04.89,4.08.93,8.37.16,12.47-.39,2.07-.98,4.09-1.77,6.04-.69,1.69-1.53,3.71-3.18,4.67-1.05.61-2.13.34-3.2-.05-1.2-.43-2.37-.94-3.52-1.49-1.15-.56-2.26-1.17-3.35-1.83-1.11-.67-2.15-1.49-3.3-2.09-.63-.32-1.27.46-.76.99.88.91,2,1.58,3.07,2.23,1.03.63,2.1,1.21,3.19,1.74,1.14.55,2.31,1.06,3.5,1.5,1.1.41,2.23.85,3.42.66,2.03-.31,3.32-2.19,4.17-3.89,1-2.01,1.74-4.16,2.27-6.34,1.06-4.42,1.14-8.99.4-13.46-.36-2.22-.96-4.4-1.78-6.49-.41-1.04-.87-2.06-1.38-3.06-.47-.94-.96-1.98-1.73-2.72-.98-.94-2.13-.84-3.28-.28-1.34.65-2.66,1.38-3.97,2.1-2.62,1.45-5.19,3.01-7.7,4.65-.53.35-.04,1.2.5.85h0Z"/>
      <path class="cls-1" d="m64.23,17.64c0-2.87,2.13-5.4,4.53-6.75,2.92-1.64,6.38-2.04,9.62-2.63,7.15-1.32,14.29-2.76,21.38-4.35,4-.9,7.99-1.81,11.96-2.83-.23-.13-.45-.26-.67-.38.61,1.51-.72,2.84-1.79,3.72-1.31,1.08-2.74,2.06-4.13,3.04-2.81,1.98-5.7,3.9-8.89,5.23-3.36,1.39-6.93,2.01-10.5,2.53-3.77.55-7.54,1.12-11.31,1.68-1.03.15-2.07.31-3.1.46-.93.13-1.9.24-2.83.12-1.49-.2-3.16-1.44-2.82-3.14.12-.62-.81-1.12-1.09-.46-.66,1.55.06,3.09,1.36,4.05,1.48,1.1,3.44,1.05,5.18.82,4.13-.55,8.25-1.25,12.37-1.87,3.98-.61,8.03-1.13,11.82-2.55,3.54-1.32,6.78-3.3,9.85-5.48,1.69-1.19,3.42-2.42,4.97-3.78,1.29-1.13,2.65-2.84,1.96-4.65-.11-.28-.36-.46-.67-.38-7.34,1.78-14.69,3.53-22.1,5.05-3.7.76-7.41,1.48-11.13,2.15-3.32.6-6.81,1.01-9.83,2.63-2.85,1.53-5.18,4.41-4.84,7.79.04.44.69.46.69,0h0Z"/>
      <path class="cls-1" d="m63.09,54.29c2.75,1.07,4.08,4.14,5.95,6.21.45.51.91,1.05,1.48,1.42.55.36,1.18.62,1.83.75,2.25.45,4.43-.66,6.45-1.48,9-3.67,17.99-7.36,26.98-11.04,5.04-2.07,10.09-4.14,15.13-6.21.69-.28.39-1.43-.31-1.14-8.89,3.66-17.78,7.33-26.67,10.99-4.45,1.83-8.89,3.67-13.33,5.51-1.09.45-2.19.91-3.28,1.36-1.02.42-2.06.86-3.15,1.03-.89.14-1.82.04-2.63-.35-.56-.27-1.2-.65-1.65-1.07-2.27-2.16-3.51-5.47-6.6-6.66-.43-.16-.61.52-.19.69h0Z"/>
      <path class="cls-1" d="m70,18.17c.76.83,1.88.91,2.93,1.04,1.36.17,2.48.54,3.36,1.65.87,1.11,1.18,2.74,1.26,4.11.1,1.58,0,3.18-.04,4.76-.15,6.58-.3,13.15-.44,19.73-.04,1.86-.08,3.72-.12,5.58-.03,1.62.07,3.21-.66,4.7-.22.46.33.94.72.56,1.03-1,.95-2.65.96-3.97.02-1.72.04-3.43.07-5.15.04-3.43.09-6.86.13-10.29.04-3.43.08-6.86.12-10.29.02-1.67.09-3.35.03-5.02-.05-1.37-.2-2.93-.94-4.12-.68-1.09-1.67-2.08-2.93-2.44-1.42-.4-3.18.13-4.35-.95-.08-.07-.18.04-.11.11h0Z"/>
      <path class="cls-1" d="m76.27,17.5c1.3-.22,2.49.47,3.03,1.67.58,1.29.48,2.82.48,4.2.01,3.14.02,6.29.02,9.43,0,6.25-.07,12.5-.21,18.75-.04,1.75-.08,3.5-.13,5.25-.03,1.1.11,2.9-.89,3.67-.25.19-.12.61.22.53,1.22-.29,1.52-1.46,1.61-2.57.14-1.6.09-3.24.12-4.85.07-3.43.13-6.86.16-10.28.07-6.92.09-13.84-.08-20.75-.04-1.5-.16-3.1-1.11-4.33-.77-.99-2.19-1.77-3.41-1.14-.25.13-.06.47.18.43h0Z"/>
      <path class="cls-1" d="m98.09,13.4c2.34-.51,4.6-.6,6.96-.15,2.28.43,4.49,1.19,6.69,1.92,2.1.69,4.2,1.47,6.03,2.76,1.55,1.1,2.87,2.52,3.87,4.14,1.14,1.86,1.74,3.91,2.23,6.01.09.4.72.31.71-.1-.02-1.05-.19-1.98-.53-2.98-.33-.96-.75-1.89-1.25-2.77-.99-1.71-2.3-3.27-3.85-4.5-1.8-1.43-3.89-2.35-6.05-3.09-2.34-.81-4.72-1.57-7.15-2.03-2.54-.48-5.41-.7-7.8.47-.19.09-.05.37.14.32h0Z"/>
      <path class="cls-1" d="m111.94,47.39c.16-.07.34-.19.5-.23.13-.03.28.04.41.02.28-.04.58-.22.84-.34l-.26.03s.06.02.1.04c.37.14.67-.33.49-.64-.19-.32-.7-.26-.8.1,0,.03-.02.06-.02.09.05-.07.1-.13.15-.2-.25.14-.55.27-.76.47-.1.1-.09.2-.21.32-.12.11-.34.18-.48.26-.05.03,0,.09.04.07h0Z"/>
      <path class="cls-1" d="m119.35,44.57c2.45,5.7,3.2,11.99,2.7,18.15-.51,6.2-2.36,12.16-4.99,17.77-1.3,2.77-2.5,5.95-.7,8.8,1.39,2.19,3.92,3.55,6.43,3.99,4.94.86,10.03-1.46,13.42-4.98,4.1-4.26,5.59-10.33,6.12-16.05.29-3.1.31-6.22.3-9.33-.01-3.56-.11-7.13-.29-10.69-.61-11.6-1.8-24.66-10.1-33.6-7.02-7.56-18.3-10.79-28.28-8.25-1.21.31-2.32.77-3.46,1.24-.42.17-.72.56-.59,1.04.11.4.62.77,1.04.59,1.12-.46,2.34-.76,3.52-1.05,1.15-.28,2.32-.49,3.51-.61,2.39-.24,4.84-.17,7.21.22,4.75.79,9.39,2.71,13.15,5.75,8.84,7.15,11.11,18.97,12.02,29.71.57,6.65.83,13.34.71,20.02-.11,5.73-.66,11.75-3.54,16.83-2.35,4.15-6.69,7.46-11.53,7.91-2.34.22-4.72-.27-6.67-1.62-1.04-.72-1.96-1.74-2.36-2.96-.48-1.5-.13-3.05.4-4.48.54-1.45,1.26-2.83,1.86-4.25.58-1.38,1.1-2.77,1.57-4.19.93-2.84,1.61-5.76,2.03-8.72.82-5.86.56-11.78-.97-17.51-.38-1.43-.86-2.83-1.41-4.2-.32-.78-1.42-.34-1.08.45h0Z"/>
      <path class="cls-1" d="m123.13,27.98s.02-.03,0-.03c-.02,0-.02.03,0,.03h0Z"/>
      <path class="cls-1" d="m123.31,27.96c-.07,0-.07,0,0,.02.03.02.07.03.1.05.16.14.17.19.21.38.07.32.03.7.04,1.03.02.69.05,1.38.02,2.07-.06,1.43-.29,2.84-.67,4.22-.38,1.34-.89,2.65-1.55,3.88-.33.61-.69,1.2-1.08,1.76-.41.59-.92,1.11-1.31,1.71-.34.52.39,1.01.82.64.66-.57,1.17-1.44,1.63-2.17.49-.78.92-1.59,1.29-2.43.72-1.62,1.21-3.32,1.46-5.08.24-1.7.33-3.49,0-5.19-.1-.51-.19-1.18-.85-1.2-.26,0-.5.19-.25.4.06.05.16,0,.14-.08h0Z"/>
      <path class="cls-1" d="m111.01,2.51c.87,1.93,1.79,3.85,3.1,5.53.61.78,1.29,1.49,2.09,2.09.7.52,1.8,1.3,2.72,1.15.28-.05.36-.45.17-.63-.33-.3-.82-.41-1.22-.6-.42-.2-.82-.44-1.2-.72-.77-.56-1.45-1.27-2.03-2.03-1.22-1.57-2.11-3.38-2.96-5.18-.21-.45-.87-.06-.67.39h0Z"/>
      <path class="cls-1" d="m115.06,46.22c-.53.49-.56,1.22-.28,1.85.31.69.92,1.03,1.43,1.54.53.53.21,1.02-.11,1.57-.34.59-.67,1.23-.55,1.93.13.71.65,1.11,1.1,1.62.51.59.04,1.14-.26,1.73-.35.69-.53,1.43-.25,2.18.25.68.76,1.25,1.39,1.6.8.45,1.72.51,2.61.32.87-.18,2.03-.59,2.55-1.35.21-.31-.06-.85-.46-.8-.96.13-1.71.85-2.71.95-.78.08-1.61-.19-2.03-.9-.47-.78.18-1.47.49-2.17.33-.72.36-1.49-.11-2.16-.33-.46-1.13-.9-1.02-1.54.12-.71.73-1.28.88-1.99.17-.76-.13-1.44-.67-1.97-.24-.23-1.54-1.09-1.09-1.51.61-.57-.3-1.48-.91-.91h0Z"/>
      <path class="cls-1" d="m89.46,36.16c.74,3.29,1.37,6.53,1.44,9.91.04,1.66-.04,3.32-.21,4.98-.09.81-.2,1.61-.34,2.42-.13.74-.47,1.56-.09,2.26.07.13.29.21.42.11.64-.5.65-1.31.78-2.07.13-.84.24-1.68.32-2.52.16-1.72.21-3.45.15-5.17-.13-3.38-.62-6.91-1.81-10.09-.15-.39-.74-.25-.64.18h0Z"/>
      <path class="cls-1" d="m89.12,37.17c1.64-.4,3.25-.96,4.86-1.45,1.62-.49,3.23-.99,4.85-1.48-.2-.11-.4-.23-.6-.34.84,3.13,1.41,6.3,1.58,9.54.08,1.59.07,3.17-.02,4.76-.05.81-.12,1.62-.21,2.42-.09.81-.25,1.59-.24,2.41,0,.53.72.59.89.12.28-.78.35-1.6.44-2.43.09-.81.15-1.61.2-2.42.09-1.65.08-3.31-.02-4.96-.2-3.27-.73-6.56-1.66-9.7-.07-.24-.35-.43-.6-.34-1.6.54-3.21,1.07-4.81,1.61-1.6.53-3.24,1.02-4.81,1.64-.39.15-.25.74.18.64h0Z"/>
      <path class="cls-1" d="m119.73,45.54c.77.58,1.52,1.09,2.34,1.6.78.48,1.54.98,2.29,1.5,1.55,1.07,3.05,2.21,4.48,3.42,2.81,2.37,5.4,5.01,7.71,7.87.66.82,1.3,1.65,1.92,2.51.56.78,1.05,1.76,1.85,2.33.2.14.42-.09.38-.29-.18-.88-.85-1.63-1.37-2.34-.54-.74-1.1-1.48-1.67-2.2-1.19-1.49-2.46-2.93-3.79-4.3-2.61-2.68-5.48-5.11-8.55-7.25-.87-.61-1.75-1.19-2.66-1.74-.45-.28-.9-.57-1.36-.82-.45-.24-.97-.4-1.45-.58-.19-.07-.26.19-.13.3h0Z"/>
      <path class="cls-1" d="m121.75,51.31c5.86,4.83,11.13,10.3,15.49,16.53,1.23,1.76,2.32,3.62,3.6,5.35.14.19.42.03.32-.19-.79-1.77-1.89-3.37-2.99-4.96-1.08-1.56-2.22-3.08-3.41-4.56-2.4-2.99-5.04-5.78-7.87-8.36-1.58-1.44-3.21-2.8-4.93-4.08-.16-.12-.37.15-.22.28h0Z"/>
      <path class="cls-1" d="m122.18,64.18c.56.46,1.23.8,1.83,1.21.61.42,1.23.81,1.83,1.25,1.25.91,2.43,1.93,3.52,3.03,2.14,2.15,3.95,4.6,5.37,7.28.81,1.53,1.34,3.17,2.09,4.72.24.49.91.12.83-.35-.27-1.51-1.01-2.96-1.7-4.32-.71-1.39-1.54-2.72-2.46-3.98-1.84-2.53-4.05-4.76-6.56-6.63-.7-.52-1.43-1.02-2.17-1.47-.71-.43-1.55-.91-2.36-1.13-.21-.06-.42.24-.23.39h0Z"/>
      <path class="cls-1" d="m120.86,69.09c4.98,3.19,9.14,7.76,11.89,13,.78,1.49,1.41,3.03,2.01,4.6.22.56,1.11.34.92-.25-.9-2.9-2.42-5.66-4.16-8.12-1.76-2.5-3.85-4.74-6.25-6.64-1.34-1.06-2.76-2.03-4.24-2.87-.19-.11-.36.18-.17.29h0Z"/>
      <path class="cls-1" d="m118.25,78.09c2.21,1.96,4.27,4.13,5.91,6.59.81,1.21,1.53,2.49,2.14,3.81.32.69.6,1.39.86,2.1.21.59.38,1.32.9,1.72.15.11.33-.01.38-.15.25-.67-.17-1.53-.41-2.16-.26-.68-.55-1.35-.86-2.01-.65-1.37-1.41-2.68-2.28-3.92-1.73-2.48-3.82-4.67-6.37-6.31-.21-.13-.45.18-.26.34h0Z"/>
      <path class="cls-1" d="m123.08,36.77c3.21,1.07,6.31,2.66,8.98,4.75,1.31,1.03,2.52,2.17,3.62,3.42.56.64,1.09,1.3,1.58,1.99.48.67.88,1.45,1.47,2.04.25.26.73,0,.62-.36-.25-.82-.83-1.53-1.34-2.21-.52-.7-1.07-1.37-1.65-2.02-1.16-1.28-2.44-2.44-3.81-3.49-2.8-2.13-5.94-3.69-9.37-4.48-.24-.05-.33.28-.1.36h0Z"/>
      <path class="cls-1" d="m124.36,31.96c2.62,1.38,5.2,2.78,7.54,4.62,2.33,1.84,4.45,3.99,6.25,6.35.49.65.97,1.32,1.41,2,.41.62.74,1.46,1.38,1.87.15.1.37-.03.36-.21-.03-.69-.53-1.31-.89-1.87-.42-.64-.85-1.26-1.31-1.87-.9-1.2-1.87-2.35-2.92-3.41-2.12-2.14-4.52-4.01-7.11-5.54-1.48-.87-3-1.62-4.63-2.14-.12-.04-.2.15-.09.21h0Z"/>
      <path class="cls-1" d="m120.49,93.62c-2.55,4.23-3.94,9.19-3.85,14.14.08,4.75,1.49,9.44,3.98,13.48,1.35,2.19,3.05,4.47,5.16,5.97.52.37,1.05-.42.66-.85-.76-.84-1.58-1.61-2.32-2.47-.72-.83-1.39-1.71-1.99-2.63-1.23-1.86-2.22-3.88-2.92-5.99-1.47-4.38-1.69-9.13-.69-13.64.58-2.62,1.56-5.13,2.91-7.46.35-.6-.58-1.14-.94-.55h0Z"/>
      <path class="cls-1" d="m124.42,92.73c.15,0,.31,0,.46,0,.14,0,.29.02.42-.03.09-.04.09-.15,0-.19-.13-.05-.29-.03-.42-.03-.16,0-.31,0-.46,0-.17,0-.17.26,0,.26h0Z"/>
      <path class="cls-1" d="m124.43,92.76c.4.03.53.27.8.51-.03-.23-.06-.45-.09-.68-3.01,3.9-4.65,8.73-4.81,13.65-.15,4.71,1.19,9.41,3.7,13.39,1.39,2.2,3.13,4.28,5.21,5.85.53.4,1.19-.47.71-.91-1.66-1.49-3.2-3.05-4.45-4.91-1.24-1.84-2.21-3.85-2.88-5.96-1.39-4.39-1.36-9.13,0-13.53.77-2.5,1.96-4.89,3.49-7.02.13-.18.09-.53-.09-.68-.51-.42-1.19-.36-1.67.09-.08.07-.01.18.08.19h0Z"/>
      <path class="cls-1" d="m21.98,40.83c.01-.14.03-.27.04-.41l.12-.07c.09-.09.27-.14.38-.2.25-.13.51-.27.76-.4.54-.29,1.08-.57,1.62-.86,1.05-.55,2.09-1.11,3.14-1.66,2.09-1.11,4.18-2.21,6.26-3.35.12-.06.01-.24-.1-.18-2.87,1.49-5.71,3.02-8.56,4.53-.7.37-1.39.74-2.09,1.11-.56.3-1.29.56-1.77.97-.51.44.13,1.03.37.6.06-.11-.11-.21-.17-.1h0Z"/>
      <path class="cls-1" d="m23.11,41.24c-.6.37-1.19.74-1.79,1.1.04.07.08.13.12.2,2.32-1.5,4.66-2.95,7.11-4.23,2.49-1.3,5.07-2.45,7.68-3.49.13-.05.08-.26-.06-.21-5.21,1.93-10.3,4.52-14.85,7.73-.12.08,0,.28.12.2.59-.38,1.18-.76,1.77-1.13.1-.07,0-.23-.1-.17h0Z"/>
      <path class="cls-1" d="m25.23,40.82c-.51.47-1.01.94-1.52,1.4-.1.09.03.24.14.18,4.38-2.19,8.75-4.44,13.07-6.73.14-.07.02-.27-.12-.21-4.38,2.19-8.74,4.44-13.07,6.73.05.06.09.12.14.18.5-.48,1.01-.94,1.51-1.42.1-.1-.05-.25-.15-.15h0Z"/>
      <path class="cls-1" d="m36.5,31.41c1.5-.99,3.06-1.59,4.79-2.04.15-.04.08-.24-.06-.22-1.72.24-3.46,1.03-4.84,2.06-.12.09-.01.28.12.2h0Z"/>
      <path class="cls-1" d="m37.75,32.17c-.53.24-1.07.49-1.6.73.05.08.09.16.14.23,1.82-.83,3.64-1.66,5.42-2.57.13-.07.02-.25-.12-.2-1.84.79-3.64,1.67-5.44,2.53-.16.08-.02.31.14.23.53-.25,1.06-.5,1.59-.75.14-.07.02-.28-.12-.21h0Z"/>
      <path class="cls-1" d="m38.55,33.38c-.66.44-1.33.87-2,1.3-.14.09-.01.3.13.22,2.21-1.28,4.46-2.34,6.8-3.34.12-.05.04-.26-.09-.22-2.38.81-4.72,1.99-6.84,3.34.04.07.09.15.13.22.66-.45,1.32-.9,1.98-1.34.11-.08,0-.26-.11-.18h0Z"/>
      <path class="cls-1" d="m40.3,34.34c-.28.23-.57.46-.85.69-.1.08,0,.25.12.21,1.84-.57,3.58-1.38,5.17-2.46.12-.08,0-.28-.11-.2-1.6,1.03-3.31,1.85-5.12,2.41.04.07.08.14.12.21.28-.23.56-.47.85-.7.12-.1-.05-.28-.18-.18h0Z"/>
      <path class="cls-1" d="m42.94,28.7c-.68.28-1.36.57-2.05.84.03.08.07.16.1.23,2.91-1.44,5.88-2.67,8.98-3.66.14-.04.08-.26-.06-.22-3.11.91-6.18,2.13-9.04,3.66-.15.08-.02.29.13.22.67-.3,1.35-.6,2.03-.89.1-.04.03-.22-.08-.18h0Z"/>
      <path class="cls-1" d="m44.3,29.71c-.84.33-1.69.67-2.54.99-.16.06-.09.32.07.26,3.26-1.26,6.54-2.48,9.77-3.82.13-.05.08-.26-.06-.21-3.28,1.19-6.53,2.5-9.78,3.78.02.09.05.17.07.26.84-.35,1.68-.69,2.52-1.03.13-.05.08-.27-.06-.22h0Z"/>
      <path class="cls-1" d="m46.35,30.41c-.82.39-1.63.79-2.45,1.17-.14.06-.04.3.1.25,2.98-1.24,5.96-2.53,8.91-3.87.12-.06.03-.28-.09-.22-2.99,1.23-5.97,2.52-8.92,3.84.05.08.09.15.14.23.81-.41,1.62-.8,2.44-1.2.13-.07.02-.27-.12-.2h0Z"/>
      <path class="cls-1" d="m46.83,31.76c-.87.27-1.67.68-2.4,1.23-.14.11-.02.31.14.24,2.83-1.2,5.66-2.41,8.47-3.65.13-.06.03-.28-.1-.23-2.85,1.19-5.68,2.41-8.52,3.64.06.07.11.15.17.22.69-.55,1.46-.95,2.3-1.22.15-.05.09-.28-.06-.24h0Z"/>
      <path class="cls-1" d="m54.59,24.48c-.81.12-1.63.24-2.44.33.02.08.04.15.06.23,1.76-.89,3.49-1.84,5.27-2.69,1.78-.85,3.59-1.62,5.39-2.44.12-.06.03-.26-.09-.22-1.82.69-3.59,1.54-5.34,2.38-1.8.87-3.63,1.74-5.35,2.76-.13.07-.04.25.1.23.82-.15,1.64-.27,2.46-.39.12-.02.07-.2-.05-.19h0Z"/>
      <path class="cls-1" d="m55.82,23.94c-.98.55-1.96,1.11-2.94,1.65-.14.08-.02.28.13.22,4.17-1.91,8.32-3.91,12.43-5.93.13-.06.02-.25-.11-.19-4.17,1.92-8.33,3.88-12.44,5.91.04.07.08.15.13.22.97-.57,1.94-1.13,2.91-1.69.12-.07.01-.24-.1-.18h0Z"/>
      <path class="cls-1" d="m57.64,24.96c-1.37.41-2.62,1.08-3.73,2-.12.1.03.28.16.21,3.8-2.03,7.73-3.65,11.77-5.14.13-.05.08-.26-.06-.22-4.1,1.25-8.09,3.07-11.85,5.12.05.07.11.14.16.21,1.05-.91,2.26-1.58,3.59-1.98.13-.04.07-.24-.06-.2h0Z"/>
      <path class="cls-1" d="m58.06,26.63c-1.68.69-3.37,1.38-5.06,2.07.03.08.07.16.1.25,2.24-1.07,4.5-2.09,6.8-3.04,2.24-.93,4.52-1.75,6.79-2.63.13-.05.08-.27-.06-.22-4.67,1.49-9.25,3.51-13.66,5.65-.14.07-.04.31.1.25,1.68-.7,3.36-1.41,5.04-2.11.13-.05.07-.26-.06-.21h0Z"/>
      <path class="cls-1" d="m58.8,27.32c-1.53.76-3.06,1.52-4.58,2.28-.16.08-.02.32.14.24,2.3-1.06,4.63-2.05,7-2.96,2.31-.89,4.68-1.61,7-2.48.13-.05.08-.25-.06-.21-2.45.63-4.85,1.58-7.21,2.49-2.32.9-4.61,1.87-6.87,2.92.05.08.09.16.14.24,1.52-.77,3.05-1.53,4.57-2.3.15-.07.02-.29-.13-.22h0Z"/>
      <path class="cls-1" d="m58.42,29.57c-.97.41-1.93.83-2.9,1.24.05.08.09.16.14.24,1.95-.88,3.93-1.69,5.93-2.45,1.95-.73,3.94-1.35,5.91-2.04.15-.05.09-.27-.06-.23-4.08,1.1-8.07,2.74-11.92,4.48-.16.07-.02.31.14.24.97-.41,1.93-.83,2.9-1.24.16-.07.02-.3-.14-.24h0Z"/>
      <path class="cls-1" d="m61.49,30.48c-.72.2-1.43.41-2.15.61.02.09.05.18.07.27,1.58-.48,3.18-.93,4.73-1.49.15-.05.09-.29-.07-.25-1.59.43-3.17.97-4.74,1.47-.17.05-.1.32.07.27.71-.22,1.43-.43,2.14-.64.15-.05.09-.28-.07-.24h0Z"/>
      <path class="cls-1" d="m27.04,43.58c3.3,0,6.61.04,9.91,0,.13,0,.13-.21,0-.21-3.3-.04-6.61,0-9.91,0-.13,0-.13.2,0,.2h0Z"/>
      <path class="cls-1" d="m36.5,44.38c3.08.75,6.43.82,9.51.03.14-.04.08-.24-.06-.21-3.15.62-6.26.68-9.4-.03-.13-.03-.19.17-.06.21h0Z"/>
      <path class="cls-1" d="m38.24,44.04c2.44,0,4.89.08,7.33,0,.15,0,.15-.23,0-.24-2.44-.08-4.89,0-7.33,0-.16,0-.16.25,0,.25h0Z"/>
      <path class="cls-1" d="m40.39,42.74c2.01,0,4.02.03,6.03-.01.14,0,.14-.22,0-.22-2.01-.04-4.02-.01-6.03-.01-.15,0-.16.24,0,.24h0Z"/>
      <path class="cls-1" d="m45.08,44.26c-.25-.19-.55.03-.6.31-.07.46.5.59.84.62,1.94.16,3.93.21,5.88.24.14,0,.14-.21,0-.22-1.07-.08-2.15-.11-3.22-.16-.5-.02-1-.04-1.5-.06-.29-.01-.57-.02-.86-.04-.12,0-.24,0-.36-.02-.31.03-.4-.13-.28-.48.12.09.23-.11.12-.2h0Z"/>
      <path class="cls-1" d="m44.66,44.66c-.76.26-1.53.51-2.29.77-.1.03-.13.18-.03.24,2.37,1.38,5.37,1.83,8.01.99.15-.05.09-.27-.06-.23-2.67.67-5.41.42-7.81-.98-.01.08-.02.16-.03.24.76-.26,1.52-.53,2.28-.79.14-.05.08-.28-.06-.23h0Z"/>
      <path class="cls-1" d="m45.42,45.02c1.57.87,3.59,1.22,5.32.64.14-.05.09-.26-.06-.23-1.79.37-3.5.27-5.13-.62-.14-.08-.27.14-.13.22h0Z"/>
      <path class="cls-1" d="m47.55,42.94c1.64.81,3.51,1.24,5.34,1.06.15-.02.16-.25,0-.24-1.82.05-3.55-.24-5.2-1.05-.16-.08-.29.16-.14.23h0Z"/>
      <path class="cls-1" d="m49.39,42.72c.83.4,1.75.58,2.67.44.13-.02.1-.24-.03-.23-.89.07-1.71-.03-2.52-.42-.14-.07-.27.14-.12.21h0Z"/>
      <path class="cls-1" d="m50.84,45.55c3.36,3.71,8.22,6.02,13.24,6.16.14,0,.14-.21,0-.21-4.97-.26-9.71-2.42-13.08-6.11-.1-.11-.26.05-.16.16h0Z"/>
      <path class="cls-1" d="m53.96,47.12c2.55,3.16,6.49,5.25,10.57,5.39.15,0,.14-.22,0-.23-4.06-.29-7.84-2.14-10.41-5.32-.09-.11-.25.05-.16.16h0Z"/>
      <path class="cls-1" d="m56.01,46.36c2.5,2.96,6.34,4.89,10.24,4.87.15,0,.15-.22,0-.23-3.89-.17-7.54-1.82-10.07-4.81-.1-.12-.27.05-.17.17h0Z"/>
      <path class="cls-1" d="m58.75,45.36c1.97,2.46,5.15,4.46,8.37,4.62.13,0,.16-.2.03-.23-1.61-.31-3.11-.68-4.56-1.48-1.41-.78-2.65-1.84-3.66-3.09-.1-.13-.28.05-.18.18h0Z"/>
      <path class="cls-1" d="m61,44.82c1.39,1.91,3.7,3.43,6.11,3.54.12,0,.15-.2.03-.22-1.15-.21-2.23-.49-3.26-1.08-1.05-.6-1.95-1.41-2.66-2.38-.1-.13-.32,0-.22.13h0Z"/>
      <path class="cls-1" d="m64.45,44.9c.88.65,1.99,1,3.09.86.14-.02.15-.24,0-.23-1.08.04-2.07-.21-2.95-.86-.14-.1-.28.13-.14.23h0Z"/>
      <path class="cls-1" d="m67.55,23.26c1.49-1.1,2.95-2.23,4.38-3.39.09-.07-.03-.23-.13-.16-1.49,1.09-2.95,2.23-4.39,3.39-.09.08.03.24.13.17h0Z"/>
      <path class="cls-1" d="m68.35,23.63c-.46.65-.92,1.3-1.39,1.94-.09.12.09.23.19.15,1.09-.9,2.16-1.81,3.24-2.72,1.07-.9,2.23-1.76,3.22-2.75.08-.08-.03-.24-.13-.17-1.12.8-2.14,1.77-3.2,2.66-1.1.93-2.21,1.87-3.31,2.81.06.05.13.1.19.15.45-.66.9-1.3,1.36-1.95.08-.12-.11-.22-.19-.11h0Z"/>
      <path class="cls-1" d="m69,25.99c2.39-1.92,4.85-3.79,7.16-5.8.1-.09-.03-.26-.14-.18-2.47,1.84-4.82,3.85-7.22,5.79-.14.11.06.31.2.2h0Z"/>
      <path class="cls-1" d="m71.33,26.59c-.62.8-1.46,1.39-2.44,1.64.04.08.07.17.11.25,2.58-1.98,5.19-3.94,7.73-5.97.1-.08-.03-.25-.14-.18-2.61,1.93-5.16,3.93-7.74,5.9-.11.09-.06.31.11.25,1.02-.34,1.87-.9,2.53-1.75.09-.11-.07-.28-.16-.16h0Z"/>
      <path class="cls-1" d="m70.49,30.06c-.7.54-1.39,1.08-2.09,1.62-.12.09.04.3.16.21,2.74-2.1,5.5-4.17,8.17-6.36.1-.08-.04-.27-.14-.19-2.78,2.04-5.48,4.21-8.19,6.34.06.06.13.13.19.19.69-.55,1.39-1.09,2.08-1.64.12-.1-.05-.27-.17-.17h0Z"/>
      <path class="cls-1" d="m71.86,31.84c-1.03.76-2.05,1.52-3.09,2.27-.13.09-.01.31.13.22,2.72-1.73,5.39-3.68,7.75-5.87.11-.1-.05-.25-.16-.16-2.5,2.05-5.02,4.02-7.72,5.81.04.07.09.15.13.22,1.01-.78,2.04-1.54,3.07-2.31.11-.08,0-.26-.11-.18h0Z"/>
      <path class="cls-1" d="m71.34,34.35c-.82.82-1.64,1.64-2.46,2.45-.12.12.06.29.18.18,2.24-1.83,4.52-3.64,6.7-5.54.12-.1-.05-.26-.17-.17-2.29,1.78-4.49,3.67-6.72,5.52.06.06.12.12.18.18.81-.83,1.62-1.65,2.44-2.47.11-.11-.06-.27-.16-.16h0Z"/>
      <path class="cls-1" d="m70.85,37.73c-.92.72-1.84,1.44-2.76,2.16-.12.09.04.3.16.21,3.03-2.14,6.09-4.39,8.79-6.95.12-.11-.05-.27-.17-.17-2.89,2.35-5.71,4.73-8.75,6.89.05.07.11.14.16.21.91-.73,1.83-1.45,2.74-2.18.12-.1-.05-.27-.17-.17h0Z"/>
      <path class="cls-1" d="m70.54,40.86c-.97.68-1.93,1.38-2.9,2.05.05.07.1.14.16.2,2.84-2.25,5.7-4.5,8.48-6.82.12-.1-.05-.25-.16-.16-2.87,2.22-5.68,4.52-8.5,6.81-.11.09.04.29.16.2.95-.7,1.92-1.39,2.89-2.07.12-.08,0-.28-.11-.2h0Z"/>
      <path class="cls-1" d="m70.49,42.99c-1.24.97-2.49,1.93-3.73,2.89.05.07.11.14.16.21,2.83-2.26,5.68-4.52,8.45-6.85.12-.1-.05-.26-.17-.17-2.86,2.22-5.67,4.53-8.47,6.82-.14.11.06.3.19.19,1.24-.98,2.48-1.97,3.73-2.94.11-.09-.05-.25-.16-.16h0Z"/>
      <path class="cls-1" d="m70.47,45.12c-1.5,1.42-3.01,2.84-4.52,4.26-.13.12.06.31.19.19,3.09-2.7,6.25-5.35,9.24-8.15.11-.11-.05-.26-.17-.17-3.16,2.61-6.2,5.4-9.27,8.12.06.06.13.13.19.19,1.5-1.43,3-2.85,4.5-4.28.12-.11-.06-.28-.18-.18h0Z"/>
      <path class="cls-1" d="m69.63,48.11c-1.59,1.02-3.04,2.24-4.33,3.62-.13.14.06.32.2.2,2.71-2.36,5.48-4.68,8.13-7.11.13-.11-.06-.29-.18-.18-2.77,2.3-5.44,4.73-8.14,7.09l.2.2c1.26-1.38,2.69-2.59,4.25-3.61.14-.09,0-.31-.13-.22h0Z"/>
      <path class="cls-1" d="m68.77,50.75c-1.36,1.12-2.73,2.24-4.1,3.35.07.07.13.13.2.2,3.24-3.16,6.78-5.97,10.53-8.49.13-.09,0-.3-.13-.21-3.82,2.46-7.36,5.34-10.61,8.51-.13.13.06.31.2.2,1.35-1.13,2.71-2.26,4.07-3.38.12-.1-.05-.27-.17-.17h0Z"/>
      <path class="cls-1" d="m69.56,52.38c-1.24.96-2.49,1.92-3.73,2.88.06.07.11.15.17.22,3.03-2.65,6.16-5.15,9.35-7.61.12-.09,0-.3-.12-.21-3.28,2.34-6.42,4.92-9.42,7.62-.14.12.06.31.2.2,1.24-.98,2.49-1.95,3.74-2.92.13-.1-.05-.27-.18-.18h0Z"/>
      <path class="cls-1" d="m69.18,54.98c-.83.55-1.65,1.1-2.49,1.64.06.07.12.15.17.23,2.82-2.29,5.63-4.6,8.39-6.96.12-.1-.05-.26-.16-.16-2.85,2.26-5.65,4.59-8.43,6.92-.12.11.04.32.17.23.82-.56,1.65-1.11,2.48-1.66.14-.09,0-.32-.13-.22h0Z"/>
      <path class="cls-1" d="m70.03,56.32c-.59.54-1.25.92-2.02,1.16.04.09.07.17.11.26,2.45-1.64,4.93-3.25,7.34-4.94.13-.09.01-.3-.13-.21-2.48,1.59-4.91,3.27-7.36,4.91-.13.09-.05.32.11.26.8-.26,1.51-.68,2.13-1.26.12-.11-.06-.3-.18-.18h0Z"/>
      <path class="cls-1" d="m72.16,56.71c-.66.56-1.32,1.13-1.99,1.69-.11.09.04.28.15.2,1.29-.95,2.57-1.9,3.83-2.88.1-.08-.03-.26-.14-.18-1.29.93-2.55,1.88-3.81,2.85l.15.2c.65-.57,1.31-1.14,1.97-1.71.11-.09-.05-.25-.16-.16h0Z"/>
      <path class="cls-1" d="m91.63,38.14c-.42.1-.83.2-1.25.28l.13.22c1.44-1.2,2.87-2.45,4.23-3.74.12-.11-.05-.27-.18-.17-1.45,1.19-2.87,2.45-4.24,3.72-.1.09,0,.26.13.22.41-.13.82-.24,1.23-.35.13-.03.07-.23-.05-.2h0Z"/>
      <path class="cls-1" d="m91.18,39.93c-.45.34-.91.68-1.37,1.01.06.07.11.14.17.22,2.48-2.33,4.98-4.65,7.39-7.05.1-.1-.05-.26-.16-.16-2.52,2.28-4.97,4.66-7.43,7.02-.13.13.06.3.2.2.44-.34.88-.68,1.32-1.01.12-.09,0-.31-.13-.21h0Z"/>
      <path class="cls-1" d="m92.44,40.75c-.75.53-1.41,1.16-1.98,1.88-.1.13.05.28.18.18,2.57-2.08,5-4.48,7.11-7.03.09-.12-.06-.28-.17-.17-2.25,2.48-4.6,4.8-7.12,7.02.07.05.13.1.2.15.54-.71,1.17-1.32,1.89-1.84.12-.08,0-.28-.11-.19h0Z"/>
      <path class="cls-1" d="m91.35,44.88c2.46-2.72,5.11-5.22,7.74-7.77.11-.11-.05-.27-.17-.17-2.79,2.34-5.33,5.04-7.76,7.75-.11.13.07.31.19.19h0Z"/>
      <path class="cls-1" d="m92.47,47.26c-.55.29-1.02.65-1.42,1.12-.11.13.07.32.19.19,2.38-2.6,4.77-5.2,7.06-7.88-.07-.06-.15-.11-.22-.17-1.66,3.55-4.02,6.81-6.78,9.59-.1.1.04.28.15.19,2.28-1.73,4.52-3.67,6.33-5.9.09-.12-.06-.28-.17-.17-2.01,2.09-4.02,4.09-6.31,5.87.06.06.12.12.17.18,2.77-2.87,5.01-6.09,6.85-9.62.07-.14-.11-.29-.22-.17-2.41,2.57-4.73,5.24-7.05,7.89.06.06.13.13.19.19.38-.46.84-.82,1.36-1.09.15-.08.02-.3-.13-.22h0Z"/>
      <path class="cls-1" d="m93.29,51.99c-.27.25-.53.49-.8.74.06.06.12.12.17.17,1-.95,2-1.9,2.99-2.86.11-.11-.06-.28-.18-.18-1.01.94-1.99,1.9-2.98,2.86-.12.11.06.28.17.17.26-.25.53-.5.79-.75.11-.11-.06-.27-.17-.17h0Z"/>
      <path class="cls-1" d="m69.28,13.96c-.9-.06-1.74.17-2.49.65.04.07.08.13.12.2,1.6-1.23,3.13-2.6,4.64-3.94.11-.09-.05-.24-.15-.15-1.56,1.27-3.16,2.54-4.63,3.91-.1.09.03.26.14.18.71-.49,1.52-.71,2.38-.66.12,0,.12-.18,0-.19h0Z"/>
      <path class="cls-1" d="m69.64,13.23c-1.01.69-2.02,1.4-3.06,2.06.05.07.11.14.17.21,2.21-2.38,4.72-4.41,7.45-6.17.12-.08.01-.26-.11-.19-2.8,1.66-5.33,3.77-7.53,6.16-.1.11.03.31.17.21.99-.73,2.02-1.41,3.03-2.1.12-.08,0-.27-.11-.19h0Z"/>
      <path class="cls-1" d="m70.5,14.51c-.84.43-1.67.87-2.51,1.28.05.07.11.14.16.21,3.42-3.09,7.15-5.79,11.08-8.19.12-.08.01-.27-.11-.19-4,2.31-7.73,5.1-11.16,8.2-.12.1.03.28.16.21.83-.45,1.66-.87,2.5-1.3.14-.07.02-.28-.12-.21h0Z"/>
      <path class="cls-1" d="m74.35,12.75c-1.37,1.01-2.75,2.03-4.12,3.04-.14.1,0,.34.14.24,3.98-2.72,7.94-5.44,11.89-8.19.13-.09,0-.29-.12-.2-3.99,2.7-7.95,5.42-11.91,8.16.05.08.09.16.14.24,1.37-1.02,2.74-2.04,4.11-3.06.12-.09,0-.31-.12-.21h0Z"/>
      <path class="cls-1" d="m77.47,12.9c-1.28.82-2.56,1.63-3.84,2.44.06.07.11.14.17.22,4.05-3.32,8.36-6.19,12.86-8.87.12-.07.01-.26-.11-.19-4.6,2.46-8.93,5.53-12.94,8.87-.12.1.04.3.17.22,1.27-.83,2.54-1.66,3.81-2.48.12-.08,0-.28-.12-.2h0Z"/>
      <path class="cls-1" d="m82.12,11.46c-1.52.82-3.04,1.64-4.56,2.45.05.08.09.16.14.24,4.41-2.8,8.82-5.61,13.2-8.46.12-.08.01-.26-.11-.19-4.43,2.77-8.83,5.59-13.23,8.41-.15.09-.02.32.14.24,1.51-.84,3.02-1.67,4.54-2.5.12-.07.01-.26-.11-.19h0Z"/>
      <path class="cls-1" d="m83.88,12.39c-1.14.64-2.29,1.28-3.44,1.91.05.08.09.16.14.24,4.3-2.94,8.64-5.84,12.87-8.88.11-.08,0-.27-.11-.19-4.35,2.86-8.61,5.88-12.9,8.84-.15.1-.02.33.14.24,1.14-.64,2.29-1.28,3.43-1.92.15-.08.02-.31-.13-.23h0Z"/>
      <path class="cls-1" d="m87.28,11.03c-1.06.72-2.12,1.43-3.18,2.15.05.08.09.16.14.24,4.04-2.89,8.24-5.49,12.51-8.02.13-.07.01-.26-.11-.19-4.36,2.34-8.53,5.08-12.54,7.97-.14.1,0,.34.14.24,1.05-.72,2.11-1.44,3.17-2.16.14-.09,0-.32-.13-.22h0Z"/>
      <path class="cls-1" d="m91.2,10.66c-1.38.83-2.77,1.66-4.15,2.48.05.08.09.16.14.25,2.29-1.47,4.58-2.93,6.86-4.4,2.29-1.47,4.61-2.89,6.85-4.42.13-.09.01-.29-.12-.21-2.33,1.39-4.59,2.92-6.87,4.38-2.29,1.47-4.57,2.94-6.86,4.41-.15.1-.02.34.14.25,1.38-.84,2.76-1.67,4.14-2.5.15-.09.01-.31-.13-.23h0Z"/>
      <path class="cls-1" d="m95.07,9.79c-1.24.72-2.48,1.44-3.72,2.16.05.08.1.16.14.25,4.21-2.56,8.39-5.3,12.23-8.39.1-.08-.03-.25-.14-.18-4.01,2.89-8.02,5.74-12.24,8.32-.16.1-.02.34.14.25,1.24-.72,2.48-1.44,3.71-2.16.16-.09.02-.33-.14-.24h0Z"/>
      <path class="cls-1" d="m101.06,6.71c-1.79,1.3-3.57,2.58-5.37,3.86.06.07.11.14.17.22,3.96-3.24,8.21-5.96,12.79-8.26-.05-.06-.1-.13-.15-.19-2.91,3.3-6.48,6.07-10.25,8.32.05.08.09.15.14.23,4.21-2.94,8.54-5.71,12.96-8.33-.05-.05-.11-.1-.16-.16-.35.46-.71.92-1.06,1.39-.09.11.11.22.19.11.35-.45.7-.91,1.05-1.36.08-.1-.02-.25-.14-.18-4.45,2.57-8.77,5.34-12.98,8.3-.14.1-.01.32.14.23,3.81-2.33,7.16-5.2,10.29-8.37.1-.1-.03-.25-.15-.19-4.62,2.14-8.99,4.97-12.86,8.27-.12.1.04.31.17.22,1.77-1.32,3.55-2.62,5.33-3.92.11-.08,0-.25-.1-.18h0Z"/>
      <path class="cls-1" d="m101.05,37.88c.51,4.3.58,8.6.37,12.93,0,.15.23.15.24,0,.31-4.3.13-8.65-.38-12.93-.02-.14-.24-.14-.22,0h0Z"/>
      <path class="cls-1" d="m102,35.74c.86,4.86.99,9.72.7,14.63,0,.14.21.14.22,0,.5-4.87.15-9.88-.73-14.69-.02-.13-.22-.07-.2.05h0Z"/>
      <path class="cls-1" d="m103.3,34.43c1.25,4.78,1.58,9.73,1.06,14.63-.02.13.19.13.21,0,.61-4.91.21-9.91-1.07-14.69-.03-.12-.23-.07-.19.05h0Z"/>
      <path class="cls-1" d="m104.64,32.27c.64,2.7,1.05,5.45,1.22,8.23.17,2.72.04,5.42-.18,8.14,0,.12.2.15.22.03.73-5.44.23-11.13-1.05-16.45-.03-.13-.24-.08-.2.06h0Z"/>
      <path class="cls-1" d="m105.94,30.53c.88,2.8,1.45,5.69,1.68,8.62.23,2.89.04,5.74-.27,8.61-.01.12.19.15.21.03.52-2.86.54-5.85.3-8.74-.24-2.92-.82-5.79-1.7-8.58-.04-.14-.26-.08-.22.06h0Z"/>
      <path class="cls-1" d="m107.11,27.99c1.95,6.12,2.6,12.54,2.01,18.93-.02.17.25.17.27,0,.66-6.38-.07-12.9-2.05-18.99-.05-.14-.27-.08-.23.06h0Z"/>
      <path class="cls-1" d="m108.93,26.36c.44.12.46.77.55,1.16.1.4.2.8.29,1.2.19.83.36,1.67.51,2.52.31,1.71.53,3.43.67,5.16.28,3.39.2,6.76-.08,10.15-.01.16.22.15.24,0,.5-4.28.37-8.66-.2-12.92-.29-2.11-.69-4.2-1.22-6.26-.07-.28-.22-1.53-.79-1.34-.26.09-.31.49-.03.56.14.04.2-.18.06-.22h0Z"/>
      <path class="cls-1" d="m111.09,23.64c2.58,6.89,3.14,14.28,1.89,21.51-.03.16.21.23.25.07,1.43-7.18.67-14.81-1.92-21.64-.05-.13-.27-.08-.22.06h0Z"/>
      <path class="cls-1" d="m112.83,22.34c1.43,3.72,2.32,7.62,2.65,11.59.16,1.95.19,3.92.07,5.88-.05.98-.15,1.96-.27,2.93-.13.97-.34,1.93-.46,2.9-.02.13.19.15.23.03.52-1.87.66-3.93.77-5.86.11-1.99.08-3.99-.09-5.98-.34-3.96-1.24-7.85-2.68-11.55-.05-.14-.27-.08-.22.06h0Z"/>
      <path class="cls-1" d="m114.5,20.64c2.48,7.53,3.15,15.39,2.31,23.25-.02.14.24.18.25.03,1.05-7.79.13-15.9-2.34-23.35-.05-.14-.28-.08-.23.06h0Z"/>
      <path class="cls-1" d="m116.16,19.37c1.25,3.9,2.07,7.94,2.43,12.02.36,4.05.19,8.07-.26,12.1-.02.15.24.18.26.03,1.21-8.04.29-16.51-2.21-24.22-.05-.15-.28-.08-.23.06h0Z"/>
      <path class="cls-1" d="m117.66,21.06c.05-.58.39-1.03.93-1.23-.05-.03-.1-.06-.15-.09,2.24,7.29,2.47,14.92.95,22.37-.03.16.21.23.25.07,1.71-7.38,1.27-15.29-.97-22.5-.02-.06-.09-.11-.15-.08-.65.24-1.05.78-1.09,1.46-.01.15.22.15.23,0h0Z"/>
      <path class="cls-1" d="m120.48,21.52c2.04,6.14,2.24,12.63.86,18.93-.03.15.19.21.23.06,1.58-6.24,1.19-12.97-.85-19.05-.05-.15-.28-.08-.24.06h0Z"/>
      <path class="cls-1" d="m87.72,38.33c.85,2.85,1.31,5.81,1.37,8.78.06,3-.35,5.91-1,8.83-.03.15.19.21.23.06,1.61-5.72,1.31-12.08-.39-17.74-.04-.14-.25-.08-.21.06h0Z"/>
      <path class="cls-1" d="m86.46,38.33c1.02,6,1.11,12.05.46,18.1-.02.17.24.16.26,0,.77-6.02.53-12.19-.51-18.16-.02-.14-.24-.08-.22.06h0Z"/>
      <path class="cls-1" d="m85.05,39.64c.42,2.92.61,5.87.56,8.82-.05,2.96-.4,5.87-.84,8.8-.02.16.21.23.24.07,1.18-5.78,1.12-11.93.26-17.75-.02-.15-.24-.08-.22.06h0Z"/>
      <path class="cls-1" d="m83.76,40.47c.16,5.32.09,10.64-.15,15.96,0,.18.27.18.28,0,.27-5.31.29-10.64.11-15.96,0-.16-.25-.16-.24,0h0Z"/>
      <path class="cls-1" d="m81.67,40.89c.1,3.05.2,6.1.29,9.15.05,1.49.1,2.98.15,4.47.03.89.48,3.24-.78,3.53-.15.04-.09.25.06.23.94-.14,1.06-1.29,1.05-2.06-.03-1.7-.12-3.4-.18-5.1-.12-3.4-.25-6.81-.37-10.21,0-.15-.23-.15-.23,0h0Z"/>
      <path class="cls-1" d="m80.74,43.48c.09,2.59.13,5.18.1,7.76-.03,2.59-.17,5.17-.25,7.76,0,.14.2.14.22,0,.44-5.14.36-10.37.17-15.52,0-.15-.24-.15-.24,0h0Z"/>
      <path class="cls-1" d="m67.02,18.06c-.14,1.46-.02,2.94.42,4.34.04.12.22.07.19-.05-.38-1.41-.54-2.83-.41-4.29.01-.13-.19-.13-.2,0h0Z"/>
      <path class="cls-1" d="m68.35,17.2c-.18,2.15-.43,4.3-.52,6.46,0,.14.2.14.22,0,.26-2.14.36-4.31.53-6.46.01-.15-.21-.14-.23,0h0Z"/>
      <path class="cls-1" d="m69.2,18.9c-.35,1.71-.76,3.42-1.02,5.14-.02.13.17.19.2.06.42-1.69.7-3.43,1.04-5.13.03-.14-.19-.2-.22-.06h0Z"/>
      <path class="cls-1" d="m68.45,24.97c.42-2.33,1.32-4.46,2.55-6.48.08-.13-.12-.25-.21-.12-1.34,1.94-2.19,4.22-2.59,6.53-.03.16.22.23.25.07h0Z"/>
      <path class="cls-1" d="m69.11,27.53c.16-3.07,1.21-5.95,2.95-8.47.08-.12-.11-.22-.19-.11-1.87,2.46-2.9,5.5-3.01,8.58,0,.16.24.16.24,0h0Z"/>
      <path class="cls-1" d="m69.62,27.09c-.15.37-.29.76-.46,1.12.08.03.15.06.23.09,1.13-3.26,2.43-6.41,4.11-9.43.07-.13-.13-.25-.2-.12-1.73,2.97-3.2,6.17-4.14,9.48-.04.15.19.22.24.07.12-.39.28-.78.43-1.16.05-.12-.15-.17-.19-.05h0Z"/>
      <path class="cls-1" d="m70.12,30.12c.66-2.11,1.44-4.19,2.35-6.21.89-1.98,1.94-3.86,2.98-5.76.07-.13-.11-.23-.19-.11-2.39,3.65-4.11,7.86-5.38,12.01-.05.16.19.22.24.07h0Z"/>
      <path class="cls-1" d="m70.97,29.68c-.46.81-.91,1.61-1.38,2.41.07.04.14.08.22.13,1.86-3.77,3.8-7.5,5.8-11.21.07-.13-.13-.25-.2-.12-2.06,3.67-4,7.41-5.82,11.2-.07.14.14.27.22.13.44-.82.89-1.63,1.34-2.44.06-.11-.11-.22-.18-.1h0Z"/>
      <path class="cls-1" d="m69.62,35.22c-.33.36-.65.74-.99,1.09.07.05.13.1.2.15,2.15-4.26,4.35-8.51,6.39-12.83.07-.14-.13-.26-.21-.12-2.22,4.23-4.29,8.54-6.4,12.83-.06.12.1.27.2.15.31-.38.64-.74.97-1.11.09-.1-.06-.26-.15-.15h0Z"/>
      <path class="cls-1" d="m71.07,34.89c-.55,1.2-1.07,2.43-1.69,3.6.08.03.15.06.23.1.84-2.64,1.81-5.23,2.97-7.75,1.14-2.47,2.48-4.82,3.86-7.17.08-.14-.13-.26-.22-.13-.19.31-.39.61-.59.92-.07.12.11.22.18.11.21-.3.41-.6.62-.9-.07-.04-.14-.08-.22-.13-1.54,2.31-2.82,4.81-3.97,7.33-1.13,2.48-2.11,5.03-2.88,7.65-.05.16.18.21.24.07.48-1.22,1.08-2.41,1.62-3.6.05-.11-.11-.2-.16-.09h0Z"/>
      <path class="cls-1" d="m70.47,39.12c-.49,1.08-.98,2.17-1.48,3.25.08.03.16.07.24.1,1.23-3.08,2.51-6.14,3.92-9.15,1.38-2.96,2.89-5.85,4.4-8.74.07-.13-.13-.25-.2-.12-3.27,5.71-6.05,11.78-8.37,17.94-.05.14.18.24.24.1.48-1.09.97-2.17,1.46-3.26.06-.14-.14-.26-.21-.12h0Z"/>
      <path class="cls-1" d="m70.06,41.28c-.61,1.38-1.23,2.76-1.86,4.13.08.03.16.07.23.1,2.39-5.87,5.12-11.55,8.03-17.18.07-.13-.12-.24-.19-.11-3.13,5.5-5.8,11.33-8.08,17.23-.05.13.18.23.23.1.59-1.39,1.2-2.78,1.81-4.16.05-.11-.12-.21-.17-.1h0Z"/>
      <path class="cls-1" d="m71.02,41.78c-.92,2.37-1.84,4.74-2.77,7.11-.06.15.18.21.24.07,1.36-3.34,2.72-6.67,4.17-9.98,1.42-3.25,2.94-6.46,4.4-9.69.06-.13-.13-.25-.2-.12-1.63,3.23-3.09,6.54-4.53,9.85-1.42,3.26-2.8,6.54-4.07,9.86.08.02.16.04.24.07.89-2.38,1.81-4.75,2.72-7.12.04-.12-.14-.17-.19-.05h0Z"/>
      <path class="cls-1" d="m70.35,46.93c-.03,1.41-.67,2.75-1.79,3.62.07.04.15.09.22.13,1.16-3.36,2.42-6.67,3.91-9.9,1.47-3.18,3.14-6.25,4.92-9.26.08-.13-.12-.25-.2-.12-3.75,5.94-6.81,12.49-8.89,19.21-.04.13.13.21.22.13,1.12-.98,1.79-2.31,1.82-3.81,0-.14-.22-.14-.22,0h0Z"/>
      <path class="cls-1" d="m69.59,49.48c-.31.96-.61,1.92-.92,2.87-.05.15.18.21.24.07,1.17-3.28,2.46-6.51,3.91-9.68,1.43-3.12,3.05-6.13,4.7-9.14.08-.14-.13-.26-.21-.12-3.57,5.9-6.45,12.34-8.64,18.87l.24.07c.29-.96.6-1.92.9-2.88.04-.14-.17-.19-.21-.06h0Z"/>
      <path class="cls-1" d="m71.28,47.75c-.54,1.57-1.06,3.15-1.64,4.71-.06.16.19.23.25.07.98-2.67,2.07-5.3,3.36-7.84,1.26-2.5,2.73-4.86,4.22-7.23.08-.13-.11-.23-.2-.12-1.67,2.3-3.09,4.83-4.37,7.37-1.26,2.5-2.37,5.09-3.27,7.75.08.02.17.05.25.07.5-1.58,1.07-3.15,1.61-4.72.05-.14-.18-.2-.22-.06h0Z"/>
      <path class="cls-1" d="m74.6,44.7c-.9,3.04-2.27,5.88-4.04,8.51.08.03.16.07.24.1,1.85-4.89,4.06-9.6,6.5-14.22-.08-.03-.16-.07-.25-.1-1,5.5-3.19,10.74-6.27,15.39l.25.11c1.76-4.29,3.81-8.44,6.12-12.45-.09-.04-.18-.07-.26-.11-1.09,4.3-2.48,8.52-4.14,12.63-.06.14.18.24.25.11,1.66-3.27,3.07-6.66,4.21-10.15-.09-.03-.19-.05-.28-.08-.59,3.87-1.48,7.68-2.65,11.41-.05.15.19.26.26.11,1.02-2.31,1.59-4.77,1.68-7.3,0-.15-.23-.15-.24,0-.11,2.47-.69,4.9-1.69,7.15.09.04.17.07.26.11,1.18-3.73,2.06-7.54,2.66-11.41.03-.18-.22-.26-.28-.08-1.14,3.46-2.52,6.84-4.16,10.09.08.04.17.07.25.11,1.65-4.11,3.04-8.33,4.16-12.62.04-.16-.18-.25-.26-.11-2.35,4.01-4.39,8.21-6.13,12.52-.06.15.17.23.25.11,3.07-4.7,5.15-9.97,6.29-15.46.03-.14-.17-.24-.25-.1-2.56,4.57-4.69,9.38-6.52,14.28-.06.15.16.22.24.1,1.76-2.63,3.1-5.56,3.99-8.59.03-.12-.15-.17-.18-.05h0Z"/>
      <path class="cls-1" d="m76.68,35.65c-1.26,6.7-2.09,13.52-2.3,20.33,0,.16.25.16.25,0,.33-6.81,1.03-13.56,2.28-20.26.03-.15-.2-.22-.23-.06h0Z"/>
      <path class="cls-1" d="m75.55,38.74c-.43,4.13-.63,8.35-.33,12.5,0,.13.22.14.21,0-.11-4.18-.07-8.33.36-12.5.02-.15-.22-.15-.24,0h0Z"/>
      <path class="cls-1" d="m77.16,20.64c-.16,8.64-.77,17.25-1.67,25.84-.01.14.2.14.22,0,1.02-8.57,1.53-17.21,1.66-25.84,0-.14-.21-.14-.21,0h0Z"/>
      <path class="cls-1" d="m74.02,50.81c-.16,2.83-.39,5.67-.48,8.51,0,.13.19.15.22.03.11-.4.22-.8.33-1.2.04-.13-.16-.18-.19-.05-.12.4-.24.79-.36,1.19.07.01.15.02.22.03.22-2.83.3-5.68.44-8.51,0-.12-.18-.12-.19,0h0Z"/>
      <path class="cls-1" d="m75.63,52.1c0,2.15-.03,4.31,0,6.46,0,.13.19.13.2,0,.03-2.16,0-4.31,0-6.46,0-.13-.2-.13-.2,0h0Z"/>
      <path class="cls-1" d="m76.1,50.83c.57,3.08.55,6.23-.05,9.31.08.01.16.02.25.03,0-.39,0-.78-.03-1.18,0-.14-.22-.15-.22,0,0,.39,0,.78,0,1.18,0,.14.22.18.25.03.61-3.12.62-6.31.03-9.44-.03-.14-.24-.08-.22.06h0Z"/>
      <path class="cls-1" d="m65.35,53.23c-.74.12-1.33.53-1.72,1.16-.07.11.09.24.18.14,1.14-1.35,2.27-2.71,3.38-4.08.09-.11-.06-.26-.15-.15-1.14,1.35-2.28,2.7-3.39,4.07.06.05.12.09.18.14.35-.6.9-.97,1.58-1.09.13-.02.07-.21-.05-.19h0Z"/>
      <path class="cls-1" d="m67.12,53.83c-.5.8-.99,1.61-1.51,2.39.08.03.16.07.24.1.69-2.8,2.17-5.26,4.4-7.11.11-.09-.04-.23-.15-.15-2.27,1.77-3.93,4.36-4.5,7.19-.03.14.16.24.24.1.47-.82.97-1.61,1.47-2.42.07-.11-.11-.22-.18-.11h0Z"/>
      <path class="cls-1" d="m69.19,51.63c-1.2,1.71-2.27,3.51-3.2,5.38-.07.14.13.26.21.13,1.94-2.9,4.02-5.68,6.13-8.46.07-.1-.09-.23-.17-.13-2.25,2.67-4.27,5.55-6.17,8.47l.21.13c.91-1.89,1.96-3.69,3.15-5.41.07-.1-.1-.2-.17-.1h0Z"/>
      <path class="cls-1" d="m69.54,54.16c-.62,1.2-1.23,2.41-1.85,3.61-.08.15.13.26.22.13,1.75-2.5,3.54-4.99,5.19-7.57.08-.12-.11-.22-.19-.11-1.82,2.46-3.5,5.02-5.22,7.55.07.04.15.09.22.13.61-1.21,1.22-2.41,1.83-3.61.07-.13-.13-.25-.2-.12h0Z"/>
      <path class="cls-1" d="m71.78,53.35c-.89,1.88-1.9,3.7-3.05,5.43.07.04.15.09.22.13,1.59-2.56,3.28-5.04,5.05-7.48l-.23-.1c-.69,2.99-1.99,5.82-3.75,8.33.08.04.15.09.23.13,1.46-2.86,3.18-5.55,5.16-8.08-.07-.04-.15-.09-.22-.13-.69,3.05-2.03,5.91-3.85,8.45.08.04.15.09.23.13,1.08-1.92,2.35-3.7,3.81-5.35-.07-.04-.15-.09-.22-.13-.43,2.57-1.48,4.97-3.04,7.06.08.04.15.09.23.13,1.13-1.93,2.26-3.86,3.38-5.8-.09-.02-.17-.05-.26-.07-.25,2.07-.94,4.04-2.01,5.83.08.04.16.09.23.14,1-1.76,2.01-3.52,3.01-5.28-.09-.02-.18-.05-.27-.07-.08,1.19-.35,2.34-.83,3.43-.07.16.15.31.24.14.44-.81.89-1.61,1.33-2.42.09-.16-.15-.3-.24-.14-.44.81-.89,1.61-1.33,2.42.08.05.16.1.24.14.5-1.14.79-2.33.87-3.57,0-.14-.2-.19-.27-.07-1,1.76-2,3.52-2.99,5.28-.09.15.14.29.23.14,1.09-1.83,1.78-3.85,2.05-5.97.02-.15-.2-.18-.26-.07-1.13,1.93-2.25,3.87-3.36,5.81-.09.15.13.27.23.13,1.55-2.11,2.59-4.54,3.08-7.12.02-.12-.13-.24-.22-.13-1.49,1.64-2.78,3.46-3.85,5.41-.08.15.13.27.23.13,1.81-2.58,3.09-5.46,3.87-8.51.03-.12-.13-.24-.22-.13-2.03,2.5-3.78,5.24-5.2,8.13-.07.15.13.27.23.13,1.74-2.57,2.98-5.4,3.77-8.4.03-.11-.13-.23-.21-.13-1.85,2.38-3.54,4.91-5.07,7.51-.09.15.14.27.22.13,1.11-1.76,2.11-3.58,2.99-5.47.05-.11-.11-.21-.17-.1h0Z"/>
      <path class="cls-1" d="m75.84,60.78c.72-1.15,1.47-2.28,2.15-3.45.08-.14-.13-.26-.21-.13-.75,1.12-1.44,2.3-2.16,3.45-.09.14.13.27.22.13h0Z"/>
      <path class="cls-1" d="m115.53,12.53c.2.7.41,1.4.64,2.09.04.12.22.07.19-.05-.2-.7-.41-1.4-.63-2.09-.04-.12-.23-.07-.19.05h0Z"/>
      <path class="cls-1" d="m112.27,11.25c.62.72.85,1.56.84,2.5,0,.14.2.13.21,0,.11-.98-.25-1.93-.89-2.67-.1-.11-.26.05-.17.17h0Z"/>
      <path class="cls-1" d="m111.06,11.17c-.78.75-.65,2.23.36,2.73.12.06.22-.11.11-.18-.8-.52-1.01-1.69-.29-2.38.11-.11-.06-.27-.17-.17h0Z"/>
      <path class="cls-1" d="m108.36,11.16c0,.72-.02,1.44,0,2.15,0,.14.22.14.22,0,.03-.72,0-1.44,0-2.15,0-.15-.23-.15-.23,0h0Z"/>
      <path class="cls-1" d="m106.71,11.5c-.4.29-.75.67-.95,1.13-.09.21-.17.55.05.72.42.32.54-.61.13-.41-.11.06-.01.22.1.17-.19.09-.13-.26-.11-.32.05-.13.13-.26.21-.38.18-.28.42-.51.68-.71.12-.09,0-.29-.11-.2h0Z"/>
      <path class="cls-1" d="m106.26,11.17c-.06-.88-1.53-1.17-1.87-.32-.38.95,1.14,1.66,1.72.89.08-.11-.1-.21-.18-.1-.45.59-1.7-.08-1.3-.77.32-.55,1.39-.34,1.44.31,0,.12.2.12.19,0h0Z"/>
      <path class="cls-1" d="m106.72,9.44c-.36,1.09-.11,2.26.66,3.11.05.05.15.04.18-.02.82-1.59,1.16-3.35,1.01-5.14-.07,0-.14.02-.21.03.24,1.26.5,2.51.75,3.76.02.1.18.12.22.03.63-1.48.96-3.05,1.02-4.65,0-.14-.2-.14-.22,0-.23,2.38-.09,4.77.38,7.11.02.09.14.12.2.05.9-.91,1.38-2.14,1.31-3.42,0-.13-.21-.13-.21,0,.04,1.23-.41,2.37-1.27,3.25.07.02.13.04.2.05-.47-2.32-.6-4.69-.4-7.05h-.22c-.04,1.57-.39,3.09-1.01,4.53.07,0,.15.02.22.03-.25-1.25-.51-2.51-.77-3.76-.02-.12-.22-.09-.21.03.18,1.75-.17,3.47-.99,5.02.06,0,.12-.02.18-.02-.71-.8-.93-1.87-.6-2.88.05-.14-.18-.21-.23-.06h0Z"/>
      <path class="cls-1" d="m112.21,6.85c.02,2.71.29,5.44.89,8.08.03.12.19.1.23,0,.26-.68.53-1.36.8-2.04.05-.12-.14-.17-.19-.05-.28.68-.56,1.35-.84,2.03h.23c-.54-2.65-.87-5.31-.9-8.02,0-.14-.22-.14-.22,0h0Z"/>
      <path class="cls-1" d="m114.48,9.43c-.73,2.57-.71,5.29.07,7.84.04.12.18.1.23,0,.72-1.79,1.23-3.65,1.56-5.55-.07,0-.15-.02-.22-.03-.17,1.77-.04,3.55.41,5.27.04.14.25.08.22-.06-.4-1.72-.55-3.45-.4-5.21.01-.12-.2-.15-.22-.03-.31,1.91-.84,3.76-1.57,5.55h.23c-.76-2.53-.79-5.18-.08-7.72.04-.13-.17-.19-.21-.06h0Z"/>
      <path class="cls-1" d="m118.05,12.08c-.65,1.59-.56,3.45.35,4.93.07.12.25.01.19-.11-.81-1.49-.96-3.18-.31-4.76.06-.14-.17-.2-.23-.06h0Z"/>
      <path class="cls-1" d="m119.6,12.46c-.22,1.87-.07,3.75.45,5.56.02.09.14.12.2.05.26-.26.53-.52.79-.77.1-.09-.05-.24-.15-.15-.27.25-.54.5-.82.75.07.02.14.04.2.05-.51-1.79-.67-3.64-.45-5.5.02-.15-.22-.15-.24,0h0Z"/>
      <path class="cls-1" d="m121.29,13.32c0,1.87-.05,3.74,0,5.6,0,.14.22.14.22,0,.05-1.86,0-3.74,0-5.6,0-.15-.23-.15-.23,0h0Z"/>
      <path class="cls-1" d="m123.01,14.61c0,2.15-.05,4.31,0,6.46,0,.14.22.14.22,0,.06-2.15.01-4.31,0-6.46,0-.16-.24-.16-.24,0h0Z"/>
      <path class="cls-1" d="m124.73,14.61c0,2.87-.08,5.75,0,8.62,0,.15.24.15.24,0,.09-2.87,0-5.75,0-8.62,0-.16-.25-.16-.25,0h0Z"/>
      <path class="cls-1" d="m126.1,16.34c-.17,3.44-.43,6.89-.5,10.34,0,.15.22.15.23,0,.27-3.44.36-6.89.52-10.34,0-.16-.24-.16-.25,0h0Z"/>
      <path class="cls-1" d="m128.33,17.62c-.73,4.31-1.52,8.61-2.18,12.92-.02.15.2.22.23.06.8-4.29,1.48-8.61,2.21-12.92.03-.17-.23-.24-.26-.07h0Z"/>
      <path class="cls-1" d="m129.36,19.79c-.06,2.28-.24,4.55-.54,6.81-.31,2.32-.8,4.6-1.27,6.89-.03.15.19.21.23.06,1.23-4.43,1.72-9.17,1.83-13.76,0-.16-.24-.16-.25,0h0Z"/>
      <path class="cls-1" d="m131,22.44c.22-.26.58-.47.93-.39.39.09.22.4.15.7-.14.63-.28,1.26-.42,1.88-.27,1.22-.55,2.44-.82,3.67-.55,2.44-1.13,4.88-1.61,7.34-.03.14.18.2.22.06,1.12-4.51,2.05-9.08,3.03-13.62.01-.05,0-.11-.05-.14-.57-.26-1.18-.15-1.59.33-.09.11.06.27.16.16h0Z"/>
      <path class="cls-1" d="m134,22.8c-.41,2.57-.97,5.11-1.68,7.62-.71,2.51-1.64,4.93-2.54,7.38-.05.13.16.22.22.09,1.07-2.33,1.86-4.83,2.56-7.3.72-2.54,1.28-5.12,1.69-7.72.02-.16-.22-.23-.25-.07h0Z"/>
      <path class="cls-1" d="m135.03,25.77c-.37,2.34-.86,4.66-1.47,6.95-.62,2.29-1.42,4.51-2.18,6.76-.04.13.17.22.22.09.92-2.15,1.59-4.43,2.19-6.68.62-2.32,1.12-4.67,1.5-7.04.03-.17-.23-.24-.26-.07h0Z"/>
      <path class="cls-1" d="m135.46,29.65c-.48,3.36-1.29,6.62-2.21,9.89-.04.16.19.22.24.07,1.07-3.19,1.75-6.56,2.22-9.88.02-.16-.22-.23-.25-.07h0Z"/>
      <path class="cls-1" d="m135.9,34.82c-.47,2-.96,4-1.4,6.01-.03.15.19.21.23.06.5-1.99.95-4,1.42-6,.04-.16-.21-.23-.25-.07h0Z"/>
      <path class="cls-1" d="m137.71,35.7c-.69,4.79-2.48,9.32-5.22,13.32-.08.12.11.22.18.11,2.81-3.94,4.6-8.57,5.25-13.36.02-.14-.2-.21-.22-.06h0Z"/>
      <path class="cls-1" d="m139.4,38.71c-1.67,5.3-4.05,10.28-6.92,15.03-.08.13.12.24.2.12,3.02-4.65,5.31-9.8,6.98-15.08.05-.16-.2-.22-.25-.07h0Z"/>
      <path class="cls-1" d="m139.43,43.03c-.71,2.61-1.61,5.16-2.72,7.63-1.09,2.43-2.41,4.7-3.78,6.98-.08.13.12.24.2.12,1.54-2.21,2.8-4.68,3.89-7.14,1.08-2.43,1.96-4.95,2.65-7.52.04-.15-.2-.22-.24-.07h0Z"/>
      <path class="cls-1" d="m140.38,46.92c-1.12,2.39-2.35,4.73-3.68,7.02-1.33,2.29-2.8,4.47-4.26,6.67-.09.13.12.24.21.12,3.14-4.22,5.72-8.93,7.95-13.68.07-.15-.15-.28-.22-.13h0Z"/>
      <path class="cls-1" d="m139.47,51.64c-1.04,1.99-2.09,3.98-3.13,5.97-1.04,1.98-2.2,3.94-3.12,5.98-.06.13.12.25.2.12,1.16-1.91,2.11-3.98,3.14-5.97,1.04-1.99,2.08-3.98,3.12-5.98.08-.15-.14-.28-.22-.13h0Z"/>
      <path class="cls-1" d="m140.67,54.18c-1.02,2.08-2.05,4.15-3.07,6.22-1.02,2.07-2.1,4.13-3.05,6.23-.06.14.13.26.2.12,1.09-2.04,2.06-4.15,3.08-6.22,1.02-2.08,2.04-4.15,3.06-6.23.07-.15-.15-.28-.22-.13h0Z"/>
      <path class="cls-1" d="m140.36,58.12c-1.71,3.52-3.52,7.02-5.08,10.61-.05.12.12.23.19.11,1.82-3.46,3.42-7.07,5.09-10.6.06-.13-.13-.25-.2-.12h0Z"/>
      <path class="cls-1" d="m140.63,61.06c-1.7,3.29-3.44,6.57-5.11,9.88-.07.13.09.24.2.15.99-.79,1.74-1.81,2.19-2.99.05-.12-.14-.16-.18-.05-.45,1.14-1.18,2.11-2.16,2.85.05.06.11.11.17.17,1.73-3.27,3.4-6.58,5.1-9.88.07-.14-.14-.26-.21-.12h0Z"/>
      <path class="cls-1" d="m139.05,65.89c-.89,2.53-1.77,5.06-2.66,7.6-.04.11.13.21.2.12,1.02-1.32,2.03-2.64,3.05-3.95-.06-.04-.13-.07-.19-.11-.73,2.22-1.46,4.43-2.18,6.65-.04.13.15.2.22.09.64-.96,1.28-1.91,1.92-2.87-.07-.02-.14-.04-.22-.06.11,2.56-.79,5.08-2.45,7.02-.08.09.05.24.14.14,1.75-1.97,2.65-4.53,2.55-7.16,0-.12-.15-.15-.22-.06-.64.96-1.29,1.91-1.93,2.87.07.03.15.06.22.09.73-2.21,1.45-4.43,2.17-6.65.04-.14-.14-.18-.21-.09-1.02,1.32-2.04,2.63-3.05,3.95.07.03.15.06.22.09.88-2.53,1.76-5.07,2.63-7.6.05-.13-.16-.19-.21-.06h0Z"/>
      <path class="cls-1" d="m120.72,45.55c.97-2.86,2.54-5.41,4.78-7.45.1-.09-.05-.24-.15-.15-2.27,1.99-4.02,4.63-4.83,7.55-.04.13.16.18.2.06h0Z"/>
      <path class="cls-1" d="m122.69,43.91c-.6.52-1.19,1.07-1.83,1.55.06.06.13.13.19.19,1.3-2.47,2.92-4.72,4.81-6.77.1-.11-.06-.27-.16-.16-1.97,1.99-3.61,4.3-4.88,6.8-.07.13.1.28.22.17.57-.57,1.2-1.09,1.8-1.63.1-.09-.04-.22-.14-.14h0Z"/>
      <path class="cls-1" d="m123.88,44.25c-.89,1.1-1.75,2.22-2.68,3.28.07.05.14.11.21.16,1.7-2.42,3.37-4.84,5.25-7.14.1-.12-.07-.29-.17-.17-1.92,2.24-3.8,4.63-5.31,7.17-.09.15.13.27.23.13.83-1.13,1.74-2.21,2.61-3.3.08-.1-.06-.24-.14-.14h0Z"/>
      <path class="cls-1" d="m124.76,46.44c-1.16,1.53-2.33,3.07-3.49,4.59.08.05.15.09.23.14,1.82-2.82,3.99-5.34,6.44-7.63.11-.1-.05-.26-.16-.16-2.53,2.2-4.72,4.82-6.5,7.66-.09.15.13.27.23.14,1.15-1.54,2.3-3.08,3.45-4.62.09-.11-.1-.22-.19-.11h0Z"/>
      <path class="cls-1" d="m125.62,49.03c-.65,1.48-1.67,2.73-2.99,3.66.06.06.13.13.19.19,1.85-2.52,3.85-4.89,5.98-7.17.1-.11-.06-.27-.16-.16-2.21,2.22-4.23,4.64-6.06,7.19-.08.11.08.27.19.19,1.34-.97,2.39-2.27,3.05-3.78.06-.13-.14-.25-.2-.12h0Z"/>
      <path class="cls-1" d="m125.63,51.59c-.75.94-1.49,1.89-2.25,2.83-.1.13.07.31.18.19,1.81-1.89,3.61-3.81,5.36-5.75.1-.11-.06-.27-.16-.17-1.83,1.88-3.61,3.8-5.38,5.73.07.05.14.11.21.16.73-.95,1.47-1.88,2.2-2.82.09-.12-.07-.28-.16-.16h0Z"/>
      <path class="cls-1" d="m125.21,55.91c-.91.78-1.81,1.56-2.73,2.32.07.05.14.11.21.16.81-1.19,1.69-2.33,2.64-3.4.93-1.04,1.95-1.96,2.94-2.93.09-.08-.03-.24-.13-.17-2.25,1.7-4.13,4.03-5.69,6.36-.09.13.1.26.21.16.9-.79,1.8-1.57,2.71-2.34.12-.1-.05-.27-.17-.17h0Z"/>
      <path class="cls-1" d="m126.53,55.95c-1.22,2.11-2.67,4.07-4.38,5.81.06.06.12.12.18.18,1.93-2.33,3.94-4.59,5.87-6.91.09-.11-.06-.27-.16-.16-2.07,2.19-4,4.55-5.89,6.89-.1.13.07.3.18.18,1.68-1.8,3.15-3.76,4.37-5.89.06-.11-.11-.2-.17-.1h0Z"/>
      <path class="cls-1" d="m124.23,62.27c-.78,1.01-1.56,2.02-2.36,3.02.07.05.13.1.2.15,1.93-2.85,4.15-5.39,6.76-7.65.11-.09-.05-.25-.16-.16-2.65,2.15-5.01,4.78-6.82,7.68-.09.14.12.25.22.13.77-1.02,1.55-2.03,2.33-3.04.07-.09-.09-.22-.17-.13h0Z"/>
      <path class="cls-1" d="m124.33,65.37c-.76.92-1.51,1.83-2.27,2.75.07.05.14.11.21.16,1.59-2.34,3.45-4.42,5.44-6.42.11-.11-.06-.28-.17-.17-2.1,1.88-3.93,4.12-5.5,6.46-.09.13.11.28.21.16.76-.92,1.51-1.84,2.27-2.76.11-.13-.08-.31-.19-.18h0Z"/>
      <path class="cls-1" d="m124.01,68.07c-.86,1.12-1.83,2.15-2.9,3.07.06.06.13.13.19.19,2.21-2.51,4.43-5.01,6.59-7.57.09-.11-.06-.27-.16-.16-2.24,2.48-4.43,5.02-6.62,7.54-.11.13.06.3.19.19,1.07-.95,2.04-2,2.91-3.15.09-.11-.11-.22-.19-.11h0Z"/>
      <path class="cls-1" d="m123.42,70.93c-.98,1.1-1.96,2.2-2.95,3.3.07.05.14.11.21.16,1.81-2.41,3.79-4.63,5.86-6.81.11-.11-.06-.28-.17-.17-2.18,2.08-4.14,4.42-5.92,6.85-.09.13.11.28.21.16.97-1.11,1.95-2.21,2.93-3.32.1-.12-.07-.29-.17-.17h0Z"/>
      <path class="cls-1" d="m123.22,73.71c-1.03,1.2-2.07,2.4-3.1,3.6.07.05.14.11.21.16,1.62-2.41,3.58-4.57,5.81-6.43.12-.1-.05-.27-.17-.17-2.28,1.84-4.26,4.03-5.87,6.47-.08.13.11.28.21.16,1.03-1.21,2.05-2.41,3.08-3.62.1-.12-.07-.29-.17-.17h0Z"/>
      <path class="cls-1" d="m122.17,77.43c-.96.96-1.93,1.91-2.89,2.87.07.06.13.13.19.19,2.13-2.51,4.4-4.89,6.76-7.19.11-.11-.05-.27-.16-.16-2.42,2.23-4.67,4.65-6.79,7.16-.11.13.07.32.19.19.96-.96,1.92-1.92,2.88-2.88.12-.12-.07-.3-.18-.18h0Z"/>
      <path class="cls-1" d="m120.04,81.71c-1.33.75-2.33,1.91-2.9,3.33-.06.15.16.22.25.1,2.34-3.23,5.02-6.15,7.98-8.83.11-.1-.05-.26-.17-.17-3.03,2.61-5.71,5.61-8.04,8.86.08.04.16.07.25.1.53-1.35,1.5-2.46,2.76-3.18.14-.08.02-.3-.13-.22h0Z"/>
      <path class="cls-1" d="m119.59,84.76c-.6.6-1.21,1.2-1.81,1.8l.19.19c2.36-2.72,4.8-5.37,7.22-8.03.1-.11-.06-.27-.16-.17-2.51,2.58-4.9,5.28-7.25,8-.11.13.07.32.19.19.6-.6,1.2-1.2,1.81-1.81.12-.12-.06-.3-.18-.18h0Z"/>
      <path class="cls-1" d="m120.84,85.15c-1.13,1.25-2.26,2.5-3.39,3.75-.12.13.07.33.2.2,2.39-2.57,4.79-5.14,7.14-7.75.1-.12-.06-.29-.17-.17-2.41,2.55-4.79,5.14-7.17,7.72.07.07.13.13.2.2,1.12-1.26,2.24-2.52,3.36-3.77.1-.11-.07-.28-.17-.17h0Z"/>
      <path class="cls-1" d="m120.74,88.5c-.62.66-1.24,1.32-1.86,1.99-.13.13.07.33.2.2,2.37-2.5,4.77-4.98,7.09-7.54.1-.11-.05-.26-.16-.16-2.42,2.45-4.77,4.99-7.14,7.49.07.07.13.13.2.2.62-.66,1.24-1.33,1.86-1.99.12-.13-.07-.32-.19-.19h0Z"/>
      <path class="cls-1" d="m122.61,88.64c-.82.81-1.65,1.62-2.47,2.42.06.06.13.13.19.19,2.16-2.65,4.55-5.02,7.08-7.31.12-.11-.05-.27-.18-.18-2.63,2.14-4.98,4.66-7.1,7.3-.11.13.07.32.19.19.81-.82,1.63-1.63,2.45-2.44.11-.11-.06-.28-.17-.17h0Z"/>
      <path class="cls-1" d="m126.02,87.36c-.84,1.32-1.94,2.42-3.25,3.26.05.07.11.15.16.22,1.98-2.23,4.12-4.3,6.34-6.29.11-.1-.05-.24-.16-.16-2.3,1.89-4.41,4.02-6.38,6.26-.1.11.03.31.16.22,1.34-.88,2.46-2.02,3.32-3.38.08-.13-.12-.24-.2-.12h0Z"/>
      <path class="cls-1" d="m125.19,91.21c-.67.57-1.34,1.14-2.01,1.7.07.05.14.11.22.17,2.07-2.88,4.51-5.36,7.16-7.7.11-.1-.05-.25-.16-.16-2.78,2.16-5.19,4.87-7.24,7.72-.09.13.11.26.22.16.66-.57,1.33-1.15,1.99-1.72.13-.11-.05-.28-.18-.18h0Z"/>
      <path class="cls-1" d="m127.78,90.36c-.41.36-.81.73-1.22,1.09l.18.18c1.62-1.59,3.25-3.18,4.81-4.82.1-.11-.05-.27-.16-.16-1.65,1.56-3.24,3.19-4.83,4.8-.12.12.06.3.18.18.4-.37.81-.73,1.21-1.1.12-.11-.06-.28-.17-.17h0Z"/>
      <path class="cls-1" d="m130.76,90.31c-.52.41-1.04.82-1.57,1.22.05.07.1.13.16.2,2-2.1,4.02-4.19,5.97-6.34.1-.11-.06-.28-.17-.17-2.03,2.07-4,4.21-5.98,6.32-.12.12.05.29.18.18.52-.42,1.05-.84,1.58-1.26.12-.09-.05-.26-.16-.16h0Z"/>
      <path class="cls-1" d="m135.71,87.05c.43-.58.86-1.15,1.28-1.73.07-.11-.1-.24-.18-.14-.45.57-.89,1.16-1.33,1.74-.11.14.13.27.23.14h0Z"/>
      <path class="cls-1" d="m117.03,46.91c.95-1.18,2.07-2.13,3.42-2.84-.05-.06-.09-.12-.14-.18-1.23,1.37-2.47,2.73-3.72,4.09-.11.12.05.28.17.17,1.27-1.12,2.68-2.03,4.22-2.74-.05-.06-.1-.13-.15-.19-1.11,1.36-2.24,2.71-3.36,4.05-.1.12.06.3.18.18.97-.98,2.12-1.72,3.41-2.2-.05-.06-.1-.13-.15-.19-1,1.51-2.11,2.94-3.34,4.27-.1.11.03.28.16.2,1.33-.8,2.65-1.61,3.98-2.41-.07-.05-.13-.1-.19-.15-.79,1.95-1.46,3.94-1.99,5.98-.04.15.18.21.23.06.57-2.03,1.23-4.02,2.02-5.97.04-.11-.1-.2-.19-.15-1.32.8-2.65,1.61-3.98,2.41l.16.2c1.24-1.35,2.37-2.79,3.38-4.32.06-.09-.04-.23-.15-.19-1.33.49-2.52,1.26-3.52,2.27.06.06.12.12.18.18,1.11-1.36,2.23-2.72,3.36-4.06.09-.11-.02-.25-.15-.19-1.57.69-3,1.64-4.27,2.78.06.06.11.12.17.17,1.23-1.37,2.46-2.74,3.71-4.1.09-.1-.02-.24-.14-.18-1.37.66-2.6,1.66-3.48,2.9-.08.11.1.24.18.14h0Z"/>
      <path class="cls-1" d="m120.97,57.79c.11,0,.11-.17,0-.17s-.11.17,0,.17h0Z"/>
      <path class="cls-1" d="m120.54,46.18c.15,0,.15-.23,0-.23s-.15.23,0,.23h0Z"/>
      <path class="cls-1" d="m117.63,46.93c0-1.03.02-2.07.03-3.1,0-.17-.25-.16-.25,0-.2,3.18.14,6.52,1.11,9.56.05.14.26.08.22-.06-.09-.42-.19-.83-.27-1.25-.03-.13-.22-.07-.19.05.09.42.16.84.24,1.26.07-.02.15-.04.22-.06-.8-3.14-1.21-6.25-1.07-9.5h-.25c.02,1.03.02,2.07.02,3.1,0,.13.2.13.2,0h0Z"/>
      <path class="cls-1" d="m117.29,47.41l.51,2.69c.09-.02.17-.05.26-.07-.4-1.36-1.07-2.6-1.98-3.69-.07-.08-.2-.03-.23.06-.29,1.02-.26,2.06.06,3.07.05-.06.11-.11.17-.17-1-.34-.96-1.73-.4-2.44.76-.95,2.21-.99,3.32-1.03v-.27c-1.05.08-2.1.16-3.16.23.01.09.03.18.04.28.81-.22,1.61-.44,2.42-.65l-.11-.25c-1.02.62-2.05,1.24-3.07,1.85.06.06.12.12.18.18.87-1.22,2.19-2.01,3.68-2.18.13-.01.19-.18.07-.25-.49-.3-1.05-.11-1.41.3-.46.53-.39,1.22-.15,1.83.37.9.97,1.72,1.46,2.55.58.98,1.16,1.96,1.76,2.93.08.13.28.01.2-.12-.77-1.32-1.56-2.63-2.35-3.95-.36-.59-.82-1.22-.97-1.91-.09-.4-.07-.85.22-1.16.28-.32.71-.49,1.09-.25.02-.08.05-.17.07-.25-1.59.17-3,1.01-3.92,2.32-.08.11.07.25.18.18,1.02-.62,2.05-1.24,3.07-1.85.13-.08.05-.29-.1-.25-.81.21-1.61.42-2.42.64-.15.04-.13.29.04.28,1.05-.08,2.1-.16,3.16-.24.17-.01.18-.28,0-.27-1.3.05-3.12.15-3.77,1.5-.43.89-.26,2.16.78,2.5.1.03.2-.07.17-.17-.32-.97-.33-1.94-.05-2.92-.08.02-.16.04-.23.06.88,1.05,1.52,2.25,1.91,3.57.05.17.29.1.26-.07-.17-.9-.34-1.79-.5-2.69-.03-.17-.3-.1-.27.07h0Z"/>
      <path class="cls-1" d="m119.51,45.16c-.62,3.69-.72,7.6,0,11.29.02.13.25.1.24-.03-.5-3.75-.61-7.44,0-11.19.03-.16-.22-.23-.24-.07h0Z"/>
      <path class="cls-1" d="m118.41,98.65c1.38-2.24,3.17-4.19,5.28-5.77-.05-.05-.11-.11-.16-.16-1.5,2.35-3.42,4.41-5.68,6.04.05.07.1.14.16.2,2.23-2.65,4.46-5.31,6.69-7.97-.07-.04-.15-.09-.22-.13-.99,2.39-2.65,4.44-4.77,5.92.06.06.13.13.19.19,1.33-1.85,2.66-3.69,3.99-5.53-.08-.05-.16-.09-.24-.14-1.49,2.39-2.98,4.79-4.46,7.18.08.04.17.07.25.11.84-2.34,2.04-4.52,3.56-6.48-.08-.04-.16-.09-.24-.14-.75,2.03-1.51,4.06-2.24,6.09-.05.14.18.24.24.1,1.08-2.12,1.63-4.43,1.6-6.81,0-.13-.19-.19-.25-.07-1.41,2.71-2.47,5.59-3.17,8.56-.04.15.19.26.26.11,1.01-2.32,1.82-4.71,2.42-7.17.04-.18-.22-.25-.28-.08-1.65,4.53-2.71,9.29-3.08,14.1-.01.16.24.16.26,0,.45-4.79,1.47-9.49,3.11-14.02-.09-.03-.19-.05-.28-.08-.59,2.43-1.38,4.81-2.38,7.11.09.04.17.07.26.11.7-2.95,1.75-5.79,3.13-8.49-.08-.02-.16-.05-.25-.07.05,2.32-.48,4.62-1.56,6.68.08.04.16.07.24.1.76-2.03,1.51-4.06,2.26-6.09.05-.13-.15-.25-.24-.14-1.56,2-2.77,4.23-3.63,6.61-.05.15.17.23.25.11,1.49-2.39,2.98-4.79,4.47-7.18.09-.15-.14-.28-.24-.14-1.33,1.85-2.66,3.69-3.98,5.54-.08.11.08.26.19.19,2.18-1.52,3.87-3.63,4.89-6.09.05-.12-.14-.23-.22-.13-2.23,2.66-4.46,5.32-6.68,7.98-.09.1.03.29.16.2,2.28-1.68,4.24-3.75,5.76-6.14.06-.1-.07-.24-.16-.16-2.14,1.6-3.96,3.58-5.36,5.86-.08.13.12.24.2.12h0Z"/>
      <path class="cls-1" d="m122.13,94.63c-1.8,2.12-2.92,4.69-3.27,7.44-.02.14.19.17.25.07,1.68-2.71,3.14-5.55,4.35-8.5-.09-.03-.18-.05-.27-.07-1.18,2.98-2.49,5.91-3.92,8.78.08.05.17.1.25.15,1.39-3.02,2.95-5.97,4.66-8.81-.09-.03-.19-.05-.29-.08-.26,2.49-1.35,4.82-3.11,6.61.09.05.17.1.26.15.93-2.64,2.12-5.16,3.57-7.55-.09-.04-.19-.08-.28-.12-.72,1.92-1.86,3.65-3.34,5.06.08,0,.16.02.24.03-.9-1.84-.6-4.11.74-5.65-.08-.05-.17-.1-.25-.15-.58,1.74-1.16,3.47-1.73,5.21.1.03.19.05.29.08l.87-3.24c-.1-.01-.2-.03-.3-.04-.31,2.84-.63,5.68-.91,8.52-.02.18.25.17.27,0,.34-2.84.63-5.68.94-8.52.02-.17-.25-.2-.3-.04-.29,1.08-.58,2.16-.87,3.24-.05.19.23.26.29.08.58-1.74,1.15-3.48,1.73-5.21.05-.14-.15-.26-.25-.15-1.44,1.65-1.76,4.05-.79,6.02.04.09.17.09.24.03,1.52-1.46,2.68-3.23,3.42-5.2.06-.17-.19-.26-.28-.12-1.46,2.41-2.67,4.97-3.61,7.63-.05.15.15.26.26.15,1.81-1.85,2.93-4.25,3.2-6.83.02-.16-.21-.2-.29-.08-1.72,2.85-3.27,5.8-4.65,8.83-.07.16.16.31.25.15,1.44-2.89,2.75-5.85,3.94-8.85.07-.17-.2-.24-.27-.07-1.2,2.93-2.65,5.75-4.32,8.44.08.02.17.05.25.07.34-2.68,1.44-5.2,3.18-7.27.1-.12-.07-.29-.17-.17h0Z"/>
      <path class="cls-1" d="m120.52,95.92c-1.35,4.43-1.96,9.08-1.88,13.71,0,.16.22.18.26.04,1.16-3.39,1.78-6.94,1.82-10.52,0-.17-.22-.18-.27-.04-1.29,3.38-1.9,6.98-1.78,10.6,0,.16.24.2.28.04.93-3.64,1.48-7.36,1.63-11.11,0-.14-.21-.21-.27-.07-1.69,3.71-2.44,7.78-2.17,11.85.01.17.23.2.29.04,1.45-4.04,1.76-8.34,1.74-12.6,0-.17-.24-.2-.29-.04-1.64,4.84-2.05,10.04-1.19,15.08.03.18.27.11.29-.04.25-1.87.49-3.74.72-5.61.02-.13-.21-.16-.23-.03-.27,1.87-.53,3.73-.78,5.6h.28c-.85-4.99-.44-10.13,1.19-14.93-.1-.01-.2-.03-.29-.04,0,4.23-.3,8.51-1.73,12.52.1.01.19.03.29.04-.26-4.01.47-8.03,2.13-11.7-.09-.02-.18-.05-.27-.07-.15,3.72-.69,7.42-1.61,11.03.09.01.19.02.28.04-.12-3.6.49-7.17,1.77-10.53-.09-.01-.18-.02-.28-.04-.04,3.56-.65,7.08-1.8,10.44.09.01.18.02.26.04-.09-4.62.55-9.2,1.82-13.65.04-.14-.17-.2-.22-.06h0Z"/>
      <path class="cls-1" d="m119.13,99.04c-1.63,4.78-3.4,10.43-.93,15.25.03.05.11.09.16.07.68-.25,1.19-.77,1.41-1.47.04-.15-.17-.2-.23-.06-.15.4-.39.75-.75,1-.1.07-.22.18-.34.16-.17-.03-.23-.32-.3-.48-.27-.63-.47-1.28-.61-1.94-.29-1.37-.32-2.77-.2-4.16.25-2.84,1.12-5.6,2.03-8.29.05-.15-.19-.22-.24-.07h0Z"/>
      <path class="cls-1" d="m119.14,99c-2.09,4.45-2.38,9.96-.33,14.48.05.12.25.04.21-.09-1.73-4.66-1.78-9.71.35-14.26.07-.16-.16-.29-.23-.14h0Z"/>
      <path class="cls-1" d="m118.76,103.84c-1.55-4.8.35-10.03,4.3-13.04.13-.09.01-.31-.13-.22-4.21,2.77-5.96,8.62-4.4,13.32.05.15.28.08.23-.07h0Z"/>
      <path class="cls-1" d="m119.13,100.69c-.45.53-.89,1.08-1.37,1.59.07.03.15.06.22.09.29-3.64,1.63-6.86,3.94-9.68.1-.12-.07-.3-.18-.18-2.44,2.6-3.92,6.31-4.01,9.86,0,.1.15.18.22.09.43-.55.9-1.08,1.35-1.61.09-.11-.06-.26-.16-.16h0Z"/>
      <path class="cls-1" d="m118.7,103.38c-.07,2.87.05,5.75.37,8.61.07.64.15,1.27.24,1.91.06.45.05,1.06.33,1.45.31.43,1.13.2.86-.35-.06-.12-.23-.02-.18.11-.39.09-.6-.01-.62-.29-.02-.12-.04-.24-.06-.35-.03-.21-.06-.42-.09-.62-.08-.54-.15-1.09-.21-1.63-.11-.98-.21-1.95-.28-2.93-.14-1.96-.19-3.92-.15-5.88,0-.14-.21-.14-.21,0h0Z"/>
      <path class="cls-1" d="m119.61,100.77c-1.47,3.62-2.19,7.52-2.12,11.43.02.97.09,1.94.21,2.91.1.81.15,1.73.49,2.49.21.47.6.87,1.15.86.46-.01.85-.28.9-.75.01-.13-.21-.16-.23-.03-.07.4-.48.58-.86.49-.44-.1-.66-.55-.78-.94-.24-.73-.31-1.55-.4-2.31-.18-1.58-.24-3.17-.16-4.75.16-3.2.85-6.35,2.04-9.32.06-.15-.18-.21-.23-.06h0Z"/>
      <path class="cls-1" d="m118.97,101.16c-1.18,5.71-1.15,11.66.15,17.34.02.1.17.15.24.06.32-.42.63-.84.94-1.26.08-.1-.1-.24-.18-.14-.32.4-.65.79-.97,1.2.08.02.16.04.24.06-1.25-5.66-1.34-11.52-.18-17.2.03-.16-.22-.23-.25-.07h0Z"/>
      <path class="cls-1" d="m118.98,103.31c-1.14,4.95-1.1,10.14.17,15.06.04.14.24.14.28,0,.45-1.66.59-3.41.33-5.11-.02-.13-.24-.1-.22.03.17,1.7.07,3.35-.38,5h.28c-1.24-4.89-1.32-10-.19-14.92.04-.16-.22-.24-.25-.07h0Z"/>
      <path class="cls-1" d="m118.76,105.1c-.06,5,.17,10.01.69,14.99.02.18.28.19.29,0,.26-4.85.26-9.7.14-14.55,0-.13-.22-.18-.24-.03-.86,4.71-.22,9.48.43,14.17.02.17.29.13.29-.04-.07-4.24-.16-8.49-.24-12.73,0-.19-.26-.18-.28,0-.52,4.41-.33,8.87.55,13.22.04.16.3.13.29-.04-.15-4.24-.32-8.49-.49-12.73h-.3c.29,4.02.58,8.04.87,12.06.02.19.31.2.3,0-.15-3.81-.29-7.63-.45-11.44-.12-3.04-.27-6.49,1.76-9-.08-.05-.16-.09-.24-.14-.92,4.88-1.54,9.81-1.85,14.77-.01.19.28.19.29,0,.24-3.15.5-6.3.83-9.44.16-1.54.28-3.1.52-4.64.16-1.02.53-2.38,1.72-2.59.18-.03.11-.31-.08-.28-1.02.17-1.52,1.11-1.78,2.03-.38,1.41-.42,2.96-.58,4.41-.37,3.49-.69,7-.92,10.5h.29c.29-4.93.91-9.84,1.84-14.69.02-.13-.14-.26-.24-.14-1.96,2.42-1.98,5.67-1.88,8.63.14,4,.31,8.01.47,12.01h.3c-.29-4.02-.59-8.04-.88-12.06-.02-.19-.3-.19-.3,0,.16,4.24.32,8.49.49,12.73.1-.01.19-.03.29-.04-.89-4.32-1.07-8.76-.56-13.14h-.28c.08,4.24.14,8.49.23,12.73.1-.01.19-.03.29-.04-.65-4.64-1.29-9.37-.48-14.03-.08-.01-.16-.02-.24-.03.18,4.84.08,9.71-.18,14.55h.29c-.52-4.98-.77-9.98-.72-14.99,0-.17-.26-.17-.26,0h0Z"/>
      <path class="cls-1" d="m120.47,107.26c-.3,4.17.14,8.37,1.29,12.4.04.14.27.12.26-.04-.2-2.57-.76-5.09-1.69-7.5-.05-.14-.3-.14-.28.04.28,3.47,1.07,6.88,2.35,10.12.07.17.32.11.28-.08-.67-3.09-1.34-6.18-2.01-9.27-.04-.17-.31-.13-.3.04.27,3.4,1.16,6.7,2.63,9.78.08.16.31.04.27-.12-.62-2.94-1.23-5.87-1.85-8.8-.04-.2-.34-.11-.31.09.5,3.1,1.54,6.08,3.07,8.82.08.15.33.05.28-.12-.98-3.23-1.96-6.46-2.95-9.68-.05-.16-.3-.13-.3.04-.03,3.82,1.22,7.56,3.54,10.59.09.12.34.06.27-.11-1.37-3.27-2.43-6.65-3.18-10.11-.04-.17-.31-.13-.3.04.26,3.94,1.62,7.74,3.89,10.96.09.13.34.06.28-.12-.81-2.46-1.63-4.92-2.45-7.38-.09.04-.18.08-.27.11,1.18,2.33,2.37,4.67,3.55,7,.09-.05.17-.1.26-.15-.8-1.51-1.83-2.87-3.07-4.05-.12-.12-.32.03-.24.18,1.06,1.93,2.31,3.74,3.74,5.42.09.11.31,0,.25-.15-.67-1.59-1.65-2.99-2.94-4.14-.13-.11-.33.03-.24.19.82,1.42,1.76,2.75,2.82,4.01.12.14.3-.04.24-.18-1.02-2.34-2.56-4.4-4.53-6.03-.12-.1-.28,0-.25.15.4,2.62,1.77,5.02,3.82,6.71.12.1.33-.02.23-.18-1.12-1.86-2.23-3.72-3.34-5.58-.1-.16-.31-.05-.29.12.39,2.55,1.71,4.88,3.7,6.53.13.11.31-.02.24-.18-1.41-3.11-3.44-5.91-5.95-8.22-.12-.11-.28,0-.26.15.38,2.28,1.7,4.31,3.62,5.59.1.07.26-.05.22-.17-.97-2.51-2.37-4.81-4.16-6.82-.1-.11-.3,0-.25.15,1.09,3.24,3.16,6.06,5.92,8.07.15.11.3-.12.19-.25-2.8-3.17-4.61-7.13-5.15-11.32l-.29.04c1.13,3.84,2.65,7.55,4.53,11.08.08.16.29.04.27-.11-.58-3.56-1.79-6.98-3.59-10.1-.09-.15-.31-.05-.27.11,1.09,4.39,4.3,7.74,7.35,10.88.12.12.34-.04.24-.18-1.09-1.58-2.19-3.14-3.3-4.71-.08-.12-.27-.08-.28.08-.07,1.59.7,3.09,2.02,3.97.04-.09.08-.18.12-.28-.68-.21-1.36-.43-2.04-.64-.15-.05-.24.15-.15.25.63.71,1.45,1.17,2.38,1.35.19.04.27-.23.08-.29-.47-.15-.9-.05-1.27.26-.15.13.07.34.22.22.56-.46,1.11-.93,1.67-1.39.14-.11-.04-.33-.19-.24-.85.48-1.46,1.22-1.78,2.14-.05.14.12.22.23.17.69-.3,1.38-.6,2.08-.9.16-.07.05-.34-.12-.28-.62.2-1.25.4-1.87.6-.16.05-.14.31.04.31.97-.04,1.89-.26,2.78-.64.12-.05.09-.26-.04-.28-1.22-.2-2.41.13-3.34.94-.12.11.01.29.15.26,1.32-.33,2.56-.89,3.68-1.66.11-.07.1-.24-.04-.28-1.22-.33-2.45-.67-3.67-1-.16-.04-.28.2-.12.28,1.4.63,2.95.63,4.34-.02.17-.08.02-.33-.15-.25-1.28.59-2.75.6-4.03,0-.04.09-.08.18-.12.28,1.22.33,2.45.67,3.67,1-.01-.09-.02-.19-.04-.28-1.1.76-2.31,1.3-3.6,1.63.05.09.1.17.15.26.84-.73,1.94-1.04,3.04-.86-.01-.09-.02-.19-.04-.28-.84.36-1.71.56-2.62.6.02.1.03.2.04.31.62-.2,1.24-.4,1.87-.6l-.12-.28c-.69.3-1.38.6-2.08.9.08.06.15.12.23.17.3-.84.87-1.51,1.64-1.95-.06-.08-.13-.16-.19-.24-.55.47-1.11.93-1.66,1.39.07.07.14.15.22.22.29-.24.62-.3.98-.18.03-.1.05-.19.08-.29-.89-.17-1.64-.6-2.25-1.27l-.15.25c.68.21,1.36.43,2.04.64.17.05.25-.18.12-.28-1.24-.83-1.94-2.23-1.88-3.71-.09.02-.19.05-.28.07,1.11,1.56,2.2,3.14,3.29,4.71.08-.06.16-.12.24-.18-3.04-3.09-6.21-6.42-7.28-10.75-.09.04-.18.08-.27.11,1.78,3.1,2.99,6.5,3.56,10.03.09-.04.18-.07.27-.11-1.87-3.51-3.38-7.2-4.5-11.01-.04-.15-.31-.13-.29.04.55,4.28,2.36,8.32,5.23,11.54.06-.08.13-.16.19-.24-2.69-1.96-4.72-4.73-5.79-7.88-.08.05-.16.1-.25.15,1.76,1.97,3.14,4.23,4.09,6.69.07-.05.15-.11.22-.16-1.86-1.25-3.1-3.21-3.47-5.42-.09.05-.17.1-.26.15,2.5,2.29,4.51,5.06,5.91,8.16l.24-.18c-1.95-1.62-3.23-3.89-3.61-6.4-.09.04-.19.08-.29.12,1.12,1.86,2.24,3.71,3.36,5.57.08-.06.15-.12.23-.18-2.01-1.66-3.34-4-3.73-6.58-.09.05-.17.1-.25.15,1.94,1.61,3.49,3.65,4.49,5.97.08-.06.16-.12.24-.18-1.04-1.23-1.96-2.55-2.77-3.95-.08.06-.16.13-.24.19,1.24,1.11,2.22,2.47,2.87,4.01l.25-.15c-1.42-1.65-2.65-3.45-3.69-5.36-.08.06-.16.12-.24.18,1.21,1.17,2.23,2.5,3.02,3.99.09.17.35.02.26-.15-1.18-2.33-2.37-4.67-3.55-7-.07-.15-.33-.05-.27.12.82,2.46,1.62,4.93,2.44,7.39.09-.04.18-.08.28-.12-2.26-3.17-3.59-6.93-3.85-10.81-.1.02-.2.03-.3.04.75,3.46,1.81,6.84,3.18,10.11.09-.04.18-.08.27-.12-2.29-2.99-3.52-6.68-3.49-10.44-.1.01-.2.03-.3.04.98,3.23,1.97,6.46,2.95,9.68.09-.04.18-.08.28-.12-1.52-2.72-2.54-5.68-3.03-8.75-.1.03-.2.06-.31.09.62,2.93,1.24,5.86,1.86,8.8.09-.04.18-.08.27-.12-1.45-3.02-2.33-6.28-2.59-9.63-.1.02-.2.03-.3.04.67,3.09,1.35,6.18,2.02,9.27l.28-.08c-1.27-3.21-2.07-6.59-2.35-10.04-.09.01-.19.02-.28.04.92,2.38,1.49,4.87,1.7,7.42.09-.01.17-.02.26-.04-1.16-4-1.61-8.17-1.32-12.33.01-.14-.21-.14-.22,0h0Z"/>
      <path class="cls-1" d="m79.76,17.95c.26-.29.44-.31.54-.08.08.11.14.23.18.36.06.15.11.31.16.47.11.35.22.7.32,1.05.18.68.33,1.36.45,2.05.24,1.47.31,2.96.24,4.45,0,.15.22.15.23,0,.16-2.24-.08-4.5-.69-6.66-.15-.52-.3-1.07-.52-1.57-.11-.25-.26-.54-.54-.62-.38-.11-.81.3-.57.67.08.12.28,0,.2-.12h0Z"/>
      <path class="cls-1" d="m81.88,17.32c.43.26.36-.01.42.4.03.19.05.38.07.57.04.35.09.7.13,1.04.09.7.17,1.39.26,2.09.16,1.33.29,2.68.51,4,.02.14.25.11.24-.03-.21-2.34-.57-4.67-.87-7-.04-.35-.02-1.58-.65-1.53-.31.02-.52.47-.22.64.12.07.23-.12.11-.19h0Z"/>
      <path class="cls-1" d="m84.35,16.77c.55,2.45,1.07,4.9,1.66,7.34.04.15.27.09.24-.06-.52-2.45-1.1-4.9-1.65-7.34-.04-.16-.27-.09-.24.07h0Z"/>
      <path class="cls-1" d="m86.75,16.38c.34,2.43.63,4.88,1.04,7.3.02.13.25.1.23-.03-.28-2.45-.68-4.89-1.03-7.33-.02-.16-.26-.09-.24.07h0Z"/>
      <path class="cls-1" d="m88.73,15.88c.67,2.26.99,4.57,1.03,6.92,0,.15.23.15.23,0,.04-2.36-.34-4.72-1.02-6.99-.05-.15-.29-.09-.24.07h0Z"/>
      <path class="cls-1" d="m91.45,15.48c.16,1.72.29,3.45.49,5.17.02.16.27.17.25,0-.13-1.72-.32-3.44-.48-5.17-.02-.17-.28-.17-.26,0h0Z"/>
      <path class="cls-1" d="m93.65,13.75c.17,2.15.31,4.31.53,6.46.02.15.26.16.25,0-.12-2.15-.34-4.31-.52-6.46-.01-.16-.27-.17-.26,0h0Z"/>
      <path class="cls-1" d="m95.88,13.78c.43,1.99.52,3.98.41,6,0,.14.2.14.22,0,.23-2.02.05-4.09-.38-6.07-.04-.16-.28-.09-.24.07h0Z"/>
      <path class="cls-1" d="m98.03,12.48c.43,1.7.53,3.4.41,5.14-.01.15.21.14.22,0,.2-1.74.04-3.51-.39-5.21-.04-.15-.28-.09-.24.07h0Z"/>
      <path class="cls-1" d="m99.65,12.1c.69,1.63.99,3.34.99,5.1,0,.14.21.14.22,0,.09-1.79-.28-3.55-.98-5.2-.05-.13-.28-.03-.23.09h0Z"/>
      <path class="cls-1" d="m101.07,12.91c.32,1.43.61,2.87.97,4.28.04.14.24.08.21-.06-.28-1.44-.63-2.86-.96-4.29-.03-.15-.26-.08-.22.06h0Z"/>
      <path class="cls-1" d="m103.16,14.22c.29.86.56,1.73.88,2.58.05.14.27.09.23-.06-.26-.87-.58-1.72-.86-2.58-.05-.15-.29-.09-.24.07h0Z"/>
      <path class="cls-1" d="m105.37,14.58c-.11.75.22,1.49.88,1.86.12.07.23-.11.11-.19-.54-.35-.85-.97-.75-1.61.02-.16-.22-.22-.24-.07h0Z"/>
      <path class="cls-1" d="m107.62,16.45c.15,0,.15-.23,0-.23s-.15.23,0,.23h0Z"/>
      <path class="cls-1" d="m107.66,16.49c.52-.21,1.07.17,1.14.71.02.14.21.14.22,0,.03-.7-.8-1.2-1.43-.95-.15.06-.08.3.07.24h0Z"/>
      <path class="cls-1" d="m107.48,13.83c1.02,1.69,1.64,3.55,1.85,5.51.02.13.23.14.21,0-.2-2-.84-3.9-1.88-5.62-.07-.12-.26-.01-.19.11h0Z"/>
      <path class="cls-1" d="m109.09,14.68c.64,2.38.94,4.8,1.06,7.26,0,.14.22.14.22,0,0-2.46-.42-4.94-1.06-7.31-.04-.14-.25-.08-.21.06h0Z"/>
      <path class="cls-1" d="m110.47,15.09c.83,2.19,1.12,4.51.9,6.84-.01.14.2.14.22,0,.27-2.34-.05-4.71-.89-6.9-.05-.14-.29-.08-.23.06h0Z"/>
      <path class="cls-1" d="m112.65,17.2c0,1.24.31,2.42.91,3.5.07.13.27.01.2-.12-.56-1.05-.86-2.19-.87-3.38,0-.16-.24-.16-.24,0h0Z"/>
      <path class="cls-1" d="m114.94,18.18c.16,0,.16-.25,0-.25s-.16.25,0,.25h0Z"/>
    </g>
  </g>
</svg>