<?xml version="1.0" encoding="UTF-8"?>
<svg id="Capa_2" data-name="Capa 2" xmlns="http://www.w3.org/2000/svg" viewBox="0 0 150.6 118.25">
  <defs>
    <style>
      .cls-1 {
        fill: #fab800;
      }
    </style>
  </defs>
  <g id="inicio">
    <g>
      <path class="cls-1" d="m31.84,35.89c-3.61-.68-6.42-2.14-8.83-4.95-.15-.18-.46.06-.32.25,2.05,2.8,5.63,4.82,9.13,4.83.07,0,.09-.12.02-.13h0Z"/>
      <path class="cls-1" d="m29.07,37.18c-2.29-.83-4.08-1.86-5.87-3.52-.19-.17-.44.09-.28.28,1.54,1.7,3.83,3.03,6.1,3.4.1.02.15-.12.04-.16h0Z"/>
      <path class="cls-1" d="m28.64,38.51c-1.9-.62-3.28-1.51-4.84-2.72-.18-.14-.42.08-.26.26,1.23,1.39,3.24,2.34,5.04,2.66.13.02.18-.15.05-.19h0Z"/>
      <path class="cls-1" d="m49.14,35.38c2.29-.58,4.62-1.83,6.41-3.36.14-.12-.05-.37-.2-.26-2.02,1.42-4,2.5-6.27,3.47-.09.04-.02.17.06.15h0Z"/>
      <path class="cls-1" d="m49.61,36.58c1.91-.72,3.78-1.61,5.45-2.79.17-.12.01-.39-.16-.28-1.72,1.11-3.45,2.13-5.34,2.94-.08.03-.02.16.06.13h0Z"/>
      <path class="cls-1" d="m49.56,37.67c.7.07,1.53-.44,2.16-.74.77-.38,1.55-.8,2.22-1.33.17-.13-.05-.39-.22-.29-.74.42-1.44.9-2.19,1.29-.63.33-1.49.53-1.98,1.04-.01.02,0,.04.02.04h0Z"/>
      <path class="cls-1" d="m110.86,20.76c-3.67-.6-7.57-.76-11.26-.28-.29.04-.31.49,0,.47,3.78-.26,7.45-.32,11.23.01.11,0,.14-.18.03-.2h0Z"/>
      <path class="cls-1" d="m107.57,19.21c-3.2.21-6.53.38-9.66,1.05-.21.04-.17.39.05.37,3.21-.29,6.41-.9,9.61-1.25.11-.01.11-.18,0-.17h0Z"/>
      <path class="cls-1" d="m103.86,18.43c-2.82.05-5.89.6-8.51,1.62-.24.09-.15.47.11.39,2.81-.81,5.56-1.35,8.42-1.9.07-.01.05-.12-.02-.12h0Z"/>
      <path class="cls-1" d="m100.63,17.2c-2.73.16-5.55.86-8.03,2.02-.18.08-.05.4.14.32,2.61-1.04,5.14-1.77,7.91-2.23.07-.01.05-.12-.02-.12h0Z"/>
      <path class="cls-1" d="m96.5,16.57c-2.59.53-5.14,1.59-7.56,2.63-.17.07-.05.35.13.3,2.54-.8,4.92-2.01,7.47-2.81.08-.02.05-.14-.03-.12h0Z"/>
      <path class="cls-1" d="m91.72,16.72c-2.58.93-5.08,2.15-7.64,3.13-.21.08-.13.39.09.34,2.59-.68,5.32-1.98,7.59-3.37.05-.03.02-.12-.04-.1h0Z"/>
      <path class="cls-1" d="m87.6,16.79c-2.54.69-5.1,1.71-7.44,2.93-.2.1-.06.45.16.37,2.48-.98,4.81-2.23,7.34-3.09.13-.04.08-.24-.06-.2h0Z"/>
      <path class="cls-1" d="m83.6,16.71c-2.78.73-5.76,2.06-8.12,3.71-.19.13-.03.43.19.32,2.64-1.42,5.23-2.72,7.99-3.9.08-.03.02-.15-.06-.13h0Z"/>
      <path class="cls-1" d="m79.42,16.71c-2.49,1.01-5,2.12-7.29,3.54-.2.12-.02.42.18.31,2.38-1.27,4.71-2.58,7.18-3.68.1-.04.03-.21-.07-.17h0Z"/>
      <path class="cls-1" d="m75.86,16.81c-2.6,1.03-5.17,2.36-7.5,3.91-.26.17-.02.59.25.42,2.4-1.5,4.81-2.87,7.33-4.14.11-.05.03-.24-.08-.2h0Z"/>
      <path class="cls-1" d="m71.7,17.2c-2.14.99-4.32,2.13-6.19,3.57-.19.15.05.45.25.33,2.02-1.23,3.97-2.57,6.03-3.74.1-.06.01-.21-.09-.16h0Z"/>
      <path class="cls-1" d="m67.22,17.62c-2.27,1.28-4.73,2.69-6.53,4.61-.2.22.1.5.32.32,2.07-1.66,4.16-3.21,6.32-4.74.11-.08.01-.26-.11-.19h0Z"/>
      <path class="cls-1" d="m125.56,36.05c-3.18-.34-5.99-1.29-8.58-3.19-.24-.17-.46.22-.23.39,2.51,1.89,5.65,3.05,8.81,2.96.11,0,.1-.15,0-.16h0Z"/>
      <path class="cls-1" d="m123.4,37.43c-2.33-.58-4.17-1.44-6-3.01-.18-.16-.44.09-.27.27,1.61,1.6,3.97,2.73,6.25,2.85.06,0,.08-.1.02-.11h0Z"/>
      <path class="cls-1" d="m122.76,38.75c-1.99-.73-3.62-1.58-5.21-3-.19-.17-.45.1-.28.28,1.42,1.45,3.43,2.57,5.44,2.85.09.01.12-.1.04-.13h0Z"/>
      <path class="cls-1" d="m141.7,34.08c2.87-.68,5.78-2.26,7.62-4.61.13-.17-.08-.4-.24-.24-2.2,2.17-4.43,3.78-7.42,4.69-.1.03-.06.18.04.16h0Z"/>
      <path class="cls-1" d="m143.73,35.32c1.92-.84,3.86-1.89,5.45-3.28.13-.11-.04-.34-.18-.24-1.74,1.23-3.43,2.42-5.35,3.38-.1.05-.01.18.08.14h0Z"/>
      <path class="cls-1" d="m144.21,36.69c1.33-.74,2.62-1.63,3.74-2.67.11-.1-.05-.24-.16-.16-1.17.97-2.35,1.91-3.62,2.76-.04.03,0,.09.04.06h0Z"/>
      <path class="cls-1" d="m120.36,18.64c-2.31.99-5,2.85-5.94,5.3-.03.09.1.17.17.1.81-1,1.43-2.09,2.38-2.99,1.02-.97,2.16-1.75,3.43-2.34.04-.02,0-.08-.03-.06h0Z"/>
      <path class="cls-1" d="m119.49,21.97c-1.02.63-2.21,1.2-3.12,1.99-.06.05.02.14.08.1,1.08-.52,2.07-1.38,3.06-2.06.02-.01,0-.04-.02-.03h0Z"/>
      <path class="cls-1" d="m120.34,23.9c-.88.44-1.81.83-2.65,1.34-.1.06-.01.21.09.16.9-.4,1.75-.94,2.61-1.41.06-.03,0-.12-.05-.09h0Z"/>
      <path class="cls-1" d="m120.11,26.84c-1.06-.01-2.21.29-2.99,1.05-.06.06.02.16.09.12.91-.61,1.78-1.05,2.9-1.09.05,0,.05-.08,0-.08h0Z"/>
      <path class="cls-1" d="m52.09,18.44c2,.8,3.66,2.05,5.23,3.5.08.08.2-.04.12-.12-1.4-1.65-3.31-2.75-5.33-3.45-.05-.02-.06.05-.02.07h0Z"/>
      <path class="cls-1" d="m52.42,21.21c1.39.76,2.44,1.77,3.58,2.86.08.08.24-.03.17-.13-.91-1.24-2.32-2.16-3.68-2.83-.07-.03-.13.07-.06.1h0Z"/>
      <path class="cls-1" d="m52.87,24.6c.63.25,1.25.49,1.89.72.08.03.11-.09.03-.12-.62-.26-1.25-.5-1.88-.74-.09-.03-.12.1-.04.14h0Z"/>
      <path class="cls-1" d="m52.35,27.23l1.06.27c.06.01.08-.07.02-.09-.35-.09-.71-.18-1.06-.26-.05-.01-.08.07-.02.08h0Z"/>
      <path class="cls-1" d="m46.69,112.72c-.74-.96-1.11-2.01-1.63-3.09-.04-.08-.15-.02-.14.06.17,1.14.91,2.26,1.62,3.15.07.09.22-.03.16-.12h0Z"/>
      <path class="cls-1" d="m47.34,111.11c-1.35-1.48-2.08-3.09-2.87-4.9-.07-.16-.28-.03-.26.11.28,1.91,1.57,3.69,2.99,4.93.1.09.23-.05.14-.14h0Z"/>
      <path class="cls-1" d="m46.94,107.85c-.95-1.71-1.62-3.47-2.3-5.29-.06-.16-.29-.1-.26.07.36,1.92,1.29,3.73,2.43,5.3.06.08.18.01.13-.08h0Z"/>
      <path class="cls-1" d="m46.82,104.28c-1.07-2.19-1.94-4.28-1.67-6.76.02-.15-.23-.18-.26-.04-.61,2.47.59,4.79,1.74,6.91.07.13.26.02.19-.11h0Z"/>
      <path class="cls-1" d="m121.23,114.2c1.05-.43,1.96-1.07,2.68-1.96.05-.06-.03-.15-.09-.09-.73.84-1.6,1.51-2.63,1.96-.05.02-.01.11.04.09h0Z"/>
      <path class="cls-1" d="m121.31,112.79c1.37-.73,2.63-1.81,3.43-3.15.09-.15-.13-.33-.24-.19-.98,1.22-2.01,2.25-3.33,3.1-.15.09-.02.32.14.23h0Z"/>
      <path class="cls-1" d="m120.68,111.07c2.08-1.1,3.77-3.12,4.04-5.51.02-.15-.22-.17-.26-.04-.7,2.24-1.84,4.11-3.89,5.35-.13.08-.01.27.12.2h0Z"/>
      <path class="cls-1" d="m121.46,107.54c1.35-.9,2.53-2.11,3.16-3.62.06-.15-.18-.24-.26-.11-.82,1.36-1.73,2.58-3.01,3.54-.11.08,0,.26.11.19h0Z"/>
      <path class="cls-1" d="m121.77,105.22c1.16-.72,2.19-1.81,2.54-3.16.03-.13-.16-.23-.23-.1-.61,1.2-1.31,2.25-2.45,3.01-.15.1-.01.35.15.25h0Z"/>
      <path class="cls-1" d="m94.25,114.96c3.77.18,7.56.03,11.33-.03,3.77-.06,7.56-.03,11.33-.2.26-.01.27-.41,0-.41-3.77-.04-7.56.12-11.33.19-3.77.07-7.57.05-11.33.36-.06,0-.07.1,0,.1h0Z"/>
      <path class="cls-1" d="m103.35,113.02c4.51.18,9.06.27,13.57.14.25,0,.25-.37,0-.38-4.51-.13-9.06-.04-13.57.14-.06,0-.07.1,0,.1h0Z"/>
      <path class="cls-1" d="m109.05,111.31c2.3.13,4.64.27,6.94.06.14-.01.14-.21,0-.22-2.31-.08-4.63,0-6.94-.1-.17,0-.17.25,0,.26h0Z"/>
      <path class="cls-1" d="m112.45,109.6c.93-.11,1.88-.16,2.8-.37.11-.03.09-.2-.03-.2-.93.01-1.85.18-2.77.29-.18.02-.19.31,0,.29h0Z"/>
      <path class="cls-1" d="m122.04,86.14c.21,4.08.01,8.1,0,12.18,0,.18.25.17.27,0,.49-4,.25-8.18-.12-12.18,0-.09-.15-.09-.14,0h0Z"/>
      <path class="cls-1" d="m46.87,86.91c-.17,3.07-.32,6.17-.23,9.25,0,.13.2.13.21,0,.2-3.07.17-6.17.12-9.25,0-.06-.09-.06-.1,0h0Z"/>
      <path class="cls-1" d="m105.15,88.88c-.53,1.17-1.15,2.34-1.57,3.56-.04.12.15.2.21.09.59-1.14,1-2.4,1.48-3.6.03-.07-.09-.12-.12-.05h0Z"/>
      <path class="cls-1" d="m106,87.67c.11,1.32-.27,2.32-.76,3.52-.04.1.11.15.17.07.71-.99.85-2.41.72-3.59,0-.08-.13-.08-.12,0h0Z"/>
      <path class="cls-1" d="m108.77,85.02c-.37,1.73-.98,3.38-1.38,5.09-.03.13.17.24.24.1.72-1.58,1.09-3.41,1.44-5.11.04-.19-.25-.27-.29-.08h0Z"/>
      <path class="cls-1" d="m110.11,83.2c.07,1.74-.36,3.23-.75,4.89-.03.12.15.21.21.09.77-1.47.88-3.35.78-4.98,0-.16-.25-.16-.24,0h0Z"/>
      <path class="cls-1" d="m111.79,81.35c.09,1.58-.18,3.04-.43,4.59-.02.14.17.2.22.06.53-1.45.57-3.12.47-4.65-.01-.16-.27-.17-.26,0h0Z"/>
      <path class="cls-1" d="m113.32,79.36c-.03,1.3-.34,2.56-.38,3.85,0,.12.15.12.19.03.46-1.17.46-2.64.46-3.87,0-.18-.27-.18-.28,0h0Z"/>
      <path class="cls-1" d="m114.99,77.51c0,.21.02.41.03.62,0,.07.1.07.11,0,0-.21.02-.41.03-.62,0-.1-.16-.1-.16,0h0Z"/>
      <path class="cls-1" d="m115.9,74.27c0,.51,0,1.03.02,1.54,0,.09.14.09.15,0,.02-.51.02-1.03.02-1.54,0-.12-.19-.12-.19,0h0Z"/>
      <path class="cls-1" d="m102.62,91.04c-.34.95-.95,1.71-1.35,2.61-.06.13.09.27.21.16.71-.69,1.04-1.8,1.3-2.73.03-.1-.12-.14-.16-.04h0Z"/>
      <path class="cls-1" d="m99.75,93.17c-.42.52-.87,1.02-1.24,1.57-.06.08.07.18.14.11.45-.47.84-1.02,1.25-1.53.08-.1-.06-.26-.15-.15h0Z"/>
      <path class="cls-1" d="m97.4,94.25c-.14.21-.32.36-.55.46-.07.03-.02.15.05.13.27-.08.5-.24.67-.46.1-.12-.09-.26-.17-.13h0Z"/>
      <path class="cls-1" d="m94.07,95.95c-.42.31-.83.62-1.24.94-.06.04.02.14.08.1.42-.29.84-.59,1.25-.9.09-.06,0-.21-.09-.15h0Z"/>
      <path class="cls-1" d="m110.81,100.07c-.33.27-.65.55-.98.82-.29.24-.64.47-.85.78-.07.1.06.18.14.14.34-.16.63-.47.92-.72.32-.27.65-.55.97-.82.15-.12-.07-.33-.21-.21h0Z"/>
      <path class="cls-1" d="m113.02,99.5c-.52.56-1.06,1.11-1.54,1.7-.06.08.04.19.11.11.53-.55,1.01-1.15,1.51-1.73.05-.06-.03-.14-.08-.08h0Z"/>
      <path class="cls-1" d="m114.99,98.86c-.24.3-.48.6-.73.91-.21.27-.49.53-.64.84-.03.05.03.14.09.09.27-.21.48-.52.69-.78.25-.3.5-.59.74-.89.1-.12-.07-.28-.17-.17h0Z"/>
      <path class="cls-1" d="m117.4,97.62c-.65,1.06-1.44,2.13-1.96,3.26-.05.11.09.24.18.14.78-.99,1.37-2.18,2.03-3.26.1-.16-.15-.3-.25-.14h0Z"/>
      <path class="cls-1" d="m119.13,96.47c-.06,1.62-.57,2.96-1.2,4.43-.05.12.1.22.18.1.91-1.29,1.23-2.98,1.25-4.53,0-.15-.22-.14-.22,0h0Z"/>
      <path class="cls-1" d="m120.68,96.6c-.16.77-.33,1.54-.46,2.31-.02.13.17.18.19.05.18-.77.32-1.54.47-2.31.03-.13-.17-.19-.2-.05h0Z"/>
      <path class="cls-1" d="m48.85,96.62c-.07.66-.17,1.33-.16,2,0,.07.12.09.13.02.14-.66.16-1.35.22-2.02.01-.12-.18-.12-.19,0h0Z"/>
      <path class="cls-1" d="m49.74,97.55c-.03,1.15.09,2.41.62,3.45.04.08.16.02.14-.06-.27-1.14-.55-2.2-.53-3.39,0-.15-.24-.15-.24,0h0Z"/>
      <path class="cls-1" d="m51.07,98.83c.22,1.05.73,2.35,1.68,2.95.08.05.18-.05.13-.13-.29-.44-.66-.82-.92-1.28-.29-.51-.49-1.05-.62-1.62-.04-.18-.31-.1-.27.07h0Z"/>
      <path class="cls-1" d="m53.24,99.75c.27.73.79,1.31,1.52,1.61.13.05.22-.17.1-.23-.61-.31-1.1-.8-1.34-1.45-.06-.17-.34-.1-.27.08h0Z"/>
      <path class="cls-1" d="m56.46,100.36c.1.05.21.1.31.15.03.01.05-.03.02-.04-.1-.05-.2-.11-.3-.16-.04-.02-.07.04-.03.06h0Z"/>
      <path class="cls-1" d="m59.47,100.33c.7.39,1.45.68,2.26.72.13,0,.15-.19.03-.23-.73-.21-1.44-.43-2.1-.81-.21-.12-.4.2-.19.32h0Z"/>
      <path class="cls-1" d="m56.71,38.76c-.36.56-.77,1.11-1.08,1.7-.02.04.04.1.07.06.41-.53.74-1.13,1.1-1.7.03-.06-.05-.11-.09-.05h0Z"/>
      <path class="cls-1" d="m58.73,37.69c-.14.23-.26.47-.36.72-.08.22-.19.48-.13.71.01.06.09.06.13.02.12-.18.13-.42.2-.63.09-.25.2-.49.34-.72.07-.11-.11-.22-.18-.1h0Z"/>
      <path class="cls-1" d="m60.71,35.11c.04,1.16-.16,2.25-.29,3.39-.01.09.12.1.15.02.36-1.07.38-2.3.33-3.41,0-.12-.19-.12-.19,0h0Z"/>
      <path class="cls-1" d="m61.53,32.79c.1,1.03.14,2.08.33,3.1.01.06.1.04.1-.01-.02-1.03-.18-2.06-.28-3.08,0-.09-.16-.09-.15,0h0Z"/>
      <path class="cls-1" d="m61.59,31.39c.94,1.34,1.58,2.79,2.07,4.36.03.11.2.06.17-.05-.41-1.59-1.18-3.04-2.17-4.35-.03-.04-.1,0-.07.04h0Z"/>
      <path class="cls-1" d="m64.89,34.07c.31.41.62.82.92,1.23.06.08.19,0,.13-.08-.31-.41-.62-.82-.93-1.23-.06-.07-.18,0-.13.07h0Z"/>
      <path class="cls-1" d="m68.45,35.47c.06.05.11.09.17.14.06.04.12-.02.08-.08-.05-.06-.09-.11-.14-.17-.06-.08-.19.05-.11.11h0Z"/>
      <path class="cls-1" d="m106.91,42.8c3.26,2,5.91,4.48,8.09,7.62.06.08.19,0,.14-.08-1.91-3.25-4.79-5.96-8.17-7.63-.06-.03-.11.06-.05.09h0Z"/>
      <path class="cls-1" d="m77.79,67.86c3.82-2.71,7.78-5.67,10.86-9.22.14-.16-.07-.36-.23-.23-3.59,3.11-6.93,6.38-10.77,9.21-.14.1,0,.34.14.23h0Z"/>
      <path class="cls-1" d="m81,68.58c3.24-2.48,6.47-5.04,9.38-7.9.11-.11-.05-.26-.17-.17-3.12,2.63-6.14,5.36-9.32,7.93-.07.06.03.19.1.13h0Z"/>
      <path class="cls-1" d="m57.84,66.36c-.85,5.23,1.54,11.4,4.95,15.33.06.07.19-.02.14-.11-3.01-4.44-5.52-9.7-5.04-15.22,0-.03-.05-.04-.05,0h0Z"/>
      <path class="cls-1" d="m109.96,31.87c-.05,1.94.06,4.27,1.86,5.44.09.06.2-.08.12-.15-1.64-1.38-1.8-3.28-1.93-5.29,0-.04-.05-.04-.06,0h0Z"/>
      <path class="cls-1" d="m108.47,33.14c.34,1.41.91,2.96,1.92,4.03.09.1.25-.03.19-.14-.75-1.31-1.53-2.46-2.01-3.92-.02-.06-.12-.04-.1.03h0Z"/>
      <path class="cls-1" d="m107.72,36.44c.36.41.7.84,1.09,1.22.1.1.24-.05.16-.16-.34-.43-.73-.82-1.09-1.22-.09-.1-.24.05-.15.15h0Z"/>
      <path class="cls-1" d="m107.92,38.09l.31.3s.09-.02.06-.06c-.1-.11-.2-.21-.3-.32-.05-.05-.12.03-.07.07h0Z"/>
      <path class="cls-1" d="m111.04,63.48c.49,2.95.22,5.51-.36,8.43-.04.2.26.28.31.08.62-2.74,1.31-5.86.09-8.53-.01-.03-.05,0-.04.02h0Z"/>
      <path class="cls-1" d="m56.51,29.82c-5.16,2.89-10.73,4.77-16.69,4.68-2.93-.04-5.82-.5-8.66-1.22-2.77-.71-6.3-1.51-7.61-4.36-.23-.5-.98-.07-.75.44,1.19,2.6,4.06,3.61,6.63,4.35,3.08.88,6.26,1.49,9.46,1.62,6.4.26,12.44-1.77,17.68-5.38.08-.05,0-.17-.07-.13h0Z"/>
      <path class="cls-1" d="m149.06,25.94c-1.61,3.44-4.94,5.04-8.35,6.24-2.97,1.04-6.02,1.91-9.18,2.09-2.73.16-5.52-.1-8.21-.54-1.46-.24-2.92-.53-4.25-1.21-1.85-.95-2.85-2.29-3.82-4.05-.2-.36-.71-.11-.64.27.65,3.25,4.37,5.02,7.29,5.61,3.12.64,6.44.97,9.63.78,3.63-.22,7.23-1.31,10.59-2.67,3.09-1.25,6.05-3.12,7.15-6.43.04-.12-.15-.21-.21-.09h0Z"/>
      <path class="cls-1" d="m146.92,24.21c-1.2-4.47-3.53-8.99-7.1-12.03-3.44-2.92-8.17-4.46-12.66-4.44-.36,0-.34.5,0,.54,4.6.52,8.91,1.38,12.5,4.53,3.5,3.07,5.31,7.25,7.02,11.47.06.15.29.1.25-.07h0Z"/>
      <path class="cls-1" d="m62.73,18.07c-4.02,2.66-6.39,8.12-7.04,12.77-.05.38.5.72.69.29.92-2.16,1.33-4.52,2.25-6.7,1.01-2.39,2.41-4.32,4.31-6.09.14-.13-.04-.38-.21-.27h0Z"/>
      <path class="cls-1" d="m34.83,11.84c-5.94,3.1-9.24,10.08-10.27,16.44-.04.26.32.37.4.11.99-3.09,1.92-6.15,3.5-9.01,1.63-2.96,3.87-5.23,6.53-7.28.15-.12.03-.35-.15-.26h0Z"/>
      <path class="cls-1" d="m63.26,45.45c10.96-7.99,27.09-8.58,38.99-2.34,12.16,6.38,18.37,20.9,14.6,34.12-3.8,13.32-17.17,21.01-30.42,21.69-6.8.35-13.72-1.13-19.54-4.73-5.74-3.56-10.28-9.04-12.72-15.34-2.78-7.19-2.5-14.55.34-21.65,2.06-5.16,5.08-8.63,9.36-12.26.5-.43-.17-1.32-.71-.92-3.72,2.72-6.65,5.85-8.82,9.92-3.4,6.39-4.54,13.76-2.98,20.82,3.13,14.16,15.47,24.3,29.75,25.56,13.76,1.21,29.23-5.13,35.41-18.07,6.07-12.71,2.27-28.76-8.89-37.37-11.13-8.58-27.99-9.54-40.41-3.28-1.6.81-3.11,1.75-4.55,2.81-.6.45-.02,1.47.6,1.02h0Z"/>
      <path class="cls-1" d="m90.06,69.7c-3.7,2.03-8.19,2-11.09-1.41-2.87-3.36-1.72-8.5,2.26-10.35,3.64-1.7,8.74-1.2,10.94,2.54,1.89,3.21.81,7.1-2.08,9.26-.34.25-.03.82.34.58,2.47-1.57,3.83-4.71,3.36-7.6-.56-3.47-3.62-5.89-6.97-6.44-3.55-.58-7.76.64-9.6,3.93-1.75,3.13-1.03,7.01,1.53,9.48,3.11,2.99,8.26,3.08,11.71.66.39-.27.05-.89-.38-.65Z"/>
      <path class="cls-1" d="m45.96,13.8c4.72.66,8.34,2.54,11.36,6.26.27.34.83-.1.6-.46-2.44-3.77-7.41-6.43-11.93-6.02-.12.01-.17.21-.03.23h0Z"/>
      <path class="cls-1" d="m122.2,15.12c-2.02.54-3.91,1.51-5.64,2.68-1.5,1.02-3.47,2.38-4.32,4.02-.12.24.14.57.4.4,1.62-1.08,2.89-2.75,4.48-3.93,1.61-1.19,3.36-2.13,5.11-3.08.05-.03.01-.1-.04-.08h0Z"/>
      <path class="cls-1" d="m56.08,14.93c9.76-2.92,19.96-4.38,30.15-4.18,5.16.1,10.31.62,15.39,1.53,2.48.44,4.95.98,7.4,1.59,2.45.61,4.85,1.51,7.31,2.05.29.06.52-.37.22-.51-2.3-1.04-4.89-1.64-7.33-2.28-2.44-.64-4.9-1.18-7.39-1.63-5.06-.91-10.2-1.45-15.34-1.57-10.38-.24-20.71,1.25-30.5,4.72-.17.06-.1.33.08.27h0Z"/>
      <path class="cls-1" d="m61.75,23.8c3.15.67,5.1,3.43,7.98,4.66,1.69.72,3.4,1.15,5.23,1.29,2.13.17,4.27.23,6.4.28,1.59.04,3.32.25,4.9-.04.16-.03.16-.29,0-.32-1.49-.23-3.05-.11-4.56-.14-2.16-.05-4.32-.1-6.47-.25-2.18-.15-4.3-.65-6.26-1.64-2.52-1.28-4.23-3.52-7.18-3.93-.07-.01-.11.1-.03.12h0Z"/>
      <path class="cls-1" d="m108.99,23.39c-2.03.07-4.03,1.5-5.55,2.74-1.59,1.3-3.16,2.49-5.24,2.84-2.37.4-4.83.45-7.23.48-1.95.03-4.06-.2-6,.1-.32.05-.2.5.07.52,1.99.19,4.12-.06,6.11-.14,2.26-.09,4.54-.14,6.78-.47,1.75-.26,3.26-1,4.65-2.1,1.73-1.36,4.14-3.31,6.41-3.48.32-.02.33-.52,0-.51h0Z"/>
      <path class="cls-1" d="m70.27,31.73c.4-.88.81-1.76,1.15-2.67.12-.31-.38-.44-.5-.14-.33.89-.59,1.81-.85,2.72-.03.12.15.2.2.08h0Z"/>
      <path class="cls-1" d="m101.02,30.91c.13-.26-.18-.56-.29-.78-.23-.46-.24-.88-.28-1.38-.02-.28-.46-.39-.52-.07-.11.55.07,1.17.33,1.65.04.08.6.91.76.58h0Z"/>
      <path class="cls-1" d="m53.72,41.47c-1.12-.49-1.91.85-2.23,1.76-.37,1.05-.45,2.24-.63,3.34-.21,1.31-.54,2.66-.53,3.99,0,.25.36.29.43.06.55-1.66.66-3.55.94-5.28.26-1.63.49-2.88,2.03-3.75.04-.02.05-.1,0-.13h0Z"/>
      <path class="cls-1" d="m116.33,40.73c.2.43.46.62.83.9.57.43,1.13.67,1.39,1.43.16.46.14,1.04.18,1.51.17,1.9.34,3.8.54,5.7.04.42.7.43.66,0-.2-2.27-.24-4.71-.7-6.95-.3-1.46-1.51-2.11-2.79-2.7-.08-.04-.15.04-.11.11h0Z"/>
      <path class="cls-1" d="m46.53,101.24c-.1,3.95,7.09,2.98,9.33,2.99,6.04.02,12.09.05,18.13.06,12.09.02,24.18-.04,36.27-.07,2.82,0,5.82.29,8.61-.13,1.73-.26,3.34-1,3.58-2.88.06-.46-.73-.57-.81-.11-.42,2.22-3.52,2.16-5.24,2.15-2.53,0-5.07,0-7.6-.02-5.26-.03-10.53-.08-15.79-.09-10.33,0-20.67,0-31,.04-2.92,0-5.85,0-8.77.03-1.93.02-5.81.48-6.5-2-.03-.11-.2-.09-.2.03h0Z"/>
      <path class="cls-1" d="m118.64,106.59c-.03,2.49-.46,5.25-.14,7.71.02.17.28.24.32.04.6-2.42.24-5.29.04-7.76-.01-.15-.23-.15-.23,0h0Z"/>
      <path class="cls-1" d="m49.61,106.06c-.31,2.61-.26,5.34-.22,7.97,0,.4.61.4.62,0,.07-2.62.14-5.36-.13-7.97-.02-.17-.25-.17-.27,0h0Z"/>
      <path class="cls-1" d="m82.12,91.96c4.27.31,8.37.06,12.43-1.41,4.29-1.56,7.86-4.28,11.06-7.48.12-.12-.06-.29-.18-.18-3.34,3.02-7.19,5.59-11.47,7.1-3.76,1.32-7.87,1.81-11.84,1.85-.08,0-.08.12,0,.13h0Z"/>
      <path class="cls-1" d="m88.12,48.38c-1.59-.96-3.69-.18-4.11,1.69-.08.36.43.5.55.15.53-1.51,1.97-2.3,3.53-1.77.04.01.06-.05.03-.07h0Z"/>
      <path class="cls-1" d="m96.27,50.68c-.84-.57-1.74-.64-2.68-.25-.73.31-1.62.99-1.64,1.86,0,.18.24.29.37.15.5-.55.79-1.13,1.51-1.46.71-.33,1.64-.38,2.38-.12.11.04.16-.12.07-.18h0Z"/>
      <path class="cls-1" d="m102.74,56.11c-1.43-1.33-3.92-.33-4.46,1.43-.05.16.18.31.29.17.46-.55.77-1.15,1.42-1.52.84-.48,1.74-.43,2.5.17.17.13.4-.09.24-.24h0Z"/>
      <path class="cls-1" d="m80.26,49.06c-1.47-.9-4,.16-4.11,2.01-.01.19.25.24.34.09.41-.66.64-1.3,1.37-1.69.73-.39,1.56-.41,2.37-.33.04,0,.05-.06.02-.08h0Z"/>
      <path class="cls-1" d="m72.76,52.93c-.86-.49-1.93-.55-2.77.01-.61.41-1.37,1.31-1.14,2.1.06.2.33.23.44.06.38-.62.41-1.24,1.09-1.68.74-.47,1.53-.32,2.35-.39.05,0,.07-.07.03-.09h0Z"/>
      <path class="cls-1" d="m67.96,59.35c-.17-.97-1.88-.74-2.51-.47-.84.35-1.68,1.32-1.61,2.28,0,.11.16.17.22.06.35-.66.57-1.25,1.27-1.65.77-.44,1.65-.45,2.45-.08.1.05.2-.03.18-.14h0Z"/>
      <path class="cls-1" d="m66.47,67c-.52-.6-1.47-.49-2.11-.15-.81.43-1.62,1.43-1.76,2.34-.02.13.13.26.25.14.49-.52.67-1.25,1.21-1.76.74-.7,1.44-.63,2.37-.5.04,0,.08-.04.04-.08h0Z"/>
      <path class="cls-1" d="m69.04,74.26c-.83-.26-1.45.56-1.85,1.17-.51.76-1,1.9-.55,2.78.13.26.5.12.51-.14.03-.8.06-1.38.46-2.11.34-.62.75-1.28,1.43-1.56.06-.03.07-.12,0-.14h0Z"/>
      <path class="cls-1" d="m75.26,80.25c-.88-.31-1.56.29-2.09.95-.55.69-1.13,1.59-.84,2.5.05.14.27.16.31,0,.26-1.19,1.1-3.22,2.59-3.25.12,0,.13-.16.03-.2h0Z"/>
      <path class="cls-1" d="m83.12,82.52c-.86-.31-1.73-.25-2.46.34-.54.43-1.18,1.36-.87,2.06.07.16.29.11.37,0,.15-.2.17-.42.25-.65.12-.35.33-.67.6-.93.54-.51,1.34-.78,2.09-.72.07,0,.07-.09.01-.11h0Z"/>
      <path class="cls-1" d="m91.71,81.84c-.8-.38-1.79.09-2.42.61-.49.39-1.53,1.51-1.08,2.18.05.07.15.11.23.06.27-.17.29-.4.42-.69.18-.4.45-.76.77-1.05.62-.57,1.36-.69,2.1-1.02.04-.02.04-.08,0-.1h0Z"/>
      <path class="cls-1" d="m99.18,78.22c-1.17-1.28-3.28.1-3.45,1.57-.02.21.25.27.38.16.42-.36.62-.89,1.02-1.27.52-.49,1.35-.73,2.02-.42.02.01.05-.02.03-.04h0Z"/>
      <path class="cls-1" d="m77.98,74.52c3.76,2.28,8.49,2.29,12.45.48,3.89-1.78,7.55-5.94,6.94-10.52-.02-.17-.3-.25-.33-.05-.32,2.14-.58,4.08-1.78,5.94-1.21,1.88-3.06,3.27-5.09,4.18-3.9,1.73-8.25,1.42-12.13-.18-.08-.03-.13.1-.06.14h0Z"/>
      <path class="cls-1" d="m101.18,69.9c1.3,1.68,3.57,2.89,5.27,4.13.71.52,1.41,1.12,2.24,1.45,1.15.45,3.52.92,3.94-.74.05-.19-.19-.33-.33-.19-2.15,2.1-4.92-.51-6.76-1.81-1.36-.96-2.77-2.28-4.36-2.84,0,0,0,0,0,0h0Z"/>
      <path class="cls-1" d="m9.9,41.22c-1.22-.71-2.74,1.06-3.5,1.83-1.08,1.07-2.42,2.87-1.9,4.48.1.3.53.31.62,0,.42-1.39.59-2.49,1.59-3.63.57-.65,2.09-2.51,3.02-2.26.25.07.4-.29.18-.42h0Z"/>
      <path class="cls-1" d="m8.94,43.91c-1.13-.59-2.31.96-2.85,1.81-.66,1.05-1.48,2.99-.81,4.18.13.23.42.14.5-.07.34-.84.19-1.82.51-2.71.28-.78,1.41-3.1,2.51-2.89.18.03.32-.22.13-.32h0Z"/>
      <path class="cls-1" d="m8.85,46.2c-2.38.16-3.04,4.52-2.25,6.21.14.31.6.14.61-.16.06-1.82-.37-4.83,1.71-5.81.11-.05.06-.25-.06-.24h0Z"/>
      <path class="cls-1" d="m9.62,47.35c-2.59-.04-2.85,5.09-1.58,6.53.17.19.53.04.52-.21-.04-.88-.4-1.69-.41-2.59-.02-1.1.24-3.15,1.49-3.56.09-.03.07-.16-.02-.16h0Z"/>
      <path class="cls-1" d="m11.08,48.57c-2.42.68-4.32,3.82-2.65,6.12.25.35.84.15.72-.3-.28-1.12-.58-2.07-.16-3.22.39-1.07,1.2-1.83,2.21-2.31.17-.08.05-.34-.12-.29h0Z"/>
      <path class="cls-1" d="m12.6,49.57c-1.18-.18-2.19.41-2.79,1.43-.68,1.18-.87,3.35-.08,4.5.13.19.43.17.5-.06.25-.94-.16-1.91-.05-2.89.14-1.3.97-2.58,2.38-2.67.16-.01.23-.28.04-.31h0Z"/>
      <path class="cls-1" d="m13.76,50.57c-1.3.12-2.4.8-3.12,1.9-.56.87-1.18,2.57-.42,3.47.13.15.36.05.41-.11.13-.38.04-.74.07-1.14.04-.61.23-1.19.53-1.72.56-1,1.47-1.77,2.56-2.13.14-.05.13-.3-.04-.28h0Z"/>
      <path class="cls-1" d="m15.54,51.83c-1.39-.46-2.88-.06-3.82,1.08-.74.91-1.28,2.76-.42,3.75.22.25.58.03.6-.25.04-.5-.14-.96-.09-1.47.06-.59.28-1.18.66-1.64.72-.87,1.92-1.23,3.01-1.13.2.02.22-.28.05-.34h0Z"/>
      <path class="cls-1" d="m16.96,53.61c-1.46-.56-3.04-.42-4.19.71-.83.81-1.8,2.78-.91,3.82.16.19.43.06.5-.13.18-.48.04-.98.14-1.48.12-.61.41-1.19.84-1.64.87-.92,2.33-1.27,3.53-.91.24.07.32-.28.1-.36h0Z"/>
      <path class="cls-1" d="m17.73,55.01c-1.62-.35-3.48-.19-4.69,1.07-.94.98-1.46,2.65-.54,3.8.22.27.58-.03.53-.31-.22-1.25-.06-2.4,1.01-3.22,1.03-.8,2.38-.94,3.65-.94.22,0,.28-.35.05-.4h0Z"/>
      <path class="cls-1" d="m18.22,57.56c-1.41-.66-3.05-.93-4.5-.21-1.03.51-2.24,1.74-1.87,2.99.07.24.44.32.56.07.51-1,.73-1.87,1.84-2.39,1.21-.58,2.57-.38,3.84-.16.17.03.31-.22.13-.3h0Z"/>
      <path class="cls-1" d="m17.98,61.87c.51-1.25-1.59-2.75-2.59-3.06-1.27-.4-3.35-.12-3.84,1.3-.09.26.22.44.43.33.53-.26.94-.67,1.53-.83.8-.21,1.62-.07,2.32.35.61.36,1,.88,1.41,1.44.23.31.24.4.6.54.06.02.11-.03.14-.08h0Z"/>
      <path class="cls-1" d="m16.45,65.07c1.34-1.16.02-3-1.02-3.8-.9-.69-3.41-1.84-3.85,0-.06.23.2.46.42.32.5-.32.93-.63,1.57-.49.53.11,1.02.45,1.46.76,1.08.78,1.69,1.76,1.21,3.09-.05.13.13.2.21.13h0Z"/>
      <path class="cls-1" d="m15.23,66.97c.88-1.14.13-2.94-.88-3.74-1.07-.84-3.15-1.05-4.08.12-.19.24-.03.7.34.58,1.12-.39,2.15-.84,3.26-.07,1.06.73,1.06,1.91,1.12,3.05,0,.14.16.16.24.06h0Z"/>
      <path class="cls-1" d="m13.28,70.99c1.24-1.1,1.37-3.45.35-4.73-.64-.8-2.64-1.88-3.38-.66-.09.14-.01.38.17.41.43.08.81-.1,1.25-.03.65.1,1.24.55,1.56,1.12.7,1.28.04,2.52-.14,3.81-.01.1.13.13.19.08h0Z"/>
      <path class="cls-1" d="m12.64,71.58c1.36-1.4-.01-3.46-1.26-4.39-.58-.44-1.32-.71-2.04-.49-.6.18-1.16.68-1,1.35.05.22.32.26.48.13.33-.3.57-.65,1.07-.67.6-.03,1.14.43,1.54.82.9.87,1.45,1.93,1.07,3.18-.03.08.09.15.15.08h0Z"/>
      <path class="cls-1" d="m10.51,73.75s.04.01.06.02c.15.04.3-.03.38-.16.8-1.17.61-2.85-.24-3.94-.62-.8-2.64-1.91-3.3-.57-.11.22.02.5.29.5.41,0,.78-.17,1.2-.08.56.12,1.01.54,1.3,1.02.53.9.44,1.87.13,2.82-.04.12,0,.25.09.33.03.03.05.06.09.07h0Z"/>
      <path class="cls-1" d="m10.15,74.79c.51-1.37-.31-3.25-1.63-3.85-.86-.39-3.01-.38-3.01.97,0,.16.17.32.34.26.36-.14.6-.44.97-.58.51-.19,1.13-.11,1.6.16,1.14.65,1.17,1.94,1.57,3.04.03.09.14.09.18,0h0Z"/>
      <path class="cls-1" d="m9.65,75.52c.16-1.35-1.01-2.75-2.35-2.88-.8-.08-3.07.81-2.28,1.93.1.14.24.17.4.1.3-.13.35-.39.55-.62.3-.33.77-.53,1.22-.53,1.17.02,1.63,1.15,2.01,2.05.1.24.41.2.44-.06h0Z"/>
      <path class="cls-1" d="m8.58,77.24c.67-1.04-.77-2.48-1.71-2.74-1.09-.29-2.96.26-3.07,1.56-.02.24.28.39.48.27.79-.49,1.27-1.29,2.37-1.02.46.11.87.39,1.16.76.29.36.36.81.63,1.16.04.05.1.05.13,0h0Z"/>
      <path class="cls-1" d="m7.48,79.58c.51-1.34.06-3.12-1.37-3.7-.6-.24-1.31-.26-1.91,0-.49.21-1.1.67-.91,1.26.05.15.21.25.37.21.36-.1.53-.42.86-.58.4-.2.9-.22,1.32-.06,1.12.43,1.4,1.81,1.5,2.86,0,.09.12.1.15.02h0Z"/>
      <path class="cls-1" d="m7.2,81.12c.52-1.47-.19-3.35-1.77-3.81-1.04-.3-3.46.35-3.03,1.84.05.18.3.31.47.19.34-.24.5-.62.85-.86.42-.29.98-.41,1.48-.28,1.23.31,1.6,1.74,1.5,2.85-.03.31.42.33.51.07h0Z"/>
      <path class="cls-1" d="m6.38,82.75c.55-1.47-.36-3.16-1.92-3.47-1.33-.27-3.44.81-3.26,2.38.04.32.43.47.62.17.61-.94,1.18-1.96,2.53-1.72,1.18.21,1.89,1.5,1.82,2.62,0,.12.16.13.2.03h0Z"/>
      <path class="cls-1" d="m6.62,82.91c-.68-1.38-2.26-2.07-3.74-1.55-1.16.41-2.56,1.95-1.96,3.24.1.22.41.18.52,0,.57-.9.61-1.87,1.75-2.34,1.11-.46,2.36.02,3.14.87.14.16.37-.04.28-.22h0Z"/>
      <path class="cls-1" d="m6.55,83.65c-.76-1.26-2.81-.76-3.83-.12-1.29.81-2.34,2.62-1.82,4.16.12.34.73.43.79,0,.16-1.13.21-2.2,1.11-3.03.81-.75,2.44-1.35,3.48-.73.17.1.37-.1.27-.27h0Z"/>
      <path class="cls-1" d="m6.23,85.51c-2.29-3.08-6.38.98-5.92,3.82.05.33.56.37.7.09.55-1.05.63-2.26,1.51-3.16.93-.94,2.3-1.16,3.45-.49.16.09.38-.1.26-.26h0Z"/>
      <path class="cls-1" d="m7,86.87c-1.32-.66-2.84-1.03-4.2-.26-1.05.6-1.97,2.1-1.6,3.31.08.26.4.28.55.07.61-.86.5-1.96,1.53-2.58,1.06-.64,2.41-.4,3.53-.07.28.08.47-.34.2-.48h0Z"/>
      <path class="cls-1" d="m6.84,87.84c-2.82.15-5.66,3.22-4.13,6.09.16.31.69.17.67-.18-.08-1.27-.19-2.41.53-3.54.66-1.04,1.81-1.65,3-1.83.3-.05.23-.55-.07-.53h0Z"/>
      <path class="cls-1" d="m8.2,90.75c-1.23-.6-2.73-.48-3.75.48-.96.9-1.45,2.67-.66,3.81.17.25.67.19.63-.17-.1-1.07-.19-2.06.58-2.93.75-.86,1.97-1.13,3.04-.82.21.06.37-.27.16-.37h0Z"/>
      <path class="cls-1" d="m8.61,91.73c-1.32.47-3.01,1.05-3.59,2.46-.53,1.29-.08,3.03.84,4.02.24.26.73,0,.61-.35-.43-1.23-1.14-2.45-.38-3.7.57-.93,1.76-1.5,2.69-2.03.21-.12.07-.48-.17-.39h0Z"/>
      <path class="cls-1" d="m10.85,93.97c-1.33-.68-2.89.09-3.88,1.06-.99.97-1.44,2.9-.37,4,.11.11.33.07.37-.1.23-1.07-.43-2.07.36-3.06.62-.78,2.27-2.03,3.31-1.53.25.12.47-.25.22-.37h0Z"/>
      <path class="cls-1" d="m12.39,95.13c-3.25-1.84-6.21,2.65-4.58,5.5.18.31.64.16.65-.18.04-1.31-.33-2.49.43-3.71.66-1.08,2.13-1.74,3.34-1.25.21.09.35-.26.16-.37h0Z"/>
      <path class="cls-1" d="m14.46,95.79c-4.7-2.08-6.81,6.11-2.32,7.48.34.11.51-.31.32-.55-.99-1.24-2.14-2.25-1.76-4.02.37-1.72,1.96-2.69,3.67-2.58.17.01.25-.25.09-.33h0Z"/>
      <path class="cls-1" d="m16.06,96.25c-1.82-.45-3.35,1.46-3.82,3.03-.55,1.84.05,4.06,1.78,5.03.29.16.57-.21.35-.45-1.05-1.18-1.62-2.51-1.2-4.09.36-1.38,1.41-2.85,2.88-3.12.2-.04.19-.34,0-.39h0Z"/>
      <path class="cls-1" d="m18.76,96.74c-2.03-.03-3.81,1.18-4.47,3.12-.55,1.62-.64,4.38,1.44,4.9.27.07.47-.27.27-.47-2.53-2.54-.23-6.46,2.83-7.08.27-.05.2-.47-.06-.47h0Z"/>
      <path class="cls-1" d="m20.25,97.48c-1.83-.72-3.43,2.08-3.55,3.6-.14,1.75,1.52,3.64,3.3,3.63.38,0,.44-.46.18-.66-.98-.74-2.19-1.02-2.43-2.43-.22-1.32,1.04-3.64,2.46-3.83.17-.02.21-.24.04-.31h0Z"/>
      <path class="cls-1" d="m22.89,97.91c-5.42-.85-3.55,9.65.66,7.41.27-.14.17-.51-.08-.6-.62-.23-1.5-.07-2.01-.54-.51-.47-.66-1.32-.77-1.98-.31-1.82.2-3.67,2.2-4.13.08-.02.08-.15,0-.16h0Z"/>
      <path class="cls-1" d="m25.8,98.29c-.2-.74-1.34-.44-1.86-.22-1.22.51-2.04,1.69-2.23,2.98-.22,1.48.29,3.07,1.43,4.07.92.81,2.44,1.28,3.49.5.27-.2.18-.59-.17-.62-.82-.07-1.58.05-2.32-.43-.87-.56-1.37-1.6-1.43-2.6-.06-.9.22-1.81.82-2.49.2-.23,1.65-1.48,1.96-1.05.11.15.36.07.31-.13h0Z"/>
      <path class="cls-1" d="m27.6,97.61c-2.23-.15-4.11,2.21-3.45,4.32.61,1.96,3.13,3.93,5.08,2.42.27-.21.04-.69-.28-.67-.76.06-1.43.2-2.16-.1-.82-.34-1.4-1.08-1.67-1.91-.51-1.58,1.01-3.35,2.51-3.8.14-.04.11-.24-.03-.25h0Z"/>
      <path class="cls-1" d="m29.05,96.83c-1.75,1.32-2.53,3.53-1.3,5.52.75,1.22,3.66,3.2,4.63,1.16.17-.36-.18-.74-.55-.55-1.5.77-3.04-.34-3.56-1.82-.48-1.37-.01-2.98,1.08-3.92.21-.18-.07-.56-.3-.39h0Z"/>
      <path class="cls-1" d="m30.62,96.44c-1.66,1.28-2.23,3.47-.93,5.24.93,1.27,4.25,2.91,5.09.8.14-.36-.33-.66-.63-.48-1.24.73-3.11-.14-3.8-1.3-.74-1.27-.43-2.81.61-3.8.23-.22-.09-.66-.35-.45h0Z"/>
      <path class="cls-1" d="m32.69,95.14c-1.78,1.44-2.82,3.78-.68,5.47.92.73,4.97,2.16,4.8-.19-.02-.28-.32-.5-.59-.34-.64.39-1.12.54-1.86.36-.71-.16-1.44-.46-1.95-1-1.26-1.31-.29-2.89.6-4.06.15-.2-.15-.38-.32-.24h0Z"/>
      <path class="cls-1" d="m33.55,94.27c-1.43,1.05-1.38,3.01-.21,4.28,1.08,1.15,3.96,2.36,5.26.97.24-.25.07-.69-.29-.69-.62,0-1.19.18-1.81.1-.64-.09-1.26-.32-1.81-.66-1.19-.76-1.92-2.43-.89-3.66.14-.17-.05-.47-.25-.32h0Z"/>
      <path class="cls-1" d="m35.12,93.35c-1.19,1.28-.94,3.15.48,4.17,1.02.72,3.96,1.34,4.21-.55.06-.47-.4-.76-.78-.46-.85.68-1.81.7-2.75.09-.95-.62-1.45-1.94-.77-2.95.16-.24-.2-.52-.4-.31h0Z"/>
      <path class="cls-1" d="m35.33,92.05c-.43,1.91,1.23,3.06,2.8,3.71.84.34,1.75.62,2.62.23.64-.29,1.07-.85.9-1.55-.07-.28-.41-.33-.6-.16-.44.39-.75.76-1.4.75-.49,0-.98-.19-1.43-.35-1.21-.41-2.52-1.1-2.44-2.57.01-.26-.4-.32-.46-.06h0Z"/>
      <path class="cls-1" d="m36.85,90.6c-.29,1.66,1.03,2.79,2.52,3.18,1.12.3,3.59-.19,2.88-1.86-.07-.17-.37-.2-.48-.06-.25.31-.41.7-.77.91-.5.29-1.19.16-1.7.02-1.03-.28-1.97-.96-1.95-2.13,0-.28-.45-.36-.51-.07h0Z"/>
      <path class="cls-1" d="m37.56,88.92c1.37,1.51,3.95,2.52,5.39.5.2-.29-.14-.74-.47-.61-.83.32-1.31.94-2.29.81-.85-.12-1.66-.56-2.34-1.06-.22-.16-.45.18-.28.37h0Z"/>
      <path class="cls-1" d="m38.16,87.52c.71-.03,1.42-.06,2.12.01.79.07,1.51.37,2.28.47.53.07.89-.58.38-.91-1.36-.89-3.52-.62-4.85.18-.1.06-.07.25.06.24h0Z"/>
      <path class="cls-1" d="m38.22,85.49c.79-.24,1.62-.33,2.45-.18.73.13,1.31.54,2.01.77.34.11.73-.34.5-.65-1.14-1.52-3.72-1.36-5.14-.38-.22.15-.09.53.19.44h0Z"/>
      <path class="cls-1" d="m38.26,82.49c1.02-.22,1.98-.36,3.02-.13.72.16,1.34.68,2.08.58.15-.02.24-.22.2-.36-.26-.88-1.5-1.12-2.3-1.23-1.1-.15-2.27.02-3.21.64-.26.17-.1.56.21.5h0Z"/>
      <path class="cls-1" d="m38.17,79.48c1.01,0,2-.12,3.01.04.95.15,1.38.54,2.07,1.15.2.18.62.14.68-.18.17-1.04-.84-1.63-1.73-1.88-1.33-.36-2.94-.25-4.12.5-.16.1-.1.37.1.37h0Z"/>
      <path class="cls-1" d="m38.77,77.97c.32-.84,1.89-1.83,2.8-1.83.94,0,1.51.87,2.38,1.01.2.03.41-.12.34-.34-.35-1.21-2.03-1.93-3.21-1.64-1.13.28-2.54,1.53-2.73,2.69-.04.27.32.38.42.11h0Z"/>
      <path class="cls-1" d="m38.49,76.02c.43-1.02,1.43-2,2.51-2.31.43-.12.91-.12,1.33.04.4.15.59.39,1.02.42.2.02.38-.19.38-.38-.03-1.34-2.07-1.45-3.01-1.14-1.41.47-2.4,1.83-2.74,3.22-.09.35.39.46.52.14h0Z"/>
      <path class="cls-1" d="m39.49,71.63c.66-.6,1.67-1.02,2.57-.86.84.14,1.37.68,1.89,1.32.4.49,1.07-.14.83-.64-1.09-2.3-4.47-2.22-5.52,0-.07.15.11.3.24.18h0Z"/>
      <path class="cls-1" d="m42.13,67.4c.95-.21,1.87.24,2.45.99.48.61.5,1.42.93,2.02.19.26.64.27.73-.1.23-.97-.58-2.24-1.3-2.86-.83-.71-1.94-.92-2.94-.5-.27.11-.18.51.12.44h0Z"/>
      <path class="cls-1" d="m63.08,22.97c2.98-1.09,6.12-1.44,9.26-1.71,3.37-.28,6.75-.48,10.13-.62,8.21-.34,16.76-.65,24.57,2.32,1.21.46,1.73-1.48.53-1.93-7.96-3.03-16.73-2.73-25.1-2.39-3.48.14-6.96.35-10.43.65-3.21.27-6.45.64-9.5,1.75-1.2.44-.68,2.37.53,1.93h0Z"/>
      <path class="cls-1" d="m110.61,24.86c1.97,1.59,3.65,3,4.47,5.46.56,1.7.74,3.49,1.21,5.21,1.14,4.16,4.66,6.01,8.63,6.96,8.04,1.93,18.84.87,23.62-6.8,4.85-7.8.38-19.01-5.5-24.98-3.72-3.78-9.21-5.62-14.25-6.81-5.8-1.38-11.81-2.06-17.73-2.66C98.25-.05,85.33-.32,72.47.36c-6.46.34-12.9.94-19.3,1.82-4.68.64-9.27,1.25-13.65,3.13-6.59,2.84-12.17,7.88-15.43,14.3-2.44,4.82-3.94,10.95-2.02,16.21.8,2.18,2.18,4.11,4.19,5.33,2.62,1.6,5.96,1.65,8.91,1.95,4.01.4,8.58-.1,12.43-1.21,2.12-.61,4.27-1.56,5.81-3.19,1.81-1.92,2.85-4.4,3.71-6.85.9-2.55,1.68-5.14,3.63-7.12.91-.92-.51-2.33-1.42-1.42-3.55,3.58-3.68,8.91-6.51,12.92-2.77,3.91-8.26,4.51-12.68,4.8-3.36.22-6.63.04-9.96-.54-2.02-.35-3.85-1.38-5.06-3.06-2.81-3.9-2.14-9.47-.66-13.74,2.07-6,6.38-11.18,11.74-14.54,3.2-2,6.75-3.33,10.46-4.04,5.46-1.05,11.08-1.62,16.62-2.14,11.96-1.11,24.02-1.32,36.01-.71,5.57.28,11.14.76,16.67,1.45,5.72.71,11.53,1.5,16.99,3.4,4.64,1.62,8.43,3.95,11.21,8.05,2.51,3.7,4.3,8.18,4.39,12.69.08,4.44-1.92,8.4-5.74,10.75-3.6,2.22-8.01,2.86-12.17,2.67-3.63-.16-9.04-.8-11.37-3.95-.95-1.28-1.21-2.9-1.51-4.42-.33-1.71-.73-3.38-1.5-4.96-.93-1.93-2.61-3.21-4.25-4.53-.99-.8-2.42.61-1.42,1.42h0Z"/>
      <path class="cls-1" d="m58.9,28.72c1.12.36,2.24.56,3.28,1.16.85.5,1.58,1.16,2.36,1.77,1.74,1.35,3.84,2.17,5.97,2.68,5.12,1.21,10.64.91,15.86.88,2.88-.02,5.75-.07,8.63-.19,1.94-.08,3.97-.15,5.83-.73,4.01-1.25,6.63-5.46,10.98-5.78.86-.06.88-1.39,0-1.36-4.32.17-6.68,3.82-10.33,5.54-1.99.94-4.32.91-6.48.95-2.88.06-5.75.12-8.63.14-5.38.04-11.2.45-16.44-1.04-2.31-.66-4.03-1.82-5.92-3.2-1.47-1.08-3.25-1.92-5.11-1.44-.32.08-.29.53,0,.62h0Z"/>
      <path class="cls-1" d="m60.87,22.55c1.06.41,2.14.56,3.14,1.17.72.44,1.34,1,2,1.52,1.47,1.15,3.2,1.89,4.99,2.37,4.65,1.26,9.7.99,14.47.97,2.53,0,5.06-.03,7.58-.13,2.08-.08,4.25-.09,6.28-.63,3.8-1.01,6.21-4.87,10.23-5.18.86-.07.88-1.39,0-1.36-4.1.16-6.22,3.69-9.8,5.08-2.07.8-4.53.65-6.71.69-2.53.04-5.05.1-7.58.11-4.93.02-10.29.4-15.03-1.17-1.9-.63-3.32-1.69-4.92-2.83-1.31-.93-3.02-1.76-4.65-1.23-.32.1-.29.51,0,.62h0Z"/>
      <path class="cls-1" d="m111.93,27.54c-.71,2.95-.97,6.58,1.16,9.04,1.92,2.22,6.2,2.43,6.86,5.63.46,2.24.55,4.63.78,6.91.22,2.18.42,4.35.61,6.53.37,4.35.66,8.7.93,13.06.52,8.36.94,16.73,1.42,25.09.22,3.87.58,7.75.67,11.62.03,1.32.04,2.63,0,3.95-.03,1.21.02,2.59-.41,3.74-.92,2.44-4.08,3.2-6.38,3.54-1.46.22-3.45.47-4.83.32-.58-.06-.57.84,0,.9-.12-.01-.05,0,.15.05.3.07.61.14.91.18.9.11,1.84.09,2.75.06,2.28-.07,4.72-.43,6.67-1.68,2.05-1.31,2.71-3.23,2.88-5.55.21-2.89.13-5.81-.04-8.7-1.08-18.19-1.66-36.39-3.76-54.5-.25-2.19-.18-4.88-1.05-6.93-.64-1.51-2.04-2.38-3.46-3.08-1.71-.84-3.52-1.57-4.38-3.4-.95-2.02-.68-4.5-.66-6.67,0-.46-.7-.57-.81-.11h0Z"/>
      <path class="cls-1" d="m58.62,28.27c-.33.92-.26,1.74-.14,2.7.2,1.63-.1,2.9-1.25,4.11-1.6,1.67-3.87,2.41-5.7,3.76-3.14,2.33-3.24,5.98-3.57,9.55-.55,6.01-1.19,12.01-1.83,18.02-.69,6.59-1.37,13.18-2,19.77-.39,4.06-.6,8.11-.89,12.17-.25,3.54-.42,7.15-.21,10.7.22,3.72.69,7.87,4.97,8.71,2.92.57,6.22.28,9.18.3,11.03.07,22.06.11,33.09.16,5.47.02,10.95.04,16.42.03,3.4,0,6.83.08,10.22-.13.34-.02.86-.06,1-.06.84.03.84-1.28,0-1.3-2.22-.07-5.13-.26-7.59-.33-4.95-.14-9.91-.13-14.87-.16-11.27-.05-22.55-.1-33.82-.17-3.36-.02-6.72-.04-10.08-.08-2.21-.02-5.02.16-5.87-2.31-1.34-3.88-.87-8.33-.78-12.35.23-10.12,1.49-20.21,2.45-30.28.6-6.34,1.2-12.68,1.77-19.02.24-2.75.21-5.72.85-8.4,1.15-4.85,6.9-5.01,9.15-9.01.36-.64.58-1.35.61-2.08.04-1.39-.66-2.7-.38-4.09.09-.47-.55-.64-.71-.2h0Z"/>
      <path class="cls-1" d="m107.35,76.69c1.76,1.32,3.88,1.37,5.11-.71,1.03-1.75.15-3.72-1.62-4.59-1.03-.51-2.17-.14-3.23.08-.93.2-1.26-.11-2.04-.64-.68-.46-1.39-.85-2.07-1.3-.8-.53-1.77-1.75-2.8-1.7-.8.04-.97.77-1.22,1.41-.26.64.81,1.09,1.12.47.31-.61.18-.83.82-.4.79.53,1.56,1.1,2.3,1.7.83.67,1.94,1.89,3.02,2.04.56.08,1.18-.28,1.71-.41.85-.22,1.87-.35,2.67.08,1.19.63.84,2.09-.07,2.96-.98.92-2.03.46-2.96-.26-.75-.57-1.49.71-.74,1.27h0Z"/>
      <path class="cls-1" d="m99.51,69.41c.45,1.4,2.2,2.79,3.29,3.67,1.45,1.19,2.98,2.28,4.43,3.47.79.64,1.69-.51.86-1.11-1.35-.97-2.72-1.9-4.05-2.88-1.2-.89-3.5-1.9-4.15-3.31-.1-.21-.44-.06-.37.16h0Z"/>
      <path class="cls-1" d="m107.47,76.41c-2.54,3.94-5.82,6.89-9.92,9.17-4.25,2.36-8.62,3.29-13.46,3.07-4.59-.21-9.14-1.33-13-3.88-3.62-2.39-6.55-5.81-8.36-9.75-3.49-7.61-1.67-17.53,4.71-23.1,7.1-6.21,18.15-8.06,26.99-4.87,4.78,1.72,9.48,5.13,11.99,9.63,2.51,4.51,3.12,9.69,2.43,14.75-.11.83,1.13,1.22,1.29.36.86-4.59.29-9.49-1.56-13.77-1.99-4.62-5.31-8.22-9.73-10.63-4.31-2.35-9.29-3.41-14.18-3.3-5.01.11-10.54,1.32-14.88,3.91-4.18,2.49-7.39,5.9-9.22,10.44-1.73,4.28-2.23,9.21-1.16,13.72,2.27,9.53,10.79,16.73,20.3,18.26,5.73.92,11.34.28,16.63-2.17,5.17-2.39,9.71-6.01,12.44-11.06.46-.86-.78-1.57-1.3-.76h0Z"/>
      <path class="cls-1" d="m91.18,71.74c-3.91,2.03-8.02,2.57-11.89.08-3.22-2.07-4.96-5.9-3.93-9.65,2.25-8.19,16.18-8.94,19.1-.81,1.43,4,.06,7.93-3.24,10.45-.66.51-.09,1.62.68,1.16,3.47-2.09,5.28-6.71,4.48-10.61-.93-4.53-5.12-7.62-9.53-8.26-4.84-.7-10.44.96-12.83,5.56-2.2,4.24-1.17,9.41,2.29,12.66,4.1,3.85,11.18,4.09,15.63.73.76-.57.12-1.76-.76-1.3Z"/>
      <path class="cls-1" d="m87.51,46.72c-2.64-1.18-4.9,1.63-4.07,4.17.87,2.65,4.58,3.49,6.4,1.29,1.73-2.09.71-5.65-2.06-6.12-1.15-.19-2.55-.11-3.36.81-.56.63-1.37,1.76-.88,2.61.14.24.47.27.66.09.75-.7.85-1.88,1.97-2.11,1.76-.37,4.15,1.11,2.96,3.09-.83,1.37-2.98,1.85-3.96.35-1.15-1.74.45-3.56,2.25-3.8.17-.02.31-.28.1-.38h0Z"/>
      <path class="cls-1" d="m95.3,49.14c-2.64-1.18-4.9,1.63-4.07,4.17.87,2.65,4.58,3.49,6.4,1.29,1.73-2.09.71-5.65-2.06-6.12-1.15-.19-2.55-.11-3.36.81-.56.63-1.37,1.76-.88,2.61.14.24.47.27.66.09.75-.7.85-1.88,1.97-2.11,1.76-.37,4.15,1.11,2.96,3.09-.83,1.37-2.98,1.85-3.96.35-1.15-1.74.45-3.56,2.25-3.8.17-.02.31-.28.1-.38h0Z"/>
      <path class="cls-1" d="m101.75,54.51c-2.64-1.18-4.9,1.63-4.07,4.17.87,2.65,4.58,3.49,6.4,1.29,1.73-2.09.71-5.65-2.06-6.12-1.15-.19-2.55-.11-3.36.81-.56.63-1.37,1.76-.88,2.61.14.24.47.27.66.09.75-.7.85-1.88,1.97-2.11,1.76-.37,4.15,1.11,2.96,3.09-.83,1.37-2.98,1.85-3.96.35-1.15-1.74.45-3.56,2.25-3.8.17-.02.31-.28.1-.38h0Z"/>
      <path class="cls-1" d="m79.45,47.53c-2.64-1.18-4.9,1.63-4.07,4.17.87,2.65,4.58,3.49,6.4,1.29,1.73-2.09.71-5.65-2.06-6.12-1.15-.19-2.55-.11-3.36.81-.56.63-1.37,1.76-.88,2.61.14.24.47.27.66.09.75-.7.85-1.88,1.97-2.11,1.76-.37,4.15,1.11,2.96,3.09-.83,1.37-2.98,1.85-3.96.35-1.15-1.74.45-3.56,2.25-3.8.17-.02.31-.28.1-.38h0Z"/>
      <path class="cls-1" d="m72.2,51.56c-2.64-1.18-4.9,1.63-4.07,4.17.87,2.65,4.58,3.49,6.4,1.29,1.73-2.09.71-5.65-2.06-6.12-1.15-.19-2.55-.11-3.36.81-.56.63-1.37,1.76-.88,2.61.14.24.47.27.66.09.75-.7.85-1.88,1.97-2.11,1.76-.37,4.15,1.11,2.96,3.09-.83,1.37-2.98,1.85-3.96.35-1.15-1.74.45-3.56,2.25-3.8.17-.02.31-.28.1-.38h0Z"/>
      <path class="cls-1" d="m67.1,57.74c-2.64-1.18-4.9,1.63-4.07,4.17.87,2.65,4.58,3.49,6.4,1.29,1.73-2.09.71-5.65-2.06-6.12-1.15-.19-2.55-.11-3.36.81-.56.63-1.37,1.76-.88,2.61.14.24.47.27.66.09.75-.7.85-1.88,1.97-2.11,1.76-.37,4.15,1.11,2.96,3.09-.83,1.37-2.98,1.85-3.96.35-1.15-1.74.45-3.56,2.25-3.8.17-.02.31-.28.1-.38h0Z"/>
      <path class="cls-1" d="m66.03,65.52c-2.64-1.18-4.9,1.63-4.07,4.17.87,2.65,4.58,3.49,6.4,1.29,1.73-2.09.71-5.65-2.06-6.12-1.15-.19-2.55-.11-3.36.81-.56.63-1.37,1.76-.88,2.61.14.24.47.27.66.09.75-.7.85-1.88,1.97-2.11,1.76-.37,4.15,1.11,2.96,3.09-.83,1.37-2.98,1.85-3.96.35-1.15-1.74.45-3.56,2.25-3.8.17-.02.31-.28.1-.38h0Z"/>
      <path class="cls-1" d="m69.52,73.04c-2.64-1.18-4.9,1.63-4.07,4.17.87,2.65,4.58,3.49,6.4,1.29,1.73-2.09.71-5.65-2.06-6.12-1.15-.19-2.55-.11-3.36.81-.56.63-1.37,1.76-.88,2.61.14.24.47.27.66.09.75-.7.85-1.88,1.97-2.11,1.76-.37,4.15,1.11,2.96,3.09-.83,1.37-2.98,1.85-3.96.35-1.15-1.74.45-3.56,2.25-3.8.17-.02.31-.28.1-.38h0Z"/>
      <path class="cls-1" d="m75.43,78.95c-2.64-1.18-4.9,1.63-4.07,4.17.87,2.65,4.58,3.49,6.4,1.29,1.73-2.09.71-5.65-2.06-6.12-1.15-.19-2.55-.11-3.36.81-.56.63-1.37,1.76-.88,2.61.14.24.47.27.66.09.75-.7.85-1.88,1.97-2.11,1.76-.37,4.15,1.11,2.96,3.09-.83,1.37-2.98,1.85-3.96.35-1.15-1.74.45-3.56,2.25-3.8.17-.02.31-.28.1-.38h0Z"/>
      <path class="cls-1" d="m91.54,80.57c-2.64-1.18-4.9,1.63-4.07,4.17.87,2.65,4.58,3.49,6.4,1.29,1.73-2.09.71-5.65-2.06-6.12-1.15-.19-2.55-.11-3.36.81-.56.63-1.37,1.76-.88,2.61.14.24.47.27.66.09.75-.7.85-1.88,1.97-2.11,1.76-.37,4.15,1.11,2.96,3.09-.83,1.37-2.98,1.85-3.96.35-1.15-1.74.45-3.56,2.25-3.8.17-.02.31-.28.1-.38h0Z"/>
      <path class="cls-1" d="m98.79,76.81c-2.64-1.18-4.9,1.63-4.07,4.17.87,2.65,4.58,3.49,6.4,1.29,1.73-2.09.71-5.65-2.06-6.12-1.15-.19-2.55-.11-3.36.81-.56.63-1.37,1.76-.88,2.61.14.24.47.27.66.09.75-.7.85-1.88,1.97-2.11,1.76-.37,4.15,1.11,2.96,3.09-.83,1.37-2.98,1.85-3.96.35-1.15-1.74.45-3.56,2.25-3.8.17-.02.31-.28.1-.38h0Z"/>
      <path class="cls-1" d="m83.21,81.37c-2.64-1.18-4.9,1.63-4.07,4.17.87,2.65,4.58,3.49,6.4,1.29,1.73-2.09.71-5.65-2.06-6.12-1.15-.19-2.55-.11-3.36.81-.56.63-1.37,1.76-.88,2.61.14.24.47.27.66.09.75-.7.85-1.88,1.97-2.11,1.76-.37,4.15,1.11,2.96,3.09-.83,1.37-2.98,1.85-3.96.35-1.15-1.74.45-3.56,2.25-3.8.17-.02.31-.28.1-.38h0Z"/>
      <path class="cls-1" d="m59.36,28.96c.56-1.16.89-2.39,1.29-3.62.28-.86,1.27-2.49.92-3.36-.07-.18-.25-.32-.45-.26-.94.31-1.16,1.9-1.41,2.73-.42,1.38-.81,2.76-1.13,4.17-.1.45.57.79.79.33h0Z"/>
      <path class="cls-1" d="m112.81,27.59c-.34-1.09-.67-2.15-1.11-3.2-.39-.92-.75-2.16-1.54-2.81-.44-.36-1.16-.03-1,.58.26.99.89,1.92,1.31,2.85.45,1.02.92,2,1.54,2.92.27.4.96.16.81-.34h0Z"/>
      <path class="cls-1" d="m78.15,34.73c.24-.94.24-1.8,1.37-2.19.48-.17,1.26-.04,1.76-.05,1.27-.03,2.54-.05,3.81-.07,1.27-.03,2.54-.06,3.81-.07,1.38-.01,3.39-.36,3.4,1.56,0,.96,1.39.93,1.47,0,.12-1.43-.35-2.74-1.91-2.98-2.26-.34-4.78-.13-7.07-.1-1.17.02-2.35.06-3.52.1-.91.03-2.21-.13-3.05.34-1.4.78-1.24,2.4-.42,3.5.09.12.29.12.34-.04h0Z"/>
      <path class="cls-1" d="m21.74,28.08c-1.02-.11-2.97-.3-3.21,1.07-.11.65.13,1.48.22,2.13.13.91.29,1.81.47,2.7.05.23.29.49.52.52.77.11,1.48.17,2.22-.06.98-.3.56-1.65-.42-1.51-.55.08-1.05.15-1.61.09.24.18.48.37.72.55-.24-1.08-.46-2.17-.63-3.27-.03-.22-.15-.56-.06-.77.12-.28.26-.25.58-.34.47-.13.91-.27,1.35-.47.36-.16.13-.63-.18-.67h0Z"/>
      <path class="cls-1" d="m19.23,30.25c-4.12,1.57-7.55,5.09-9.65,8.91-1.06,1.93-2.09,4.22-1.85,6.48.2,1.87,1.34,3.33,2.77,4.47,1.55,1.23,3.4,2.1,4.83,3.5,1.66,1.63,2.26,3.91,2.18,6.18-.19,5.16-3.76,9.26-6.72,13.18-2.9,3.83-5.73,8.39-5.22,13.41.43,4.2,3.26,7.43,6.92,9.31,6.66,3.42,17.89,4.38,23.27-1.87,3.54-4.12,3.21-9.78,3.15-14.86-.06-5.18,1.04-12.8,7.73-13,1.09-.03,1.44-1.78.27-1.98-4.06-.72-7.54,2.21-9.15,5.76-1.99,4.39-1.12,9.36-1.23,14.01-.11,4.55-1.5,8.97-5.97,10.91-3.65,1.59-8.08,1.48-11.91.67-3.76-.8-7.86-2.53-9.8-6.07-2.45-4.46-.15-9.61,2.45-13.43,2.6-3.82,5.93-7.26,7.45-11.7,1.22-3.57,1.24-7.94-1.17-11.04-2.63-3.37-9.22-4.52-7.63-9.94,1.52-5.17,5.49-8.83,9.76-11.81.52-.36.22-1.37-.47-1.11h0Z"/>
      <path class="cls-1" d="m19.23,29.36c-4.57.44-8.07,2.97-10.64,6.67-.8,1.16-1.39,2.52-2.27,3.61-.43.53-1.01.92-1.46,1.44-.98,1.13-1.45,2.36-1.64,3.84-.36,2.75.75,5.44,2.46,7.56,1.72,2.13,4.54,3.76,5.58,6.42.54,1.36-.46,2.85-1.16,3.96-.76,1.19-1.6,2.32-2.36,3.51-1.82,2.83-3.71,5.64-5.09,8.72-2.67,5.93-3.73,13-1.2,19.16,2.06,5.01,6.37,8.63,11.31,10.63,10.31,4.19,24.78,1.23,29.41-9.84,1.64-3.91,1.48-8.43,1.82-12.6.19-2.35.38-4.73.84-7.04.19-.93.56-3.54,1.54-3.91,1.33-.51.75-2.68-.6-2.16-2.66,1.02-3,5-3.33,7.4-.54,4.01-.64,8.07-.98,12.1-.37,4.33-1.83,8.09-5.19,11.04-4.44,3.89-10.41,4.98-16.17,4.42-5.33-.51-10.71-2.85-14.21-6.99-4.22-5.01-4.38-12.01-2.52-18.03,1.81-5.83,5.62-10.59,8.65-15.79,1.1-1.89,1.82-3.98.6-5.99-1.39-2.28-3.44-3.84-5.19-5.78-2.36-2.61-3.63-6.86-.99-9.73.98-1.07,1.7-1.96,2.42-3.24,2.44-4.31,5.74-7.25,10.41-9.04.17-.06.17-.36-.05-.34h0Z"/>
    </g>
  </g>
</svg>