<?xml version="1.0" encoding="UTF-8"?>
<svg id="Capa_2" data-name="Capa 2" xmlns="http://www.w3.org/2000/svg" viewBox="0 0 66.12 66.12">
  <defs>
    <style>
      .cls-1 {
        fill: #fab800;
      }
    </style>
  </defs>
  <g id="inicio">
    <g id="Page-1">
      <g id="_001---Tractor" data-name="001---Tractor">
        <path id="Shape" class="cls-1" d="m14.33,25.35c-5.48,0-9.92,4.44-9.92,9.92s4.44,9.92,9.92,9.92,9.92-4.44,9.92-9.92c0-5.47-4.44-9.91-9.92-9.92Zm0,17.63c-4.26,0-7.71-3.45-7.71-7.71s3.45-7.71,7.71-7.71,7.71,3.45,7.71,7.71c0,4.26-3.46,7.71-7.71,7.71Z"/>
        <path id="Shape-2" data-name="Shape" class="cls-1" d="m14.33,31.96c-1.83,0-3.31,1.48-3.31,3.31s1.48,3.31,3.31,3.31,3.31-1.48,3.31-3.31-1.48-3.31-3.31-3.31Zm0,4.41c-.61,0-1.1-.49-1.1-1.1s.49-1.1,1.1-1.1,1.1.49,1.1,1.1-.49,1.1-1.1,1.1Z"/>
        <path id="Shape-3" data-name="Shape" class="cls-1" d="m55.1,31.96c-3.65,0-6.61,2.96-6.61,6.61s2.96,6.61,6.61,6.61,6.61-2.96,6.61-6.61c0-3.65-2.96-6.61-6.61-6.61Zm0,11.02c-2.43,0-4.41-1.97-4.41-4.41s1.97-4.41,4.41-4.41,4.41,1.97,4.41,4.41-1.97,4.41-4.41,4.41Z"/>
        <circle id="Oval" class="cls-1" cx="55.1" cy="38.57" r="1.1"/>
        <path id="Shape-4" data-name="Shape" class="cls-1" d="m42.98,24.24h1.1c.61,0,1.1-.49,1.1-1.1s-.49-1.1-1.1-1.1h-1.1c-.61,0-1.1.49-1.1,1.1s.49,1.1,1.1,1.1Z"/>
        <path id="Shape-5" data-name="Shape" class="cls-1" d="m29.75,14.33c.24,0,.47-.08.66-.22l4.41-3.31c.31-.24.48-.62.43-1.01-.05-.39-.3-.73-.66-.88-.36-.15-.78-.1-1.09.13l-4.41,3.31c-.38.28-.53.78-.38,1.23s.57.75,1.05.75Z"/>
        <path id="Shape-6" data-name="Shape" class="cls-1" d="m29.75,20.94c.24,0,.47-.08.66-.22l4.41-3.31c.31-.24.48-.62.43-1.01-.05-.39-.3-.73-.66-.88-.36-.15-.78-.1-1.09.13l-4.41,3.31c-.38.28-.53.78-.38,1.23s.57.75,1.05.75h0Z"/>
        <path id="Shape-7" data-name="Shape" class="cls-1" d="m21.72,10.24c-.43-.43-1.13-.43-1.56,0l-2.2,2.2c-.29.28-.4.69-.3,1.07.1.39.4.69.79.79s.8-.01,1.07-.3l2.2-2.2c.43-.43.43-1.13,0-1.56Z"/>
        <path id="Shape-8" data-name="Shape" class="cls-1" d="m0,48.49c0,.61.49,1.1,1.1,1.1h12.7l-6.01,15.02c-.11.27-.1.57.01.84s.33.48.6.59c.13.05.27.08.41.08.45,0,.86-.27,1.02-.69l6.33-15.84h9.17c.61,0,1.1-.49,1.1-1.1s-.49-1.1-1.1-1.1h-3.42c3.51-2.2,5.9-5.82,6.54-9.92h2.39v3.31c0,1.83,1.48,3.31,3.31,3.31h2.2c1.83,0,3.31-1.48,3.31-3.31v-2.2h4.41c0,3.47,1.65,6.74,4.44,8.82h-18.76c-.61,0-1.1.49-1.1,1.1s.49,1.1,1.1,1.1h2.2v15.43c0,.61.49,1.1,1.1,1.1s1.1-.49,1.1-1.1v-15.43h15.78l6.33,15.84c.17.42.57.69,1.02.69.14,0,.28-.03.41-.08.27-.11.49-.32.6-.59s.12-.57.01-.84l-6.01-15.02h12.7c.61,0,1.1-.49,1.1-1.1s-.49-1.1-1.1-1.1h-3.33c4.24-3.14,5.64-8.85,3.33-13.59v-12.86c0-2.43-1.97-4.41-4.41-4.41h-20.94V6.61c1.83,0,3.31-1.48,3.31-3.31s-1.48-3.31-3.31-3.31h-23.14c-1.56,0-2.9,1.1-3.22,2.62s.46,3.07,1.88,3.7l-2.57,10.29c-3.16.29-6.2,1.38-8.84,3.16-.33.22-.51.6-.48.99s.27.74.62.91c.36.17.77.14,1.1-.08.22-.15.44-.28.66-.42l1.14,1.9C2.61,25.66.02,30.25,0,35.2c-.02,4.95,2.52,9.56,6.72,12.18H1.1C.49,47.39,0,47.88,0,48.49h0Zm37.47-7.71c0,.61-.49,1.1-1.1,1.1h-2.2c-.61,0-1.1-.49-1.1-1.1v-2.2h4.41v2.2Zm17.63,6.61c-4.87,0-8.82-3.95-8.82-8.82s3.95-8.82,8.82-8.82,8.82,3.95,8.82,8.82c0,4.87-3.95,8.81-8.82,8.82Zm-1.1-23.14v3.36c-.75.07-1.49.23-2.2.45v-3.81h2.2Zm4.41,0v3.81c-.72-.23-1.46-.38-2.2-.45v-3.36h2.2Zm4.41,0v6.47c-.66-.65-1.4-1.21-2.2-1.67v-4.8h2.2Zm-2.2-5.51c1.22,0,2.2.99,2.2,2.2v1.1h-14.33c-.61,0-1.1.49-1.1,1.1s.49,1.1,1.1,1.1h1.1v4.8c-2.73,1.58-4.65,4.24-5.29,7.32h-11.24v-1.1c0-1.49-.19-2.97-.55-4.41h4.96c1.22,0,2.2-.99,2.2-2.2v-9.92h20.94Zm-23.14,9.92h-5.64c-1.12-2.96-2.97-5.59-5.38-7.65V6.61h11.02v22.04Zm-22.56-12.09l2.48-9.95h6.85v12.78c-2.8-1.76-6.03-2.74-9.33-2.84Zm1.62-14.36h23.14c.61,0,1.1.49,1.1,1.1s-.49,1.1-1.1,1.1h-23.14c-.61,0-1.1-.49-1.1-1.1s.49-1.1,1.1-1.1ZM7.65,20.15c5.11-2.26,11.02-1.79,15.7,1.26s7.51,8.26,7.5,13.85h-2.2c0-4.8-2.4-9.27-6.39-11.93-3.99-2.66-9.05-3.14-13.47-1.28l-1.14-1.91Zm-5.44,15.11c0-6.69,5.43-12.12,12.12-12.12s12.12,5.43,12.12,12.12-5.43,12.12-12.12,12.12c-6.69,0-12.11-5.43-12.12-12.12Z"/>
      </g>
    </g>
  </g>
</svg>