<?xml version="1.0" encoding="UTF-8"?>
<svg id="Capa_2" data-name="Capa 2" xmlns="http://www.w3.org/2000/svg" viewBox="0 0 79.8 66.63">
  <defs>
    <style>
      .cls-1 {
        fill: #ecaa04;
      }
    </style>
  </defs>
  <g id="Capa_1-2" data-name="Capa 1">
    <g>
      <path class="cls-1" d="m78.44,48.56c.06-.26.09-.52.09-.78,0-1.19-.55-2.32-1.48-3.06l-7.08-39.37c0-.09.01-.19.01-.28C70,2.28,67.75.01,64.97,0c-2.79-.01-5.06,2.24-5.07,5.02,0,.61.11,1.22.32,1.79l-14.46,18.69-3.07-10.4c-.59-1.95-2.38-3.29-4.42-3.3h-12.02c-2.54,0-4.61,2.06-4.61,4.61v11.45h-2.9v-4.06c0-.66-.53-1.19-1.19-1.19H5.77c-.66,0-1.19.53-1.19,1.19h0v4.06c-2.53.02-4.57,2.08-4.57,4.61v12.47c0,2.54,2.06,4.61,4.61,4.61h6.56l-1.95,2.39h-.52c-4.05,0-7.34,3.29-7.34,7.34s3.29,7.34,7.34,7.34h35.32c4.05,0,7.34-3.29,7.34-7.34s-3.29-7.34-7.34-7.34h-.53l-1.95-2.39h2.64c2.54,0,4.61-2.06,4.61-4.61v-.52l14.21-28.49,7.9,30.58c-.14.4-.21.83-.2,1.25,0,.54.12,1.07.34,1.56l-11.47,12.81c-.44.49-.4,1.25.09,1.69.09.08.2.15.31.2,2.59,1.21,5.39,1.86,8.25,1.92,3.17.1,6.25-1.09,8.52-3.3,3.36-3.41,4-8.77,1.71-14.09h0Zm-2.3-.78c0,.85-.69,1.53-1.54,1.53-.85,0-1.53-.69-1.53-1.54,0-.84.69-1.53,1.53-1.53.85,0,1.53.68,1.54,1.53,0,0,0,0,0,0ZM64.95,2.41c1.47,0,2.65,1.19,2.66,2.66-.02,1.46-1.2,2.63-2.66,2.65-1.46,0-2.65-1.19-2.65-2.65s1.19-2.65,2.65-2.65Zm-26.68,11.79c.98,0,1.85.65,2.13,1.59l5.59,18.91h-6.93l-5.54-20.5h4.75Zm-14.24,2.22c0-1.22.99-2.22,2.22-2.22h4.79c1.55,5.73,3.93,14.53,5.54,20.5h-5l-7.54-6.2v-12.08ZM6.96,25h9.39v2.87H6.96v-2.87Zm37.05,29.34c2.73,0,4.95,2.22,4.95,4.95s-2.22,4.95-4.95,4.95H8.7c-2.73,0-4.95-2.22-4.95-4.95s2.22-4.95,4.95-4.95h35.32Zm-31.71-2.39l1.95-2.39h24.2l1.95,2.39H12.3Zm34.09-11.09h-21.45c-.66,0-1.19.53-1.19,1.19s.53,1.19,1.19,1.19h21.45v1.7c0,1.22-.99,2.22-2.22,2.22H4.61c-1.22,0-2.22-.99-2.22-2.22v-12.47c0-1.22.99-2.22,2.22-2.22h17.8l7.98,6.55c.21.18.48.27.76.27h15.25v3.78Zm2.39-1.78v-3.19c0-.11-.02-.23-.05-.34l-2.14-7.21,15.05-19.46c.5.43,1.08.76,1.71.97l-14.58,29.23Zm15.83-26.39l1.34-2.69s.05-.02.08-.02c.79-.18,1.53-.54,2.15-1.06l6.28,34.94c-.59.03-1.16.18-1.68.45l-8.17-31.62Zm10.41,48.28c-2.8,2.83-7.42,3.36-12.56,1.5l10.14-11.32c1.31.77,2.95.72,4.21-.14,1.2,3.87.57,7.56-1.79,9.95h0Z"/>
      <path class="cls-1" d="m6.06,59.29c0,1.85,1.5,3.35,3.35,3.35s3.35-1.5,3.35-3.35c0-1.85-1.5-3.35-3.35-3.35h0c-1.85,0-3.35,1.5-3.35,3.35Zm4.31,0c0,.53-.43.96-.96.96s-.96-.43-.96-.96.43-.96.96-.96h0c.53,0,.96.43.96.96Z"/>
      <path class="cls-1" d="m20.71,62.65c1.85,0,3.35-1.5,3.35-3.35,0-1.85-1.5-3.35-3.35-3.35-1.85,0-3.35,1.5-3.35,3.35h0c0,1.85,1.5,3.35,3.35,3.35Zm0-4.31c.53,0,.96.43.96.96,0,.53-.43.96-.96.96s-.96-.43-.96-.96h0c0-.53.43-.96.96-.96Z"/>
      <path class="cls-1" d="m32,62.65c1.85,0,3.35-1.5,3.35-3.35,0-1.85-1.5-3.35-3.35-3.35-1.85,0-3.35,1.5-3.35,3.35h0c0,1.85,1.5,3.35,3.35,3.35Zm0-4.31c.53,0,.96.43.96.96,0,.53-.43.96-.96.96-.53,0-.96-.43-.96-.96h0c0-.53.43-.96.96-.96Z"/>
      <path class="cls-1" d="m43.3,62.65c1.85,0,3.35-1.5,3.35-3.35,0-1.85-1.5-3.35-3.35-3.35-1.85,0-3.35,1.5-3.35,3.35h0c0,1.85,1.5,3.35,3.35,3.35Zm0-4.31c.53,0,.96.43.96.96,0,.53-.43.96-.96.96-.53,0-.96-.43-.96-.96h0c0-.53.43-.96.96-.96Z"/>
    </g>
  </g>
</svg>