<?xml version="1.0" encoding="UTF-8"?>
<svg id="Capa_2" data-name="Capa 2" xmlns="http://www.w3.org/2000/svg" xmlns:xlink="http://www.w3.org/1999/xlink" viewBox="0 0 48.91 48.91">
  <defs>
    <style>
      .cls-1 {
        fill: #fdfdfd;
      }

      .cls-2, .cls-3 {
        fill: none;
      }

      .cls-3 {
        clip-path: url(#clippath-1);
      }
    </style>
    <clipPath id="clippath-1">
      <rect class="cls-2" width="48.91" height="48.91"/>
    </clipPath>
  </defs>
  <g id="inicio">
    <g id="whatsapp">
      <g class="cls-3">
        <path class="cls-1" d="m24.46,0h-.01C10.96,0,0,10.97,0,24.45,0,29.8,1.72,34.76,4.66,38.79l-3.05,9.08,9.4-3c3.87,2.56,8.48,4.04,13.45,4.04,13.48,0,24.45-10.97,24.45-24.45S37.94,0,24.46,0m14.23,34.53c-.59,1.67-2.93,3.05-4.8,3.45-1.28.27-2.95.49-8.56-1.84-7.19-2.98-11.81-10.28-12.17-10.75-.35-.47-2.9-3.87-2.9-7.38s1.78-5.22,2.5-5.95c.59-.6,1.56-.88,2.5-.88.3,0,.57.02.82.03.72.03,1.08.07,1.55,1.21.59,1.42,2.03,4.93,2.2,5.29.17.36.35.85.1,1.32-.23.49-.43.71-.79,1.12-.36.42-.7.73-1.06,1.18-.33.39-.7.8-.29,1.52.42.7,1.85,3.05,3.97,4.93,2.73,2.43,4.94,3.21,5.73,3.54.59.24,1.29.19,1.72-.27.55-.59,1.22-1.57,1.91-2.53.49-.69,1.11-.78,1.75-.53.66.23,4.15,1.96,4.87,2.31.72.36,1.19.53,1.37.83.17.3.17,1.72-.42,3.39"/>
      </g>
    </g>
  </g>
</svg>