<?xml version="1.0" encoding="UTF-8"?>
<svg id="Capa_2" data-name="Capa 2" xmlns="http://www.w3.org/2000/svg" viewBox="0 0 142.56 142.56">
  <defs>
    <style>
      .cls-1 {
        fill: none;
        stroke: #eaa804;
        stroke-linecap: round;
        stroke-linejoin: round;
        stroke-width: 3.32px;
      }
    </style>
  </defs>
  <g id="Capa_1-2" data-name="Capa 1">
    <g id="Capa_1-2" data-name="Capa 1-2">
      <g>
        <polygon class="cls-1" points="82 66.93 66.93 82 87.86 102.94 102.94 87.86 82 66.93 82 66.93"/>
        <path class="cls-1" d="m27.27,4.24L4.24,27.27c-.9.9-.9,2.38,0,3.28l53.55,53.55c.9.9,2.38.9,3.28,0l23.03-23.03c.9-.9.9-2.38,0-3.28L30.55,4.24c-.9-.9-2.38-.9-3.28,0h0Z"/>
        <path class="cls-1" d="m10.29,4.37l-5.92,5.92c-3.61,3.61-3.61,9.49,0,13.1L23.39,4.37h0c-3.61-3.61-9.47-3.61-13.1,0h0Z"/>
        <path class="cls-1" d="m18.76,48.82l-2.59,2.59c-1,1-2.63,1-3.63,0l-6.51-6.51c-1-1-1-2.63,0-3.63l2.59-2.59,10.14,10.14h0Z"/>
        <path class="cls-1" d="m46.2,76.26l-2.59,2.59c-1,1-2.63,1-3.63,0l-6.51-6.51c-1-1-1-2.63,0-3.63l2.59-2.59,10.14,10.14h0Z"/>
        <path class="cls-1" d="m66.12,36.06l2.59-2.59c1-1,2.63-1,3.63,0l6.51,6.51c1,1,1,2.63,0,3.63l-2.59,2.59-10.14-10.14h0Z"/>
        <path class="cls-1" d="m38.68,8.64l2.59-2.59c1-1,2.63-1,3.63,0l6.51,6.51c1,1,1,2.63,0,3.63l-2.59,2.59-10.14-10.14h0Z"/>
        <path class="cls-1" d="m128.71,128.71c-5.59,5.59-14.62,5.59-20.22,0-5.59-5.59-5.59-14.62,0-20.22s14.62-5.59,20.22,0,5.59,14.62,0,20.22h0Zm-25.87-25.87c-8.7,8.7-8.7,22.82,0,31.54,8.7,8.7,22.82,8.7,31.54,0,8.7-8.7,8.7-22.82,0-31.54-8.7-8.7-22.82-8.7-31.54,0h0Z"/>
        <path class="cls-1" d="m115.35,96.7l-6.91-6.91c-1.02-1.02-2.67-1.02-3.69,0h0l-14.98,14.98c-1.02,1.02-1.02,2.67,0,3.69l6.91,6.91"/>
      </g>
    </g>
  </g>
</svg>